<svg width="29" height="35" viewBox="0 0 29 35" fill="none" xmlns="http://www.w3.org/2000/svg">
<g clip-path="url(#clip0)">
<path d="M5.35165 24.0581C3.04362 24.0581 1.16602 22.1879 1.16602 19.8889C1.16602 17.59 3.04362 15.7197 5.35165 15.7197C7.65967 15.7197 9.53728 17.59 9.53728 19.8889C9.53728 22.1879 7.65967 24.0581 5.35165 24.0581ZM5.35165 17.2793C3.90445 17.2793 2.72549 18.4536 2.72549 19.8951C2.72549 21.3366 3.90445 22.511 5.35165 22.511C6.79884 22.511 7.9778 21.3366 7.9778 19.8951C7.9778 18.4474 6.79884 17.2793 5.35165 17.2793Z" fill="#BF305C"/>
<path d="M9.9245 34.9998H0.779738C0.349322 34.9998 0 34.6518 0 34.2231V26.6241C0 26.357 0.137234 26.1084 0.368036 25.9655L4.94042 23.1136C5.19617 22.9582 5.5143 22.9582 5.77006 23.1136L10.3424 25.9655C10.567 26.1084 10.7105 26.357 10.7105 26.6241V34.2231C10.7042 34.6518 10.3549 34.9998 9.9245 34.9998ZM1.55948 33.4464H9.14476V27.0529L5.35212 24.6856L1.55948 27.0529V33.4464Z" fill="#BF305C"/>
<path d="M23.6485 24.0581C21.3405 24.0581 19.4629 22.1879 19.4629 19.8889C19.4629 17.59 21.3405 15.7197 23.6485 15.7197C25.9565 15.7197 27.8342 17.59 27.8342 19.8889C27.8342 22.1879 25.9565 24.0581 23.6485 24.0581ZM23.6485 17.2793C22.2013 17.2793 21.0224 18.4536 21.0224 19.8951C21.0224 21.3366 22.2013 22.511 23.6485 22.511C25.0957 22.511 26.2747 21.3366 26.2747 19.8951C26.2747 18.4474 25.0957 17.2793 23.6485 17.2793Z" fill="#BF305C"/>
<path d="M28.2194 34.9998H19.0747C18.6442 34.9998 18.2949 34.6518 18.2949 34.2231V26.6241C18.2949 26.357 18.4322 26.1084 18.663 25.9655L23.2353 23.1136C23.4911 22.9582 23.8092 22.9582 24.065 23.1136L28.6374 25.9655C28.8619 26.1084 29.0054 26.357 29.0054 26.6241V34.2231C28.9992 34.6518 28.6498 34.9998 28.2194 34.9998ZM19.8544 33.4464H27.4397V27.0529L23.647 24.6856L19.8544 27.0529V33.4464Z" fill="#BF305C"/>
<path d="M14.504 20.2866C12.196 20.2866 10.3184 18.4164 10.3184 16.1174C10.3184 13.8185 12.196 11.9482 14.504 11.9482C16.812 11.9482 18.6896 13.8185 18.6896 16.1174C18.6896 18.4164 16.8058 20.2866 14.504 20.2866ZM14.504 13.5078C13.0568 13.5078 11.8778 14.6821 11.8778 16.1236C11.8778 17.5651 13.0568 18.7395 14.504 18.7395C15.9512 18.7395 17.1301 17.5651 17.1301 16.1236C17.1301 14.6821 15.9449 13.5078 14.504 13.5078Z" fill="#BF305C"/>
<path d="M19.0753 34.9998H9.92427C9.49385 34.9998 9.14453 34.6519 9.14453 34.2231V22.8526C9.14453 22.5855 9.28177 22.3369 9.51257 22.194L14.0849 19.3421C14.3407 19.1868 14.6588 19.1868 14.9146 19.3421L19.487 22.194C19.7115 22.3369 19.855 22.5855 19.855 22.8526V34.2169C19.855 34.6519 19.5057 34.9998 19.0753 34.9998ZM10.704 33.4465H18.2893V23.2814L14.4967 20.9141L10.704 23.2814V33.4465Z" fill="#BF305C"/>
<path d="M8.72002 11.7806C8.52041 11.7806 8.32079 11.706 8.17108 11.5569L6.91727 10.3204H3.10591C2.67549 10.3204 2.32617 9.97248 2.32617 9.54376V0.776673C2.32617 0.34795 2.67549 0 3.10591 0H11.9013C12.3318 0 12.6811 0.34795 12.6811 0.776673V9.53755C12.6811 9.96627 12.3318 10.3142 11.9013 10.3142H10.5477L9.25648 11.5569C9.11301 11.706 8.91963 11.7806 8.72002 11.7806ZM3.88565 8.76087H7.2354C7.44125 8.76087 7.63462 8.84165 7.78433 8.98455L8.72626 9.91035L9.69313 8.97834C9.8366 8.84165 10.03 8.76087 10.2358 8.76087H11.1216V1.55335H3.88565V8.76087Z" fill="#FDA63B"/>
<path d="M20.0236 12.7619C19.8302 12.7619 19.6306 12.6874 19.4809 12.5445L18.1896 11.3018H16.8422C16.4118 11.3018 16.0625 10.9538 16.0625 10.5251V3.76495C16.0625 3.33623 16.4118 2.98828 16.8422 2.98828H25.6377C26.0681 2.98828 26.4174 3.33623 26.4174 3.76495V10.5251C26.4174 10.9538 26.0681 11.3018 25.6377 11.3018H21.8326L20.5787 12.5383C20.4228 12.6874 20.2232 12.7619 20.0236 12.7619ZM17.622 9.74223H18.5078C18.7074 9.74223 18.907 9.82301 19.0505 9.9597L20.0173 10.8917L20.9592 9.96591C21.1027 9.82301 21.3023 9.74223 21.5082 9.74223H24.8579V4.54163H17.622V9.74223Z" fill="#FDA63B"/>
<path d="M9.79353 5.14514H5.22114C4.79073 5.14514 4.44141 4.79719 4.44141 4.36847C4.44141 3.93975 4.79073 3.5918 5.22114 3.5918H9.79353C10.2239 3.5918 10.5733 3.93975 10.5733 4.36847C10.5733 4.79719 10.2239 5.14514 9.79353 5.14514Z" fill="#FDA63B"/>
<path d="M9.79353 7.14514H5.22114C4.79073 7.14514 4.44141 6.79719 4.44141 6.36847C4.44141 5.93975 4.79073 5.5918 5.22114 5.5918H9.79353C10.2239 5.5918 10.5733 5.93975 10.5733 6.36847C10.5733 6.79719 10.2239 7.14514 9.79353 7.14514Z" fill="#FDA63B"/>
<path d="M23.5723 7.64221H18.9125C18.4821 7.64221 18.1328 7.29426 18.1328 6.86554C18.1328 6.43682 18.4821 6.08887 18.9125 6.08887H23.5723C24.0027 6.08887 24.352 6.43682 24.352 6.86554C24.352 7.29426 24.0027 7.64221 23.5723 7.64221Z" fill="#FDA63B"/>
</g>
<defs>
<clipPath id="clip0">
<rect width="29" height="35" fill="white"/>
</clipPath>
</defs>
</svg>
