<svg width="485" height="362" viewBox="0 0 485 362" fill="none" xmlns="http://www.w3.org/2000/svg">
<g opacity="0.8">
<path d="M0 318.086H485V318.28H0V318.086Z" fill="#EBEBEB"/>
<path d="M42.1951 194.602C51.9921 190.424 68.2881 194.505 81.8681 210.827C88.0761 218.405 94.0901 229.48 95.7391 240.848C95.6421 227.829 95.5451 213.936 95.3511 200.723C93.3141 192.076 91.3741 188.19 88.3671 182.166C78.4731 162.249 70.2281 164.387 56.8421 148.842C34.4351 122.901 21.6311 73.9351 43.9411 93.4633C64.1171 111.146 73.9141 128.828 80.7041 144.178C89.9191 164.969 93.6051 179.446 95.3511 193.922C95.2541 181.583 95.0601 170.216 94.9631 161.472C94.5751 132.908 93.7991 123.776 93.7021 120.861C93.3141 113.963 91.0831 109.98 90.5011 109.008C85.1661 100.653 76.8241 95.2121 68.6761 85.6909C49.6641 63.5395 38.7031 36.1418 47.8211 33.5186C57.4241 30.8954 69.9371 42.9426 84.0021 71.3119C92.0531 87.5368 94.0901 91.423 95.6421 123.29C95.7391 126.107 96.4181 136.503 96.7091 150.979C98.9401 135.337 103.305 119.889 110.774 109.591C125.227 89.7714 136.188 87.9255 144.239 89.7714C152.29 91.6173 148.895 112.506 139.874 123.581C126.294 140.292 103.596 136.794 96.9031 159.043C97.1941 178.668 97.4851 203.637 97.5821 226.76C99.9101 214.81 102.238 204.803 107.476 195.476C117.273 178.085 129.301 170.41 137.546 178.668C142.687 183.818 136.673 198.099 125.906 203.929C114.945 209.855 106.021 218.113 102.529 223.068C101.753 224.234 99.0371 228.703 97.4851 231.229C97.6791 259.501 97.5821 284.47 97.3881 293.02L95.9331 293.117C96.0301 290.883 95.9331 276.504 95.8361 257.461C93.4111 233.658 76.7271 232.395 65.9601 227.829C46.8511 220.056 32.3981 198.682 42.1951 194.602Z" fill="#E6E6E6"/>
<path d="M110.58 318.086H82.3527C80.8007 318.086 79.4427 317.212 79.1517 315.949L77.1147 280.876H115.721L113.684 315.949C113.49 317.212 112.132 318.086 110.58 318.086Z" fill="#E6E6E6"/>
<path d="M115.042 292.826H77.7941C76.9211 292.826 76.1451 291.66 76.0481 290.105L75.2721 278.252C75.1751 276.406 75.9511 274.852 77.0181 274.852H115.818C116.885 274.852 117.661 276.406 117.564 278.252L116.788 290.105C116.691 291.66 115.915 292.826 115.042 292.826Z" fill="#F5F5F5"/>
<path d="M304.58 242.402H341.246V311.674H304.58V242.402Z" fill="#F0F0F0"/>
<path d="M153.26 311.674H334.262V318.086H153.26V311.674Z" fill="#F0F0F0"/>
<path d="M304.596 311.711H146.195V242.439H304.596V311.711Z" fill="#FAFAFA"/>
<path d="M290.143 272.151H160.648V250.874H290.143V272.151Z" fill="#F0F0F0"/>
<path d="M290.143 299.536H160.648V278.259H290.143V299.536Z" fill="#F0F0F0"/>
<path d="M209.519 252.798H241.335C242.596 252.798 243.566 251.826 243.566 250.563V250.466C243.566 249.203 242.596 248.231 241.335 248.231H209.519C208.258 248.231 207.288 249.203 207.288 250.466V250.563C207.288 251.729 208.258 252.798 209.519 252.798Z" fill="#FAFAFA"/>
<path d="M209.519 280.195H241.335C242.596 280.195 243.566 279.224 243.566 277.961V277.864C243.566 276.601 242.596 275.629 241.335 275.629H209.519C208.258 275.629 207.288 276.601 207.288 277.864V277.961C207.288 279.127 208.258 280.195 209.519 280.195Z" fill="#FAFAFA"/>
<path d="M141.329 236.184H304.58V242.402H141.329V236.184Z" fill="#F0F0F0"/>
<path d="M346.393 242.433H304.586V236.215H346.393V242.433Z" fill="#E6E6E6"/>
<path d="M376.554 263.776C380.725 261.542 388.097 262.707 394.693 269.411C397.7 272.52 400.804 277.184 401.968 282.138C401.386 276.406 400.804 270.286 400.319 264.456C399.058 260.764 398.088 259.113 396.536 256.587C391.395 248.134 387.903 249.397 381.307 243.082C370.443 232.492 362.877 211.312 373.45 219.085C383.053 226.177 388 233.561 391.589 240.07C396.439 248.911 398.573 255.129 399.931 261.542C399.446 256.101 398.961 251.049 398.573 247.163C397.312 234.532 396.633 230.549 396.439 229.286C396.051 226.274 394.887 224.623 394.596 224.137C391.977 220.639 388 218.599 384.12 214.616C374.905 205.58 368.988 193.824 372.965 192.367C377.136 190.813 383.15 195.67 390.328 207.718C394.499 214.616 395.566 216.267 397.409 230.258C397.603 231.521 398.282 236.087 398.961 242.499C399.349 235.504 400.707 228.509 403.617 223.651C409.243 214.324 413.996 213.061 417.682 213.644C421.271 214.13 420.592 223.457 417.003 228.8C411.668 236.67 401.483 235.99 399.349 246.094C400.222 254.741 401.289 265.719 402.259 276.018C402.841 270.674 403.52 266.108 405.46 261.833C409.146 253.769 414.19 249.98 418.07 253.283C420.495 255.324 418.458 261.93 413.899 264.942C409.34 267.954 405.654 271.937 404.296 274.269C404.005 274.852 402.938 276.892 402.356 278.058C403.52 290.591 404.393 301.569 404.684 305.358L404.005 305.456C404.005 304.484 403.423 298.169 402.647 289.717C400.707 279.321 393.238 279.321 388.291 277.766C379.561 274.852 372.286 266.011 376.554 263.776Z" fill="#F0F0F0"/>
<path d="M441.448 242.111C436.016 239.682 426.898 241.625 419.138 250.563C415.549 254.741 412.057 260.764 410.99 267.079C411.281 259.89 411.475 252.118 411.766 244.734C413.027 239.973 414.191 237.836 415.937 234.532C421.757 223.554 426.316 224.914 433.979 216.364C446.88 202.18 454.737 175.074 442.03 185.663C430.487 195.185 424.764 204.997 420.787 213.45C415.355 224.914 413.124 232.881 411.863 240.945C412.154 234.047 412.348 227.732 412.542 222.874C413.124 206.94 413.706 201.888 413.9 200.237C414.191 196.448 415.549 194.213 415.84 193.63C418.944 189.064 423.697 186.149 428.353 181C439.314 168.953 445.813 153.797 440.769 152.242C435.434 150.59 428.256 157.197 420.011 172.742C415.258 181.68 414.094 183.817 412.736 201.597C412.639 203.151 412.154 208.981 411.766 217.045C410.699 208.301 408.565 199.654 404.588 193.727C396.828 182.457 390.717 181.194 386.255 182.166C381.793 183.137 383.345 194.796 388.195 201.111C395.567 210.632 408.274 208.981 411.669 221.514C411.184 232.492 410.699 246.385 410.214 259.307C409.147 252.603 407.886 246.968 405.17 241.722C399.932 231.812 393.336 227.44 388.68 231.909C385.77 234.727 388.874 242.791 394.791 246.191C400.805 249.689 405.655 254.449 407.498 257.267C407.886 257.947 409.341 260.473 410.214 261.93C409.729 277.669 409.341 291.66 409.341 296.42L410.117 296.517C410.117 295.254 410.311 287.288 410.699 276.601C412.348 263.388 421.757 262.902 427.771 260.57C438.441 256.295 446.88 244.637 441.448 242.111Z" fill="#E6E6E6"/>
<path d="M418.459 318.086H393.336C391.978 318.086 390.814 317.308 390.523 316.143L388.777 284.956H423.115L421.369 316.143C420.981 317.308 419.817 318.086 418.459 318.086Z" fill="#E6E6E6"/>
<path d="M422.436 295.643H389.359C388.583 295.643 387.904 294.574 387.807 293.214L387.128 282.721C387.031 281.07 387.71 279.709 388.68 279.709H423.115C424.085 279.709 424.764 281.167 424.667 282.721L423.988 293.214C423.891 294.671 423.212 295.643 422.436 295.643Z" fill="#F5F5F5"/>
<path d="M219.997 24.1917H426.607V141.264H219.997V24.1917Z" fill="#E6E6E6"/>
<path d="M213.499 24.1917H425.541V141.264H213.499V24.1917Z" fill="#F5F5F5"/>
<path d="M420.4 132.034V33.4213C420.4 31.1868 418.557 29.3408 416.326 29.3408H222.714C220.483 29.3408 218.64 31.1868 218.64 33.4213V132.034C218.64 134.268 220.483 136.114 222.714 136.114H416.326C418.557 136.017 420.4 134.268 420.4 132.034Z" fill="white"/>
<path d="M242.499 362C138.624 362 54.416 357.085 54.416 351.021C54.416 344.958 138.624 340.043 242.499 340.043C346.374 340.043 430.582 344.958 430.582 351.021C430.582 357.085 346.374 362 242.499 362Z" fill="#F6F8F9"/>
<path d="M95.1575 250.174H118.438V249.203H95.1575C89.7255 249.203 84.4875 245.997 81.8685 241.042L80.9955 241.528C83.8085 246.774 89.4345 250.174 95.1575 250.174Z" fill="#54BEF5"/>
<path d="M123.094 249.203H132.6V250.174H123.094V249.203Z" fill="#407BFF"/>
<path d="M95.1563 246.774H367.532C373.934 246.774 378.687 241.528 378.202 235.115L363.458 66.0655C362.876 59.6532 357.25 54.4069 350.848 54.4069H78.4723C72.0703 54.4069 67.3173 59.6532 67.8023 66.0655L82.4493 235.115C83.0313 241.528 88.7543 246.774 95.1563 246.774Z" fill="#54BEF5"/>
<path d="M114.266 252.118H379.852C385.284 252.118 389.358 247.648 388.873 242.208L375.487 88.2169C375.39 86.6624 373.935 85.3994 372.383 85.3994H92.6349C91.0829 85.3994 89.9189 86.6624 90.0159 88.2169L103.402 242.208C103.984 247.648 108.834 252.118 114.266 252.118Z" fill="white"/>
<path d="M332.516 68.6887C340.373 68.6887 346.29 62.2765 345.611 54.4069C344.932 46.5373 337.948 40.028 330.091 40.028C322.234 40.028 316.317 46.4402 316.996 54.4069H322.816C322.428 49.7435 325.92 45.8573 330.576 45.8573C335.232 45.8573 339.403 49.6463 339.791 54.4069C340.179 59.0704 336.687 62.8594 332.031 62.8594L332.516 68.6887Z" fill="#202020"/>
<path d="M274.995 68.6887C282.852 68.6887 288.769 62.2765 288.09 54.4069C287.411 46.5373 280.427 40.028 272.57 40.028C264.713 40.028 258.796 46.4402 259.475 54.4069H265.295C264.907 49.7435 268.399 45.8573 273.055 45.8573C277.711 45.8573 281.882 49.6463 282.27 54.4069C282.658 59.0704 279.166 62.8594 274.51 62.8594L274.995 68.6887Z" fill="#202020"/>
<path d="M217.377 68.6887C225.234 68.6887 231.151 62.2765 230.472 54.4069C229.793 46.5373 222.809 40.028 214.952 40.028C207.095 40.028 201.178 46.4402 201.857 54.4069H207.677C207.289 49.7435 210.781 45.8573 215.437 45.8573C220.093 45.8573 224.264 49.6463 224.652 54.4069C225.04 59.0704 221.548 62.8594 216.892 62.8594L217.377 68.6887Z" fill="#202020"/>
<path d="M159.856 68.6887C167.713 68.6887 173.63 62.2765 172.951 54.4069C172.272 46.5373 165.288 40.028 157.431 40.028C149.574 40.028 143.657 46.4402 144.336 54.4069H150.156C149.768 49.7435 153.26 45.8573 157.916 45.8573C162.572 45.8573 166.743 49.6463 167.131 54.4069C167.519 59.0704 164.027 62.8594 159.371 62.8594L159.856 68.6887Z" fill="#202020"/>
<path d="M102.239 68.6887C110.096 68.6887 116.013 62.2765 115.334 54.4069C114.655 46.5373 107.671 40.028 99.8136 40.028C91.9566 40.028 86.0396 46.4402 86.7186 54.4069H92.5386C92.1506 49.7435 95.6426 45.8573 100.299 45.8573C104.955 45.8573 109.126 49.6463 109.514 54.4069C109.902 59.0704 106.41 62.8594 101.754 62.8594L102.239 68.6887Z" fill="#202020"/>
<path d="M101.558 236.184H364.04C364.331 236.184 364.525 235.99 364.525 235.698L351.43 85.4965C351.43 85.2051 351.139 85.0107 350.945 85.0107H88.3664C88.0754 85.0107 87.8814 85.2051 87.8814 85.4965L100.976 235.796C100.976 235.99 101.267 236.184 101.558 236.184ZM363.458 235.213H101.849L88.8514 85.8851H350.46L363.458 235.213Z" fill="#F6F8F9"/>
<path d="M98.9392 206.163H361.421C361.712 206.163 361.906 205.969 361.906 205.677C361.906 205.386 361.615 205.192 361.421 205.192H98.8423C98.5512 205.192 98.3572 205.386 98.3572 205.677C98.3572 205.969 98.6483 206.163 98.9392 206.163Z" fill="#F6F8F9"/>
<path d="M96.3201 176.142H358.802C359.093 176.142 359.287 175.948 359.287 175.656C359.287 175.365 358.996 175.171 358.802 175.171H96.2231C95.9322 175.171 95.7382 175.365 95.7382 175.656C95.7382 175.851 96.0291 176.142 96.3201 176.142Z" fill="#F6F8F9"/>
<path d="M93.701 146.024H356.183C356.474 146.024 356.668 145.83 356.668 145.538C356.668 145.247 356.377 145.053 356.183 145.053H93.604C93.313 145.053 93.119 145.247 93.119 145.538C93.119 145.83 93.41 146.024 93.701 146.024Z" fill="#F6F8F9"/>
<path d="M91.0818 116.003H353.564C353.855 116.003 354.049 115.809 354.049 115.517C354.049 115.226 353.758 115.032 353.564 115.032H90.9848C90.6938 115.032 90.4998 115.226 90.4998 115.517C90.5968 115.809 90.7908 116.003 91.0818 116.003Z" fill="#F6F8F9"/>
<path d="M134.345 236.184C134.636 236.184 134.83 235.99 134.83 235.698L121.735 85.4965C121.735 85.2051 121.444 85.0107 121.25 85.0107C120.959 85.0107 120.765 85.2051 120.765 85.4965L133.86 235.698C133.86 235.99 134.054 236.184 134.345 236.184Z" fill="#F6F8F9"/>
<path d="M167.13 236.184C167.421 236.184 167.615 235.99 167.615 235.698L154.52 85.4965C154.52 85.2051 154.229 85.0107 154.035 85.0107C153.744 85.0107 153.55 85.2051 153.55 85.4965L166.645 235.796C166.645 235.99 166.936 236.184 167.13 236.184Z" fill="#F6F8F9"/>
<path d="M200.013 236.184C200.304 236.184 200.498 235.99 200.498 235.698L187.306 85.4965C187.306 85.2051 187.015 85.0107 186.821 85.0107C186.627 85.0107 186.336 85.2051 186.336 85.4965L199.431 235.796C199.431 235.99 199.722 236.184 200.013 236.184Z" fill="#F6F8F9"/>
<path d="M232.8 236.184C233.091 236.184 233.285 235.99 233.285 235.698L220.19 85.4965C220.19 85.2051 219.899 85.0107 219.705 85.0107C219.414 85.0107 219.22 85.2051 219.22 85.4965L232.315 235.796C232.315 235.99 232.509 236.184 232.8 236.184Z" fill="#F6F8F9"/>
<path d="M265.585 236.184C265.876 236.184 266.07 235.99 266.07 235.698L252.975 85.4965C252.975 85.2051 252.684 85.0107 252.49 85.0107C252.199 85.0107 252.005 85.2051 252.005 85.4965L265.1 235.796C265.1 235.99 265.391 236.184 265.585 236.184Z" fill="#F6F8F9"/>
<path d="M298.468 236.184C298.759 236.184 298.953 235.99 298.953 235.698L285.761 85.4965C285.761 85.2051 285.47 85.0107 285.276 85.0107C284.985 85.0107 284.791 85.2051 284.791 85.4965L297.886 235.796C297.886 235.99 298.177 236.184 298.468 236.184Z" fill="#F6F8F9"/>
<path d="M331.255 236.184C331.546 236.184 331.74 235.99 331.74 235.698L318.645 85.4965C318.645 85.2051 318.354 85.0107 318.16 85.0107C317.869 85.0107 317.675 85.2051 317.675 85.4965L330.77 235.796C330.77 235.99 330.964 236.184 331.255 236.184Z" fill="#F6F8F9"/>
<path d="M198.17 142.527H218.249C219.995 142.527 221.256 141.166 221.062 139.418L219.51 121.541C219.316 119.792 217.861 118.432 216.115 118.432H196.036C194.29 118.432 193.029 119.792 193.223 121.541L194.775 139.418C194.969 141.166 196.521 142.527 198.17 142.527Z" fill="#54BEF5"/>
<path opacity="0.6" d="M198.17 142.527H218.249C219.995 142.527 221.256 141.166 221.062 139.418L219.51 121.541C219.316 119.792 217.861 118.432 216.115 118.432H196.036C194.29 118.432 193.029 119.792 193.223 121.541L194.775 139.418C194.969 141.166 196.521 142.527 198.17 142.527Z" fill="#F1F9FF"/>
<path d="M58.2967 142.527H79.3457L77.3087 118.529H56.2597L64.1167 130.577L58.2967 142.527Z" fill="white"/>
<path d="M57.5207 143.012H79.9277L77.7938 118.044H55.2897L63.5347 130.577L57.5207 143.012ZM78.8607 142.041H59.0727L64.6987 130.479L57.1327 118.918H76.9207L78.8607 142.041Z" fill="#54BEF5"/>
<path d="M135.413 172.645H155.491C157.237 172.645 158.499 171.284 158.305 169.536L156.753 151.659C156.559 149.91 155.104 148.55 153.358 148.55H133.278C131.532 148.55 130.271 149.91 130.465 151.659L132.018 169.536C132.115 171.187 133.667 172.645 135.413 172.645Z" fill="#54BEF5"/>
<path opacity="0.4" d="M135.413 172.645H155.491C157.237 172.645 158.499 171.284 158.305 169.536L156.753 151.659C156.559 149.91 155.104 148.55 153.358 148.55H133.278C131.532 148.55 130.271 149.91 130.465 151.659L132.018 169.536C132.115 171.187 133.667 172.645 135.413 172.645Z" fill="white"/>
<path d="M96.9026 112.506H150.156C151.902 112.506 153.163 111.145 152.969 109.397L151.417 91.5201C151.223 89.7713 149.768 88.4111 148.022 88.4111H94.7686C93.0226 88.4111 91.7616 89.7713 91.9556 91.5201L93.5076 109.397C93.7016 111.145 95.2536 112.506 96.9026 112.506Z" fill="#54BEF5"/>
<path d="M309.333 138.446C317.384 138.446 324.174 135.629 328.927 130.091C335.038 122.998 336.008 114.254 331.352 107.259C324.465 96.7666 306.52 91.2287 294.686 92.7832C294.395 92.7832 294.298 93.0747 294.298 93.3661C294.395 93.6576 294.589 93.8519 294.88 93.7547C306.423 92.2003 323.883 97.641 330.576 107.745C335.814 115.712 332.807 124.164 328.151 129.508C321.749 136.892 313.019 137.863 306.811 137.475C294.977 136.697 282.076 129.896 274.607 120.667C272.57 118.044 269.272 113.089 271.309 109.008C274.219 102.887 283.919 103.276 291.97 104.345C292.261 104.345 292.455 104.15 292.455 103.956C292.455 103.665 292.261 103.47 291.97 103.373C286.538 102.693 273.928 101.041 270.339 108.522C268.108 113.186 271.6 118.529 273.831 121.25C281.494 130.674 294.686 137.669 306.811 138.446C307.684 138.446 308.46 138.446 309.333 138.446Z" fill="#54BEF5"/>
<path d="M147.44 167.204C147.44 167.204 147.537 167.204 147.44 167.204C147.828 167.204 148.119 167.01 148.216 166.718C149.671 163.706 150.932 161.861 152.29 160.5C152.678 160.112 152.678 159.529 152.193 159.14C151.805 158.752 151.223 158.752 150.835 159.043C149.574 160.306 148.313 162.055 147.052 164.581C143.948 161.375 140.359 158.169 136.285 155.157C135.8 154.865 135.218 154.865 134.927 155.351C134.636 155.74 134.733 156.42 135.218 156.711C139.583 160.015 143.463 163.415 146.664 166.913C146.858 167.107 147.149 167.204 147.44 167.204Z" fill="white"/>
<path d="M183.137 231.618C189.151 231.618 193.613 226.76 193.031 220.736C192.546 214.713 187.211 209.855 181.197 209.855C175.183 209.855 170.721 214.713 171.303 220.736C171.885 226.663 177.123 231.618 183.137 231.618ZM181.391 211.701C186.338 211.701 190.703 215.684 191.091 220.639C191.479 225.594 187.89 229.578 182.943 229.578C177.996 229.578 173.631 225.594 173.243 220.639C172.855 215.782 176.541 211.701 181.391 211.701Z" fill="#54BEF5"/>
<path d="M276.449 171.382C282.463 171.382 286.925 166.524 286.343 160.5C285.858 154.477 280.523 149.619 274.509 149.619C268.495 149.619 264.033 154.477 264.615 160.5C265.1 166.524 270.435 171.382 276.449 171.382ZM274.703 151.465C279.65 151.465 284.015 155.448 284.403 160.403C284.791 165.358 281.202 169.341 276.255 169.341C271.308 169.341 266.943 165.358 266.555 160.403C266.07 155.545 269.756 151.465 274.703 151.465Z" fill="#54BEF5"/>
<path opacity="0.1" d="M257.535 197.516H358.318C362.295 197.516 365.302 194.213 364.914 190.23C364.526 186.246 361.034 182.943 356.96 182.943H256.177C252.2 182.943 249.193 186.246 249.581 190.23C249.969 194.213 253.461 197.516 257.535 197.516Z" fill="black"/>
<path d="M391.492 174.393L387.709 176.045L392.753 182.263C392.753 182.263 394.111 179.931 394.79 177.308C395.081 176.239 394.402 175.171 393.335 174.879L391.492 174.393Z" fill="#FFCFAE"/>
<path d="M385.963 182.652L388.194 185.178C388.97 185.955 390.231 185.858 390.813 184.983L392.656 182.166L387.612 175.948L385.575 180.806C385.381 181.486 385.575 182.166 385.963 182.652Z" fill="#FFCFAE"/>
<path d="M252.588 195.088L383.732 184.692C387.709 184.4 390.425 180.903 389.746 176.92C389.067 172.936 385.284 169.924 381.307 170.313L250.163 180.709C246.186 181 243.47 184.498 244.149 188.481C244.731 192.367 248.514 195.379 252.588 195.088Z" fill="#54BEF5"/>
<path d="M345.125 133.783C343.476 137.474 341.827 141.264 340.081 144.955C338.432 148.647 336.589 152.436 334.746 155.642C334.261 156.42 333.776 157.197 333.388 157.586C332.806 158.266 332.127 158.946 331.448 159.723C330.09 161.18 328.635 162.638 327.18 164.095C324.27 167.01 321.36 169.924 318.45 172.936L321.36 176.725C325.046 174.588 328.538 172.256 332.03 169.827C333.776 168.564 335.425 167.301 337.171 165.844C338.044 165.164 338.82 164.386 339.693 163.512C340.76 162.443 341.439 161.472 342.118 160.5C344.737 156.711 346.677 152.922 348.617 149.133C350.557 145.344 352.206 141.458 353.855 137.474L345.125 133.783Z" fill="#FFCFAE"/>
<path d="M377.232 133.2C379.463 136.794 381.694 140.389 383.925 143.984L390.618 154.768L391.394 156.128L391.491 156.323L391.588 156.42C391.588 156.42 391.588 156.42 391.588 156.517L391.685 156.711C391.879 157.197 392.073 157.877 392.073 158.751C392.17 160.403 392.073 162.443 391.879 164.386C391.491 168.37 390.715 172.547 389.842 176.628L394.304 178.28C396.341 174.296 397.99 170.216 399.154 165.747C399.736 163.512 400.221 161.18 400.318 158.654C400.318 157.391 400.318 155.934 399.93 154.282C399.833 153.894 399.736 153.505 399.542 153.019L399.251 152.339L399.154 152.048L399.057 151.853L398.281 150.396C396.244 146.51 394.207 142.721 392.073 139.029C389.939 135.337 387.708 131.645 385.283 128.05L377.232 133.2Z" fill="#FFCFAE"/>
<path d="M351.528 106.288C351.722 106.773 351.625 107.259 351.334 107.356C351.043 107.454 350.655 107.162 350.461 106.676C350.267 106.191 350.364 105.705 350.655 105.608C350.946 105.51 351.334 105.802 351.528 106.288Z" fill="#202020"/>
<path d="M351.624 107.162C351.624 107.162 351.624 110.368 350.848 112.214C352.012 112.7 353.273 111.728 353.273 111.728L351.624 107.162Z" fill="#FFA96E"/>
<path d="M349.782 103.373C349.879 103.373 349.879 103.373 349.976 103.276C349.976 103.276 350.849 102.499 352.11 102.79C352.304 102.79 352.401 102.693 352.498 102.596C352.498 102.401 352.401 102.304 352.304 102.207C350.752 101.818 349.685 102.79 349.588 102.79C349.491 102.887 349.491 103.082 349.588 103.179C349.588 103.373 349.685 103.373 349.782 103.373Z" fill="#202020"/>
<path d="M369.182 107.162C369.764 112.408 368.794 119.015 372.383 121.638C372.383 121.638 371.607 126.593 363.071 127.856C353.662 129.216 358.027 123.776 358.027 123.776C363.071 121.735 362.489 117.946 361.228 114.449L369.182 107.162Z" fill="#FFCFAE"/>
<path d="M375.487 124.941C375.584 122.513 375.487 118.918 374.032 118.335C372.383 117.752 362.78 118.529 357.93 122.901C359.773 126.302 359.579 129.994 359.579 129.994L375.487 124.941Z" fill="#202020"/>
<path d="M404.879 341.597C405.752 341.597 406.916 341.112 407.401 340.917C407.498 340.917 407.498 340.82 407.498 340.82C407.498 340.723 407.498 340.723 407.401 340.723C407.304 340.723 405.364 339.946 404.491 340.334C404.297 340.432 404.2 340.626 404.103 340.82C404.006 341.209 404.103 341.403 404.297 341.5C404.394 341.597 404.685 341.597 404.879 341.597ZM406.916 340.82C406.043 341.209 404.782 341.5 404.394 341.209C404.394 341.209 404.297 341.112 404.297 340.82C404.297 340.723 404.394 340.626 404.588 340.529C405.17 340.334 406.237 340.529 406.916 340.82Z" fill="#54BEF5"/>
<path d="M407.303 340.917H407.4C407.4 340.917 407.497 340.82 407.4 340.723C407.4 340.626 406.818 338.877 406.042 338.488C405.848 338.391 405.557 338.391 405.363 338.488C404.975 338.586 404.975 338.877 404.975 338.974C405.072 339.654 406.624 340.723 407.303 340.917ZM405.751 338.683C405.848 338.683 405.945 338.683 406.042 338.78C406.527 339.071 407.012 339.946 407.206 340.529C406.43 340.237 405.46 339.363 405.46 338.974C405.46 338.974 405.46 338.877 405.654 338.78C405.557 338.683 405.654 338.683 405.751 338.683Z" fill="#54BEF5"/>
<path d="M356.184 344.415C356.96 344.415 357.736 344.318 358.124 344.221C358.221 344.221 358.221 344.123 358.221 344.123C358.221 344.026 358.221 344.026 358.124 343.929C357.833 343.735 354.923 342.083 354.244 343.249C354.05 343.54 354.147 343.832 354.244 343.929C354.535 344.318 355.311 344.415 356.184 344.415ZM357.639 344.026C356.475 344.221 354.826 344.221 354.535 343.735C354.535 343.735 354.438 343.638 354.535 343.443C354.923 342.86 356.669 343.54 357.639 344.026Z" fill="#54BEF5"/>
<path d="M358.124 344.221C358.221 344.123 358.318 344.123 358.318 344.026C358.318 343.929 358.221 342.277 357.445 341.597C357.251 341.403 356.96 341.306 356.572 341.306C356.184 341.306 355.99 341.597 355.99 341.695C355.796 342.569 357.251 343.929 358.124 344.221C358.027 344.221 358.027 344.221 358.124 344.221ZM356.669 341.695C356.863 341.695 357.057 341.792 357.154 341.889C357.639 342.375 357.833 343.346 357.93 343.832C357.154 343.346 356.184 342.277 356.281 341.889C356.184 341.792 356.281 341.695 356.669 341.695C356.572 341.695 356.572 341.695 356.669 341.695Z" fill="#54BEF5"/>
<path d="M365.109 344.123H358.707L358.61 329.259H365.012L365.109 344.123Z" fill="#FFCFAE"/>
<path d="M414.578 339.557L408.564 340.917L403.52 326.247L409.534 324.887L414.578 339.557Z" fill="#FFCFAE"/>
<path d="M407.691 339.946L414.675 338.197C414.966 338.1 415.16 338.294 415.257 338.488L417.682 343.735C417.973 344.318 417.585 344.901 417.003 345.095C414.578 345.678 413.317 345.775 410.31 346.552C408.467 347.038 404.587 348.204 401.968 348.884C399.446 349.564 398.476 347.038 399.543 346.552C404.102 344.318 405.557 342.375 406.818 340.626C406.915 340.237 407.303 340.043 407.691 339.946Z" fill="#263238"/>
<path d="M358.803 343.346H365.787C366.078 343.346 366.272 343.54 366.272 343.735L367.339 349.467C367.436 350.05 366.951 350.633 366.369 350.633C363.847 350.633 360.258 350.439 357.057 350.439C353.371 350.439 353.274 350.633 348.909 350.633C346.29 350.633 345.708 348.01 346.775 347.718C351.819 346.649 352.789 346.552 357.154 343.832C357.736 343.541 358.221 343.346 358.803 343.346Z" fill="#263238"/>
<path d="M379.853 121.152C385.964 121.638 394.5 136.892 394.5 136.892L383.539 146.899C383.539 146.899 378.301 141.264 374.227 134.657C369.862 127.759 373.645 120.667 379.853 121.152Z" fill="#54BEF5"/>
<path opacity="0.6" d="M379.853 121.152C385.964 121.638 394.5 136.892 394.5 136.892L383.539 146.899C383.539 146.899 378.301 141.264 374.227 134.657C369.862 127.759 373.645 120.667 379.853 121.152Z" fill="white"/>
<path opacity="0.2" d="M376.748 132.228L384.023 146.51L383.538 146.996C383.538 146.996 380.725 143.887 377.621 139.709L376.748 132.228Z" fill="black"/>
<path d="M349.49 155.351C350.557 162.443 352.303 171.09 355.019 181.874L388.775 176.822C388.484 171.965 383.246 150.299 384.313 127.079C384.41 123.776 381.791 121.055 378.59 121.152C376.941 121.152 375.098 121.25 373.255 121.444C368.89 121.833 362.682 122.707 358.899 123.581C353.952 124.747 349.393 126.787 349.393 126.787C349.393 126.787 346.968 130.382 348.229 145.15C348.423 148.162 348.811 151.562 349.49 155.351Z" fill="#54BEF5"/>
<path opacity="0.6" d="M349.49 155.351C350.557 162.443 352.303 171.09 355.019 181.874L388.775 176.822C388.484 171.965 383.246 150.299 384.313 127.079C384.41 123.776 381.791 121.055 378.59 121.152C376.941 121.152 375.098 121.25 373.255 121.444C368.89 121.833 362.682 122.707 358.899 123.581C353.952 124.747 349.393 126.787 349.393 126.787C349.393 126.787 346.968 130.382 348.229 145.15C348.423 148.162 348.811 151.562 349.49 155.351Z" fill="white"/>
<path opacity="0.2" d="M349.49 155.351C352.206 153.602 354.825 145.636 353.661 141.458L348.229 145.247C348.423 148.162 348.811 151.562 349.49 155.351Z" fill="black"/>
<path d="M357.057 131.159C358.803 136.989 348.23 154.185 348.23 154.185L335.62 147.579C335.62 147.579 338.53 138.932 342.992 132.228C348.036 124.844 355.117 124.65 357.057 131.159Z" fill="#54BEF5"/>
<path opacity="0.6" d="M357.057 131.159C358.803 136.989 348.23 154.185 348.23 154.185L335.62 147.579C335.62 147.579 338.53 138.932 342.992 132.228C348.036 124.844 355.117 124.65 357.057 131.159Z" fill="white"/>
<path opacity="0.2" d="M358.61 329.259L358.707 336.934H365.109L365.012 329.259H358.61Z" fill="black"/>
<path opacity="0.2" d="M409.535 324.887L403.521 326.247L406.14 333.825L412.154 332.465L409.535 324.887Z" fill="black"/>
<path d="M367.049 98.6125C368.892 104.733 370.25 108.134 368.504 112.408C365.788 118.821 357.543 119.112 353.954 113.769C350.753 108.911 348.231 99.7783 353.081 95.0177C357.737 90.4514 365.109 92.4917 367.049 98.6125Z" fill="#FFCFAE"/>
<path d="M357.252 105.316C358.028 108.425 359.871 114.06 364.527 114.74C367.146 115.129 371.414 114.352 371.802 112.214C372.19 110.077 370.638 110.368 371.026 108.717C371.414 107.065 373.548 100.944 371.123 96.6693C374.518 96.9608 372.19 92.0059 366.176 90.84C368.019 90.0628 367.146 85.0107 357.834 87.4396C353.469 88.6055 350.268 90.2571 349.88 92.5888C345.903 94.2405 344.836 98.5153 347.358 99.9726C349.783 101.43 353.372 99.7783 353.372 99.7783C353.372 99.7783 351.626 108.717 357.252 105.316Z" fill="#202020"/>
<path d="M359.773 104.83C359.87 106.288 359.385 107.745 358.609 108.717C357.445 110.174 357.057 110.174 356.572 108.522C356.184 107.065 355.117 103.762 356.572 102.887C358.124 102.013 359.579 103.082 359.773 104.83Z" fill="#FFCFAE"/>
<path d="M366.95 180.126C366.95 180.126 372.188 230.258 375.486 248.62C379.075 268.634 402.937 333.145 402.937 333.145L414.189 330.327C408.369 307.982 399.736 266.399 394.498 250.466C390.521 226.274 394.498 195.768 388.678 176.919L366.95 180.126Z" fill="#263238"/>
<path d="M400.222 329.356C400.125 329.356 402.356 333.436 402.356 333.436L415.062 330.327L413.996 326.441L400.222 329.356Z" fill="#54BEF5"/>
<path opacity="0.2" d="M370.152 199.654C369.764 199.557 369.376 199.557 369.085 199.654C370.734 214.616 373.159 234.63 375.002 246.094C376.554 229.48 378.009 201.208 370.152 199.654Z" fill="black"/>
<path d="M354.924 181.874C354.924 181.874 352.305 235.504 351.917 255.032C351.529 275.338 356.379 335.477 356.379 335.477H367.243C367.243 335.477 371.317 279.71 369.086 252.506C371.705 231.812 377.137 178.668 377.137 178.668L354.924 181.874Z" fill="#263238"/>
<path d="M315.929 172.256C317.481 172.159 319.518 172.353 321.07 173.033L321.846 174.296C322.525 175.365 321.943 176.822 320.779 177.211L316.996 178.377L315.153 178.96C314.377 179.251 313.504 178.863 313.019 178.182L312.243 177.114C311.661 176.337 311.758 175.171 312.534 174.491L314.28 172.936C314.668 172.645 315.25 172.353 315.929 172.256Z" fill="#FFCFAE"/>
<path d="M354.438 331.105C354.341 331.105 354.923 335.574 354.923 335.574H368.115L368.6 331.59L354.438 331.105Z" fill="#54BEF5"/>
</g>
</svg>
