<svg width="510" height="419" viewBox="0 0 510 419" fill="none" xmlns="http://www.w3.org/2000/svg">
<rect width="510" height="418.258" fill="#F1F9FF"/>
<path d="M252.992 42.3762C289.458 36.7099 361.349 37.791 359.863 95.2202L380.492 94.859V175.043" stroke="#EAA444" stroke-width="1.44476" stroke-dasharray="2.89 2.89"/>
<path fill-rule="evenodd" clip-rule="evenodd" d="M15.9782 228.211H17.2785V226.766H15.9782V228.211ZM19.8791 228.211H22.4797V226.766H19.8791V228.211ZM25.0802 228.211H27.6808V226.766H25.0802V228.211ZM30.2814 228.211H32.8819V226.766H30.2814V228.211ZM35.4825 228.211H38.0831V226.766H35.4825V228.211ZM41.8 228.211H41.9839V226.766H40.6836V227.312L40.5718 227.278C40.4471 227.687 40.3139 228.138 40.1743 228.625L41.563 229.023C41.6445 228.739 41.7236 228.468 41.8 228.211ZM40.1506 234.4C40.3793 233.453 40.6074 232.549 40.8288 231.704L39.4313 231.338C39.2075 232.192 38.9771 233.104 38.7462 234.062L40.1506 234.4ZM38.9523 239.831C39.1365 238.907 39.3285 237.997 39.5243 237.111L38.1136 236.799C37.9157 237.695 37.7217 238.614 37.5354 239.549L38.9523 239.831ZM37.9968 245.302C38.1312 244.39 38.2801 243.474 38.44 242.562L37.0169 242.313C36.855 243.236 36.7039 244.166 36.5675 245.092L37.9968 245.302ZM37.384 250.801C37.4458 249.905 37.5316 248.985 37.6374 248.049L36.2018 247.887C36.0939 248.841 36.0061 249.782 35.9426 250.701L37.384 250.801ZM37.2893 254.915C37.2746 254.472 37.2694 254.017 37.2731 253.55L35.8284 253.538C35.8255 253.904 35.8278 254.265 35.8358 254.619C35.6295 254.794 35.3619 255.013 35.0334 255.279L35.9424 256.402C36.4149 256.02 36.7983 255.705 37.0533 255.473L37.3005 255.248L37.2893 254.915ZM31.5866 260.004C32.3699 259.328 33.0975 258.719 33.7535 258.179L32.8351 257.064C32.1724 257.609 31.4361 258.226 30.6426 258.911L31.5866 260.004ZM27.4344 263.787C28.1412 263.106 28.8302 262.463 29.4943 261.858L28.5218 260.79C27.8484 261.403 27.1493 262.055 26.4319 262.746L27.4344 263.787ZM23.5067 267.807C24.1551 267.1 24.7998 266.421 25.436 265.77L24.4028 264.761C23.7566 265.422 23.1015 266.112 22.4423 266.83L23.5067 267.807ZM19.8497 272.068C20.4441 271.325 21.0428 270.604 21.6421 269.906L20.5459 268.965C19.9362 269.675 19.3268 270.409 18.7214 271.166L19.8497 272.068ZM16.5096 276.578C17.043 275.797 17.5863 275.035 18.1365 274.292L16.9758 273.432C16.4148 274.189 15.8606 274.967 15.3163 275.764L16.5096 276.578ZM13.5442 281.335C14.0078 280.515 14.4861 279.712 14.9763 278.926L13.7505 278.161C13.2497 278.964 12.7608 279.785 12.2865 280.624L13.5442 281.335ZM11.0165 286.329C11.4004 285.471 11.8029 284.629 12.2215 283.803L10.9326 283.15C10.5039 283.996 10.0915 284.859 9.69784 285.739L11.0165 286.329ZM8.99332 291.541C9.28691 290.65 9.60243 289.772 9.93769 288.91L8.59103 288.386C8.24687 289.272 7.92278 290.173 7.62108 291.089L8.99332 291.541ZM7.53829 296.935C7.73185 296.016 7.95015 295.111 8.19119 294.218L6.79639 293.841C6.54846 294.76 6.32381 295.692 6.12456 296.637L7.53829 296.935ZM6.70405 302.448C6.7904 301.514 6.90339 300.592 7.04122 299.682L5.61274 299.466C5.47079 300.403 5.35438 301.353 5.26543 302.315L6.70405 302.448ZM6.51576 308.018C6.49277 307.078 6.49761 306.149 6.52865 305.23L5.08471 305.181C5.05274 306.128 5.04775 307.085 5.07143 308.054L6.51576 308.018ZM6.9728 313.59C6.84223 312.653 6.73995 311.725 6.66452 310.807L5.22461 310.925C5.30227 311.87 5.40754 312.825 5.54186 313.789L6.9728 313.59ZM8.03897 319.059C7.80993 318.144 7.60831 317.237 7.4329 316.339L6.01494 316.616C6.19522 317.539 6.40234 318.47 6.63748 319.41L8.03897 319.059ZM9.67316 324.428C9.35139 323.529 9.05643 322.638 8.78724 321.755L7.4052 322.176C7.68122 323.082 7.98349 323.995 8.31301 324.915L9.67316 324.428ZM11.2237 328.333C11.0325 327.894 10.8477 327.457 10.6693 327.022L9.33244 327.569C9.51495 328.015 9.70388 328.462 9.89934 328.91L11.2237 328.333Z" fill="#FDA63B"/>
<path d="M69.8093 244.79C-12.4387 291.902 22.896 347.267 50.8444 369.06L422.658 370.058C438.794 370.557 474.462 371.256 488.037 370.058C505.005 368.561 509.996 345.603 501.013 315.659C492.029 285.714 458.382 259.67 441.413 253.681C424.445 247.692 390.615 262.286 374.146 238.801C352.186 195.88 334.685 173.098 346.299 134.493C361.55 83.7964 341.671 63.6578 330.849 58.1519C305.56 45.2848 284.633 46.9114 222.465 54.9573C150.033 64.3314 142.176 183.403 139.181 206.86C136.187 230.316 110.235 232.812 69.8093 244.79Z" fill="#A9DEFA"/>
<path d="M109.927 280.035C34.0669 303.192 60.6844 349.906 83.4756 370.368H465.769C478.246 350.405 465.769 333.943 451.966 329.742C383.094 308.78 397.009 315.233 386.018 306.44C367.639 291.736 371.509 286.216 364.035 262.474C255.735 109.757 200.26 231.624 189.28 247.096C178.3 262.567 163.827 266.56 109.927 280.035Z" fill="#54BEF5"/>
<path d="M44.7957 200.86C44.4058 200.86 44.0191 200.791 43.6533 200.656L31.0678 196.036C30.2422 195.733 29.5708 195.115 29.2014 194.316C28.8319 193.518 28.7946 192.606 29.0977 191.781C29.4007 190.955 30.0193 190.284 30.8174 189.914C31.6155 189.545 32.5276 189.507 33.3532 189.811L45.9388 194.43C46.6699 194.699 47.2832 195.216 47.6711 195.892C48.0591 196.567 48.197 197.357 48.0607 198.124C47.9243 198.891 47.5225 199.585 46.9255 200.086C46.3285 200.586 45.5745 200.86 44.7957 200.86Z" fill="#FFBC69"/>
<path d="M57.4753 198.908L51.1836 196.81L55.5918 183.586C55.8699 182.751 56.4681 182.062 57.2547 181.668C58.0413 181.275 58.9519 181.21 59.7862 181.489L89.6307 191.437L87.5335 197.729L60.8348 188.829L57.4753 198.908Z" fill="#FFBC69"/>
<path d="M168.17 234.373L161.538 247.637L57.9446 210.228L42.1602 204.529L46.9684 191.791L62.2969 197.175L168.17 234.373Z" fill="#FFBC69"/>
<path d="M118.428 367.019L131.692 363.703V335.279C131.692 332.218 130.633 329.25 128.694 326.88L101.849 294.07L102.513 290.752H72.0033V330.545L46.9355 352.827L62.0551 360.387V360.389L85.993 344.43C87.81 343.219 89.2997 341.578 90.3301 339.653C91.3605 337.727 91.8996 335.578 91.8996 333.394V310.648L115.112 340.493L118.428 367.021V367.019Z" fill="#F2F2F2"/>
<path d="M144.957 239.331C144.958 239.863 144.853 240.391 144.649 240.884C144.445 241.376 144.145 241.823 143.768 242.199L141.641 244.329V272.271C141.642 273.823 141.336 275.36 140.742 276.794C140.149 278.228 139.278 279.531 138.181 280.628C137.083 281.726 135.78 282.596 134.346 283.19C132.913 283.784 131.376 284.089 129.824 284.089H129.795C128.702 284.086 127.616 283.931 126.566 283.629L115.146 280.354L105.165 277.49L102.512 290.75H72.0042V264.222L64.8333 262.174L55.2872 259.447C52.0911 258.534 49.3749 256.415 47.7127 253.537C46.0504 250.659 45.5723 247.247 46.3794 244.023L52.1079 221.113L48.1867 217.192C47.3545 216.36 46.8308 215.269 46.702 214.099C46.5731 212.929 46.8469 211.75 47.478 210.757C48.1091 209.764 49.06 209.015 50.1737 208.635C51.2874 208.255 52.4975 208.265 53.6043 208.665L65.8032 213.072L62.0561 244.329L69.9524 246.821L120.953 262.928L125.061 264.226L128.377 237.697L140.104 235.351C140.692 235.234 141.3 235.248 141.882 235.393C142.465 235.539 143.008 235.812 143.472 236.192C143.936 236.573 144.311 237.052 144.567 237.594C144.824 238.137 144.957 238.73 144.957 239.331Z" fill="#FFCEB6"/>
<path d="M120.954 262.93L115.147 280.356L105.165 277.492L102.513 290.752H72.0049V264.223L64.834 262.176L69.9531 246.822L120.954 262.93Z" fill="#FE4C31"/>
<path d="M95.2157 267.539L98.5318 287.435L91.8997 294.067L85.2676 287.435L88.5836 267.539H95.2157Z" fill="#F7C04A"/>
<path d="M98.5318 260.906L95.2157 267.538H88.5836L85.2676 260.906L91.8997 257.59L98.5318 260.906Z" fill="#F5A431"/>
<path d="M168.169 234.377L178.117 247.641H161.537L168.169 234.377Z" fill="#FDA63B"/>
<path d="M78.6351 267.537C78.3272 267.229 78.083 266.863 77.9163 266.461C77.7497 266.058 77.664 265.627 77.6641 265.192C77.6641 264.756 77.7499 264.325 77.9166 263.923C78.0833 263.52 78.3277 263.155 78.6356 262.847L89.556 251.93C90.178 251.308 91.0214 250.959 91.9007 250.959C92.78 250.959 93.6234 251.308 94.2453 251.93L105.163 262.847C105.785 263.469 106.135 264.312 106.135 265.192C106.135 266.071 105.785 266.914 105.163 267.536L105.163 267.537C104.855 267.844 104.49 268.089 104.088 268.255C103.685 268.422 103.254 268.508 102.819 268.508C102.383 268.508 101.952 268.422 101.55 268.255C101.147 268.089 100.782 267.845 100.474 267.537L91.9004 258.964L83.3245 267.537C82.7025 268.159 81.8591 268.508 80.9797 268.508C80.1002 268.508 79.2569 268.159 78.6351 267.537Z" fill="#DE402F"/>
<path d="M118.428 367.019V376.967H144.956V373.651L131.692 363.703L118.428 367.019Z" fill="#0375A2"/>
<path d="M46.9346 352.824L42.1582 357.07L55.4224 376.966H62.0545V360.386L46.9346 352.824Z" fill="#0375A2"/>
<path d="M101.848 244.327L105.081 242.71C106.103 242.199 106.961 241.414 107.562 240.443C108.162 239.472 108.48 238.353 108.48 237.211V231.063H93.3158C92.2589 231.062 91.2123 231.271 90.2359 231.675C89.2594 232.08 88.3722 232.672 87.6248 233.42C86.8775 234.167 86.2847 235.054 85.8802 236.031C85.4758 237.007 85.2676 238.054 85.2676 239.111C85.2676 240.36 85.5585 241.592 86.1172 242.71L88.5836 247.643H98.5318L101.848 244.327Z" fill="#B36F42"/>
<path d="M88.584 244.326L91.9 241.01C92.3355 241.881 92.9383 242.657 93.6739 243.295C94.4095 243.933 95.2636 244.42 96.1873 244.728C97.1111 245.036 98.0865 245.159 99.0578 245.09C100.029 245.021 100.977 244.761 101.848 244.326V250.958C101.848 252.717 101.149 254.404 99.9057 255.648C98.6619 256.891 96.975 257.59 95.2161 257.59C93.4571 257.59 91.7702 256.891 90.5265 255.648C89.2827 254.404 88.584 252.717 88.584 250.958V244.326Z" fill="#FFCEB6"/>
<path d="M62.2969 197.175L57.9446 210.228L42.1602 204.529L46.9684 191.791L62.2969 197.175Z" fill="#FDA63B"/>
<path d="M196.58 369.221L197.33 105.68L369.864 106.65L369.114 370.191L196.58 369.221Z" fill="#22A5D8"/>
<path d="M211.645 348.223L212.275 126.849L354.802 127.65L354.172 349.024L211.645 348.223Z" fill="white"/>
<path d="M305.734 97.4682C304.873 92.2231 302.18 87.4529 298.135 84.0047C294.09 80.5564 288.954 78.6532 283.639 78.633C278.323 78.6127 273.173 80.4768 269.102 83.8941C265.03 87.3115 262.302 92.061 261.401 97.2995L249.811 97.2545C247.841 97.2471 245.888 97.6278 244.065 98.3749C242.242 99.1221 240.584 100.221 239.186 101.609C237.787 102.997 236.676 104.647 235.915 106.464C235.154 108.281 234.759 110.231 234.752 112.201L234.695 127.204L332.214 127.579L332.271 112.576C332.278 110.606 331.898 108.653 331.151 106.829C330.404 105.006 329.305 103.347 327.917 101.949C326.529 100.55 324.88 99.4382 323.062 98.6771C321.244 97.9161 319.294 97.5206 317.324 97.5133L305.734 97.4682Z" fill="#828282"/>
<path d="M283.572 102.245C287.715 102.245 291.073 98.8866 291.073 94.7436C291.073 90.6007 287.715 87.2422 283.572 87.2422C279.429 87.2422 276.07 90.6007 276.07 94.7436C276.07 98.8866 279.429 102.245 283.572 102.245Z" fill="white"/>
<path d="M283.603 83.4903H283.566C280.582 83.4853 277.718 84.666 275.604 86.7727C273.49 88.8794 272.3 91.7394 272.295 94.7237C272.29 97.708 273.471 100.572 275.577 102.686C277.684 104.799 280.544 105.99 283.528 105.995H283.57C286.554 105.999 289.418 104.818 291.531 102.711C293.644 100.604 294.834 97.7436 294.839 94.7593C294.843 91.7751 293.662 88.9112 291.555 86.7979C289.448 84.6845 286.588 83.4947 283.603 83.4903ZM287.309 94.7424C287.309 95.7372 286.914 96.6912 286.211 97.3946C285.507 98.098 284.553 98.4932 283.558 98.4932C282.564 98.4932 281.61 98.098 280.906 97.3946C280.203 96.6912 279.808 95.7372 279.808 94.7424C279.808 93.7477 280.203 92.7937 280.906 92.0903C281.61 91.3869 282.564 90.9917 283.558 90.9917C284.055 90.9897 284.547 91.0884 285.005 91.2818C285.463 91.4752 285.876 91.7593 286.221 92.1169C286.569 92.4656 286.845 92.8799 287.031 93.3357C287.218 93.7915 287.312 94.2799 287.309 94.7724V94.7424Z" fill="#828282"/>
<path d="M330.608 182.187H307.774C307.017 182.187 306.291 181.886 305.756 181.351C305.221 180.815 304.92 180.089 304.92 179.332V156.499C304.92 155.742 305.221 155.016 305.756 154.481C306.291 153.945 307.017 153.645 307.774 153.645H319.191V159.353H310.628V176.478H327.754V156.499H333.462V179.332C333.462 180.089 333.161 180.815 332.626 181.351C332.091 181.886 331.365 182.187 330.608 182.187Z" fill="#C4E9FF"/>
<path d="M320.717 172.363C320.338 172.363 319.963 172.288 319.614 172.142C319.265 171.996 318.949 171.781 318.683 171.512L314.303 167.063C313.772 166.524 313.477 165.795 313.483 165.038C313.488 164.281 313.795 163.558 314.334 163.027C314.874 162.495 315.602 162.2 316.359 162.206C317.116 162.212 317.839 162.518 318.371 163.058L320.541 165.262L334.123 148.962C334.608 148.381 335.304 148.016 336.058 147.947C336.811 147.879 337.562 148.112 338.143 148.597C338.725 149.082 339.09 149.777 339.158 150.531C339.227 151.285 338.993 152.035 338.509 152.617L322.91 171.336C322.655 171.642 322.338 171.892 321.981 172.068C321.624 172.245 321.233 172.344 320.835 172.361C320.796 172.363 320.756 172.363 320.717 172.363Z" fill="#FFBC69"/>
<path d="M330.807 319.148H307.973C307.216 319.148 306.49 318.847 305.955 318.312C305.42 317.776 305.119 317.05 305.119 316.293V293.46C305.119 292.703 305.42 291.977 305.955 291.441C306.49 290.906 307.216 290.605 307.973 290.605H319.39V296.314H310.828V313.439H327.953V293.46H333.661V316.293C333.661 317.05 333.36 317.776 332.825 318.312C332.29 318.847 331.564 319.148 330.807 319.148Z" fill="#C4E9FF"/>
<path d="M320.916 309.324C320.537 309.324 320.163 309.249 319.814 309.103C319.464 308.956 319.148 308.742 318.882 308.473L314.502 304.024C313.971 303.485 313.676 302.756 313.682 301.999C313.688 301.242 313.994 300.519 314.533 299.988C315.073 299.456 315.801 299.161 316.558 299.167C317.315 299.173 318.039 299.479 318.57 300.019L320.74 302.223L334.323 285.923C334.807 285.342 335.503 284.977 336.257 284.908C337.011 284.84 337.761 285.073 338.342 285.558C338.924 286.042 339.289 286.738 339.358 287.492C339.426 288.246 339.193 288.996 338.708 289.577L323.109 308.297C322.854 308.603 322.537 308.852 322.18 309.029C321.823 309.205 321.433 309.305 321.034 309.322C320.995 309.323 320.955 309.324 320.916 309.324Z" fill="#FFBC69"/>
<path d="M330.61 227.855H307.776C307.019 227.855 306.293 227.554 305.758 227.019C305.223 226.483 304.922 225.757 304.922 225V202.167C304.922 201.41 305.223 200.684 305.758 200.148C306.293 199.613 307.019 199.313 307.776 199.312H319.193V205.021H310.63V222.146H327.756V202.167H333.464V225C333.464 225.757 333.163 226.483 332.628 227.019C332.093 227.554 331.367 227.855 330.61 227.855Z" fill="#C4E9FF"/>
<path d="M320.719 218.031C320.34 218.031 319.965 217.956 319.616 217.81C319.267 217.664 318.951 217.449 318.685 217.18L314.305 212.731C314.042 212.464 313.834 212.148 313.693 211.8C313.553 211.453 313.482 211.081 313.484 210.706C313.49 209.949 313.797 209.226 314.336 208.695C314.875 208.163 315.604 207.868 316.361 207.874C317.118 207.88 317.841 208.186 318.373 208.726L320.543 210.93L334.125 194.63C334.61 194.049 335.306 193.684 336.06 193.615C336.813 193.547 337.563 193.78 338.145 194.265C338.726 194.749 339.092 195.445 339.16 196.199C339.229 196.953 338.995 197.703 338.511 198.284L322.912 217.004C322.656 217.31 322.34 217.56 321.983 217.736C321.626 217.912 321.235 218.012 320.837 218.029C320.798 218.03 320.758 218.031 320.719 218.031Z" fill="#FFBC69"/>
<path d="M330.61 273.523H307.776C307.019 273.523 306.293 273.222 305.758 272.687C305.223 272.151 304.922 271.425 304.922 270.668V247.835C304.922 247.078 305.223 246.352 305.758 245.816C306.293 245.281 307.019 244.98 307.776 244.98H319.193V250.689H310.63V267.814H327.756V247.835H333.464V270.668C333.464 271.425 333.163 272.151 332.628 272.687C332.093 273.222 331.367 273.523 330.61 273.523Z" fill="#C4E9FF"/>
<path d="M320.719 263.699C320.34 263.699 319.965 263.624 319.616 263.478C319.267 263.331 318.951 263.117 318.685 262.848L314.305 258.399C314.042 258.132 313.834 257.816 313.693 257.468C313.553 257.121 313.482 256.749 313.484 256.374C313.487 256 313.564 255.629 313.71 255.284C313.856 254.939 314.069 254.626 314.336 254.363C314.603 254.1 314.919 253.892 315.267 253.751C315.614 253.61 315.986 253.539 316.361 253.542C316.736 253.545 317.106 253.622 317.451 253.768C317.797 253.914 318.11 254.127 318.373 254.394L320.543 256.598L334.125 240.298C334.61 239.717 335.306 239.352 336.06 239.283C336.813 239.215 337.563 239.448 338.145 239.933C338.726 240.417 339.092 241.113 339.16 241.867C339.229 242.621 338.995 243.371 338.511 243.952L322.912 262.672C322.656 262.978 322.34 263.228 321.983 263.404C321.626 263.58 321.235 263.68 320.837 263.697C320.798 263.698 320.758 263.699 320.719 263.699Z" fill="#FFBC69"/>
<path d="M234.773 161.793H296.081V167.948H234.773V161.793Z" fill="#FFC2D6"/>
<path d="M235.889 298.754H297.196V304.909H235.889V298.754Z" fill="#FFC2D6"/>
<path d="M267.176 173.621H296.122V179.33H267.176V173.621Z" fill="#A9DEFA"/>
<path d="M268.289 310.584H297.235V316.292H268.289V310.584Z" fill="#A9DEFA"/>
<path d="M234.773 250.602H296.081V256.757H234.773V250.602Z" fill="#FFC2D6"/>
<path d="M274.412 262.102H296.121V267.81H274.412V262.102Z" fill="#A9DEFA"/>
<path d="M249.084 262.102H267.175V267.81H249.084V262.102Z" fill="#A9DEFA"/>
<path d="M234.773 206.637H296.081V212.792H234.773V206.637Z" fill="#FFC2D6"/>
<path d="M425.148 311.716C420.576 304.682 414.743 308.785 412.398 311.716C413.424 311.423 415.739 311.189 416.795 312.595C415.476 313.035 414.596 313.475 411.519 313.475C411.167 314.178 410.2 316.406 409.76 317.432C411.519 317.432 415.3 317.608 416.355 318.311C415.915 318.751 413.717 319.63 409.321 319.19C408.969 320.597 408.881 322.708 408.881 323.587C410.493 323.587 413.805 323.763 414.157 324.466C412.838 324.906 412.398 325.345 409.321 325.345C409.027 328.57 412.398 335.018 419.872 331.94C419.433 331.061 417.674 328.423 417.674 326.225C418.114 326.664 419.433 327.544 421.631 331.061C423.038 330.006 424.269 328.863 424.708 328.423C423.683 326.811 421.631 323.147 421.631 321.389C422.51 322.268 422.95 321.828 426.027 327.104L429.105 324.026C428.079 322.708 426.115 319.63 426.467 317.871L426.467 317.871C427.346 318.751 429.105 320.509 429.984 322.268C430.864 321.828 435.7 314.794 427.786 313.035C427.083 313.035 426.321 312.742 426.027 312.595C427.2 311.57 430.16 309.518 432.622 309.518C435.084 309.518 436.286 310.69 436.579 311.276C437.165 312.302 438.338 314.882 438.338 316.992V343.371H439.217C439.217 321.389 440.096 314.354 437.458 310.837C434.161 306.44 428.226 309.518 425.148 311.716Z" fill="#DB9DCC"/>
<path d="M455.625 311.644C460.198 304.609 466.031 308.713 468.375 311.644C467.349 311.351 465.034 311.116 463.979 312.523C465.298 312.963 466.177 313.402 469.255 313.402C469.606 314.106 470.574 316.334 471.013 317.359C469.255 317.359 465.474 317.535 464.418 318.239C464.858 318.678 467.056 319.558 471.453 319.118C471.805 320.525 471.893 322.635 471.893 323.515C470.281 323.515 466.968 323.69 466.617 324.394C467.936 324.834 468.375 325.273 471.453 325.273C471.746 328.497 468.375 334.946 460.901 331.868C461.341 330.989 463.099 328.351 463.099 326.152C462.66 326.592 461.341 327.471 459.143 330.989C457.736 329.934 456.505 328.79 456.065 328.351C457.091 326.739 459.143 323.075 459.143 321.316C458.263 322.196 457.824 321.756 454.746 327.032L451.668 323.954C452.694 322.635 454.658 319.558 454.306 317.799L454.306 317.799C453.427 318.678 451.668 320.437 450.789 322.196C449.91 321.756 445.074 314.721 452.987 312.963C453.691 312.963 454.453 312.67 454.746 312.523C453.574 311.497 450.613 309.446 448.151 309.446C445.689 309.446 444.487 310.618 444.194 311.204C443.608 312.23 442.436 314.809 442.436 316.92V343.299H441.556C441.556 321.316 440.677 314.282 443.315 310.765C446.612 306.368 452.548 309.446 455.625 311.644Z" fill="#ECB5DF"/>
<rect x="422.949" y="335.896" width="36.0517" height="4.39655" fill="#FFC2E3"/>
<path d="M426.465 340.295H455.482L451.525 370.191H431.301L426.465 340.295Z" fill="#FFC2E3"/>
</svg>
