<svg width="100" height="100" viewBox="0 0 100 100" fill="none" xmlns="http://www.w3.org/2000/svg">
<circle cx="50" cy="50" r="48.5" stroke="#54BEF5" stroke-width="3"/>
<path d="M63.9024 63.017C61.6764 63.017 59.6222 63.7995 58.0133 65.1063L41.8301 53.3767C42.1011 51.8866 42.1011 50.3597 41.8301 48.8696L58.0133 37.14C59.6222 38.4468 61.6764 39.2293 63.9024 39.2293C69.0729 39.2293 73.2749 35.0195 73.2749 29.8394C73.2749 24.6593 69.0729 20.4495 63.9024 20.4495C58.7319 20.4495 54.5298 24.6593 54.5298 29.8394C54.5298 30.7471 54.6548 31.6156 54.8969 32.4451L39.526 43.5956C37.2454 40.5673 33.6213 38.6033 29.5365 38.6033C22.6321 38.6033 17.0398 44.2059 17.0398 51.1231C17.0398 58.0404 22.6321 63.643 29.5365 63.643C33.6213 63.643 37.2454 61.679 39.526 58.6507L54.8969 69.8012C54.6548 70.6307 54.5298 71.507 54.5298 72.4069C54.5298 77.587 58.7319 81.7968 63.9024 81.7968C69.0729 81.7968 73.2749 77.587 73.2749 72.4069C73.2749 67.2268 69.0729 63.017 63.9024 63.017ZM63.9024 25.7704C66.1439 25.7704 67.9638 27.5936 67.9638 29.8394C67.9638 32.0851 66.1439 33.9083 63.9024 33.9083C61.6608 33.9083 59.8409 32.0851 59.8409 29.8394C59.8409 27.5936 61.6608 25.7704 63.9024 25.7704ZM29.5365 58.0091C25.7484 58.0091 22.6633 54.9182 22.6633 51.1231C22.6633 47.3281 25.7484 44.2372 29.5365 44.2372C33.3245 44.2372 36.4097 47.3281 36.4097 51.1231C36.4097 54.9182 33.3245 58.0091 29.5365 58.0091ZM63.9024 76.4759C61.6608 76.4759 59.8409 74.6527 59.8409 72.4069C59.8409 70.1612 61.6608 68.338 63.9024 68.338C66.1439 68.338 67.9638 70.1612 67.9638 72.4069C67.9638 74.6527 66.1439 76.4759 63.9024 76.4759Z" fill="#54BEF5"/>
</svg>
