<svg width="100" height="100" viewBox="0 0 100 100" fill="none" xmlns="http://www.w3.org/2000/svg">
<circle cx="50" cy="50" r="48" stroke="#FDA63B" stroke-width="4"/>
<path d="M50.9415 22.1784L50.8624 22.152L50.7834 22.1784L25.7834 30.5117L25.6124 30.5687V30.7489V55.7489C25.6124 69.6955 36.9158 80.9989 50.8624 80.9989C64.8091 80.9989 76.1124 69.6955 76.1124 55.7489V30.7489V30.5687L75.9415 30.5117L50.9415 22.1784ZM70.9249 55.7489C70.9249 66.8282 61.9418 75.8114 50.8624 75.8114C39.783 75.8114 30.7999 66.8282 30.7999 55.7489V34.4414L50.8624 27.3681L70.9249 34.4414V55.7489Z" fill="#FDA63B" stroke="#FDA63B" stroke-width="0.5"/>
<path d="M41.5007 48.4381C41.8153 48.5689 42.101 48.7604 42.3414 49.0019C42.3415 49.002 42.3416 49.0021 42.3417 49.0022L48.9745 55.6349L61.6035 43.0124C61.8322 42.7832 62.1038 42.6014 62.4029 42.4774C62.7019 42.3534 63.0225 42.2896 63.3462 42.2896C63.6699 42.2896 63.9905 42.3534 64.2895 42.4774C64.5885 42.6014 64.8601 42.7831 65.0887 43.0122C65.0887 43.0122 65.0887 43.0122 65.0888 43.0122C65.0888 43.0123 65.0888 43.0123 65.0889 43.0124L65.2708 43.1943C65.5 43.423 65.6818 43.6947 65.8058 43.9937C65.9298 44.2927 65.9937 44.6133 65.9937 44.937C65.9937 45.2608 65.9298 45.5813 65.8058 45.8803C65.6818 46.1794 65.5 46.451 65.2708 46.6797L50.7204 61.2302C50.4917 61.4593 50.2201 61.6411 49.921 61.7651C49.622 61.8891 49.3014 61.953 48.9777 61.953C48.654 61.953 48.3334 61.8891 48.0344 61.7651C47.7354 61.6411 47.4638 61.4594 47.2352 61.2303L41.5007 48.4381ZM41.5007 48.4381C41.186 48.3074 40.8485 48.24 40.5077 48.24C40.1668 48.24 39.8293 48.3074 39.5146 48.4381C39.2 48.5689 38.9144 48.7604 38.674 49.0018C38.4326 49.2421 38.2411 49.5278 38.1104 49.8424C37.9796 50.1571 37.9122 50.4946 37.9122 50.8355C37.9122 51.1763 37.9796 51.5138 38.1104 51.8285C38.2411 52.1432 38.4327 52.4289 38.6742 52.6694C38.6743 52.6694 38.6743 52.6695 38.6744 52.6695L47.0985 61.0936L47.235 61.2302L41.5007 48.4381Z" fill="#FDA63B" stroke="#FDA63B" stroke-width="0.5"/>
</svg>
