<svg width="100" height="100" viewBox="0 0 100 100" fill="none" xmlns="http://www.w3.org/2000/svg">
<circle cx="50" cy="50" r="48.5" stroke="#CC8ABD" stroke-width="3"/>
<path d="M25.5618 28.9695H40.3874C43.0087 28.9695 45.5227 30.0108 47.3762 31.8644C49.2298 33.7179 50.2711 36.2319 50.2711 38.8532V73.4463C50.2711 71.4803 49.4901 69.5948 48.1 68.2047C46.7098 66.8145 44.8243 66.0335 42.8583 66.0335H25.5618V28.9695Z" stroke="#CC8ABD" stroke-width="3" stroke-linecap="round" stroke-linejoin="round"/>
<path d="M74.9803 28.9692H60.1547C57.5334 28.9692 55.0194 30.0106 53.1658 31.8641C51.3123 33.7177 50.271 36.2316 50.271 38.853V73.4461C50.271 71.4801 51.0519 69.5946 52.4421 68.2044C53.8323 66.8143 55.7178 66.0333 57.6838 66.0333H74.9803V28.9692Z" stroke="#CC8ABD" stroke-width="3" stroke-linecap="round" stroke-linejoin="round"/>
</svg>
