<svg width="100" height="100" viewBox="0 0 100 100" fill="none" xmlns="http://www.w3.org/2000/svg">
<circle cx="50" cy="50" r="48.5" stroke="#C9D74A" stroke-width="3"/>
<path d="M72.5169 42.6657L55.2645 60.1167C55.2645 60.1168 55.2644 60.1168 55.2644 60.1169C54.9799 60.4064 54.6415 60.6364 54.2683 60.7934C53.8952 60.9504 53.4948 61.0312 53.0904 61.0312C52.6859 61.0312 52.2856 60.9504 51.9124 60.7934C51.5392 60.6363 51.2007 60.4063 50.9162 60.1167L41.8465 50.9293L27.1551 65.7943C26.8707 66.0839 26.5321 66.3139 26.159 66.4709C25.7858 66.6279 25.3854 66.7088 24.981 66.7088C24.5766 66.7088 24.1762 66.6279 23.803 66.4709C23.4301 66.314 23.0917 66.0842 22.8074 65.7948C22.521 65.5078 22.2939 65.1665 22.1388 64.7906L22.3699 64.6953L22.1388 64.7906C21.9836 64.4144 21.9037 64.011 21.9037 63.6036C21.9037 63.1962 21.9836 62.7927 22.1388 62.4165C22.294 62.0404 22.5213 61.6989 22.8079 61.4118C22.8081 61.4116 22.8082 61.4115 22.8083 61.4114L39.6725 44.3802C39.6726 44.38 39.6728 44.3799 39.6729 44.3797C39.9572 44.0903 40.2956 43.8605 40.6686 43.7035C41.0418 43.5465 41.4422 43.4656 41.8466 43.4656C42.251 43.4656 42.6514 43.5465 43.0246 43.7035C43.3978 43.8605 43.7363 44.0905 44.0207 44.3802L53.0906 53.5677L68.2041 38.3045H61.5232C60.7106 38.3045 59.9317 37.9785 59.3579 37.399C58.7841 36.8195 58.4622 36.0341 58.4622 35.2157C58.4622 34.3973 58.7841 33.612 59.3579 33.0325C59.9317 32.453 60.7106 32.127 61.5232 32.127H75.5779H75.5809V32.127C75.9809 32.1319 76.3759 32.2158 76.7438 32.374C76.7442 32.3741 76.7445 32.3743 76.7449 32.3744L76.646 32.6041C77.3329 32.8921 77.8787 33.4433 78.1639 34.137L72.5169 42.6657ZM72.5169 42.6657V49.4097C72.5169 50.2281 72.8388 51.0134 73.4126 51.5929C73.9864 52.1724 74.7653 52.4984 75.5779 52.4984C76.3905 52.4984 77.1693 52.1724 77.7432 51.5929C78.3169 51.0134 78.6388 50.2281 78.6388 49.4097L78.6388 35.2157L78.6388 35.2127C78.634 34.8098 78.551 34.4116 78.3946 34.0407L72.5169 42.6657Z" fill="#C9D74A" stroke="#C9D74A" stroke-width="0.5"/>
</svg>
