<svg width="375" height="304" viewBox="0 0 375 304" fill="none" xmlns="http://www.w3.org/2000/svg">
<g opacity="0.8">
<path d="M-0.334669 178.703L-14.1626 196.928" stroke="#2E1F4F" stroke-miterlimit="10" stroke-linecap="square"/>
<path d="M-12.0811 204.053L10.1978 210.542" stroke="#2E1F4F" stroke-miterlimit="10" stroke-linecap="square"/>
<path d="M4.19414 193.077L-9.63379 198.748" stroke="#2E1F4F" stroke-miterlimit="10" stroke-linecap="square"/>
<path d="M11.5559 190.054L8.84814 191.161" stroke="#2E1F4F" stroke-miterlimit="10" stroke-linecap="square"/>
<path d="M2.47021 222.702L4.66728 224.868" stroke="#2E1F4F" stroke-miterlimit="10" stroke-linecap="square"/>
<path d="M22.5411 22.223C21.8448 22.1487 21.1802 21.8931 20.6139 21.4817C19.9875 21.0869 19.3804 20.644 18.6866 20.2974C17.3761 19.6139 16.557 20.076 16.3932 21.5683C16.3691 22.0301 16.3691 22.4929 16.3932 22.9547C16.4089 23.6015 16.3475 24.248 16.2101 24.8803C16.144 25.2802 15.9856 25.6593 15.7473 25.9875C15.509 26.3156 15.1975 26.5837 14.8374 26.7706C14.4774 26.9575 14.0787 27.058 13.673 27.0641C13.2673 27.0702 12.8657 26.9818 12.5002 26.8058C11.8665 26.5176 11.2602 26.1728 10.6886 25.7756C9.87915 25.2846 9.08898 24.4085 8.05791 24.9284C7.02683 25.4483 7.23883 26.6614 7.23883 27.6049C7.25095 28.3486 7.17984 29.0914 7.02683 29.8193C6.95593 30.1949 6.80268 30.5502 6.57809 30.8596C6.35351 31.1691 6.06315 31.425 5.72785 31.6091C5.39256 31.7932 5.02064 31.9008 4.63878 31.9243C4.25693 31.9477 3.87461 31.8865 3.51926 31.7449C2.78427 31.4515 2.09097 31.0631 1.45712 30.5895C0.833489 30.0212 0.0349237 29.6817 -0.807384 29.6267C-1.2121 29.6267 -1.36628 29.3572 -1.52046 29.0683C-1.67464 28.7795 -1.68428 28.3655 -1.16393 28.2789C-0.4249 28.1388 0.339891 28.265 0.994578 28.6351C1.55348 28.9528 2.08347 29.3283 2.64237 29.6653C3.02892 29.9183 3.4349 30.1405 3.85653 30.3296C4.03007 30.4275 4.22508 30.4813 4.42435 30.4861C4.62362 30.491 4.82101 30.4467 4.9991 30.3573C5.1772 30.2678 5.33052 30.1359 5.44551 29.9733C5.56051 29.8106 5.63366 29.6222 5.6585 29.4246C5.79646 28.8838 5.85808 28.3264 5.84159 27.7686C5.80777 27.1657 5.80777 26.5614 5.84159 25.9586C5.85257 25.4891 5.98654 25.0307 6.23012 24.6292C6.47371 24.2276 6.81841 23.8968 7.22986 23.6698C7.6413 23.4429 8.1051 23.3276 8.57503 23.3356C9.04495 23.3436 9.50457 23.4745 9.90805 23.7153C10.5729 24.0234 11.1704 24.4855 11.8353 24.861C12.5002 25.2365 13.2518 25.9393 14.1287 25.4772C15.0056 25.015 14.9092 24.0812 14.9574 23.2532C14.9574 22.6081 14.9574 21.9534 14.9574 21.3276C15.208 18.9014 17.0774 17.8616 19.2455 18.9784C20.0261 19.3732 20.7295 19.9412 21.4908 20.3648C22.9844 21.2217 23.8902 20.75 24.0347 19.0458C24.1022 18.3045 24.0347 17.5632 24.0829 16.8218C24.0738 16.026 24.3241 15.2487 24.796 14.6074C24.9983 14.3668 25.2296 13.9913 25.5572 14.1453C25.8849 14.2994 26.2703 14.8867 26.0583 15.1851C25.1429 16.456 25.5765 17.8809 25.432 19.2384C25.2585 21.2313 24.2563 22.2904 22.5411 22.223Z" fill="#8488B6"/>
<path d="M39.742 287.843H40.8501C41.2838 287.843 41.6885 287.843 41.7077 288.44C41.727 289.037 41.3801 289.22 40.8501 289.23C40.1563 289.23 39.4625 289.23 38.7687 289.297C38.5085 289.297 38.1231 289.201 38.0171 289.47C37.9111 289.74 38.2772 290 38.4892 290.212C39.0096 290.731 39.5396 291.251 40.1081 291.733C40.6767 292.214 40.3876 292.407 40.1081 292.773C39.8287 293.138 39.5107 293.09 39.1927 292.773C38.5567 292.166 37.9111 291.559 37.2655 290.972C36.8993 290.645 36.668 290.789 36.668 291.242C36.668 292.079 36.668 292.907 36.7355 293.745C36.7355 294.217 36.6487 294.554 36.0706 294.583C35.4924 294.611 35.3575 294.323 35.3479 293.832C35.3479 292.994 35.2804 292.166 35.2419 291.328C35.2419 291.155 35.2419 290.953 35.0299 290.866C34.8179 290.78 34.683 290.963 34.5673 291.088C33.9602 291.723 33.3532 292.359 32.7557 293.013C32.4185 293.379 32.1486 293.302 31.7921 293.013C31.4356 292.724 31.3199 292.455 31.6861 292.05C32.3317 291.386 32.9581 290.703 33.6133 290.019C33.713 289.924 33.7775 289.799 33.7964 289.663C33.7964 289.441 33.5363 289.441 33.3532 289.451H30.7129C30.2889 289.451 30.019 289.364 29.9901 288.854C29.9612 288.344 30.1154 288.074 30.6743 288.065C31.5512 288.065 32.4377 288.065 33.3146 287.997C33.4881 287.997 33.7193 287.997 33.7386 287.766C33.7579 287.535 33.6326 287.525 33.5362 287.429C32.9003 286.823 32.2739 286.206 31.609 285.61C31.2525 285.282 31.1272 285.032 31.5127 284.599C31.8981 284.165 32.245 284.233 32.6305 284.599C33.2183 285.196 33.835 285.754 34.4517 286.322C34.577 286.428 34.7022 286.64 34.9142 286.505C35.1262 286.37 35.0491 286.187 35.0491 286.014C35.0491 285.176 35.0491 284.339 34.9817 283.511C34.9817 283 35.1166 282.731 35.6562 282.683C36.1958 282.635 36.3597 282.962 36.3693 283.434C36.3693 284.319 36.4175 285.196 36.456 286.072C36.4546 286.206 36.495 286.337 36.5717 286.447C36.7644 286.601 36.9185 286.447 37.0438 286.293C37.6509 285.658 38.258 285.022 38.8458 284.368C39.1831 284.002 39.4625 283.877 39.8769 284.281C40.2912 284.685 40.2912 284.926 39.8769 285.311C39.2216 285.966 38.5952 286.649 37.9496 287.343C37.6702 287.641 37.7762 287.834 38.1809 287.843H39.713H39.742Z" fill="#8488B6"/>
<path d="M120.359 278.369C120.291 278.514 120.224 278.677 120.137 278.841C119.116 280.699 118.075 282.557 117.073 284.435C116.755 285.022 116.437 285.138 115.878 284.762C114.972 284.136 113.854 283.867 113.074 283.029C113.472 282.1 113.939 281.202 114.471 280.343C115.097 279.159 115.781 278.003 116.398 276.81C116.678 276.261 116.976 276.203 117.487 276.502C118.277 276.983 119.106 277.397 119.906 277.849C120.098 277.955 120.339 278.052 120.359 278.369Z" fill="#8488B6"/>
<path d="M24.8725 2.21645C24.8725 2.33198 24.7761 2.50528 24.7087 2.66895C24.2461 3.77614 23.7451 4.87371 23.3211 5.99053C23.0994 6.57782 22.8007 6.6741 22.2707 6.43341C21.124 5.93276 19.9869 5.47063 18.821 4.97961C18.3391 4.77743 18.185 4.55599 18.4162 4.01684C18.9366 2.88076 19.3799 1.72543 19.8713 0.570103C20.0737 0.0598319 20.3242 -0.15198 20.9024 0.117597C22.0394 0.637496 23.2054 1.08037 24.3425 1.58102C24.5834 1.70618 24.8918 1.82171 24.8725 2.21645Z" fill="#8488B6"/>
<path d="M12.9535 38.6287C13.3957 38.6269 13.8337 38.7149 14.2409 38.8873C14.6481 39.0597 15.016 39.3129 15.3223 39.6316C15.6287 39.9503 15.8671 40.3278 16.0231 40.7412C16.179 41.1547 16.2494 41.5955 16.2298 42.0369C16.2089 42.6863 15.9968 43.3152 15.6198 43.8447C15.2429 44.3742 14.7181 44.7809 14.1109 45.0138C13.5038 45.2467 12.8414 45.2954 12.2066 45.1539C11.5719 45.0125 10.993 44.687 10.5425 44.2184C10.092 43.7497 9.7899 43.1587 9.674 42.5194C9.5581 41.88 9.63358 41.2206 9.89096 40.6239C10.1483 40.0272 10.5762 39.5196 11.121 39.1647C11.6657 38.8098 12.3032 38.6233 12.9535 38.6287ZM14.8326 41.8925C14.8251 41.6387 14.7675 41.389 14.6631 41.1575C14.5586 40.9261 14.4094 40.7176 14.2241 40.544C14.0387 40.3705 13.8208 40.2352 13.5829 40.1461C13.345 40.0569 13.0918 40.0157 12.8379 40.0247C12.3453 40.0518 11.8819 40.2666 11.5431 40.6248C11.2043 40.983 11.0159 41.4574 11.0166 41.9502C11.0166 42.4609 11.2197 42.9507 11.5811 43.3118C11.9425 43.6729 12.4327 43.8758 12.9439 43.8758C13.455 43.8758 13.9452 43.6729 14.3066 43.3118C14.6681 42.9507 14.8711 42.4609 14.8711 41.9502L14.8326 41.8925Z" fill="#8488B6"/>
<path d="M361.919 31.35C362.261 30.8072 362.641 30.2892 363.056 29.8C363.306 29.5074 363.618 29.2745 363.97 29.1185C364.321 28.9624 364.704 28.8872 365.088 28.8982C365.473 28.9093 365.85 29.0065 366.192 29.1825C366.534 29.3586 366.833 29.609 367.065 29.9155C367.569 30.5805 367.996 31.3008 368.337 32.0625C368.703 32.7557 368.983 33.5163 369.782 33.8533C370.197 34.0266 370.1 34.3732 370.1 34.6812C370.1 35.1723 369.917 35.3456 369.416 35.2108C368.744 35.0003 368.172 34.5518 367.807 33.9495C367.45 33.4104 367.181 32.8231 366.843 32.255C366.61 31.8034 366.349 31.3661 366.063 30.9457C365.962 30.7595 365.814 30.6026 365.634 30.4905C365.455 30.3784 365.249 30.3149 365.037 30.3061C364.825 30.2974 364.615 30.3438 364.426 30.4407C364.238 30.5376 364.078 30.6818 363.962 30.859C363.511 31.4479 363.099 32.0654 362.729 32.7076C362.487 33.1531 362.199 33.5725 361.871 33.9592C361.608 34.3048 361.264 34.5803 360.869 34.7612C360.474 34.9421 360.04 35.0228 359.607 34.9961C359.173 34.9694 358.752 34.8362 358.383 34.6083C358.013 34.3804 357.705 34.0648 357.487 33.6896C357.156 33.1886 356.857 32.6677 356.59 32.1299C356.34 31.687 356.137 31.2152 355.848 30.8013C355.106 29.7422 354.268 29.7422 353.488 30.705C353.052 31.3191 352.659 31.9624 352.312 32.6305C351.905 33.4707 351.226 34.1491 350.385 34.5561C350.105 34.6716 349.71 34.8834 349.498 34.5561C349.286 34.2287 349.228 33.5933 349.585 33.42C350.963 32.7942 351.271 31.3789 352.061 30.3295C352.225 30.1081 352.379 29.8674 352.562 29.6556C352.818 29.3206 353.149 29.0512 353.529 28.8698C353.909 28.6883 354.327 28.6001 354.748 28.6123C355.169 28.6246 355.582 28.7369 355.95 28.9401C356.319 29.1433 356.635 29.4315 356.87 29.7807C357.367 30.5103 357.802 31.2799 358.171 32.0817C358.547 32.7653 358.874 33.5837 359.809 33.5837C360.744 33.5837 361.1 32.7942 361.514 32.1203C361.64 31.8507 361.775 31.61 361.919 31.35Z" fill="#8488B6"/>
<path d="M303.928 14.7037C303.06 14.7147 302.221 14.3887 301.588 13.7943C300.956 13.1999 300.578 12.3835 300.536 11.5169C300.519 11.0744 300.592 10.6331 300.749 10.2192C300.906 9.80522 301.145 9.42713 301.452 9.10737C301.759 8.78761 302.126 8.53271 302.534 8.35783C302.941 8.18295 303.379 8.09166 303.822 8.0894C304.268 8.07169 304.713 8.14656 305.128 8.30929C305.544 8.47201 305.921 8.71904 306.236 9.0348C306.551 9.35055 306.797 9.72816 306.959 10.1438C307.121 10.5594 307.194 11.004 307.175 11.4495C307.173 12.3101 306.83 13.1349 306.222 13.7444C305.614 14.3538 304.789 14.6986 303.928 14.7037ZM303.928 13.298C304.181 13.2857 304.429 13.2236 304.659 13.1152C304.888 13.0069 305.093 12.8544 305.263 12.6666C305.433 12.4788 305.565 12.2593 305.65 12.0207C305.735 11.7821 305.772 11.5291 305.759 11.2762C305.747 11.0254 305.684 10.7797 305.574 10.554C305.464 10.3283 305.309 10.1274 305.119 9.96343C304.929 9.79948 304.707 9.67595 304.468 9.60039C304.228 9.52483 303.976 9.49882 303.726 9.52393C303.24 9.56043 302.786 9.7793 302.455 10.1365C302.125 10.4938 301.942 10.9629 301.943 11.4495C301.953 11.7024 302.013 11.9509 302.119 12.1808C302.225 12.4106 302.375 12.6173 302.561 12.789C302.748 12.9607 302.966 13.094 303.204 13.1813C303.441 13.2687 303.694 13.3083 303.947 13.298H303.928Z" fill="#8488B6"/>
<path d="M1.99762 272.362C1.92831 273.075 1.66875 273.757 1.246 274.335C0.860551 274.961 0.407649 275.568 0.0703821 276.261C-0.613788 277.57 -0.160882 278.389 1.33273 278.552C1.79817 278.576 2.26454 278.576 2.72997 278.552C3.37739 278.536 4.02439 278.598 4.65721 278.735C5.06276 278.793 5.44897 278.945 5.7844 279.18C6.11983 279.415 6.39501 279.726 6.58753 280.087C6.78006 280.448 6.88449 280.85 6.89232 281.259C6.90016 281.668 6.81118 282.074 6.63264 282.442C6.34793 283.077 6.00265 283.683 5.60156 284.252C5.11012 285.061 4.23322 285.85 4.75357 286.88C5.27393 287.911 6.43027 287.66 7.38426 287.679C8.12542 287.668 8.86556 287.739 9.59095 287.891C9.96689 287.962 10.3225 288.115 10.6322 288.34C10.9419 288.564 11.1981 288.854 11.3823 289.189C11.5665 289.524 11.6743 289.896 11.6978 290.277C11.7212 290.659 11.6599 291.041 11.5182 291.396C11.2242 292.128 10.8389 292.82 10.3715 293.456C9.80328 294.08 9.46356 294.877 9.40786 295.719C9.40786 296.123 9.14768 296.277 8.85859 296.431C8.56951 296.585 8.14551 296.595 8.05879 296.075C7.92277 295.336 8.04887 294.574 8.41533 293.918C8.74296 293.36 9.10914 292.821 9.4464 292.272C9.70279 291.886 9.92833 291.48 10.1209 291.059C10.2201 290.881 10.273 290.682 10.2748 290.479C10.2766 290.275 10.2273 290.075 10.1314 289.896C10.0354 289.716 9.89597 289.564 9.72577 289.453C9.55557 289.341 9.3601 289.275 9.15731 289.258C8.61607 289.121 8.0582 289.059 7.49989 289.076C6.89861 289.095 6.29673 289.075 5.69792 289.018C5.2275 289.01 4.76732 288.879 4.36369 288.638C3.96006 288.396 3.62722 288.053 3.39865 287.642C3.17008 287.231 3.05384 286.767 3.06164 286.297C3.06943 285.827 3.20098 285.368 3.44305 284.964C3.76104 284.3 4.21395 283.703 4.58976 283.039C4.96557 282.375 5.66901 281.624 5.20648 280.748C4.74394 279.871 3.80923 279.968 2.98052 279.92C2.33489 279.92 1.67963 279.92 1.05328 279.92C-1.37504 279.669 -2.41575 277.801 -1.29796 275.635C-0.893236 274.855 -0.334334 274.153 0.0896583 273.392C0.94728 271.89 0.48474 270.995 -1.2305 270.85C-1.96285 270.783 -2.71447 270.85 -3.45646 270.85C-4.25028 270.861 -5.02557 270.61 -5.66315 270.138C-5.90406 269.936 -6.28951 269.704 -6.12569 269.377C-5.96188 269.05 -5.39334 268.665 -5.08498 268.876C-3.813 269.791 -2.38684 269.358 -1.03777 269.502C1.0051 269.637 2.05544 270.638 1.99762 272.362Z" fill="#8488B6"/>
<path d="M56.9998 240.513C57.3669 240.759 57.6803 241.078 57.921 241.448C58.1617 241.819 58.3248 242.235 58.4005 242.67C58.4761 243.106 58.4627 243.552 58.3611 243.982C58.2595 244.412 58.0717 244.817 57.8092 245.173C57.4281 245.699 56.9002 246.101 56.2914 246.329C55.6827 246.557 55.0201 246.601 54.3867 246.454C53.7533 246.308 53.1772 245.978 52.7304 245.507C52.2836 245.035 51.986 244.442 51.8749 243.802C51.7637 243.162 51.8439 242.503 52.1054 241.909C52.367 241.314 52.7982 240.81 53.3452 240.458C53.8922 240.107 54.5307 239.925 55.1807 239.935C55.8308 239.945 56.4635 240.146 56.9998 240.513ZM56.73 244.268C56.865 244.054 56.9564 243.815 56.9989 243.565C57.0415 243.316 57.0343 243.06 56.9779 242.813C56.9216 242.567 56.817 242.333 56.6703 242.127C56.5236 241.921 56.3376 241.745 56.1229 241.611C55.7062 241.361 55.2107 241.278 54.7355 241.378C54.2603 241.478 53.8403 241.754 53.5597 242.15C53.4093 242.354 53.3025 242.587 53.2461 242.834C53.1898 243.082 53.1849 243.338 53.2319 243.587C53.2789 243.836 53.3768 244.073 53.5194 244.283C53.6619 244.493 53.8462 244.671 54.0607 244.807C54.4864 245.089 55.0065 245.19 55.507 245.089C56.0074 244.988 56.4473 244.693 56.73 244.268Z" fill="#8488B6"/>
<path d="M324.27 278.86C324.978 278.967 325.644 279.263 326.197 279.717C326.804 280.141 327.373 280.622 328.009 280.998C329.29 281.758 330.129 281.354 330.379 279.871C330.438 279.411 330.474 278.949 330.485 278.485C330.506 277.833 330.606 277.187 330.784 276.559C330.864 276.153 331.04 275.773 331.296 275.448C331.553 275.123 331.883 274.864 332.259 274.692C332.636 274.52 333.048 274.44 333.462 274.458C333.875 274.476 334.279 274.593 334.638 274.797C335.254 275.121 335.838 275.501 336.383 275.934C337.173 276.473 337.905 277.397 338.965 276.896C340.025 276.396 339.842 275.269 339.929 274.316C339.958 273.577 340.072 272.844 340.266 272.131C340.353 271.756 340.523 271.405 340.763 271.105C341.003 270.804 341.307 270.56 341.653 270.391C342 270.223 342.379 270.133 342.764 270.129C343.149 270.125 343.53 270.207 343.879 270.369C344.595 270.707 345.265 271.134 345.874 271.64C346.469 272.234 347.246 272.61 348.081 272.708C348.486 272.708 348.62 273.007 348.755 273.296C348.89 273.584 348.881 274.018 348.351 274.075C347.609 274.167 346.859 273.997 346.231 273.594C345.681 273.238 345.171 272.833 344.631 272.468C344.264 272.188 343.874 271.94 343.465 271.726C343.296 271.619 343.103 271.555 342.904 271.539C342.704 271.524 342.504 271.557 342.32 271.637C342.137 271.717 341.975 271.84 341.851 271.997C341.726 272.154 341.642 272.338 341.605 272.535C341.438 273.065 341.348 273.616 341.335 274.172C341.32 274.775 341.265 275.376 341.172 275.972C341.137 276.441 340.979 276.892 340.714 277.281C340.449 277.669 340.086 277.981 339.662 278.185C339.239 278.389 338.768 278.478 338.299 278.443C337.83 278.408 337.378 278.249 336.99 277.984C336.344 277.638 335.775 277.147 335.159 276.733C334.542 276.319 333.81 275.577 332.904 275.982C331.998 276.386 332.046 277.339 331.94 278.158C331.863 278.803 331.882 279.457 331.776 280.083C331.391 282.5 329.464 283.424 327.373 282.182C326.611 281.739 325.947 281.152 325.205 280.67C323.759 279.708 322.824 280.141 322.583 281.835C322.477 282.567 322.487 283.318 322.41 284.059C322.375 284.852 322.077 285.611 321.562 286.216C321.36 286.447 321.109 286.813 320.782 286.64C320.454 286.466 320.117 285.86 320.348 285.571C321.311 284.358 320.974 282.904 321.206 281.566C321.523 279.688 322.593 278.697 324.27 278.86Z" fill="#8488B6"/>
<path d="M330.358 263.158C329.961 262.376 329.891 261.469 330.162 260.636C330.434 259.803 331.027 259.111 331.809 258.714C332.591 258.317 333.499 258.247 334.333 258.519C335.167 258.79 335.858 259.382 336.256 260.163C336.467 260.552 336.596 260.98 336.635 261.421C336.673 261.861 336.62 262.305 336.479 262.725C336.338 263.144 336.112 263.53 335.815 263.857C335.518 264.185 335.156 264.449 334.753 264.631C334.367 264.824 333.948 264.939 333.518 264.969C333.089 264.999 332.657 264.945 332.249 264.808C331.84 264.671 331.463 264.454 331.139 264.171C330.814 263.888 330.549 263.544 330.358 263.158ZM332.392 259.99C332.17 260.114 331.976 260.281 331.819 260.48C331.663 260.68 331.547 260.908 331.479 261.152C331.411 261.397 331.392 261.652 331.423 261.903C331.454 262.155 331.534 262.398 331.659 262.618C331.909 263.035 332.307 263.341 332.773 263.477C333.24 263.613 333.74 263.567 334.174 263.35C334.403 263.24 334.607 263.085 334.773 262.894C334.94 262.702 335.065 262.479 335.142 262.237C335.219 261.995 335.245 261.74 335.22 261.488C335.194 261.236 335.117 260.991 334.993 260.77C334.751 260.323 334.341 259.99 333.853 259.844C333.366 259.698 332.841 259.751 332.392 259.99Z" fill="#8488B6"/>
<path d="M357.824 265.767C357.513 265.139 357.459 264.415 357.673 263.749C357.887 263.082 358.353 262.525 358.97 262.195C359.596 261.878 360.321 261.822 360.987 262.039C361.653 262.255 362.207 262.727 362.526 263.35C362.691 263.656 362.792 263.991 362.823 264.337C362.855 264.683 362.815 265.031 362.708 265.361C362.601 265.692 362.428 265.997 362.2 266.258C361.971 266.52 361.692 266.732 361.38 266.883C361.073 267.045 360.738 267.145 360.392 267.176C360.047 267.208 359.699 267.17 359.368 267.067C359.038 266.963 358.731 266.794 358.466 266.571C358.201 266.348 357.982 266.075 357.824 265.767Z" fill="#8488B6"/>
<path d="M294.821 52.2905V74.8675" stroke="#2E1F4F" stroke-miterlimit="10" stroke-linecap="round"/>
<path d="M303.676 62.3995H285.965" stroke="#2E1F4F" stroke-miterlimit="10" stroke-linecap="round"/>
<path d="M299.891 57.3257L289.744 67.4638" stroke="#2E1F4F" stroke-miterlimit="10" stroke-linecap="round"/>
<path d="M299.891 67.4638L289.744 57.3257" stroke="#2E1F4F" stroke-miterlimit="10" stroke-linecap="round"/>
<path d="M287.748 69.4664L286.707 70.5062" stroke="#2E1F4F" stroke-miterlimit="10" stroke-linecap="round"/>
<path d="M302.665 54.5529L301.624 55.5927" stroke="#2E1F4F" stroke-miterlimit="10" stroke-linecap="round"/>
<path d="M294.821 78.6224V80.4035" stroke="#2E1F4F" stroke-miterlimit="10" stroke-linecap="round"/>
<path d="M210.485 36.8668V47.0818" stroke="#2E1F4F" stroke-miterlimit="10" stroke-linecap="round"/>
<path d="M214.494 41.4399H206.486" stroke="#2E1F4F" stroke-miterlimit="10" stroke-linecap="round"/>
<path d="M212.779 39.1485L208.192 43.7313" stroke="#2E1F4F" stroke-miterlimit="10" stroke-linecap="round"/>
<path d="M212.779 43.7313L208.192 39.1485" stroke="#2E1F4F" stroke-miterlimit="10" stroke-linecap="round"/>
<path d="M370.321 132.653V139.547" stroke="#2E1F4F" stroke-width="0.68" stroke-miterlimit="10" stroke-linecap="round"/>
<path d="M373.028 135.744H367.623" stroke="#2E1F4F" stroke-width="0.68" stroke-miterlimit="10" stroke-linecap="round"/>
<path d="M371.872 134.194L368.779 137.294" stroke="#2E1F4F" stroke-width="0.68" stroke-miterlimit="10" stroke-linecap="round"/>
<path d="M371.872 137.294L368.779 134.194" stroke="#2E1F4F" stroke-width="0.68" stroke-miterlimit="10" stroke-linecap="round"/>
<path d="M130.226 118.905C130.934 118.905 131.508 118.332 131.508 117.624C131.508 116.917 130.934 116.344 130.226 116.344C129.519 116.344 128.945 116.917 128.945 117.624C128.945 118.332 129.519 118.905 130.226 118.905Z" stroke="#2E1F4F" stroke-miterlimit="10" stroke-linecap="round"/>
<path d="M108.515 46.7545C108.517 47.01 108.442 47.2604 108.302 47.4738C108.161 47.6872 107.96 47.8541 107.724 47.9532C107.488 48.0524 107.228 48.0793 106.977 48.0306C106.726 47.9819 106.495 47.8598 106.314 47.6798C106.132 47.4997 106.008 47.2699 105.958 47.0193C105.907 46.7688 105.932 46.5089 106.029 46.2726C106.127 46.0363 106.292 45.8343 106.505 45.6921C106.718 45.5499 106.968 45.474 107.223 45.474C107.392 45.4727 107.56 45.5049 107.717 45.5687C107.873 45.6325 108.016 45.7266 108.136 45.8456C108.256 45.9646 108.351 46.1062 108.416 46.2622C108.481 46.4182 108.515 46.5855 108.515 46.7545V46.7545Z" stroke="#2E1F4F" stroke-miterlimit="10" stroke-linecap="round"/>
<path d="M48.627 102.23V119.463" stroke="#2E1F4F" stroke-width="0.76" stroke-miterlimit="10" stroke-linecap="round"/>
<path d="M55.3809 109.941H41.8613" stroke="#2E1F4F" stroke-width="0.76" stroke-miterlimit="10" stroke-linecap="round"/>
<path d="M52.4999 106.071L44.7524 113.812" stroke="#2E1F4F" stroke-width="0.76" stroke-miterlimit="10" stroke-linecap="round"/>
<path d="M52.4999 113.812L44.7524 106.071" stroke="#2E1F4F" stroke-width="0.76" stroke-miterlimit="10" stroke-linecap="round"/>
<path d="M43.2203 115.343L42.4302 116.132" stroke="#2E1F4F" stroke-width="0.76" stroke-miterlimit="10" stroke-linecap="round"/>
<path d="M54.6115 103.963L53.8213 104.752" stroke="#2E1F4F" stroke-width="0.76" stroke-miterlimit="10" stroke-linecap="round"/>
<path d="M48.627 122.342V123.69" stroke="#2E1F4F" stroke-width="0.76" stroke-miterlimit="10" stroke-linecap="round"/>
<path d="M16.3447 166.697C15.5543 167.211 14.9524 167.968 14.6294 168.854C14.288 169.725 14.0832 170.644 14.0224 171.578C13.9388 172.512 13.9614 173.452 14.0898 174.38C14.1461 174.845 14.2363 175.305 14.3596 175.757C14.4746 176.215 14.6294 176.663 14.8222 177.095C14.3482 176.262 14.0221 175.353 13.8585 174.409C13.6982 173.455 13.6561 172.485 13.7333 171.52C13.8101 170.565 14.0411 169.629 14.4174 168.748C14.6133 168.31 14.8696 167.901 15.1787 167.535C15.5012 167.173 15.8993 166.887 16.3447 166.697Z" fill="#EAE9F0"/>
<path d="M14.7459 169.21C15.0446 168.363 15.5071 167.467 15.7095 167.477C15.9119 167.487 16.2395 168.44 16.4515 169.297C16.6635 170.153 14.4279 170.105 14.7459 169.21Z" fill="#A88AAC"/>
<path d="M26.145 154.065C25.8559 159.428 21.0089 168.507 15.6319 168.18C10.2549 167.852 6.40047 158.398 6.68956 153.035C6.85799 150.481 8.02677 148.096 9.94276 146.396C11.8588 144.697 14.3677 143.82 16.9263 143.955C19.4848 144.091 21.8869 145.228 23.6124 147.12C25.3379 149.012 26.2478 151.508 26.145 154.065Z" fill="#A88AAC"/>
<path d="M25.2489 155.741C24.8346 160.343 20.2381 167.939 15.8151 167.535C11.3921 167.13 17.7424 164.877 18.1182 160.275C18.494 155.673 19.3709 152.814 21.8666 151.264C25.7018 148.886 25.6729 151.129 25.2489 155.741Z" fill="#9F7CA3"/>
<path d="M16.115 146.633L15.5465 146.739C15.2705 146.796 14.9829 146.742 14.7471 146.587C14.5112 146.433 14.3465 146.191 14.289 145.916C14.2314 145.64 14.2859 145.352 14.4405 145.117C14.595 144.881 14.8368 144.717 15.1128 144.659C15.3441 144.611 15.5754 144.563 15.8163 144.534C16.0936 144.485 16.3788 144.549 16.6092 144.711C16.8396 144.872 16.9963 145.119 17.0449 145.396C17.0934 145.673 17.0299 145.958 16.8681 146.188C16.7064 146.418 16.4597 146.575 16.1825 146.623L16.115 146.633Z" fill="#F5F7F8"/>
<path d="M9.45621 153.382C9.17901 153.423 8.89666 153.353 8.67092 153.187C8.44519 153.021 8.29445 152.773 8.25168 152.496C8.1431 151.122 8.45318 149.748 9.14116 148.554C9.82913 147.359 10.8628 146.401 12.1062 145.805C12.2395 145.753 12.3819 145.728 12.525 145.732C12.6681 145.737 12.8088 145.77 12.9387 145.83C13.0686 145.89 13.1849 145.976 13.2806 146.082C13.3764 146.189 13.4496 146.313 13.4958 146.449C13.5421 146.584 13.5604 146.727 13.5497 146.87C13.539 147.013 13.4995 147.152 13.4336 147.279C13.3676 147.406 13.2767 147.518 13.1661 147.609C13.0556 147.7 12.9277 147.767 12.7903 147.807C12.0127 148.234 11.3682 148.867 10.9278 149.637C10.4874 150.406 10.2683 151.283 10.2946 152.169C10.3399 152.44 10.2778 152.718 10.1213 152.945C9.96483 153.171 9.72629 153.328 9.45621 153.382Z" fill="#F5F7F8"/>
</g>
</svg>
