<svg width="1183" height="370" viewBox="0 0 1183 370" fill="none" xmlns="http://www.w3.org/2000/svg">
<path d="M1180 339.5C1180 336.957 1178.85 335 1177.39 335H3.15654C1.39616 335 0 337.054 0 339.5C0 342.043 1.39616 344 3.15654 344H1177.39C1178.85 344 1180 342.043 1180 339.5Z" fill="#DCE6EA" fill-opacity="0.8"/>
<path d="M261.343 288.7C257.554 294.317 253.266 298.81 252.724 299.309C252.474 299.559 250.726 300.1 250.434 300.35C247.978 308.088 251.142 314.703 254.515 319.863C255.056 315.66 255.472 309.919 256.138 309.212C257.179 308.088 260.677 303.22 267.796 297.271C264.007 295.19 263.591 292.32 261.343 288.7Z" fill="#F7A491"/>
<path d="M252.516 299.434C249.726 299.601 244.48 301.348 244.522 301.889C244.563 302.554 247.519 325.396 251.142 327.435C253.307 328.641 253.723 325.105 254.514 319.904C251.142 314.703 250.975 300.765 252.516 299.434Z" fill="#466EB6"/>
<path d="M203.845 278.007C198.057 281.461 192.312 284.082 191.604 284.331C191.271 284.456 189.439 284.207 189.064 284.331C183.568 290.281 183.61 297.562 184.443 303.72C186.732 300.142 189.564 295.149 190.438 294.774C191.854 294.192 196.975 291.987 205.926 289.574C203.428 286.079 204.344 282.251 203.845 278.007Z" fill="#F7A491"/>
<path d="M267.296 124.15C267.296 124.15 276.081 107.674 277.372 101.766C278.663 95.8579 283.159 66.1515 282.785 64.1961C282.41 62.2822 275.29 57.664 276.165 56.0414C277.039 54.4187 283.826 54.4187 285.366 54.5436C286.907 54.6684 290.029 55.5837 291.362 56.6654C292.694 57.7472 289.863 93.4032 289.03 101.059C288.197 108.714 275.332 133.844 275.332 133.844L267.296 124.15Z" fill="#F7A491"/>
<path d="M227.909 147.99C227.909 147.99 210.048 176.573 206.925 182.19C203.803 187.806 192.186 202.119 191.603 202.826C191.021 203.533 178.738 202.909 179.071 204.324C179.404 205.738 185.067 204.324 185.192 206.03C185.317 207.694 175.449 218.345 176.448 218.761C178.28 219.551 182.694 212.478 183.485 213.019C184.276 213.56 178.197 219.967 179.196 221.34C180.195 222.713 184.401 214.725 185.192 214.808C185.983 214.892 182.236 222.838 183.943 222.921C184.859 222.963 187.107 215.765 187.981 216.431C188.856 217.055 188.023 222.838 189.105 222.755C190.188 222.713 189.189 217.846 190.854 215.266C192.519 212.687 192.395 209.982 196.225 206.695C200.055 203.367 214.836 193.298 220.207 184.353C225.578 175.449 237.485 155.728 237.485 155.728L227.909 147.99Z" fill="#F7A491"/>
<path d="M270.627 190.511L239.609 200.496C239.609 200.496 256.679 229.495 260.052 235.278C263.424 241.062 277.955 255.332 277.997 259.077C277.997 261.74 264.299 279.256 256.055 289.948C257.928 293.401 263.008 297.895 266.255 299.85C279.995 286.828 300.063 266.275 300.438 259.576C300.896 249.716 270.627 190.511 270.627 190.511Z" fill="#3C8F7C"/>
<path d="M191.354 284.331C188.772 283.291 183.318 282.626 183.11 283.166C182.86 283.79 175.824 305.717 178.238 309.087C179.696 311.125 181.569 308.047 184.484 303.72C183.609 297.562 189.647 284.498 191.354 284.331Z" fill="#466EB6"/>
<path d="M264.257 208.401C264.632 206.487 267.213 200.871 268.545 196.419C269.628 192.716 269.836 188.805 269.128 185.019L246.312 183.937L245.438 185.643C244.48 187.473 243.148 189.096 241.524 190.344C238.11 192.924 232.115 198.582 232.281 206.487C232.531 217.513 240.358 257.829 237.777 259.326C233.072 262.031 213.462 271.6 201.721 277.466C201.887 281.752 203.095 287.826 205.302 291.488C214.586 287.951 247.228 273.514 253.307 269.977C256.013 268.355 263.591 211.646 264.257 208.401Z" fill="#50BFA5"/>
<path d="M209.09 80.0478C210.881 84.8325 208.049 88.4105 206.051 93.112C204.718 96.274 207.675 101.308 211.005 103.597C219.457 109.463 221.414 109.588 220.831 117.534C219.374 136.673 242.273 128.518 245.937 127.894C249.643 127.27 252.391 127.437 254.181 126.23C259.469 122.569 264.465 111.543 263.549 102.265C262.633 92.9872 251.558 96.1908 249.018 91.9054C246.479 87.6616 254.139 82.3361 247.603 75.2216C228.909 54.7932 209.34 68.4815 208.674 76.3033C208.507 77.8011 208.715 79.0077 209.09 80.0478Z" fill="#F47458"/>
<path d="M273.375 147.699C273.375 147.699 279.745 132.596 280.745 130.058C280.745 130.058 271.835 122.153 266.547 122.777C266.547 122.777 259.677 133.594 255.597 133.969C251.558 134.343 237.278 134.967 234.779 136.465C232.281 137.963 221.664 153.939 221.664 153.939C221.664 153.939 231.199 163.467 235.029 163.467C235.029 163.467 237.652 157.018 238.527 158.183C239.401 159.348 242.94 184.395 244.73 186.309C246.396 188.056 266.339 194.796 272.126 193.59C272.126 193.59 275.249 169.458 275.082 154.647C275.082 152.317 273.375 147.699 273.375 147.699Z" fill="#F7CC7F"/>
<path d="M245.563 126.854C245.563 126.854 247.811 134.301 247.811 137.297C247.811 140.334 250.226 149.82 256.596 149.196C262.925 148.572 256.513 136.798 255.638 133.927C254.722 131.056 253.64 121.986 253.64 121.986L245.563 126.854Z" fill="#F7A491"/>
<path d="M254.265 126.563C253.89 124.108 253.682 122.028 253.682 122.028L245.604 126.854C245.604 126.854 246.062 128.394 246.562 130.307C250.351 130.682 252.891 129.018 254.265 126.563Z" fill="#F47458"/>
<path d="M240.317 106.259C240.317 106.259 237.236 108.423 236.445 112.459C235.653 116.536 238.068 126.521 246.77 128.102C255.472 129.683 258.303 121.279 255.93 115.163C253.515 109.047 248.893 101.475 240.317 106.259Z" fill="#F7A491"/>
<path d="M256.721 112.625C256.721 114.331 255.93 115.704 254.931 115.704C253.931 115.704 253.14 114.331 253.099 112.625C253.099 110.919 253.89 109.546 254.889 109.546C255.888 109.546 256.721 110.919 256.721 112.625Z" fill="#F7A491"/>
<path d="M240.192 121.113C241.358 122.485 241.524 124.233 240.566 124.982C239.65 125.772 237.943 125.273 236.819 123.9C235.654 122.527 235.487 120.78 236.445 120.031C237.361 119.24 239.068 119.74 240.192 121.113Z" fill="#F7A491"/>
<path d="M282.285 56.1661C282.118 56.291 281.91 56.4158 281.744 56.5406L280.786 57.4143C281.702 57.6223 283.159 57.4559 284.533 58.4961C284.575 58.4961 284.283 57.3727 282.285 56.1661Z" fill="#F47257"/>
<path d="M297.44 5.86494C295.358 6.281 286.99 17.4729 286.99 17.4729L286.698 18.2634C286.698 18.2634 301.812 16.5992 302.395 15.9335C303.852 14.1445 299.147 5.49049 297.44 5.86494ZM287.073 17.6809C289.821 14.1445 296.108 8.98536 297.482 7.90362C298.689 9.15179 300.521 12.8131 300.771 14.4357C299.022 14.8102 291.486 17.1817 287.073 17.6809Z" fill="#F47458"/>
<path d="M279.87 3.53505C276.623 -0.875148 274.874 -0.126247 273.625 0.414626C272.376 0.955499 267.796 6.65547 269.212 9.65107C270.627 12.6467 284.783 18.5131 284.783 18.5131L285.283 17.4313C285.325 17.3897 283.16 7.94524 279.87 3.53505ZM270.919 8.81896C270.211 7.32116 273.25 2.86936 274.458 2.07885C274.749 1.95403 274.999 1.82922 275.207 1.82922C275.457 1.82922 276.498 2.03725 278.413 4.61679C280.495 7.44598 283.867 14.4357 284.658 17.3897C278.954 14.8934 271.627 10.1087 270.919 8.81896Z" fill="#F47458"/>
<path d="M285.491 20.3853H286.157C286.823 20.3853 287.364 19.8444 287.364 19.1787V17.1817C287.364 16.516 286.823 15.9751 286.157 15.9751H285.491C284.825 15.9751 284.283 16.516 284.283 17.1817V19.1787C284.242 19.8444 284.783 20.3853 285.491 20.3853Z" fill="#F47458"/>
<path d="M308.723 57.4143H265.714C263.383 57.4143 261.467 55.6253 261.301 53.2954L259.052 18.7627H315.052L312.72 54.71C312.637 56.2494 310.847 57.4143 308.723 57.4143Z" fill="#F7CC7F"/>
<path d="M317.383 26.2933L256.596 26.4181L255.93 22.5072C255.555 20.1773 257.345 18.0554 259.719 18.0554L314.76 18.2218C316.717 18.2218 318.258 19.4284 318.091 20.843L317.383 26.2933Z" fill="#FAE0B2"/>
<path d="M286.906 18.0969H285.74V26.3764H286.906V18.0969Z" fill="#F47458"/>
<path d="M288.364 26.335H286.906V57.456H288.364V26.335Z" fill="#F47458"/>
<path d="M281.369 59.6194L280.828 57.4559C279.121 57.4975 277.83 57.0815 276.914 56.8318L275.415 56.1661C274.915 55.9581 274.374 56.1661 274.166 56.6654C273.999 57.0399 274.124 57.4975 274.457 57.7472C274.457 57.7472 278.538 61.1172 279.995 62.1574C280.703 62.6566 282.951 64.0296 282.951 64.0296L284.242 61.5749L281.369 59.6194Z" fill="#F7A491"/>
<path d="M975.098 132.729C973.293 124.375 966.307 118.374 958.143 118.571C956.26 114.178 952.61 110.57 948.332 108.923C939.854 105.628 927.57 107.236 926.589 116.61C922.311 122.336 920.937 131.317 925.451 136.925C922.468 145.083 929.14 154.495 939.344 155.868C942.052 162.339 948.253 167.242 955.082 167.477C956.731 167.555 959.242 167.516 959.635 167.712C959.125 167.516 969.211 178.105 980.632 166.183C992.328 154.025 987.814 136.258 975.098 132.729Z" fill="#13375B"/>
<path d="M919.289 138.219C919.289 138.219 891.384 124.767 891.267 124.218C891.07 123.434 900.686 112.884 905.71 112.021C909.556 111.354 914.305 107.589 914.305 107.589C914.305 107.589 909.163 101.667 904.257 102.648C899.352 103.628 899.666 107.628 899.666 107.628C899.666 107.628 886.518 114.688 878.904 121.63C871.682 128.219 910.105 146.338 910.105 146.338L919.289 138.219Z" fill="#F7A491"/>
<path d="M904.571 282.076C905.749 288.508 907.79 294.194 908.064 294.861C908.182 295.175 909.477 296.352 909.634 296.665C908.967 304.509 903.943 309.176 899.234 312.51C900.254 308.549 902.53 303.999 902.217 303.136C901.746 301.725 899.94 295.332 896.055 287.292C900.019 286.86 901.392 284.468 904.571 282.076Z" fill="#F7A491"/>
<path d="M921.644 188.616L946.056 207.167C946.056 207.167 933.968 218.776 929.415 223.129C924.862 227.443 899.469 243.994 899.077 245.014C898.802 245.759 901.314 255.054 907.162 284.821C904.572 287.449 898.881 290.037 895.545 290.9C887.067 274.742 880.435 241.601 880.435 237.876C880.474 231.757 921.644 188.616 921.644 188.616Z" fill="#355389"/>
<path d="M990.169 225.639C989.384 226.423 984.086 236.738 982.045 242.268C979.102 240.425 977.296 238.189 974 236.934C976.59 233.169 981.692 224.11 982.084 221.952C983.066 216.854 984.243 216.07 984.243 216.07C984.243 216.07 1001.39 221.874 1002.53 223.482C1003.71 225.129 993.388 222.502 990.169 225.639Z" fill="#F7A491"/>
<path d="M981.927 223.09C980.593 223.09 982.045 217.089 982.359 215.677C982.712 214.109 983.615 213.638 983.811 213.599C984.439 213.442 1003.51 219.913 1006.73 222.227C1006.97 222.384 1007.36 222.894 1007.4 222.972C1009.16 226.267 993.427 226.894 991.19 225.443C989.149 224.188 987.893 223.051 981.927 223.09Z" fill="#3C8F7C"/>
<path d="M916.424 194.107C916.424 194.107 939.462 185.047 939.737 186.028C942.131 193.715 950.569 191.244 954.965 204.735C956.809 210.383 957.241 225.325 958.497 236.424C959.36 244.033 960.538 250.151 960.538 250.151C960.538 250.151 965.875 243.876 975.883 232.581C976.668 231.718 984.753 237.797 984.753 237.797C968.78 269.447 957.006 274.193 954.572 273.055C938.049 265.486 924.548 208.775 924.587 208.775C922.743 205.127 916.424 194.107 916.424 194.107Z" fill="#466EB6"/>
<g clip-path="url(#clip0)">
<path d="M1090.56 320.711C1090.56 320.711 1100.98 328.238 1102.64 330.504C1105.02 333.741 1084.94 339.811 1087.16 336.007C1087.65 335.117 1089.1 332.204 1089.18 331.92C1089.51 330.383 1085.26 326.214 1085.26 326.214L1090.56 320.711Z" fill="#F7A491"/>
<path d="M1081.71 342.361L1088.78 332.325C1088.78 332.325 1093.22 331.313 1097.75 326.174C1097.75 326.174 1101.83 327.752 1104.33 331.111C1104.33 331.111 1099.61 336.25 1092.29 341.997C1092.29 341.997 1087.97 345.841 1081.99 347.864C1075.97 349.888 1081.71 342.361 1081.71 342.361Z" fill="#F7CC7F"/>
<path d="M1177.75 183.365C1177.75 183.365 1176.45 184.498 1176.01 184.862C1175.48 185.267 1173.79 186.359 1173.79 186.359C1173.79 186.359 1167.69 189.84 1167.48 189.354C1167.28 188.909 1167.28 187.573 1167.61 187.25C1167.89 186.885 1168.78 186.562 1169.1 186.198C1169.38 185.833 1169.5 185.145 1169.1 184.781C1168.7 184.377 1166.64 185.55 1166.64 185.55C1166.64 185.55 1164.94 186.481 1164.25 187.614C1161.83 191.539 1162.56 191.782 1162.23 192.268C1161.83 192.834 1153.3 196.719 1153.3 196.719C1153.3 196.719 1127.77 207.362 1126.39 207.928C1126.19 209.102 1126.84 210.195 1127.16 211.247C1127.77 214.889 1128.86 215.132 1129.67 218.652C1133.59 216.669 1160.7 201.697 1163.44 200.159C1163.44 200.159 1167.57 199.471 1170.15 198.904C1172.74 198.378 1175 196.76 1175.69 196.476C1175.81 196.436 1178.11 195.424 1180.66 193.482C1182.84 191.782 1180.01 192.43 1180.01 192.43C1180.01 192.43 1175.4 194.858 1175.28 194.493C1175.2 194.21 1177.79 192.996 1180.21 191.135C1180.86 190.649 1181.46 190.204 1182.03 189.759C1183.53 188.626 1183.24 187.412 1181.5 188.383C1180.9 188.707 1179.89 189.314 1179.24 189.84C1178.52 190.406 1177.71 190.689 1177.02 191.094C1175.69 191.863 1174.72 192.43 1174.72 192.349C1174.72 192.268 1174.35 192.227 1175 191.701C1175.77 191.054 1177.75 190.082 1178.8 189.071C1179.4 188.504 1180.78 187.371 1180.78 187.371C1180.78 187.371 1182.52 185.307 1182.43 185.145C1181.99 184.417 1180.41 185.51 1179.65 186.4C1178.88 186.724 1177.5 187.978 1177.5 187.978C1177.5 187.978 1174.15 189.84 1173.91 189.394C1173.79 189.192 1175.73 187.816 1177.42 186.157C1179 184.619 1180.33 182.839 1180.09 182.475C1179.69 181.868 1177.75 183.365 1177.75 183.365Z" fill="#F8A492"/>
<path d="M1106.52 243.257L1104.86 251.431L1063.36 289.227L1093.06 319.335L1085.02 327.55C1085.02 327.55 1041.14 295.297 1039.57 291.048C1037.14 284.533 1071 241.395 1071 241.395L1106.52 243.257Z" fill="#B75742"/>
<path d="M1135.61 342.482C1135.61 342.482 1146.03 350.009 1147.69 352.275C1150.07 355.513 1129.99 361.583 1132.21 357.779C1132.7 356.889 1134.15 353.975 1134.23 353.692C1134.56 352.154 1130.31 347.986 1130.31 347.986L1135.61 342.482Z" fill="#F7A491"/>
<path d="M1126.76 364.132L1133.83 354.096C1133.83 354.096 1138.56 353.247 1143.08 348.148C1143.08 348.148 1146.88 349.524 1149.38 352.923C1149.38 352.923 1144.66 358.062 1137.34 363.809C1137.34 363.809 1133.02 367.653 1127.04 369.676C1121.02 371.7 1126.76 364.132 1126.76 364.132Z" fill="#F7CC7F"/>
<path d="M1105.1 247.06L1103.2 298.656L1138.27 341.754L1130.03 349.362C1130.03 349.362 1089.3 314.358 1084.82 304.605C1082.03 298.535 1072.7 243.864 1072.7 243.864L1105.1 247.06Z" fill="#F47458"/>
<path d="M1071.61 242.811C1075 235.163 1074.6 180.492 1087.73 167.664C1092.33 168.432 1095.65 168.878 1096.41 169.08C1097.1 174.705 1097.87 195.384 1098.31 214.322C1098.64 226.948 1098.31 240.181 1099.85 247.182C1100.82 251.552 1068.54 249.812 1071.61 242.811Z" fill="#FAE0B2"/>
<path d="M1107.16 171.913C1110.84 172.762 1113.55 173.329 1118.39 180.492C1123.04 187.331 1133.3 203.599 1133.3 203.599L1160.37 191.539L1161.63 205.258C1161.63 205.258 1131 221.202 1126.68 219.745C1122.35 218.288 1110.23 200.523 1109.3 199.309C1109.1 199.026 1110.31 218.288 1110.31 221.364C1110.31 224.439 1116.17 251.269 1116.17 251.269C1116.17 251.269 1101.26 254.952 1098.35 248.274C1089.42 227.838 1096.29 169.039 1096.29 169.039C1096.29 169.039 1104.49 171.306 1107.16 171.913Z" fill="#466EB6"/>
<path d="M1050.84 113.356C1051.85 112.264 1052.05 109.917 1052.01 108.46L1052.25 106.477C1051.77 106.356 1042.64 106.275 1039.93 106.558C1039.77 107.448 1039.73 108.177 1039.89 108.622C1040.58 110.767 1045.3 124.728 1045.3 124.728L1053.02 123.837C1053.06 123.837 1050.27 115.542 1050.84 113.356Z" fill="#F7A491"/>
<path d="M1084.7 170.901C1084.7 170.901 1079.36 186.117 1074.96 183.891C1070.56 181.706 1045.91 156.535 1045.67 155.321C1045.42 154.107 1043.73 123.19 1043.73 123.19L1053.46 121.248L1059.08 146.54C1059.08 146.54 1077.14 163.819 1080.78 165.519C1084.45 167.218 1084.7 170.901 1084.7 170.901Z" fill="#466EB6"/>
<path d="M1070.27 246.494C1067.32 246.494 1066.23 246.089 1064.25 245.482C1064.25 245.482 1069.87 213.756 1073.14 182.272C1074.43 169.849 1075.65 164.75 1080.74 165.64C1082.23 165.883 1086.23 167.421 1087.69 167.664C1074.84 204.125 1074.76 232.209 1072.94 240.343C1072.09 244.43 1071.28 246.494 1070.27 246.494Z" fill="#466EB6"/>
<path d="M1089.1 162.16L1087.77 167.664C1087.77 167.664 1087.44 172.479 1089.67 172.884C1092.33 173.41 1096.33 169.404 1096.33 169.404L1098.64 153.864L1089.1 162.16Z" fill="#F7A491"/>
<path d="M1089.1 162.16L1087.77 167.664C1087.77 167.664 1087.44 172.479 1089.67 172.884C1092.33 173.41 1096.33 169.404 1096.33 169.404L1098.64 153.864L1089.1 162.16Z" fill="#F7A491"/>
<path d="M1098.6 153.945L1089.06 162.16L1088.05 166.288C1091.73 165.397 1096.9 161.391 1098.6 153.945Z" fill="#F47458"/>
<path d="M1089.06 139.66C1086.76 139.66 1084.7 141.238 1083.89 143.545C1083.2 145.447 1082.35 148.28 1081.83 151.517C1080.82 157.506 1084.21 162.969 1087.16 163.414C1090.11 163.86 1097.14 161.877 1098.72 153.419C1099.4 149.777 1100.25 145.042 1097.3 142.533C1094.96 140.591 1091.69 139.66 1089.06 139.66Z" fill="#F7A491"/>
<path d="M1097.75 159.853C1097.75 159.853 1108.17 150.546 1108.62 143.302C1109.06 136.018 1102.35 132.133 1096.66 131.931C1094.07 131.85 1092.33 131.971 1089.63 132.295C1083.89 133.024 1080.17 135.573 1081.46 140.267C1083.24 146.58 1095.12 141.238 1097.59 143.221C1099.61 144.84 1096.33 148.725 1098.27 150.222C1100.09 151.639 1099.16 151.153 1098.56 153.783C1097.99 156.454 1097.75 159.853 1097.75 159.853Z" fill="#184655"/>
<path d="M1101.75 151.436C1101.5 153.176 1100.41 154.471 1099.36 154.309C1098.31 154.147 1097.67 152.61 1097.91 150.87C1098.15 149.13 1099.24 147.835 1100.29 147.996C1101.38 148.158 1102.03 149.696 1101.75 151.436Z" fill="#F7A491"/>
<path d="M1049.95 107.286C1049.95 107.286 1048.49 108.298 1047.12 110.726C1047.12 110.726 1042.39 108.5 1042.43 107.61C1042.47 106.396 1047.24 108.015 1047.24 108.015L1049.95 107.286Z" fill="#F47458"/>
<path d="M1093.99 84.5853L1039.44 112.71C1036.5 114.207 1032.41 112.103 1030.27 107.975L1012.25 72.8497C1010.11 68.7221 1010.8 64.1493 1013.71 62.6115L1068.25 34.4867C1071.2 32.9894 1075.28 35.0937 1077.42 39.2214L1095.44 74.347C1097.59 78.4747 1096.94 83.0475 1093.99 84.5853Z" fill="#F7CC7F"/>
<path d="M1093.66 70.8259L1028.5 104.432L1030.64 108.606L1095.81 74.9995L1093.66 70.8259Z" fill="#355389"/>
<path d="M1051.16 103.725L1052.25 106.436L1049.71 107.772C1049.71 107.772 1050.35 106.477 1050.11 106.113C1048.9 104.17 1049.95 102.268 1051.16 103.725Z" fill="#F7A491"/>
<path d="M1059.24 52.1293L1058.39 50.5107L1066.11 46.4639L1066.96 48.0826L1059.24 52.1293Z" fill="#355389"/>
<path d="M1068.29 50.6725L1071.2 56.176L1069.83 56.9044L1067.77 52.9791L1065.99 53.9099L1067.77 57.3496L1066.43 58.0375L1064.66 54.5978L1061.42 56.2974L1060.58 54.6787L1068.29 50.6725Z" fill="#355389"/>
<path d="M1071.97 57.6734L1072.82 59.3326L1068.09 61.8415C1067.57 62.1248 1067.2 62.3676 1067.04 62.6509C1066.72 63.0555 1066.72 63.6221 1067.04 64.2696C1067.36 64.917 1067.81 65.2408 1068.37 65.2003C1068.7 65.2003 1069.1 65.0384 1069.63 64.7956L1074.35 62.2867L1075.2 63.9458L1070.47 66.3739C1069.67 66.819 1068.94 67.0213 1068.37 66.9809C1067.28 66.9404 1066.39 66.2525 1065.71 64.917C1065.02 63.5816 1064.94 62.4485 1065.55 61.5178C1065.87 61.0322 1066.43 60.5466 1067.28 60.1419L1071.97 57.6734Z" fill="#355389"/>
</g>
<path d="M951.982 140.455C951.982 140.455 979.455 140.416 985.342 140.063C990.68 139.749 1011.79 140.298 1012.62 140.18C1013.44 140.102 1018.9 130.846 1019.8 131.827C1020.7 132.807 1016.78 136.415 1018 137.357C1019.21 138.298 1032.32 136.219 1032.16 137.16C1031.85 138.965 1024.2 138.729 1024.2 139.631C1024.2 140.494 1032.2 139.121 1032.75 140.612C1033.3 142.063 1025.06 141.2 1024.75 141.867C1024.43 142.533 1032.4 143.71 1031.58 145.044C1031.14 145.789 1024.51 143.828 1024.55 144.808C1024.59 145.789 1029.42 148.103 1028.83 148.887C1028.24 149.671 1025.02 146.455 1022.23 146.416C1019.45 146.377 1017.45 144.926 1012.97 146.142C1010.77 146.73 993.898 148.809 979.69 150.024C965.091 151.279 953.12 151.672 953.12 151.672L951.982 140.455Z" fill="#F7A491"/>
<path d="M911.205 164.888C910.851 160.496 911.715 152.103 911.911 150.613C910.577 146.024 902.453 145.553 901.432 143.632C901.432 143.632 905.004 132.062 909.909 132.101C909.909 132.101 921.409 136.455 925.294 138.494C925.334 138.494 926.668 139.082 927.257 139.082C930.985 139.043 944.054 138.651 946.488 139.396L945.114 159.555C944.408 160.692 943.27 185.126 941.817 187.008C940.365 188.93 919.643 196.342 916.189 194.107C915.993 194.028 911.95 173.791 911.205 164.888Z" fill="#50BFA5"/>
<path d="M939.658 139.867C942.053 138.729 959.635 138.768 959.635 138.768C959.635 138.768 962.069 150.887 960.106 153.789C960.106 153.789 944.525 156.103 944.957 157.398L939.658 139.867Z" fill="#50BFA5"/>
<path d="M936.793 130.846C936.793 130.846 933.968 137.396 933.654 140.141C933.34 142.887 930.161 151.279 924.431 150.064C918.74 148.848 925.765 138.808 926.903 136.258C928.041 133.748 929.964 125.591 929.964 125.591L936.793 130.846Z" fill="#F7A491"/>
<path d="M928.905 129.67C929.493 127.473 929.925 125.591 929.925 125.591L936.793 130.846C936.793 130.846 936.205 132.18 935.538 133.905C932.045 133.827 929.886 132.062 928.905 129.67Z" fill="#F47458"/>
<path d="M945.82 114.962C945.82 114.962 947.9 117.708 947.429 121.473C946.958 125.238 941.974 133.278 933.928 132.14C925.883 131.003 925.843 122.885 929.69 118.257C933.536 113.59 939.698 108.334 945.82 114.962Z" fill="#F7A491"/>
<path d="M929.729 115.786C929.219 117.276 929.533 118.688 930.396 119.002C931.259 119.277 932.358 118.335 932.869 116.845C933.379 115.355 933.065 113.943 932.201 113.629C931.299 113.315 930.2 114.296 929.729 115.786Z" fill="#F7A491"/>
<path d="M908.143 295.057C908.653 293.802 913.598 297.763 914.775 298.548C916.11 299.45 916.188 300.469 916.149 300.705C916.071 301.293 903.394 316.863 899.705 319.02C899.351 319.216 898.606 319.216 898.409 319.138C896.369 318.353 899.705 305.607 902.413 303.097C904.179 301.489 905.945 300.626 908.143 295.057Z" fill="#3C8F7C"/>
<path d="M945.192 114.139C945.192 114.139 942.209 124.257 944.525 127.356C946.841 130.454 943.662 134.101 943.662 134.101C943.662 134.101 950.844 125.552 949.823 121.316C948.803 117.041 945.192 114.139 945.192 114.139Z" fill="#13375B"/>
<path d="M942.092 127.905C940.718 128.768 940.051 130.219 940.639 131.16C941.228 132.101 942.837 132.18 944.211 131.278C945.585 130.415 946.252 128.964 945.663 128.022C945.074 127.081 943.465 127.042 942.092 127.905Z" fill="#F7A491"/>
<path d="M926.158 103.667L926.707 105.118C927.021 105.981 926.746 106.922 926.001 107.471L924.705 108.452C923.881 109.04 922.743 108.962 922.037 108.256L920.898 107.119L926.158 103.667Z" fill="#FF7345"/>
<path d="M918.936 105.981L916.777 105.393L915.286 106.177C915.286 106.177 905.71 110.452 903.786 110.452C901.903 110.452 900.411 107.001 900.882 106.373C901.353 105.707 907.554 104.138 907.554 104.138L911.4 100.647L911.636 98.1373L918.936 105.981Z" fill="#13375B"/>
<path d="M919.682 89.5483L926.471 101.51C927.099 102.608 926.785 104.02 925.726 104.726L921.644 107.55C920.624 108.256 919.25 108.099 918.426 107.158L909.399 97.1177L919.682 89.5483Z" fill="#F47458"/>
<path d="M920.113 89.3521L909.399 97.4313C908.614 98.0196 907.476 97.9804 906.769 97.2744L887.067 78.5276L908.496 63.036L920.702 86.8029C921.173 87.6657 920.938 88.7246 920.113 89.3521Z" fill="#F47458"/>
<path d="M894.76 66.5658C888.676 70.723 884.948 75.8216 886.4 77.9786C887.852 80.1357 893.975 78.5277 900.058 74.3704C906.141 70.2132 909.87 65.1147 908.418 62.9576C907.005 60.8006 900.882 62.4086 894.76 66.5658Z" fill="#13375B"/>
<path d="M888.205 77.0766C889.932 77.4688 894.328 76.1746 899.116 72.9194C905.121 68.8406 907.358 64.801 907.005 63.9774C907.005 63.9774 906.926 63.8989 906.691 63.8597C904.964 63.4675 900.568 64.7618 895.78 68.017C889.775 72.0958 887.538 76.1354 887.891 76.959C887.891 76.9982 887.97 77.0374 888.205 77.0766Z" fill="#FAE0B2"/>
<path d="M902.531 103.393L905.082 104.334C905.082 104.334 906.73 105.079 907.123 106.491C907.515 107.942 909.321 107.589 908.81 106.099C908.3 104.609 907.79 103.667 907.79 103.667C907.79 103.667 909.87 106.491 910.066 106.53C911.283 106.648 911.44 104.883 909.399 102.883C907.319 100.883 902.531 103.393 902.531 103.393Z" fill="#F7A491"/>
<path d="M911.086 104.452C911.086 104.452 915.443 106.217 914.579 107.315C913.716 108.413 911.086 109.589 911.008 109.001C910.929 108.413 912.695 107.628 911.557 106.413C911.204 106.138 909.634 104.452 911.086 104.452Z" fill="#F7A491"/>
<path d="M139.347 93.4331C139.347 93.4331 138.197 99.1787 137.277 101.324C136.779 102.435 134.671 106.725 134.671 106.725L133.674 118.408L124.934 117.22C124.934 117.22 127.886 108.793 126.889 106.265C126.084 104.273 125.624 100.098 125.663 99.0638C125.816 95.5398 139.347 93.4331 139.347 93.4331Z" fill="#F7A491"/>
<path d="M35.7751 101.554C35.7751 101.554 39.1867 106.342 40.8732 107.912C41.7549 108.717 45.473 111.781 45.473 111.781L51.1077 122.046L58.6207 117.45C58.6207 117.45 52.4877 110.976 52.411 108.257C52.3344 106.112 51.0694 102.128 50.6094 101.171C48.9995 97.9913 35.7751 101.554 35.7751 101.554Z" fill="#F7A491"/>
<path d="M101.015 136.257C101.015 136.257 96.4537 131.469 92.8122 137.291C92.8122 137.291 89.9757 135.721 88.0208 138.517C88.0208 138.517 82.9227 136.985 81.6961 144.608C81.6961 144.608 79.0895 144.11 78.7062 147.212C78.3612 150.315 79.9328 152.422 79.9328 152.422C79.9328 152.422 78.4762 153.533 79.1279 156.405C79.7028 158.857 81.7344 159.202 81.7344 159.202C81.7344 159.202 82.2711 163.3 84.0726 164.564C85.8742 165.79 88.2891 165.215 88.2891 165.215C88.2891 165.215 88.9407 167.437 91.0106 167.245C93.0805 167.054 95.6488 165.062 97.987 165.943C100.325 166.824 106.343 165.905 106.343 165.905C106.343 165.905 113.128 162.879 111.096 155.946C111.096 155.946 114.661 152.728 111.556 148.859C111.556 148.859 113.818 142.807 109.333 139.245C104.81 135.721 101.015 136.257 101.015 136.257Z" fill="#07345A"/>
<path d="M50.3794 305.792C50.3794 305.792 42.5215 304.911 41.2182 304.26C39.9149 303.609 33.3219 309.929 34.6252 313.07C35.3535 314.832 37.6917 314.64 37.6917 314.64L39.57 312.802L49.5362 314.87L50.3794 305.792Z" fill="#F7A491"/>
<path d="M95.2273 338.887C95.2273 338.887 91.0875 345.629 89.9759 346.51C88.8642 347.429 91.7774 356.047 95.189 356.201C97.1055 356.277 97.9105 354.094 97.9105 354.094L97.0289 351.604L103.124 343.445L95.2273 338.887Z" fill="#F7A491"/>
<path d="M90.2059 346.241C90.2059 346.241 92.5824 349.268 93.8857 350.493C95.5723 352.064 97.7189 353.558 97.7189 353.558C97.7189 353.558 100.134 357.963 100.824 359.495C102.319 362.904 103.967 366.734 103.737 368.649C103.66 369.262 102.28 369.914 101.13 369.569C96.3389 368.113 84.0728 356.89 82.5396 353.864C80.6997 350.417 90.2059 346.241 90.2059 346.241Z" fill="#07345A"/>
<path d="M125.202 243.701C124.742 242.437 124.321 241.288 123.899 240.215C118.801 241.326 113.051 242.552 107.11 243.816L106.382 265.534C106.382 263.849 110.828 300.161 110.828 300.161C110.828 300.161 98.7154 324.178 90.8574 339.04C94.0773 343.062 96.5688 344.824 101.245 347.582C113.473 332.95 129.074 307.133 129.764 302.689C130.186 300.085 130.531 258.639 125.202 243.701Z" fill="#B75742"/>
<path d="M79.7031 249.983C81.083 265.036 83.3829 287.789 83.8045 295.45C74.0683 296.867 51.0694 303.762 46.7763 303.762C45.1664 307.401 44.2464 311.806 45.3964 315.445C45.6264 316.173 90.7425 317.59 102.395 310.159C105.424 308.205 106.382 287.444 106.42 265.534L107.148 243.816C97.2589 245.923 88.1743 247.991 79.7031 249.983Z" fill="#F47458"/>
<path d="M112.093 172.876L101.015 174.562C101.015 174.562 92.6591 174.677 90.4359 174.715C90.2442 174.715 81.543 217.079 79.4347 233.014C77.3265 248.949 78.9747 251.783 78.9747 251.783C78.9747 251.783 93.694 255.077 104.619 254.12C115.965 253.124 128.691 246.995 128.691 246.995C128.691 246.995 115.543 217.079 113.626 207.503C111.71 197.927 112.093 172.876 112.093 172.876Z" fill="white"/>
<path d="M134.862 113.773C134.862 113.773 133.904 153.035 132.716 155.448C130.991 158.972 118.571 184.023 118.571 184.023C118.571 184.023 127.886 223.016 131.796 236.461C132.179 237.802 133.942 246.574 133.942 247.416C133.942 249.293 125.701 251.706 124.704 251.553C123.823 251.438 116.616 214.36 112.055 196.203C110.483 190.036 107.838 184.253 104.159 179.043L100.977 174.523L119.913 151.617C119.913 151.617 124.014 115.381 124.014 113.121C124.053 112.547 133.674 111.551 134.862 113.773Z" fill="#3C8F7C"/>
<path d="M90.4359 174.715L71.4618 146.14C71.4618 146.14 59.1574 116.109 58.8507 114.998C58.5441 113.926 48.8845 115.152 45.818 114.845C44.8214 114.769 58.6974 146.37 60.154 151.656C61.8789 157.899 71.1551 182.261 71.1551 182.261C71.1551 182.261 77.5565 196.855 76.5599 208.116C74.9116 226.847 71.6151 253.813 72.4201 254.618C77.4032 257.758 93.0041 257.644 94.2307 255.69C107.57 234.24 90.4359 174.715 90.4359 174.715Z" fill="#3C8F7C"/>
<path d="M100.249 168.854L101.092 174.983C101.092 174.983 102.932 183.793 100.555 185.478C98.1788 187.164 90.4358 174.715 90.4358 174.715L91.2408 159.24L100.249 168.854Z" fill="#F7A491"/>
<path d="M91.0107 164.219C92.9656 169.505 97.6421 172.761 100.977 174.025L100.287 168.854L91.2791 159.24L91.0107 164.219Z" fill="#F47458"/>
<path d="M78.6296 148.668C78.6296 151.043 79.9712 152.958 81.6195 152.958C83.2678 152.958 84.6094 151.043 84.6094 148.668C84.6094 146.293 83.2678 144.378 81.6195 144.378C79.9712 144.416 78.6296 146.331 78.6296 148.668Z" fill="#07345A"/>
<path d="M87.5994 139.513C87.5994 140.854 89.2476 141.965 91.2409 141.965C93.2724 141.965 94.8823 140.854 94.8823 139.513C94.8823 138.172 93.2341 137.062 91.2409 137.062C89.2476 137.023 87.5994 138.134 87.5994 139.513Z" fill="#07345A"/>
<path d="M96.7605 142.922C101.59 141.275 106.727 144.454 107.455 149.434C107.762 151.579 108.068 154.299 108.107 157.286C108.222 164.411 104.542 171.382 101.284 171.382C98.0255 171.382 89.0559 166.748 88.7493 156.635C88.5576 150.353 91.7008 144.684 96.7605 142.922Z" fill="#F7A491"/>
<path d="M91.1642 157.44C91.1642 159.01 90.1293 160.274 88.826 160.274C87.5227 160.274 86.4878 159.01 86.4878 157.44C86.4878 155.869 87.5227 154.605 88.826 154.605C90.1293 154.567 91.1642 155.831 91.1642 157.44Z" fill="#F7A491"/>
<path d="M110.828 139.36C114.163 142.003 115.351 146.063 113.435 148.361C111.518 150.698 107.263 150.43 103.929 147.749C100.594 145.106 99.4054 141.045 101.322 138.747C103.2 136.449 107.455 136.717 110.828 139.36Z" fill="#07345A"/>
<path d="M102.05 141.543C102.05 142.692 100.67 143.65 98.9454 143.65C97.2205 143.65 95.8406 142.731 95.8406 141.543C95.8406 140.394 97.2205 139.437 98.9454 139.437C100.67 139.475 102.05 140.394 102.05 141.543Z" fill="#07345A"/>
<path d="M108.643 153.111C110.104 153.111 111.288 151.911 111.288 150.43C111.288 148.949 110.104 147.749 108.643 147.749C107.183 147.749 105.999 148.949 105.999 150.43C105.999 151.911 107.183 153.111 108.643 153.111Z" fill="#07345A"/>
<path d="M41.6015 304.375C41.6015 304.375 39.8766 307.822 39.3016 309.508C38.6116 311.691 38.1133 314.257 38.1133 314.257C38.1133 314.257 35.1618 318.318 34.0502 319.582C31.5586 322.378 28.5304 325.672 26.6905 326.247C26.1155 326.438 24.429 325.94 24.429 324.638C24.5056 319.62 29.2971 303.302 31.367 300.621C33.7818 297.518 41.6015 304.375 41.6015 304.375Z" fill="#07345A"/>
<path d="M37.6917 103.928C37.6917 103.928 39.9915 106.533 42.7514 106.916C45.5113 107.299 47.9645 104.465 47.9645 104.465L37.6917 103.928Z" fill="#F47458"/>
<path d="M126.429 99.0255L128.346 101.937C128.346 101.937 135.322 102.358 137.43 97.3401L126.429 99.0255Z" fill="#F47458"/>
<path d="M128.806 100.251C101.322 93.0883 72.42 94.812 46.0096 105.231C41.9848 106.801 37.3084 105.078 35.5068 101.056C30.5237 89.526 25.5406 77.9964 20.5192 66.4668C18.7176 62.4449 21.7458 57.044 27.4188 54.8223C63.7188 40.4965 103.43 38.1216 141.187 47.9658C147.051 49.498 150.731 54.4776 149.428 58.691C145.863 70.7186 142.298 82.7844 138.734 94.812C137.43 99.0638 133.022 101.324 128.806 100.251Z" fill="#FFF3D9"/>
<path d="M46.5081 106.265C46.5081 106.265 48.6546 104.388 48.7696 101.477C48.7696 101.132 47.8113 97.8764 49.0379 97.6849C51.1078 97.3401 51.7211 105.001 51.7211 105.001C51.7211 105.001 49.1146 105.92 46.5081 106.265Z" fill="#F7A491"/>
<path d="M38.2666 104.311C39.6849 104.35 41.2181 104.12 41.3331 103.584C41.4481 103.047 40.7965 102.741 39.9915 102.626C40.5665 102.549 40.9881 102.396 41.0648 102.128C41.2181 101.553 40.4898 101.247 39.6465 101.094C40.0682 101.017 40.3365 100.864 40.3748 100.672C40.7582 99.4085 36.7717 99.1403 36.7717 99.1403C36.7717 99.1403 34.5868 98.7573 34.3951 99.6C34.3568 99.7149 34.6634 100.404 34.8551 100.519C35.2767 100.749 35.4301 101.285 35.2384 101.745C35.2384 101.783 35.2384 101.783 35.2001 101.822C35.2001 101.898 35.2384 101.975 35.3151 102.051C35.6984 102.358 35.5834 103.545 35.5451 103.622C35.5067 103.775 35.6984 104.082 35.9667 104.35C37.155 105.499 44.323 111.321 45.5113 111.781C46.9679 112.317 45.7796 107.874 45.7796 107.874C45.7796 107.874 38.6116 105.575 38.2666 104.311Z" fill="#F7A491"/>
<path d="M131.451 102.09C131.451 102.09 128.729 101.247 127.426 98.6424C127.272 98.336 126.851 94.9652 125.624 95.2716C123.593 95.7696 126.122 103.047 126.122 103.047C126.122 103.047 128.921 102.856 131.451 102.09Z" fill="#F7A491"/>
<path d="M138.197 96.9954C136.894 97.6083 135.437 97.9913 135.092 97.57C134.747 97.1103 135.245 96.5741 135.935 96.1527C135.36 96.3059 134.9 96.3442 134.747 96.1144C134.364 95.6548 134.9 95.0802 135.629 94.6205C135.245 94.6971 134.9 94.6971 134.785 94.5439C133.942 93.548 137.469 91.6711 137.469 91.6711C137.469 91.6711 139.309 90.4454 139.845 91.1349C139.922 91.2498 139.922 91.9775 139.807 92.1308C139.5 92.5138 139.922 93.0118 139.922 93.0501C139.999 93.3182 139.999 93.6246 139.96 93.7395C139.769 94.1609 140.344 95.1951 140.382 95.2717C140.459 95.3866 140.42 95.7314 140.305 96.1144C139.654 97.6466 135.514 105.882 134.594 106.763C133.482 107.836 132.792 103.316 132.792 103.316C132.792 103.316 138.389 98.2977 138.197 96.9954Z" fill="#F7A491"/>
<path d="M45.6645 79.5669C45.7028 79.7201 45.7411 79.9116 45.7795 80.0649C46.2395 81.7886 46.6994 82.9377 47.1977 83.5889C47.6961 84.2017 48.4627 84.3933 49.536 84.1634C50.6092 83.9336 51.2226 83.3973 51.4142 82.5546C51.5292 82.0567 51.4525 81.2523 51.2226 80.1798C50.1109 74.9321 48.9227 69.7227 47.7727 64.5133C49.536 64.1303 51.2992 63.7855 53.0625 63.4408C54.0974 68.6502 55.1324 73.8979 56.129 79.1456C56.5123 81.0608 56.4356 82.6313 56.014 83.8953C55.2474 86.002 53.4458 87.3427 50.5709 87.9556C47.6961 88.6067 45.6262 88.3003 44.2462 87.0363C42.8663 85.7722 41.8313 83.857 41.1414 81.2523C41.103 81.0991 41.0647 80.9076 40.988 80.7543C42.5596 80.2947 44.1312 79.9117 45.6645 79.5669Z" fill="#B75742"/>
<path d="M83.4976 80.7927C81.811 82.6696 79.3578 83.7038 76.0613 84.0102C72.7648 84.3167 70.1582 83.7421 68.1266 82.2099C65.4818 80.333 63.7952 77.4219 63.1436 73.3233C62.4919 69.1865 63.2585 65.854 65.5201 63.4408C67.2067 61.4107 69.8899 60.185 73.6081 59.8402C77.3262 59.4955 80.2394 60.2233 82.3093 61.8704C85.0308 63.8239 86.4874 66.9648 86.6408 71.14C86.8324 75.3152 85.7591 78.4944 83.4976 80.7927ZM80.1627 77.4985C81.236 76.0046 81.696 74.0128 81.5043 71.4081C81.3127 68.8417 80.5844 66.8882 79.2428 65.5859C77.9012 64.2835 76.1763 63.709 74.068 63.9005C71.9598 64.092 70.3499 64.973 69.3149 66.5052C68.2416 68.0373 67.8967 70.1058 68.2416 72.6722C68.5866 75.2386 69.4299 77.1538 70.7715 78.3795C72.1131 79.6436 73.723 80.1798 75.678 79.9883C77.5945 79.7968 79.0895 78.9924 80.1627 77.4985Z" fill="#B75742"/>
<path d="M98.6003 82.5929C96.9904 82.5546 95.3421 82.5546 93.7322 82.5546C93.6939 74.8938 93.5789 67.2329 93.4255 59.6104C95.2271 59.6104 97.0287 59.6104 98.8303 59.6487C98.8303 67.2712 98.7153 74.9321 98.6003 82.5929Z" fill="#B75742"/>
<path d="M107.493 59.9551C109.41 60.07 111.326 60.1849 113.205 60.3381C116.309 65.9306 119.146 71.6379 121.676 77.3452C122.328 72.0592 122.941 66.7349 123.554 61.4489C125.241 61.6788 126.927 61.9086 128.652 62.1767C127.617 69.761 126.544 77.3452 125.394 84.8912C123.746 84.6231 122.136 84.4315 120.488 84.2017C117.958 78.4178 115.16 72.6338 112.093 66.9648C111.71 72.3657 111.326 77.8049 110.905 83.2058C109.371 83.0909 107.838 82.976 106.343 82.8994C106.803 75.2385 107.148 67.5776 107.493 59.9551Z" fill="#B75742"/>
<defs>
<clipPath id="clip0">
<rect width="172" height="336" fill="white" transform="translate(1011 34)"/>
</clipPath>
</defs>
</svg>
