<svg width="1180" height="344" viewBox="0 0 1180 344" fill="none" xmlns="http://www.w3.org/2000/svg">
<path d="M1180 339.5C1180 336.957 1178.85 335 1177.39 335H3.15654C1.39616 335 0 337.054 0 339.5C0 342.043 1.39616 344 3.15654 344H1177.39C1178.85 344 1180 342.043 1180 339.5Z" fill="#DCE6EA" fill-opacity="0.8"/>
<path d="M143.965 288.7C140.176 294.317 135.888 298.81 135.347 299.31C135.097 299.559 133.348 300.1 133.057 300.35C130.6 308.088 133.764 314.704 137.137 319.863C137.678 315.661 138.095 309.919 138.761 309.212C139.802 308.088 143.299 303.221 150.419 297.271C146.63 295.191 146.213 292.32 143.965 288.7Z" fill="#F7A491"/>
<path d="M135.139 299.434C132.349 299.601 127.103 301.348 127.145 301.889C127.186 302.554 130.143 325.396 133.765 327.435C135.93 328.641 136.346 325.105 137.137 319.904C133.765 314.703 133.598 300.765 135.139 299.434Z" fill="#466EB6"/>
<path d="M86.4676 278.007C80.6803 281.461 74.9346 284.082 74.2268 284.331C73.8937 284.456 72.0618 284.207 71.6871 284.331C66.1912 290.281 66.2329 297.562 67.0656 303.72C69.3555 300.142 72.1867 295.149 73.061 294.774C74.4766 294.192 79.5978 291.987 88.5493 289.574C86.0512 286.079 86.9672 282.251 86.4676 278.007Z" fill="#F7A491"/>
<path d="M149.92 124.15C149.92 124.15 158.705 107.674 159.996 101.766C161.286 95.8578 165.783 66.1514 165.408 64.1959C165.033 62.2821 157.914 57.6639 158.788 56.0412C159.663 54.4186 166.449 54.4186 167.99 54.5434C169.53 54.6683 172.653 55.5836 173.985 56.6653C175.317 57.7471 172.486 93.4031 171.653 101.059C170.821 108.714 157.956 133.844 157.956 133.844L149.92 124.15Z" fill="#F7A491"/>
<path d="M110.532 147.99C110.532 147.99 92.6707 176.573 89.548 182.19C86.4254 187.806 74.8092 202.119 74.2263 202.826C73.6434 203.533 61.361 202.909 61.6941 204.324C62.0272 205.738 67.6896 204.324 67.8145 206.03C67.9394 207.694 58.0718 218.345 59.0711 218.761C60.903 219.551 65.3164 212.478 66.1074 213.019C66.8985 213.56 60.8198 219.967 61.819 221.34C62.8183 222.713 67.0234 214.725 67.8145 214.808C68.6055 214.892 64.8584 222.838 66.5654 222.921C67.4814 222.963 69.7297 215.765 70.604 216.431C71.4784 217.055 70.6457 222.838 71.7282 222.755C72.8107 222.713 71.8115 217.846 73.4769 215.266C75.1423 212.687 75.0174 209.982 78.8478 206.695C82.6782 203.367 97.4587 193.298 102.83 184.353C108.201 175.449 120.108 155.728 120.108 155.728L110.532 147.99Z" fill="#F7A491"/>
<path d="M153.251 190.511L122.232 200.496C122.232 200.496 139.303 229.495 142.675 235.278C146.048 241.062 160.578 255.332 160.62 259.077C160.62 261.74 146.922 279.256 138.678 289.948C140.552 293.401 145.631 297.895 148.879 299.85C162.619 286.828 182.687 266.275 183.061 259.576C183.519 249.716 153.251 190.511 153.251 190.511Z" fill="#3C8F7C"/>
<path d="M73.9764 284.331C71.395 283.291 65.9408 282.625 65.7326 283.166C65.4828 283.79 58.4464 305.716 60.8613 309.086C62.3185 311.125 64.1921 308.046 67.1066 303.719C66.2322 297.562 72.2693 284.498 73.9764 284.331Z" fill="#466EB6"/>
<path d="M146.88 208.401C147.254 206.487 149.836 200.871 151.168 196.419C152.251 192.716 152.459 188.805 151.751 185.019L128.935 183.937L128.061 185.643C127.103 187.473 125.771 189.096 124.147 190.344C120.733 192.924 114.737 198.582 114.904 206.487C115.154 217.513 122.981 257.829 120.4 259.326C115.695 262.031 96.0849 271.6 84.3438 277.466C84.5103 281.752 85.7177 287.826 87.9244 291.488C97.209 287.951 129.851 273.514 135.93 269.977C138.636 268.355 146.214 211.646 146.88 208.401Z" fill="#50BFA5"/>
<path d="M91.714 80.0478C93.5043 84.8325 90.6731 88.4105 88.6746 93.112C87.3423 96.274 90.2984 101.308 93.6292 103.597C102.081 109.463 104.038 109.588 103.455 117.534C101.998 136.673 124.897 128.518 128.561 127.894C132.267 127.27 135.015 127.437 136.805 126.23C142.093 122.569 147.089 111.543 146.173 102.265C145.257 92.9872 134.182 96.1908 131.642 91.9054C129.102 87.6616 136.763 82.3361 130.227 75.2216C111.532 54.7932 91.9638 68.4815 91.2976 76.3033C91.1311 77.8011 91.3393 79.0077 91.714 80.0478Z" fill="#F47458"/>
<path d="M155.998 147.699C155.998 147.699 162.368 132.596 163.367 130.058C163.367 130.058 154.458 122.153 149.17 122.777C149.17 122.777 142.3 133.594 138.22 133.969C134.181 134.343 119.9 134.967 117.402 136.465C114.904 137.963 104.287 153.939 104.287 153.939C104.287 153.939 113.822 163.467 117.652 163.467C117.652 163.467 120.275 157.018 121.149 158.183C122.024 159.348 125.563 184.395 127.353 186.309C129.018 188.056 148.962 194.796 154.749 193.59C154.749 193.59 157.872 169.458 157.705 154.647C157.705 152.317 155.998 147.699 155.998 147.699Z" fill="#F7CC7F"/>
<path d="M128.186 126.854C128.186 126.854 130.434 134.302 130.434 137.297C130.434 140.334 132.849 149.82 139.219 149.196C145.547 148.572 139.136 136.798 138.261 133.927C137.345 131.056 136.263 121.986 136.263 121.986L128.186 126.854Z" fill="#F7A491"/>
<path d="M136.887 126.563C136.512 124.108 136.304 122.028 136.304 122.028L128.227 126.854C128.227 126.854 128.685 128.393 129.184 130.307C132.973 130.682 135.513 129.018 136.887 126.563Z" fill="#F47458"/>
<path d="M122.939 106.259C122.939 106.259 119.858 108.423 119.067 112.459C118.276 116.536 120.691 126.521 129.392 128.102C138.094 129.683 140.925 121.279 138.552 115.163C136.137 109.047 131.516 101.475 122.939 106.259Z" fill="#F7A491"/>
<path d="M139.343 112.625C139.343 114.331 138.552 115.704 137.553 115.704C136.553 115.704 135.762 114.331 135.721 112.625C135.721 110.919 136.512 109.546 137.511 109.546C138.51 109.546 139.343 110.919 139.343 112.625Z" fill="#F7A491"/>
<path d="M122.814 121.112C123.98 122.485 124.147 124.233 123.189 124.982C122.273 125.772 120.566 125.273 119.442 123.9C118.276 122.527 118.11 120.78 119.067 120.031C119.983 119.24 121.69 119.739 122.814 121.112Z" fill="#F7A491"/>
<path d="M164.907 56.166C164.741 56.2908 164.532 56.4156 164.366 56.5405L163.408 57.4142C164.324 57.6222 165.781 57.4558 167.155 58.4959C167.197 58.4959 166.906 57.3726 164.907 56.166Z" fill="#F47257"/>
<path d="M180.064 5.86482C177.982 6.28088 169.614 17.4728 169.614 17.4728L169.322 18.2633C169.322 18.2633 184.436 16.5991 185.019 15.9334C186.476 14.1443 181.771 5.49037 180.064 5.86482ZM169.697 17.6808C172.445 14.1443 178.732 8.98524 180.106 7.9035C181.313 9.15166 183.145 12.813 183.395 14.4356C181.646 14.81 174.11 17.1815 169.697 17.6808Z" fill="#F47458"/>
<path d="M162.494 3.53505C159.246 -0.875148 157.497 -0.126247 156.248 0.414626C154.999 0.955499 150.419 6.65547 151.835 9.65107C153.251 12.6467 167.407 18.5131 167.407 18.5131L167.906 17.4313C167.948 17.3897 165.783 7.94524 162.494 3.53505ZM153.542 8.81896C152.834 7.32116 155.874 2.86936 157.081 2.07885C157.373 1.95403 157.622 1.82922 157.831 1.82922C158.08 1.82922 159.121 2.03725 161.036 4.61679C163.118 7.44598 166.491 14.4357 167.282 17.3897C161.578 14.8934 154.25 10.1087 153.542 8.81896Z" fill="#F47458"/>
<path d="M168.114 20.3853H168.78C169.446 20.3853 169.988 19.8444 169.988 19.1787V17.1817C169.988 16.516 169.446 15.9751 168.78 15.9751H168.114C167.448 15.9751 166.907 16.516 166.907 17.1817V19.1787C166.865 19.8444 167.406 20.3853 168.114 20.3853Z" fill="#F47458"/>
<path d="M191.347 57.4143H148.337C146.006 57.4143 144.091 55.6253 143.924 53.2954L141.676 18.7627H197.675L195.343 54.71C195.26 56.2494 193.47 57.4143 191.347 57.4143Z" fill="#F7CC7F"/>
<path d="M200.007 26.2936L139.22 26.4184L138.554 22.5075C138.179 20.1775 139.969 18.0557 142.342 18.0557L197.384 18.2221C199.341 18.2221 200.881 19.4286 200.715 20.8432L200.007 26.2936Z" fill="#FAE0B2"/>
<path d="M169.529 18.0967H168.363V26.3762H169.529V18.0967Z" fill="#F47458"/>
<path d="M170.988 26.335H169.531V57.456H170.988V26.335Z" fill="#F47458"/>
<path d="M163.991 59.6193L163.45 57.4558C161.743 57.4974 160.452 57.0813 159.536 56.8317L158.037 56.166C157.538 55.958 156.996 56.166 156.788 56.6653C156.622 57.0397 156.747 57.4974 157.08 57.747C157.08 57.747 161.16 61.1171 162.617 62.1572C163.325 62.6565 165.573 64.0295 165.573 64.0295L166.864 61.5748L163.991 59.6193Z" fill="#F7A491"/>
<g clip-path="url(#clip0)">
<path d="M1061.55 287.711C1061.55 287.711 1071.98 295.238 1073.64 297.504C1076.02 300.741 1055.94 306.811 1058.16 303.008C1058.65 302.117 1060.1 299.204 1060.18 298.92C1060.5 297.383 1056.26 293.214 1056.26 293.214L1061.55 287.711Z" fill="#F7A491"/>
<path d="M1052.71 309.361L1059.78 299.325C1059.78 299.325 1064.22 298.313 1068.75 293.174C1068.75 293.174 1072.83 294.752 1075.33 298.111C1075.33 298.111 1070.61 303.25 1063.29 308.997C1063.29 308.997 1058.97 312.841 1052.99 314.864C1046.97 316.888 1052.71 309.361 1052.71 309.361Z" fill="#F7CC7F"/>
<path d="M1148.75 150.365C1148.75 150.365 1147.45 151.498 1147.01 151.862C1146.48 152.267 1144.79 153.36 1144.79 153.36C1144.79 153.36 1138.69 156.84 1138.48 156.354C1138.28 155.909 1138.28 154.574 1138.61 154.25C1138.89 153.886 1139.78 153.562 1140.1 153.198C1140.38 152.833 1140.5 152.146 1140.1 151.781C1139.7 151.377 1137.64 152.55 1137.64 152.55C1137.64 152.55 1135.94 153.481 1135.25 154.614C1132.83 158.539 1133.56 158.782 1133.23 159.268C1132.83 159.834 1124.3 163.719 1124.3 163.719C1124.3 163.719 1098.77 174.362 1097.39 174.929C1097.19 176.102 1097.84 177.195 1098.16 178.247C1098.77 181.889 1099.86 182.132 1100.67 185.652C1104.59 183.67 1131.7 168.697 1134.44 167.159C1134.44 167.159 1138.57 166.471 1141.15 165.904C1143.74 165.378 1146 163.76 1146.69 163.476C1146.81 163.436 1149.11 162.424 1151.66 160.482C1153.84 158.782 1151.01 159.43 1151.01 159.43C1151.01 159.43 1146.4 161.858 1146.28 161.493C1146.2 161.21 1148.79 159.996 1151.21 158.135C1151.86 157.649 1152.46 157.204 1153.03 156.759C1154.53 155.626 1154.24 154.412 1152.5 155.383C1151.9 155.707 1150.89 156.314 1150.24 156.84C1149.52 157.406 1148.71 157.69 1148.02 158.094C1146.69 158.863 1145.72 159.43 1145.72 159.349C1145.72 159.268 1145.35 159.227 1146 158.701C1146.77 158.054 1148.75 157.083 1149.8 156.071C1150.4 155.504 1151.78 154.371 1151.78 154.371C1151.78 154.371 1153.52 152.307 1153.43 152.146C1152.99 151.417 1151.41 152.51 1150.65 153.4C1149.88 153.724 1148.5 154.978 1148.5 154.978C1148.5 154.978 1145.15 156.84 1144.91 156.395C1144.79 156.192 1146.73 154.816 1148.42 153.157C1150 151.619 1151.33 149.839 1151.09 149.475C1150.69 148.868 1148.75 150.365 1148.75 150.365Z" fill="#F8A492"/>
<path d="M1077.52 210.257L1075.86 218.431L1034.36 256.227L1064.06 286.335L1056.02 294.55C1056.02 294.55 1012.14 262.297 1010.57 258.048C1008.14 251.533 1042 208.395 1042 208.395L1077.52 210.257Z" fill="#B75742"/>
<path d="M1106.61 309.482C1106.61 309.482 1117.03 317.009 1118.69 319.275C1121.07 322.513 1100.99 328.583 1103.21 324.779C1103.7 323.889 1105.15 320.975 1105.23 320.692C1105.55 319.154 1101.31 314.986 1101.31 314.986L1106.61 309.482Z" fill="#F7A491"/>
<path d="M1097.76 331.132L1104.83 321.096C1104.83 321.096 1109.56 320.247 1114.08 315.148C1114.08 315.148 1117.88 316.524 1120.38 319.923C1120.38 319.923 1115.66 325.062 1108.34 330.809C1108.34 330.809 1104.02 334.653 1098.04 336.676C1092.02 338.7 1097.76 331.132 1097.76 331.132Z" fill="#F7CC7F"/>
<path d="M1076.1 214.06L1074.2 265.656L1109.27 308.754L1101.03 316.362C1101.03 316.362 1060.3 281.358 1055.82 271.605C1053.03 265.535 1043.7 210.864 1043.7 210.864L1076.1 214.06Z" fill="#F47458"/>
<path d="M1042.6 209.811C1046 202.163 1045.59 147.492 1058.73 134.664C1063.33 135.432 1066.64 135.878 1067.41 136.08C1068.1 141.705 1068.87 162.384 1069.31 181.322C1069.63 193.948 1069.31 207.181 1070.85 214.182C1071.82 218.552 1039.53 216.812 1042.6 209.811Z" fill="#FAE0B2"/>
<path d="M1078.16 138.913C1081.84 139.763 1084.54 140.329 1089.39 147.492C1094.04 154.331 1104.3 170.599 1104.3 170.599L1131.37 158.539L1132.63 172.258C1132.63 172.258 1102 188.202 1097.68 186.745C1093.35 185.288 1081.23 167.523 1080.3 166.309C1080.1 166.026 1081.31 185.288 1081.31 188.364C1081.31 191.439 1087.17 218.269 1087.17 218.269C1087.17 218.269 1072.26 221.952 1069.35 215.275C1060.42 194.839 1067.29 136.04 1067.29 136.04C1067.29 136.04 1075.49 138.306 1078.16 138.913Z" fill="#466EB6"/>
<path d="M1021.84 80.3564C1022.85 79.2638 1023.05 76.9167 1023.01 75.4599L1023.25 73.477C1022.77 73.3556 1013.64 73.2747 1010.93 73.5579C1010.77 74.4482 1010.73 75.1766 1010.89 75.6218C1011.57 77.7665 1016.3 91.7278 1016.3 91.7278L1024.02 90.8375C1024.06 90.8375 1021.27 82.5417 1021.84 80.3564Z" fill="#F7A491"/>
<path d="M1055.7 137.901C1055.7 137.901 1050.36 153.117 1045.96 150.891C1041.55 148.706 1016.91 123.535 1016.67 122.321C1016.42 121.107 1014.73 90.19 1014.73 90.19L1024.46 88.2476L1030.08 113.54C1030.08 113.54 1048.14 130.819 1051.78 132.519C1055.45 134.218 1055.7 137.901 1055.7 137.901Z" fill="#466EB6"/>
<path d="M1041.27 213.494C1038.32 213.494 1037.23 213.089 1035.25 212.482C1035.25 212.482 1040.87 180.756 1044.14 149.272C1045.44 136.849 1046.65 131.75 1051.74 132.64C1053.23 132.883 1057.23 134.421 1058.69 134.664C1045.84 171.125 1045.76 199.209 1043.94 207.343C1043.09 211.43 1042.28 213.494 1041.27 213.494Z" fill="#466EB6"/>
<path d="M1060.1 129.16L1058.77 134.664C1058.77 134.664 1058.44 139.479 1060.67 139.884C1063.33 140.41 1067.33 136.404 1067.33 136.404L1069.64 120.864L1060.1 129.16Z" fill="#F7A491"/>
<path d="M1060.1 129.16L1058.77 134.664C1058.77 134.664 1058.44 139.479 1060.67 139.884C1063.33 140.41 1067.33 136.404 1067.33 136.404L1069.64 120.864L1060.1 129.16Z" fill="#F7A491"/>
<path d="M1069.6 120.945L1060.06 129.16L1059.05 133.288C1062.73 132.397 1067.9 128.391 1069.6 120.945Z" fill="#F47458"/>
<path d="M1060.06 106.66C1057.76 106.66 1055.7 108.238 1054.89 110.545C1054.2 112.447 1053.36 115.28 1052.83 118.517C1051.82 124.506 1055.21 129.969 1058.16 130.414C1061.11 130.86 1068.14 128.877 1069.72 120.419C1070.41 116.777 1071.25 112.042 1068.31 109.533C1065.96 107.591 1062.69 106.66 1060.06 106.66Z" fill="#F7A491"/>
<path d="M1068.75 126.853C1068.75 126.853 1079.17 117.546 1079.62 110.302C1080.06 103.018 1073.35 99.1334 1067.66 98.931C1065.07 98.8501 1063.33 98.9715 1060.63 99.2952C1054.89 100.024 1051.17 102.573 1052.46 107.267C1054.24 113.58 1066.12 108.238 1068.59 110.221C1070.61 111.84 1067.33 115.725 1069.27 117.222C1071.09 118.639 1070.16 118.153 1069.56 120.783C1068.99 123.454 1068.75 126.853 1068.75 126.853Z" fill="#184655"/>
<path d="M1072.75 118.436C1072.51 120.176 1071.42 121.471 1070.36 121.309C1069.31 121.147 1068.67 119.61 1068.91 117.87C1069.15 116.129 1070.24 114.834 1071.29 114.996C1072.39 115.158 1073.03 116.696 1072.75 118.436Z" fill="#F7A491"/>
<path d="M1020.95 74.2865C1020.95 74.2865 1019.49 75.2981 1018.12 77.7262C1018.12 77.7262 1013.39 75.5005 1013.43 74.6102C1013.47 73.3962 1018.24 75.0149 1018.24 75.0149L1020.95 74.2865Z" fill="#F47458"/>
<path d="M1064.99 51.5853L1010.44 79.71C1007.49 81.2073 1003.41 79.103 1001.27 74.9754L983.251 39.8497C981.11 35.7221 981.797 31.1493 984.706 29.6115L1039.25 1.48673C1042.2 -0.0105579 1046.28 2.09374 1048.42 6.22141L1066.44 41.347C1068.58 45.4747 1067.94 50.0475 1064.99 51.5853Z" fill="#F7CC7F"/>
<path d="M1064.66 37.8258L999.492 71.4319L1001.64 75.6055L1066.8 41.9995L1064.66 37.8258Z" fill="#355389"/>
<path d="M1022.16 70.7252L1023.25 73.4365L1020.7 74.7719C1020.7 74.7719 1021.35 73.477 1021.11 73.1128C1019.9 71.1704 1020.95 69.2684 1022.16 70.7252Z" fill="#F7A491"/>
<path d="M1030.24 19.1293L1029.39 17.5106L1037.11 13.4639L1037.96 15.0826L1030.24 19.1293Z" fill="#355389"/>
<path d="M1039.29 17.6724L1042.2 23.1759L1040.83 23.9043L1038.77 19.979L1036.99 20.9097L1038.77 24.3495L1037.43 25.0374L1035.66 21.5977L1032.42 23.2973L1031.57 21.6786L1039.29 17.6724Z" fill="#355389"/>
<path d="M1042.97 24.6733L1043.81 26.3325L1039.09 28.8415C1038.56 29.1247 1038.2 29.3675 1038.04 29.6508C1037.71 30.0555 1037.71 30.622 1038.04 31.2695C1038.36 31.917 1038.8 32.2407 1039.37 32.2002C1039.69 32.2002 1040.1 32.0384 1040.62 31.7956L1045.35 29.2866L1046.2 30.9458L1041.47 33.3738C1040.66 33.8189 1039.94 34.0213 1039.37 33.9808C1038.28 33.9403 1037.39 33.2524 1036.7 31.917C1036.02 30.5816 1035.94 29.4485 1036.54 28.5177C1036.86 28.0321 1037.43 27.5465 1038.28 27.1418L1042.97 24.6733Z" fill="#355389"/>
</g>
<defs>
<clipPath id="clip0">
<rect width="172" height="336" fill="white" transform="translate(982 1)"/>
</clipPath>
</defs>
</svg>
