<svg width="1219" height="613" viewBox="0 0 1219 613" fill="none" xmlns="http://www.w3.org/2000/svg">
<g opacity="0.6">
<path d="M74 510.771L94.7625 501L98.4265 510.771L78.4782 519.931L74 510.771Z" fill="#446CB8"/>
<path d="M1203.74 168L1218.19 185.709L1209.64 191.612L1196 174.31L1203.74 168Z" fill="#446CB8"/>
<path d="M716.966 443.523L696 434.363L700.885 425L721.037 434.363L716.966 443.523Z" fill="#F67453"/>
<path d="M347 563.798L348.425 541L358.806 542.425L357.178 564.409L347 563.798Z" fill="#FBE1AF"/>
<path d="M1114.93 323.17L1096 310.142L1102.51 302L1120.63 314.824L1114.93 323.17Z" fill="#FBE1AF"/>
<path d="M1113 594.488L1128.88 578L1135.8 585.735L1120.33 601.409L1113 594.488Z" fill="#FBE1AF"/>
<path d="M476 40.8498L498.798 38L499.205 48.5848L477.221 50.8239L476 40.8498Z" fill="#466EB6"/>
<path d="M835 30.6914L850.877 14L857.798 21.7351L842.531 37.6123L835 30.6914Z" fill="#FBE1AF"/>
<path d="M16.0808 141.205L0 124.921L7.93861 118L23.2052 134.081L16.0808 141.205Z" fill="#446CB8"/>
<path d="M806.081 612.002L790 595.717L797.939 589L813.205 604.877L806.081 612.002Z" fill="#446CB8"/>
<path d="M202.409 404.531L185.107 419.594L179 411.249L195.691 397L202.409 404.531Z" fill="#F47458"/>
<path d="M864.921 459L881.612 474.674L873.877 481.798L858 466.328L864.921 459Z" fill="#FBE1AF"/>
<path d="M86 4.68175L108.391 0L109.612 10.5848L88.0355 14.4523L86 4.68175Z" fill="#F67453"/>
</g>
<path d="M139.886 170.884L239.215 420.798L1012.08 374.081L981.914 111.24L139.886 170.884Z" fill="#466EB6"/>
<path d="M197.261 101.262L1004.59 145.031L933.61 467.062L179.119 361.382L197.261 101.262Z" fill="#F47458"/>
<path d="M239.668 111.921L924.539 96.7261L993.253 437.581L305.888 459.352L239.668 111.921Z" fill="#FAE0B2"/>
<path d="M1069.81 498.585C1069.81 498.812 1071.39 504.028 1072.75 508.79C1074.57 514.46 1074.11 520.583 1071.85 525.799L1055.52 563.445C1052.8 569.568 1055.97 576.825 1062.55 579.093C1068.22 580.907 1074.11 578.412 1076.84 573.196L1108.36 511.512L1069.81 498.585Z" fill="#F47458"/>
<path opacity="0.2" d="M1071.85 505.388C1070.71 501.76 1069.81 498.812 1070.03 498.585L1108.58 511.738L1077.06 573.423C1074.79 577.959 1070.03 580.454 1065.27 579.773C1074.79 563.672 1080.24 542.354 1087.04 527.613C1094.3 514.687 1080.46 512.192 1071.85 505.388Z" fill="#A53D32"/>
<path d="M915.37 496.317C915.37 496.317 997.237 461.619 1103.82 514.46L1131.04 459.805C1024.45 406.738 1002.68 320.561 1002.68 320.561L915.37 496.317Z" fill="#466EB6"/>
<path opacity="0.2" d="M940.316 446.198C989.98 476.133 1043.05 477.494 1102.46 484.298C1107.68 484.751 1112.67 485.658 1117.88 486.565L1104.05 514.686C997.464 461.619 915.597 496.544 915.597 496.544L940.316 446.198Z" fill="#4A0659"/>
<path d="M994.898 426.322C1019.04 377.757 1022.6 330.433 1002.86 320.621C983.123 310.81 947.553 342.226 923.414 390.791C899.276 439.357 895.71 486.681 915.45 496.492C935.189 506.304 970.76 474.888 994.898 426.322Z" fill="#9D9FC6"/>
<path d="M1000.41 325.55C983.63 317.159 951.654 347.321 929.203 392.677C906.526 438.034 901.99 481.803 918.772 489.967C935.553 498.358 967.529 468.196 989.98 422.839C1012.43 377.483 1017.19 333.941 1000.41 325.55Z" fill="#466EB6"/>
<path opacity="0.2" d="M1011.75 361.608C1011.07 360.928 1010.16 360.247 1009.26 359.794C997.464 353.444 974.105 374.081 956.87 405.831C939.635 437.58 935.326 468.423 947.119 474.773C948.026 475.226 948.933 475.68 950.067 475.68C963.447 463.887 977.507 445.518 989.526 423.293C1001.55 401.068 1009.26 379.07 1011.75 361.608Z" fill="#9D9FC6"/>
<path d="M1158.93 473.412L1121.96 455.043L1121.51 457.311C1118.34 476.134 1109.95 493.596 1097.02 507.43L1094.3 510.378L1131.26 528.747C1143.06 534.643 1157.34 530.108 1163.01 518.769L1169.81 504.935C1175.94 493.369 1170.95 479.308 1158.93 473.412Z" fill="#003E61"/>
<path d="M1094.52 510.151L1106.77 516.274L1116.07 521.036L1131.49 528.747C1143.28 534.643 1157.57 530.108 1163.24 518.768L1170.04 504.935C1175.71 493.596 1170.72 479.535 1158.93 473.639L1141.92 465.248L1133.53 460.939L1121.96 455.269L1121.74 457.31C1118.56 476.133 1110.17 493.596 1097.25 507.429L1094.52 510.151Z" fill="#F47458"/>
<path d="M1106.77 516.274L1116.07 521.037C1128.77 504.481 1137.61 485.432 1141.92 465.021L1133.53 460.712C1128.99 481.123 1119.92 500.173 1106.77 516.274Z" fill="#466EB6"/>
<path d="M951.428 403.79C948.026 410.593 949.614 418.757 955.056 424.654L975.92 447.105C980.682 439.621 985.445 431.457 989.753 422.839C994.062 414.222 997.691 405.604 1000.64 397.213L970.25 394.038C962.313 393.131 954.83 396.986 951.428 403.79Z" fill="#F47458"/>
<path d="M961.86 409.006C958.911 415.129 954.149 418.984 951.201 417.397C948.253 416.036 948.48 409.913 951.655 403.79C954.603 397.667 959.365 393.811 962.313 395.399C965.034 396.76 964.808 402.883 961.86 409.006Z" fill="white"/>
<path opacity="0.2" d="M1097.25 507.429C1103.14 500.853 1108.36 493.596 1112.21 485.885C1130.81 489.06 1151.9 498.358 1171.63 501.306C1171.18 502.44 1170.72 503.801 1170.27 504.935L1163.47 518.768C1157.8 530.108 1143.51 534.643 1131.72 528.747L1116.3 521.036L1107 516.274L1094.75 510.151L1097.25 507.429Z" fill="#7A251F"/>
<path d="M1067.99 534.87C1067.99 534.87 1075.7 536.004 1076.38 537.818C1077.06 539.859 1072.98 539.179 1069.35 538.499C1065.72 537.818 1066.4 535.777 1067.99 534.87Z" fill="#466EB6"/>
<path d="M1063.91 542.354C1063.91 542.354 1071.62 543.488 1072.3 545.302C1072.98 547.343 1068.9 546.663 1065.27 545.983C1061.64 545.529 1062.1 543.261 1063.91 542.354Z" fill="#466EB6"/>
<path d="M1060.96 549.838C1060.96 549.838 1068.67 550.972 1069.35 552.786C1070.03 554.827 1065.95 554.146 1062.32 553.466C1058.47 553.013 1059.15 550.745 1060.96 549.838Z" fill="#466EB6"/>
<path d="M936.007 344.373L886.569 280.193L882.033 285.182L936.007 344.373Z" fill="#466EB6"/>
<path d="M915.823 376.122L846.656 344.373L842.12 352.537L915.823 376.122Z" fill="#466EB6"/>
<path d="M909.02 406.738L814 417.17L814.907 426.241L909.02 406.738Z" fill="#466EB6"/>
<path d="M102.798 251.392C102.798 251.619 101.21 256.835 99.8495 261.597C98.0353 267.267 98.4889 273.39 100.757 278.606L117.085 316.252C119.806 322.375 116.631 329.632 110.055 331.9C104.385 333.714 98.4889 331.219 95.7675 326.003L64.2454 264.318L102.798 251.392Z" fill="#F47458"/>
<path opacity="0.2" d="M100.757 258.195C101.891 254.567 102.798 251.619 102.571 251.392L64.0188 264.545L95.541 326.23C97.8088 330.766 102.571 333.26 107.333 332.58C97.8088 316.479 92.3661 295.161 85.5627 280.42C78.3058 267.493 92.1393 264.999 100.757 258.195Z" fill="#A53D32"/>
<path d="M257.234 249.351C257.234 249.351 175.367 214.653 68.781 267.493L41.5676 212.839C148.153 159.771 169.924 73.594 169.924 73.594L257.234 249.351Z" fill="#466EB6"/>
<path opacity="0.2" d="M232.288 199.232C182.397 228.94 129.558 230.528 70.1416 237.105C64.9257 237.558 59.9366 238.465 54.7207 239.372L68.5542 267.494C175.14 214.426 257.007 249.351 257.007 249.351L232.288 199.232Z" fill="#4A0659"/>
<path d="M257.167 249.29C276.907 239.478 273.341 192.154 249.202 143.589C225.064 95.0233 189.494 63.6073 169.754 73.419C150.014 83.2306 153.58 130.555 177.718 179.12C201.857 227.685 237.427 259.101 257.167 249.29Z" fill="#9D9FC6"/>
<path d="M172.192 78.3565C188.974 69.9655 220.949 100.128 243.4 145.484C266.078 190.841 270.614 234.61 253.832 242.774C237.051 251.165 205.075 221.003 182.624 175.646C160.173 130.29 155.41 86.7474 172.192 78.3565Z" fill="#466EB6"/>
<path opacity="0.2" d="M160.853 114.415C161.533 113.734 162.44 113.054 163.348 112.601C175.14 106.251 198.498 126.888 215.733 158.637C232.969 190.387 237.277 221.229 225.485 227.579C224.578 228.033 223.671 228.486 222.537 228.486C209.157 216.921 194.87 198.551 182.851 176.326C170.831 153.875 163.348 132.104 160.853 114.415Z" fill="#9D9FC6"/>
<path d="M13.674 226.219L50.6389 207.85L51.0924 210.117C54.2673 228.94 62.6581 246.403 75.5845 260.236L78.3058 263.185L41.341 281.554C29.5485 287.45 15.2615 282.915 9.59202 271.576L2.33511 257.515C-3.33434 246.176 1.65478 232.115 13.674 226.219Z" fill="#003E61"/>
<path d="M78.079 262.958L65.833 269.081L56.5351 273.843L41.1142 281.554C29.3217 287.45 15.0347 282.915 9.36524 271.576L2.33511 257.515C-3.33434 246.176 1.65478 232.115 13.674 226.219L30.6824 217.828L39.0732 213.519L50.6389 207.85L50.8657 209.891C54.0406 228.714 62.4313 246.176 75.3577 260.01L78.079 262.958Z" fill="#F47458"/>
<path d="M65.8332 269.081L56.5353 273.844C43.8358 257.288 34.9914 238.239 30.6826 217.828L39.0734 213.519C43.609 233.93 52.6801 252.979 65.8332 269.081Z" fill="#466EB6"/>
<path d="M220.949 156.596C224.351 163.4 222.764 171.564 217.321 177.461L196.457 199.912C191.695 192.428 186.933 184.264 182.624 175.646C178.315 167.028 174.687 158.411 171.739 150.02L202.127 146.845C210.291 145.938 217.775 149.793 220.949 156.596Z" fill="#F47458"/>
<path d="M210.745 161.813C213.693 167.936 218.455 171.791 221.403 170.204C224.351 168.843 224.124 162.72 220.95 156.597C218.001 150.474 213.239 146.618 210.291 148.206C207.57 149.566 207.796 155.69 210.745 161.813Z" fill="white"/>
<path opacity="0.2" d="M75.3576 260.236C69.4614 253.66 64.2455 246.403 60.3903 238.692C41.7945 241.867 20.7041 251.165 0.974365 254.113C1.42792 255.247 1.88148 256.381 2.33503 257.515L9.13838 271.349C14.8078 282.688 29.0949 287.223 40.8873 281.327L56.3083 273.616L65.6062 268.854L77.8522 262.731L75.3576 260.236Z" fill="#7A251F"/>
<path d="M104.612 287.677C104.612 287.677 96.9017 288.811 96.2214 290.625C95.5411 292.666 99.6231 291.986 103.252 291.306C106.88 290.625 106.2 288.584 104.612 287.677Z" fill="#466EB6"/>
<path d="M108.694 295.161C108.694 295.161 100.984 296.295 100.303 298.109C99.6231 300.15 103.705 299.47 107.334 298.79C110.962 298.336 110.282 296.068 108.694 295.161Z" fill="#466EB6"/>
<path d="M111.642 302.645C111.642 302.645 103.932 303.778 103.251 305.593C102.571 307.634 106.653 306.953 110.282 306.273C114.137 305.82 113.456 303.552 111.642 302.645Z" fill="#466EB6"/>
<path d="M236.597 97.1795L286.035 33L290.57 37.9892L236.597 97.1795Z" fill="#466EB6"/>
<path d="M256.78 129.156L325.948 97.1797L330.483 105.344L256.78 129.156Z" fill="#466EB6"/>
<path d="M263.584 159.545L358.604 169.977L357.697 179.048L263.584 159.545Z" fill="#466EB6"/>
<path d="M248.966 323.282C248.74 323.282 248.74 323.509 248.966 323.282C248.966 323.509 248.966 323.509 248.966 323.509C248.966 323.509 248.966 323.509 248.966 323.282Z" fill="#7533C7"/>
</svg>
