<svg width="375" height="1439" viewBox="0 0 375 1439" fill="none" xmlns="http://www.w3.org/2000/svg">
<rect width="375" height="1439" fill="#F1F9FF"/>
<g opacity="0.6">
<path d="M92.8949 955.64L94.5592 952.807L93.1826 949.83C93.0182 949.499 93.3264 949.127 93.6962 949.209L96.881 949.933L99.2644 947.7C99.5315 947.452 99.9835 947.617 100.025 947.989L100.333 951.256L103.189 952.849C103.518 953.035 103.497 953.51 103.148 953.655L100.148 954.958L99.5109 958.183C99.4493 958.555 98.9767 958.68 98.7301 958.39L96.5728 955.929L93.3264 956.322C92.9566 956.364 92.71 955.95 92.8949 955.64Z" fill="#466EB6"/>
<path d="M32.1143 967.523L35.5417 968.243L37.0142 965.574L40.843 966.627L41.381 963.107L45.7108 964.121L46.6373 961.04L50.8507 961.367L51.0587 962.909L47.9108 962.666L46.9302 965.918L42.7655 964.952L42.2261 968.517L37.9991 967.344L36.5678 969.949L33.4028 969.3L32.8823 971.275L31.3249 970.609L32.1143 967.523Z" fill="#F7CC7F"/>
<path d="M34.5302 944.446L32.4788 946.17L29.8397 943.84L26.6106 946.072L24.2664 944.683L23.2745 946.007L26.413 947.866L29.4853 945.723L32.2052 948.177L35.2854 945.553L34.5302 944.446Z" fill="#50BFA5"/>
<path d="M70.4019 943.491C73.0935 946.097 73.1757 950.377 70.6073 953.086C68.0185 955.794 63.7653 955.877 61.0737 953.292C58.3821 950.687 58.3 946.407 60.8683 943.698C63.4366 940.99 67.7103 940.907 70.4019 943.491Z" fill="#FFF3D9"/>
<path d="M70.2583 949.178L67.3818 950.067L66.4777 952.941C66.3956 953.168 66.1079 953.23 65.9641 953.023L64.2382 950.542L61.2384 950.563C60.9918 950.563 60.848 950.294 60.9918 950.087L62.7999 947.668L61.8342 944.794C61.752 944.567 61.9781 944.339 62.2041 944.422L65.0395 945.394L67.4434 943.595C67.6284 943.45 67.916 943.595 67.916 943.843L67.8749 946.862L70.32 948.619C70.546 948.805 70.4843 949.095 70.2583 949.178Z" fill="#FED333"/>
<path d="M74.3873 920.726C75.0859 922.277 74.2435 924.179 72.497 924.985C70.7506 925.771 68.7781 925.151 68.0795 923.6C67.3809 922.049 68.2233 920.147 69.9698 919.341C71.6957 918.555 73.6887 919.175 74.3873 920.726Z" fill="#F7CC7F"/>
<path d="M72.9899 924.551L71.8598 925.068C69.6819 926.061 68.6956 928.645 69.6819 930.858L70.627 932.946L79.6881 928.831L78.7429 926.743C77.7361 924.531 75.1678 923.559 72.9899 924.551Z" fill="#F7CC7F"/>
</g>
<g opacity="0.6">
<path d="M348.092 32.8584L347.188 35.1536L343.387 34.0783L341.661 37.2419L338.682 36.9111L338.518 38.4205L342.483 38.8754L344.127 35.8773L348.092 36.9731L349.448 33.5614L348.092 32.8584Z" fill="#50BFA5"/>
<path d="M337.244 48.0144C339.935 50.6198 340.017 54.8999 337.449 57.6086C334.86 60.3173 330.607 60.4 327.916 57.8154C325.224 55.2101 325.142 50.9299 327.71 48.2212C330.278 45.5125 334.552 45.4298 337.244 48.0144Z" fill="#FFF3D9"/>
<path d="M337.1 53.701L334.224 54.5901L333.32 57.4642C333.237 57.6916 332.95 57.7537 332.806 57.5469L331.08 55.0657L328.08 55.0863C327.834 55.0863 327.69 54.8175 327.834 54.6108L329.642 52.1915L328.676 49.3174C328.594 49.09 328.82 48.8625 329.046 48.9452L331.881 49.9171L334.285 48.1182C334.47 47.9734 334.758 48.1182 334.758 48.3663L334.717 51.3851L337.162 53.1427C337.388 53.3081 337.326 53.6183 337.1 53.701Z" fill="#FED333"/>
<path d="M299.726 32.7962C299.726 32.7962 301.883 31.6589 304.452 32.9202C306.732 34.0368 307.41 36.6421 306.383 38.7718C305.191 41.2324 301.616 43.0934 294.836 42.8659C290.501 37.5933 289.781 33.6233 290.973 31.1627C292.001 29.0329 294.466 27.9784 296.747 29.1157C299.295 30.377 299.726 32.7962 299.726 32.7962Z" fill="#F48C7F"/>
<path d="M280.391 24.4638C282.426 25.9112 284.151 26.9864 285.877 27.9583C286.453 28.2684 287.336 28.9921 288.014 28.7233C288.364 28.5786 288.569 28.2891 288.487 27.8962C288.322 27.1932 287.357 26.8831 286.781 26.5729C285.035 25.6011 283.083 24.4018 281.193 23.0785C280.843 22.8303 280.309 23.0164 280.104 23.3679C279.878 23.7815 280.042 24.2157 280.391 24.4638Z" fill="#F48C7F"/>
<path d="M307.164 45.3678C307.986 45.8434 308.828 46.319 309.671 46.7945C310.472 47.2494 311.335 47.9111 312.26 48.0765C312.938 48.1799 313.39 47.4769 312.917 46.9186C312.301 46.2156 311.294 45.8227 310.493 45.3885C309.65 44.9129 308.808 44.458 307.965 44.0031C307.061 43.5069 306.281 44.8509 307.164 45.3678Z" fill="#F48C7F"/>
<path d="M281.994 39.847C284.028 38.6684 285.61 38.8338 286.966 38.7097C287.685 38.6477 287.829 37.6966 287.13 37.4484C285.219 36.7454 282.857 37.4898 281.172 38.4823C280.309 38.9992 281.11 40.3639 281.994 39.847Z" fill="#F48C7F"/>
<path d="M289.185 49.7517C289.637 48.8625 290.233 48.0768 291.014 47.4565C291.486 47.0636 293.253 46.2366 292.411 45.4302C291.63 44.6651 290.274 45.9057 289.678 46.4433C288.898 47.1463 288.261 48.0148 287.788 48.9453C287.336 49.855 288.713 50.6821 289.185 49.7517Z" fill="#F48C7F"/>
<path d="M299.233 48.4491C299.5 49.0487 299.787 49.6483 300.054 50.248C300.321 50.8476 300.506 51.592 301.184 51.8194C301.575 51.9435 301.904 51.6747 302.027 51.3439C302.273 50.7442 301.719 49.9792 301.452 49.4416C301.164 48.8419 300.897 48.2423 300.609 47.6427C300.424 47.2498 299.849 47.1464 299.5 47.3532C299.13 47.56 299.068 48.0355 299.233 48.4491Z" fill="#F48C7F"/>
<path d="M296.829 24.3807C297.445 19.0667 297.486 19.0667 297.343 18.5084C297.178 17.9294 296.356 17.8054 296.069 18.343C295.781 18.8806 295.822 18.7979 295.206 24.3807C295.165 24.8149 295.617 25.2078 296.028 25.2078C296.5 25.2078 296.788 24.8356 296.829 24.3807Z" fill="#F48C7F"/>
<path d="M304.513 28.6403C305.191 28.082 305.807 27.4617 306.341 26.7587C306.855 26.1177 307.698 25.2079 307.328 24.3395C307.246 24.1534 306.978 24.0086 306.793 24.0293C305.972 24.0913 305.561 25.1252 305.088 25.7248C304.574 26.3658 303.999 26.9655 303.383 27.5031C303.054 27.7925 303.095 28.3508 303.383 28.6403C303.712 28.9711 304.164 28.9298 304.513 28.6403Z" fill="#F48C7F"/>
<path d="M314.889 35.4424C315.197 35.1943 315.115 34.7188 314.889 34.4499C314.437 33.8917 313.368 34.0364 312.731 34.0364C311.971 34.0571 311.231 34.1398 310.492 34.2845C310.06 34.3672 309.814 34.8842 309.937 35.277C310.06 35.7319 310.492 35.8973 310.923 35.8353C313.738 35.4218 314.129 36.0628 314.889 35.4424Z" fill="#F48C7F"/>
<path d="M314.407 66.1508C301.935 65.3444 288.806 77.5439 288.333 84.8843C288.107 88.5648 290.408 92.0385 294.353 94.7059L287.244 110.855L299.778 97.4766C302.818 98.6345 306.311 99.3789 310.071 99.627C322.543 100.433 331.625 92.5348 332.097 85.1944C332.549 77.8541 326.878 66.9572 314.407 66.1508Z" fill="#FAE0B2"/>
<path d="M318.064 84.8224C320.139 81.3694 319.03 76.8824 315.598 74.794C312.167 72.7057 307.709 73.8222 305.633 77.2753C304.791 78.6813 304.442 80.2941 304.647 81.9276C304.791 83.0856 304.853 84.2848 304.853 85.4427L302.592 89.2473C302.387 89.5988 302.49 90.0331 302.839 90.2605L303.538 90.6947L303.353 91.0049C302.921 91.7286 303.147 92.6797 303.866 93.1139L304.955 93.7756C305.674 94.2098 306.62 93.9824 307.051 93.2587L307.236 92.9485L307.935 93.3827C308.284 93.5895 308.715 93.4861 308.941 93.1346L311.222 89.3507C312.249 88.7924 313.318 88.3169 314.407 87.9033C315.948 87.283 317.222 86.2285 318.064 84.8224ZM307.626 86.0424L309.373 80.6663H310.256L310.606 81.907C310.626 82.0103 310.708 82.0931 310.791 82.1344C310.873 82.1758 310.975 82.1964 311.078 82.1551L312.27 81.7209L312.188 82.7547C312.188 82.8995 312.249 83.0235 312.352 83.0856C312.393 83.1062 312.434 83.1269 312.475 83.1269L313.133 83.2303L309.393 87.1176L307.626 86.0424ZM309.722 89.0199L309.085 90.0744L305.202 87.7172L305.839 86.6627L309.722 89.0199ZM304.195 89.3714L304.832 88.3169L308.715 90.674L308.078 91.7286L304.195 89.3714ZM310.729 87.924L310.38 87.7172L314.653 83.2716C314.859 83.0649 314.859 82.7134 314.633 82.5066C314.407 82.2998 314.078 82.2998 313.873 82.5273L313.79 82.61L312.948 82.4859L313.03 81.2246C313.03 81.1006 312.989 80.9765 312.886 80.9145C312.784 80.8318 312.66 80.8111 312.537 80.8524L311.181 81.328L310.873 80.1908C310.832 80.0253 310.688 79.922 310.523 79.922H309.599V79.9013C309.702 79.6118 309.537 79.3016 309.25 79.2189C308.962 79.1156 308.654 79.281 308.572 79.5705L306.64 85.4427L306.291 85.236C306.291 84.0781 306.209 82.8995 306.065 81.7415C305.9 80.4389 306.168 79.1362 306.846 78.0197C308.51 75.2696 312.064 74.3805 314.818 76.0347C317.55 77.7095 318.434 81.2866 316.79 84.0574C316.112 85.1946 315.105 86.0217 313.873 86.4973C312.825 86.9108 311.756 87.3864 310.729 87.924Z" fill="#F47458"/>
</g>
<g opacity="0.6">
<path d="M89.9346 507.282L86.3809 509.091L88.2433 512.442L84.8377 514.387L86.2236 517.75L83.9675 519.612L85.0851 520.773L88.0934 518.284L86.7898 515.091L90.3275 513.059L88.4851 509.77L91.7098 508.128L89.9346 507.282Z" fill="#F48C7F"/>
<path d="M112.501 511.057L108.385 511.814L107.793 514.972L103.728 515.845L102.708 518.934L99.6257 519.999L99.8153 521.173L103.914 519.773L104.881 516.843L109.12 515.935L109.699 512.816L113.424 512.145L112.501 511.057Z" fill="#F48C7F"/>
<path d="M93.3107 539.367L95.3858 540.942L98.709 539.462L100.825 541.401L104.117 539.017L106.653 541.082L109.888 539.136L112.895 540.668L111.798 541.849L109.55 540.705L106.133 542.759L103.686 540.779L100.356 543.195L98.0295 541.046L94.7902 542.493L92.8614 541.049L90.8437 542.32L90.1782 541.359L93.3107 539.367Z" fill="#F7CC7F"/>
<path d="M108.186 494.889L110.668 494.119C110.668 494.119 113.976 491.367 114.135 490.698C114.293 490.028 113.894 488.81 114.397 488.496C114.9 488.181 115.945 487.741 116.502 488.409C116.921 488.884 116.3 491.267 116.587 491.341C116.768 491.378 118.189 490.971 119.234 490.649C119.93 490.435 120.523 490.558 120.797 490.929C120.974 491.19 120.838 491.61 120.464 491.951L119.88 492.472L120.267 492.792C120.563 493.033 120.421 493.541 119.979 493.913L119.518 494.31L119.802 494.489C120.146 494.725 120.037 495.27 119.527 495.672L119.124 495.992L119.163 496.06C119.369 496.342 119.194 496.814 118.746 497.154L118.343 497.474L111.709 499.535C111.084 499.735 110.484 499.819 109.914 499.806L107.606 500.224C107.367 500.264 107.197 500.154 107.206 499.962L107.609 495.442C107.664 495.229 107.909 494.981 108.186 494.889Z" fill="#FAE0B2"/>
</g>
<g opacity="0.6">
<path d="M287.857 791.87C287.857 791.87 279.369 791.693 273.773 796.136C268.176 800.58 265.654 808.697 265.654 808.697L279.252 813.931C279.215 813.944 272.46 802.784 287.857 791.87Z" fill="#FAE0B2"/>
<path d="M290.948 793.265L289.183 787.214L282.511 783.53C281.745 783.117 281.652 782.247 282.336 782.073L288.332 780.467L288.585 774.74C288.612 774.092 289.543 773.984 290.182 774.552L295.644 779.631L302.479 779.757C303.256 779.769 303.95 780.56 303.65 781.106L301.049 785.854L305.006 791.661C305.466 792.314 304.927 792.922 304.129 792.675L297.032 790.528L292.664 793.982C292.165 794.378 291.143 793.945 290.948 793.265Z" fill="#F7CC7F"/>
<path d="M274.7 785.623C274.546 786.42 273.52 786.716 272.403 786.3C271.287 785.884 270.504 784.914 270.657 784.116C270.81 783.319 271.837 783.023 272.953 783.439C274.069 783.855 274.848 784.849 274.7 785.623Z" fill="#50BFA5"/>
<path d="M294.974 764.153C294.821 764.95 293.794 765.246 292.678 764.83C291.561 764.414 290.778 763.444 290.931 762.646C291.084 761.849 292.111 761.553 293.228 761.969C294.344 762.385 295.123 763.379 294.974 764.153Z" fill="#50BFA5"/>
<path d="M315.392 789.517C315.224 790.387 314.122 790.731 312.913 790.28C311.704 789.829 310.872 788.763 311.039 787.893C311.206 787.023 312.309 786.679 313.518 787.13C314.722 787.604 315.559 788.647 315.392 789.517Z" fill="#50BFA5"/>
<path d="M257.674 734.324C271.342 734.117 281.24 739.865 279.795 747.126C279.087 750.754 275.658 754.081 270.708 756.53L274.132 767.16L264.105 758.99C260.519 759.972 256.543 760.576 252.44 760.633C238.772 760.839 228.875 755.092 230.32 747.831C231.765 740.594 244.007 734.53 257.674 734.324Z" fill="#FAE0B2"/>
<path d="M263.946 747.078C261.867 750.976 256.582 753.702 252.19 753.168C247.767 752.641 245.88 749.041 247.959 745.166C250.038 741.268 255.323 738.542 259.715 739.076C264.138 739.603 266.025 743.181 263.946 747.078Z" fill="#F7CC7F"/>
<path d="M251.278 747.097C250.177 749.072 251.171 750.918 253.506 751.213C255.841 751.509 258.63 750.151 259.73 748.176L251.278 747.097Z" fill="#EFEFEF"/>
</g>
<g opacity="0.6">
<path d="M113.014 292.81L115.131 289.378L118.418 291.156L120.637 287.868L123.986 289.171L126.061 287L127.15 288.055L124.377 290.97L121.212 289.729L118.891 293.141L115.665 291.404L113.754 294.506L113.014 292.81Z" fill="#F48C7F"/>
<path d="M106.647 301.456L109.811 300.086L112.359 303.153L115.573 301.943L118.339 304.696L121.044 304.225L121.733 305.581L118.112 306.22L115.503 303.613L112.149 304.857L109.646 301.854L106.788 303.093L106.647 301.456Z" fill="#FDD79D"/>
<path d="M89.718 301.18L88.1359 303.826C87.9716 304.116 87.5401 304.075 87.4168 303.764L86.2868 300.89L83.3075 300.187C82.9788 300.105 82.8966 299.691 83.1431 299.484L85.506 297.52L85.2389 294.439C85.2183 294.108 85.5676 293.881 85.8553 294.067L88.4441 295.721L91.259 294.522C91.5672 294.398 91.896 294.667 91.7932 294.997L91.033 297.975L93.0466 300.311C93.2726 300.559 93.1082 300.952 92.7589 300.973L89.718 301.18Z" fill="#F47458"/>
<path d="M102.923 293.827C104.156 294.22 105.224 293.372 105.635 292.132C106.375 289.795 104.218 288.513 102.759 289.423C101.177 290.395 101.012 293.207 102.923 293.827ZM104.628 285.846C104.526 286.28 104.731 286.57 105.224 286.735C105.779 286.921 106.046 286.962 106.313 286.487C107.978 283.447 108.943 281.462 109.231 280.573C111.923 271.992 112.375 271.227 112.066 271.124C111.594 270.979 110.813 270.896 110.32 270.731C109.827 270.565 109.149 270.173 108.676 270.007C108.43 269.924 108.306 270.545 107.69 272.323C105.512 278.898 105.224 282.372 104.628 285.846Z" fill="#F47458"/>
<path d="M119.151 280.303C119.151 281.026 119.829 281.605 120.65 281.605C121.472 281.605 122.15 281.026 122.15 280.303C122.15 279.579 121.472 279 120.65 279C119.829 279 119.151 279.579 119.151 280.303Z" fill="#50BFA5"/>
<path d="M97.8767 265.737C97.8767 266.688 98.8424 267.474 100.014 267.474C101.205 267.474 102.15 266.709 102.15 265.737C102.15 264.786 101.185 264 100.014 264C98.8424 264 97.8767 264.765 97.8767 265.737Z" fill="#96D9C9"/>
</g>
</svg>
