<svg width="53" height="50" viewBox="0 0 53 50" fill="none" xmlns="http://www.w3.org/2000/svg">
<ellipse cx="26.5" cy="25" rx="26.5" ry="25" fill="#F2D07E"/>
<path d="M26.7159 14.16C24.6159 14.16 22.8759 14.73 21.5259 15.93C20.0859 17.13 19.3059 18.81 19.1259 20.97H22.5759C22.6959 19.68 23.1159 18.72 23.8359 18.09C24.5259 17.46 25.4859 17.16 26.7459 17.16C27.9759 17.16 28.9059 17.43 29.5359 17.97C30.1059 18.51 30.4059 19.29 30.4059 20.34C30.4059 21.39 30.0759 22.2 29.4459 22.74C28.7859 23.28 27.8259 23.55 26.5659 23.55H25.0659V26.19H26.5659C27.9459 26.19 28.9959 26.46 29.7159 27.06C30.4359 27.63 30.8259 28.53 30.8259 29.76C30.8259 30.78 30.4659 31.62 29.7759 32.31C28.9959 33.06 27.9159 33.45 26.5659 33.45C25.3359 33.45 24.3459 33.09 23.5959 32.4C22.7559 31.65 22.3359 30.57 22.2759 29.19H18.7059C18.8859 31.59 19.7259 33.45 21.2259 34.71C22.5759 35.85 24.3759 36.42 26.5959 36.42C28.9359 36.42 30.8259 35.76 32.2659 34.47C33.6459 33.21 34.3359 31.59 34.3359 29.61C34.3359 28.35 33.9759 27.3 33.2559 26.49C32.5959 25.71 31.6059 25.14 30.3459 24.75C32.7159 23.97 33.9159 22.41 33.9159 20.07C33.9159 18.21 33.2559 16.77 31.9659 15.72C30.6459 14.67 28.8759 14.16 26.7159 14.16Z" fill="white"/>
</svg>
