<svg width="242" height="229" viewBox="0 0 242 229" fill="none" xmlns="http://www.w3.org/2000/svg">
<circle cx="130.5" cy="111.5" r="106.5" stroke="#466EB6" stroke-width="9"/>
<circle cx="47.5" cy="181.5" r="47.5" fill="white"/>
<path d="M37.44 157.02L34.71 185.16H42.34C43.32 183.41 44.65 182.15 46.4 181.31C47.94 180.54 49.83 180.19 52 180.19C55.22 180.19 57.74 181.1 59.42 183.06C61.1 184.95 62.01 187.61 62.01 190.97C62.01 194.05 60.96 196.5 59 198.32C56.97 200.14 54.45 201.05 51.51 201.05C48.78 201.05 46.61 200.42 45.07 199.3C43.25 197.97 42.2 195.94 41.85 193.21H33.8C34.15 197.83 36.11 201.54 39.75 204.27C42.97 206.72 46.89 207.98 51.44 207.98C56.41 207.98 60.68 206.51 64.32 203.57C68.24 200.28 70.2 196.08 70.2 190.9C70.2 185.51 68.66 181.24 65.72 178.16C62.78 175.08 58.93 173.54 54.24 173.54C52 173.54 49.97 173.89 48.15 174.59C46.12 175.29 44.37 176.41 42.83 177.95H42.62L44.02 164.23H67.89V157.02H37.44Z" fill="#466EB6"/>
</svg>
