<svg width="53" height="50" viewBox="0 0 53 50" fill="none" xmlns="http://www.w3.org/2000/svg">
<ellipse cx="26.5" cy="25" rx="26.5" ry="25" fill="#B9A1BD"/>
<path d="M26.8359 14.16C24.5259 14.16 22.6659 14.94 21.2559 16.5C19.8759 17.97 19.1859 19.89 19.1559 22.29H22.6659C22.7259 20.61 23.0859 19.32 23.7459 18.48C24.4059 17.58 25.3959 17.13 26.7159 17.13C27.9459 17.13 28.8759 17.4 29.5059 17.97C30.1059 18.54 30.4359 19.41 30.4359 20.58C30.4359 21.78 29.9559 22.92 29.0259 23.97C28.4259 24.6 27.4659 25.41 26.0859 26.37C23.5959 28.08 21.9459 29.4 21.1659 30.3C19.7259 31.92 19.0359 33.81 19.0359 36H33.9759V32.91H23.4159C23.8959 31.83 25.2159 30.57 27.4059 29.13C29.5059 27.72 31.0059 26.58 31.8459 25.68C33.2259 24.15 33.9459 22.47 33.9459 20.61C33.9459 18.69 33.2859 17.16 31.9659 15.96C30.6159 14.76 28.9059 14.16 26.8359 14.16Z" fill="white"/>
</svg>
