<svg width="335" height="427" viewBox="0 0 335 427" fill="none" xmlns="http://www.w3.org/2000/svg">
<path d="M172.47 291.361C172.47 291.361 161.597 296.324 155.547 307.086C149.497 317.848 148.269 332.739 148.269 332.739L166.902 332.915C166.858 332.958 155.503 318.814 172.47 291.361Z" fill="#FAE0B2"/>
<path d="M177.95 298.784L174.004 289.428L164.052 287.363C162.912 287.144 162.562 285.694 163.438 284.947L171.111 278.271L169.971 268.168C169.839 267.026 171.067 266.235 172.075 266.806L180.756 272.077L190.006 267.86C191.059 267.377 192.198 268.3 191.935 269.442L189.656 279.369L196.495 286.88C197.284 287.715 196.714 289.12 195.574 289.208L185.447 290.087L180.449 298.916C179.879 299.926 178.388 299.838 177.95 298.784Z" fill="#F7CC7F"/>
<path d="M149.134 184.118L152.685 178.1L149.748 171.775C149.397 171.072 150.055 170.282 150.844 170.457L157.639 171.995L162.725 167.251C163.295 166.724 164.259 167.075 164.347 167.866L165.005 174.806L171.099 178.188C171.8 178.584 171.756 179.594 171.011 179.901L164.61 182.669L163.251 189.521C163.12 190.312 162.111 190.575 161.585 189.96L156.982 184.733L150.055 185.568C149.266 185.656 148.74 184.777 149.134 184.118Z" fill="#466EB6"/>
<path d="M233.288 220.955L224.984 222.952L226.303 230.787L218.196 233.137L218.565 240.763L212.789 243.504L214.18 246.45L221.886 242.782L221.56 235.547L229.99 233.081L228.667 225.385L236.202 223.572L233.288 220.955Z" fill="#F48C7F"/>
<path d="M274.979 243.24L266.737 241L264.15 248.511L255.952 246.623L252.576 253.519L246.175 253.124L246 256.33L254.505 256.901L257.706 250.356L266.255 252.333L268.798 244.909L276.251 246.974L274.979 243.24Z" fill="#F48C7F"/>
<path d="M36.9997 23.4565L32.4841 16.1648L25.4695 19.9424L20.7346 12.9582L13.5885 15.7255L9.1605 11.1133L6.83691 13.3535L12.7555 19.5471L19.5071 16.9115L24.4611 24.1593L31.3442 20.4695L35.4215 27.0584L36.9997 23.4565Z" fill="#F48C7F"/>
<path d="M220.257 284.728L223.501 290.834L230.516 290.438L233.672 297.51L241.038 294.787L244.94 302.606L251.998 300.937L257.04 307.877L254.409 309.766L250.639 304.582L243.186 306.339L239.416 298.828L231.963 301.595L228.499 293.777L221.66 294.172L218.635 288.549L214.207 289.735L213.374 286.617L220.257 284.728Z" fill="#F7CC7F"/>
<path d="M19.8512 211.486L26.7269 212.214L30.3241 206.179L37.9517 207.519L39.8155 199.891L48.4791 201.032L51.0449 194.248L59.6181 193.952L59.7118 197.189L53.3063 197.414L50.5925 204.574L42.2573 203.497L40.3809 211.222L31.9626 209.718L28.4636 215.608L22.111 214.969L20.6164 219.303L17.5655 218.248L19.8512 211.486Z" fill="#F7CC7F"/>
<path d="M137.835 306.339L132.662 306.823L130.864 298.608L123.236 298.433L120.912 292.459L117.887 293.645L121 301.639L128.278 301.771L130.075 310.337L137.879 309.546L137.835 306.339Z" fill="#50BFA5"/>
<path d="M24.3014 161.474L20.3077 164.797L14.1807 159.038L7.78937 163.207L2.4951 159.593L0.670586 162.282L7.75824 167.116L13.8354 163.11L20.1611 169.158L26.1507 164.094L24.3014 161.474Z" fill="#50BFA5"/>
<path d="M331.833 43.3549L329.904 48.2307L321.794 45.9465L318.111 52.6672L311.754 51.9644L311.403 55.1709L319.864 56.1373L323.372 49.7681L331.833 52.0961L334.727 44.8484L331.833 43.3549Z" fill="#50BFA5"/>
<path d="M232.532 353.648C230.121 354.131 220.564 366.957 220.564 366.957L220.213 367.836C220.213 367.836 237.53 365.903 238.144 365.156C239.854 363.18 234.505 353.252 232.532 353.648ZM220.695 367.221C223.852 363.18 231.042 357.293 232.576 356.02C233.979 357.425 236.04 361.642 236.347 363.531C234.374 363.97 225.737 366.65 220.695 367.221Z" fill="#86B1F2"/>
<path d="M209.34 355.844C204.649 352.769 203.334 352.813 201.975 353.56C200.616 354.35 195.53 361.598 197.81 363.882C200.09 366.167 217.977 367.748 217.977 367.748L218.372 366.65C218.416 366.694 214.075 358.919 209.34 355.844ZM200.923 363.092C199.871 362.037 202.457 357.689 203.685 356.766C203.992 356.591 216.048 364.278 217.714 366.913C211.006 366.167 201.931 363.97 200.923 363.092Z" fill="#86B1F2"/>
<path d="M218.153 371.174H219.161C220.169 371.174 220.959 370.383 220.959 369.373V366.386C220.959 365.376 220.169 364.585 219.161 364.585H218.153C217.144 364.585 216.355 365.376 216.355 366.386V369.373C216.355 370.383 217.144 371.174 218.153 371.174Z" fill="#86B1F2"/>
<path d="M256.382 367.924L174.399 367.66C172.207 367.66 170.541 369.593 170.892 371.745L172.163 380.135H176.284L178.783 422.304C178.914 424.544 180.8 426.345 183.036 426.345H248.491L251.209 379.959H255.067L256.382 367.924Z" fill="#B75742"/>
<path d="M249.806 426.345H199.564L196.889 368.802H256.558L254.059 422.348C253.971 424.588 252.086 426.345 249.806 426.345Z" fill="#F47458"/>
<path d="M259.057 380.003L194.259 380.179L192.769 367.704L256.251 367.968C258.355 367.968 259.978 369.769 259.802 371.833L259.057 380.003Z" fill="#F48C7F"/>
<path d="M194.259 380.179L256.032 380.003L196.188 383.298L194.259 380.179Z" fill="#B75742"/>
<path d="M220.257 367.792H218.547V380.135H220.257V367.792Z" fill="#86B1F2"/>
<path d="M225.693 380.047H223.545V426.433H225.693V380.047Z" fill="#86B1F2"/>
<path d="M184 340.118H117.493V426.345H184V340.118Z" fill="#FAE0B2"/>
<path d="M128.059 340.118H125.647V426.345H128.059V340.118Z" fill="#F7CC7F"/>
<path d="M135.161 340.118H132.75V426.345H135.161V340.118Z" fill="#F7CC7F"/>
<path d="M142.263 340.118H139.852V426.345H142.263V340.118Z" fill="#F7CC7F"/>
<path d="M149.366 340.118H146.954V426.345H149.366V340.118Z" fill="#F7CC7F"/>
<path d="M156.468 340.118H154.057V426.345H156.468V340.118Z" fill="#F7CC7F"/>
<path d="M163.57 340.118H161.159V426.345H163.57V340.118Z" fill="#F7CC7F"/>
<path d="M170.672 340.118H168.261V426.345H170.672V340.118Z" fill="#F7CC7F"/>
<path d="M177.819 340.118H175.407V426.345H177.819V340.118Z" fill="#F7CC7F"/>
<path d="M183.956 340.075H117.493V343.633H183.956V340.075Z" fill="#F7CC7F"/>
<path d="M62.9979 313.236C65.1023 315.432 85.0063 316.662 85.0063 316.662L86.1462 316.398C86.1462 316.398 72.3361 299.619 71.1524 299.487C67.9081 299.048 61.2442 311.435 62.9979 313.236ZM85.1817 316.311C78.8247 315.783 67.7766 312.269 65.4091 311.523C65.9352 309.107 68.8726 304.055 70.6701 302.474C72.4238 304.275 81.1044 311.479 85.1817 316.311Z" fill="#50BFA5"/>
<path d="M81.0608 335.945C81.0608 342.974 81.9815 344.291 83.7351 345.214C85.4888 346.136 96.493 346.444 97.326 342.534C98.159 338.625 87.5932 318.77 87.5932 318.77L86.1902 319.078C86.1464 319.078 81.0608 328.917 81.0608 335.945ZM94.3447 339.811C93.9502 341.612 87.6808 341.875 85.8833 341.261C85.4888 341.041 85.2696 323.207 86.8479 319.649C90.7059 327.204 94.6078 338.186 94.3447 339.811Z" fill="#50BFA5"/>
<path d="M91.0127 316.311L90.3113 315.256C89.6098 314.202 88.2507 313.939 87.1985 314.598L84.0857 316.618C83.0335 317.321 82.7705 318.683 83.4281 319.737L84.1296 320.791C84.831 321.845 86.1901 322.109 87.2423 321.45L90.3551 319.429C91.4073 318.727 91.7142 317.365 91.0127 316.311Z" fill="#50BFA5"/>
<path d="M66.68 280.148L104.101 347.609L117.513 340.141L80.0926 272.679L66.68 280.148Z" fill="#FBB03B"/>
<path d="M101.14 158.309C106.883 163.844 107.059 172.936 101.578 178.691C96.0544 184.445 86.9793 184.621 81.2361 179.13C75.4928 173.595 75.3175 164.503 80.7976 158.748C86.2778 152.994 95.3968 152.818 101.14 158.309Z" fill="#FFF3D9"/>
<path d="M100.833 170.389L94.6953 172.278L92.7663 178.383C92.5909 178.866 91.9771 178.998 91.6702 178.559L87.9875 173.288L81.5867 173.332C81.0606 173.332 80.7537 172.761 81.0606 172.321L84.9187 167.182L82.8581 161.076C82.6828 160.593 83.165 160.11 83.6473 160.286L89.6974 162.35L94.8268 158.529C95.2214 158.221 95.8352 158.529 95.8352 159.056L95.7475 165.469L100.965 169.203C101.447 169.598 101.315 170.213 100.833 170.389Z" fill="#FED333"/>
<path d="M308.685 75.5526C314.428 81.0873 314.604 90.1799 309.124 95.9342C303.6 101.689 294.524 101.864 288.781 96.3735C283.038 90.8388 282.863 81.7462 288.343 75.9919C293.823 70.2376 302.942 70.0619 308.685 75.5526Z" fill="#FFF3D9"/>
<path d="M308.378 87.6322L302.241 89.5211L300.311 95.6268C300.136 96.1099 299.522 96.2417 299.215 95.8025L295.533 90.5313L289.132 90.5753C288.606 90.5753 288.299 90.0042 288.606 89.565L292.464 84.4256L290.403 78.3199C290.228 77.8368 290.71 77.3536 291.192 77.5293L297.243 79.5938L302.372 75.7722C302.767 75.4648 303.38 75.7722 303.38 76.2993L303.293 82.7125L308.51 86.4462C308.992 86.7976 308.861 87.4565 308.378 87.6322Z" fill="#FED333"/>
<path d="M165.324 110.253L168.7 115.875C169.05 116.49 169.971 116.402 170.234 115.743L172.645 109.638L179.002 108.144C179.704 107.968 179.879 107.09 179.353 106.651L174.311 102.478L174.881 95.9327C174.925 95.2299 174.18 94.7467 173.566 95.1421L168.042 98.6562L162.036 96.1084C161.378 95.8449 160.677 96.4159 160.896 97.1187L162.518 103.444L158.221 108.408C157.739 108.935 158.09 109.769 158.835 109.813L165.324 110.253Z" fill="#F47458"/>
<path d="M99.3423 257.098C99.3423 258.592 98.0271 259.778 96.4049 259.778C94.7828 259.778 93.4675 258.592 93.4675 257.098C93.4675 255.605 94.7828 254.419 96.4049 254.419C98.0271 254.419 99.3423 255.649 99.3423 257.098Z" fill="#50BFA5"/>
<path d="M216.399 318.199C216.399 319.825 214.996 321.142 213.242 321.142C211.489 321.142 210.086 319.825 210.086 318.199C210.086 316.574 211.489 315.256 213.242 315.256C214.996 315.3 216.399 316.574 216.399 318.199Z" fill="#50BFA5"/>
<path d="M112.495 201.84C132.793 205.617 147.349 218.839 145.025 231.314C143.885 237.551 138.712 242.427 131.303 245.282L136.125 265.225L121.438 247.654C116.09 248.313 110.171 248.181 104.077 247.039C83.7786 243.262 69.2233 230.04 71.5469 217.565C73.8705 205.134 92.1962 198.062 112.495 201.84Z" fill="#FAE0B2"/>
<path d="M121.789 229.293C118.676 235.794 110.873 238.518 104.428 235.399C97.9393 232.28 95.2212 224.461 98.3339 218.004C101.447 211.503 109.25 208.78 115.695 211.899C122.184 215.017 124.902 222.792 121.789 229.293Z" fill="#F7CC7F"/>
<path d="M102.893 222.485C101.227 225.955 102.674 230.128 106.138 231.797C109.601 233.466 113.766 232.017 115.432 228.547L102.893 222.485Z" fill="#EFEFEF"/>
<path d="M259.958 114.081C233.347 112.368 205.332 138.284 204.324 153.878C203.841 161.697 208.752 169.076 217.169 174.743L202 209.049L228.743 180.629C235.232 183.088 242.685 184.67 250.708 185.197C277.319 186.91 296.697 170.13 297.706 154.537C298.67 138.943 286.57 115.794 259.958 114.081Z" fill="#FAE0B2"/>
<path d="M279.612 205.26L284.303 206.182C284.303 206.182 291.186 202.976 291.712 201.438C292.238 199.901 291.975 196.299 292.983 196.079C293.992 195.86 296.008 195.948 296.754 198.32C297.324 200.033 295.351 205.436 295.833 205.963C296.14 206.27 298.814 206.885 300.787 207.28C302.102 207.544 303.111 208.554 303.462 209.828C303.681 210.707 303.286 211.629 302.497 212.068L301.269 212.727L301.839 214.001C302.278 214.968 301.839 216.11 300.919 216.549L299.954 217.032L300.393 217.823C300.919 218.833 300.524 220.107 299.472 220.546L298.639 220.898L298.683 221.117C298.946 222.084 298.464 223.094 297.543 223.445L296.71 223.797L284.171 221.337C282.988 221.117 281.892 220.634 280.883 219.931L276.631 218.306C276.192 218.13 275.929 217.647 276.017 217.164L278.384 206.007C278.56 205.523 279.086 205.172 279.612 205.26Z" fill="#FAE0B2"/>
<path d="M125.34 83.8107C122.71 84.6453 120.43 82.8443 119.553 80.2088C117.975 75.2451 122.578 72.5217 125.691 74.4545C129.067 76.519 129.417 82.4929 125.34 83.8107ZM121.701 66.8553C121.921 67.7777 121.482 68.3927 120.43 68.7441C119.246 69.1394 118.676 69.2273 118.106 68.217C114.555 61.7599 112.495 57.543 111.881 55.6542C106.138 37.4249 105.173 35.7996 105.831 35.58C106.839 35.2725 108.505 35.0968 109.557 34.7454C110.609 34.394 112.056 33.5594 113.065 33.208C113.591 33.0323 113.854 34.3501 115.169 38.1277C119.816 52.0962 120.43 59.4757 121.701 66.8553Z" fill="#F47458"/>
<path d="M228.631 43.2231C228.631 43.2231 233.234 40.8072 238.714 43.4866C243.58 45.8586 245.027 51.3933 242.835 55.9177C240.292 61.1449 232.664 65.0982 218.196 64.615C208.946 53.4139 207.411 44.9801 209.954 39.7529C212.146 35.2286 217.407 32.9884 222.274 35.4043C227.71 38.0838 228.631 43.2231 228.631 43.2231Z" fill="#F48C7F"/>
<path d="M187.376 25.521C191.716 28.5958 195.399 30.8799 199.082 32.9445C200.309 33.6033 202.194 35.1407 203.641 34.5697C204.387 34.2622 204.825 33.6473 204.65 32.8127C204.299 31.3192 202.238 30.6603 201.011 30.0014C197.284 27.9369 193.119 25.3892 189.086 22.5779C188.341 22.0508 187.201 22.4462 186.762 23.1929C186.28 24.0714 186.631 24.9939 187.376 25.521Z" fill="#F48C7F"/>
<path d="M244.501 69.9301C246.255 70.9404 248.053 71.9507 249.85 72.9609C251.56 73.9273 253.401 75.3329 255.374 75.6843C256.821 75.904 257.786 74.4105 256.777 73.2245C255.462 71.731 253.314 70.8964 251.604 69.974C249.806 68.9637 248.009 67.9973 246.211 67.031C244.282 65.9767 242.616 68.8319 244.501 69.9301Z" fill="#F48C7F"/>
<path d="M190.796 58.2018C195.136 55.6981 198.512 56.0495 201.405 55.7859C202.94 55.6541 203.247 53.6335 201.756 53.1064C197.679 51.6129 192.637 53.1943 189.042 55.3027C187.201 56.4009 188.911 59.3 190.796 58.2018Z" fill="#F48C7F"/>
<path d="M206.14 79.2423C207.104 77.3535 208.376 75.6844 210.042 74.3666C211.05 73.532 214.82 71.7749 213.023 70.0618C211.357 68.4366 208.464 71.0721 207.192 72.2142C205.526 73.7077 204.167 75.5526 203.159 77.5292C202.194 79.462 205.132 81.219 206.14 79.2423Z" fill="#F48C7F"/>
<path d="M227.579 76.475C228.149 77.7489 228.762 79.0227 229.332 80.2966C229.902 81.5704 230.297 83.1517 231.744 83.6349C232.577 83.8985 233.278 83.3275 233.541 82.6246C234.067 81.3508 232.883 79.7255 232.313 78.5835C231.7 77.3096 231.13 76.0358 230.516 74.7619C230.121 73.9273 228.894 73.7077 228.149 74.1469C227.359 74.5862 227.228 75.5965 227.579 76.475Z" fill="#F48C7F"/>
<path d="M222.449 25.3453C223.765 14.0563 223.852 14.0563 223.545 12.8703C223.195 11.6404 221.441 11.3768 220.827 12.5189C220.213 13.661 220.301 13.4852 218.986 25.3453C218.898 26.2677 219.863 27.1023 220.739 27.1023C221.748 27.1023 222.362 26.3116 222.449 25.3453Z" fill="#F48C7F"/>
<path d="M238.846 34.394C240.293 33.208 241.608 31.8902 242.748 30.3967C243.844 29.035 245.641 27.1023 244.852 25.2574C244.677 24.8621 244.107 24.5546 243.712 24.5985C241.959 24.7303 241.082 26.9266 240.074 28.2004C238.977 29.5621 237.75 30.836 236.435 31.9781C235.733 32.593 235.821 33.779 236.435 34.394C237.136 35.0968 238.101 35.009 238.846 34.394Z" fill="#F48C7F"/>
<path d="M260.985 48.8456C261.643 48.3185 261.468 47.3082 260.985 46.7372C260.021 45.5512 257.741 45.8587 256.382 45.8587C254.76 45.9026 253.182 46.0783 251.604 46.3858C250.683 46.5615 250.157 47.6596 250.42 48.4942C250.683 49.4606 251.603 49.812 252.524 49.6802C258.53 48.8017 259.363 50.1634 260.985 48.8456Z" fill="#F48C7F"/>
<path d="M83.8662 33.0323C83.8662 34.5697 82.4194 35.7996 80.6658 35.7996C78.9121 35.7996 77.4653 34.5697 77.4653 33.0323C77.4653 31.4949 78.9121 30.265 80.6658 30.265C82.4194 30.265 83.8662 31.4949 83.8662 33.0323Z" fill="#50BFA5"/>
<path d="M157.082 3.68978C157.082 5.71037 155.021 7.37955 152.522 7.37955C149.979 7.37955 147.963 5.7543 147.963 3.68978C147.963 1.66918 150.023 0 152.522 0C155.021 0 157.082 1.62526 157.082 3.68978Z" fill="#96D9C9"/>
<path d="M267.762 153.746C272.19 146.41 269.822 136.878 262.501 132.442C255.179 128.005 245.666 130.377 241.238 137.713C239.44 140.7 238.695 144.126 239.133 147.596C239.44 150.056 239.572 152.604 239.572 155.064L234.749 163.146C234.311 163.893 234.53 164.815 235.275 165.298L236.766 166.221L236.371 166.88C235.451 168.417 235.933 170.438 237.467 171.36L239.791 172.766C241.325 173.688 243.342 173.205 244.263 171.668L244.657 171.009L246.148 171.931C246.893 172.371 247.814 172.151 248.296 171.404L253.163 163.366C255.355 162.18 257.635 161.169 259.958 160.291C263.246 158.973 265.964 156.733 267.762 153.746ZM245.49 156.338L249.217 144.917H251.102L251.847 147.552C251.891 147.772 252.067 147.948 252.242 148.036C252.417 148.123 252.637 148.167 252.856 148.079L255.399 147.157L255.223 149.353C255.223 149.661 255.355 149.924 255.574 150.056C255.662 150.1 255.749 150.144 255.837 150.144L257.24 150.364L249.261 158.622L245.49 156.338ZM249.962 162.663L248.603 164.903L240.317 159.896L241.676 157.655L249.962 162.663ZM238.169 163.41L239.528 161.169L247.814 166.177L246.455 168.417L238.169 163.41ZM252.111 160.335L251.365 159.896L260.484 150.451C260.923 150.012 260.923 149.265 260.44 148.826C259.958 148.387 259.257 148.387 258.818 148.87L258.643 149.046L256.845 148.782L257.021 146.103C257.021 145.839 256.933 145.576 256.714 145.444C256.495 145.268 256.232 145.224 255.969 145.312L253.075 146.322L252.417 143.907C252.33 143.555 252.023 143.335 251.672 143.335H249.699V143.292C249.918 142.677 249.568 142.018 248.954 141.842C248.34 141.622 247.683 141.974 247.507 142.589L243.386 155.064L242.641 154.624C242.641 152.165 242.465 149.661 242.158 147.201C241.808 144.434 242.378 141.666 243.824 139.294C247.376 133.452 254.96 131.563 260.835 135.077C266.666 138.635 268.551 146.235 265.044 152.121C263.597 154.537 261.449 156.294 258.818 157.304C256.582 158.182 254.303 159.193 252.111 160.335Z" fill="#F47458"/>
<path d="M109.645 109.947C111.136 113.241 109.338 117.282 105.612 118.995C101.885 120.665 97.6766 119.347 96.186 116.052C94.6954 112.758 96.4929 108.717 100.219 107.004C103.902 105.334 108.155 106.652 109.645 109.947Z" fill="#F7CC7F"/>
<path d="M106.664 118.073L104.253 119.171C99.6054 121.279 97.501 126.77 99.6054 131.47L101.622 135.907L120.956 127.166L118.94 122.729C116.791 118.029 111.311 115.964 106.664 118.073Z" fill="#F7CC7F"/>
</svg>
