<svg width="242" height="229" viewBox="0 0 242 229" fill="none" xmlns="http://www.w3.org/2000/svg">
<circle cx="130.5" cy="111.5" r="106.5" stroke="#F2D07E" stroke-width="9"/>
<circle cx="47.5" cy="181.5" r="47.5" fill="white"/>
<path d="M52 156.04C46.61 156.04 42.34 157.44 39.19 160.31C36.32 162.83 34.92 165.98 34.92 169.76C34.92 172.28 35.48 174.45 36.6 176.2C37.79 178.02 39.61 179.49 42.13 180.47V180.61C39.75 181.24 37.79 182.64 36.11 184.81C34.15 187.19 33.24 189.92 33.24 193C33.24 197.48 34.85 201.05 38.14 203.85C41.36 206.58 45.98 207.98 52 207.98C57.95 207.98 62.57 206.58 65.86 203.85C69.08 201.05 70.76 197.48 70.76 193C70.76 189.92 69.78 187.19 67.89 184.81C66.21 182.64 64.18 181.24 61.87 180.61V180.47C64.32 179.49 66.14 178.02 67.4 176.2C68.52 174.45 69.08 172.28 69.08 169.76C69.08 165.98 67.61 162.83 64.81 160.31C61.59 157.44 57.32 156.04 52 156.04ZM52 162.55C54.94 162.55 57.25 163.32 59.07 164.93C60.61 166.33 61.38 168.01 61.38 170.04C61.38 172.35 60.75 174.17 59.49 175.5C57.95 177.11 55.43 177.95 52 177.95C48.5 177.95 46.05 177.11 44.51 175.5C43.25 174.17 42.62 172.35 42.62 170.04C42.62 168.01 43.39 166.33 44.93 164.93C46.68 163.32 49.06 162.55 52 162.55ZM52 184.04C55.5 184.04 58.16 184.88 60.05 186.63C61.73 188.17 62.64 190.34 62.64 193C62.64 195.52 61.73 197.48 59.98 199.02C58.02 200.56 55.36 201.4 52 201.4C48.57 201.4 45.98 200.63 44.16 199.09C42.27 197.55 41.36 195.52 41.36 193C41.36 190.34 42.2 188.17 44.02 186.56C45.84 184.88 48.5 184.04 52 184.04Z" fill="#F2D07E"/>
</svg>
