<svg width="242" height="229" viewBox="0 0 242 229" fill="none" xmlns="http://www.w3.org/2000/svg">
<circle cx="130.5" cy="111.5" r="106.5" stroke="#466EB6" stroke-width="9"/>
<circle cx="47.5" cy="181.5" r="47.5" fill="white"/>
<path d="M52.49 156.04C47.59 156.04 43.53 157.37 40.38 160.17C37.02 162.97 35.2 166.89 34.78 171.93H42.83C43.11 168.92 44.09 166.68 45.77 165.21C47.38 163.74 49.62 163.04 52.56 163.04C55.43 163.04 57.6 163.67 59.07 164.93C60.4 166.19 61.1 168.01 61.1 170.46C61.1 172.91 60.33 174.8 58.86 176.06C57.32 177.32 55.08 177.95 52.14 177.95H48.64V184.11H52.14C55.36 184.11 57.81 184.74 59.49 186.14C61.17 187.47 62.08 189.57 62.08 192.44C62.08 194.82 61.24 196.78 59.63 198.39C57.81 200.14 55.29 201.05 52.14 201.05C49.27 201.05 46.96 200.21 45.21 198.6C43.25 196.85 42.27 194.33 42.13 191.11H33.8C34.22 196.71 36.18 201.05 39.68 203.99C42.83 206.65 47.03 207.98 52.21 207.98C57.67 207.98 62.08 206.44 65.44 203.43C68.66 200.49 70.27 196.71 70.27 192.09C70.27 189.15 69.43 186.7 67.75 184.81C66.21 182.99 63.9 181.66 60.96 180.75C66.49 178.93 69.29 175.29 69.29 169.83C69.29 165.49 67.75 162.13 64.74 159.68C61.66 157.23 57.53 156.04 52.49 156.04Z" fill="#466EB6"/>
</svg>
