<svg width="242" height="229" viewBox="0 0 242 229" fill="none" xmlns="http://www.w3.org/2000/svg">
<circle cx="130.5" cy="111.5" r="106.5" stroke="#F2D07E" stroke-width="9"/>
<circle cx="47.5" cy="181.5" r="47.5" fill="white"/>
<path d="M52.7 156.04C46.89 156.04 42.27 158.56 38.91 163.6C35.48 168.64 33.8 175.22 33.8 183.41C33.8 191.04 35.34 196.99 38.56 201.33C41.78 205.74 46.47 207.98 52.63 207.98C57.6 207.98 61.8 206.3 65.16 203.08C68.52 199.86 70.27 195.73 70.27 190.69C70.27 185.79 68.8 181.73 65.86 178.58C62.92 175.43 59 173.89 54.1 173.89C51.58 173.89 49.34 174.31 47.38 175.29C45.28 176.27 43.53 177.74 42.13 179.84H41.78V179.21C41.78 174.59 42.69 170.74 44.65 167.66C46.61 164.37 49.27 162.76 52.63 162.76C57.39 162.76 60.33 165.07 61.31 169.69H69.29C68.03 160.59 62.5 156.04 52.7 156.04ZM52.35 180.54C55.36 180.54 57.74 181.45 59.56 183.34C61.24 185.16 62.15 187.61 62.15 190.69C62.15 193.77 61.24 196.29 59.42 198.25C57.6 200.21 55.29 201.19 52.35 201.19C49.48 201.19 47.17 200.28 45.35 198.46C43.53 196.64 42.62 194.12 42.62 190.97C42.62 187.75 43.46 185.16 45.21 183.34C46.89 181.45 49.27 180.54 52.35 180.54Z" fill="#F2D07E"/>
</svg>
