<svg width="507" height="493" viewBox="0 0 507 493" fill="none" xmlns="http://www.w3.org/2000/svg">
<g filter="url(#filter0_d)">
<path d="M18 13H489V470H18V13Z" fill="white"/>
<path d="M18 11.5H16.5V13V470V471.5H18H489H490.5V470V13V11.5H489H18Z" stroke="#F2D07E" stroke-width="3"/>
</g>
<rect x="7" y="43" width="146" height="42" fill="#F2D07E"/>
<path d="M15.2857 84.6591H7L15.2857 90V84.6591Z" fill="#F2D07E"/>
<path d="M34.388 61.44V62.84H38.224V64.506H35.284V70.456H36.726V69.798H41.318V70.456H42.76V64.506H39.708V62.84H43.572V61.44H39.708V59.522C40.968 59.34 42.074 59.074 43.026 58.738L42.298 57.506C40.212 58.164 37.664 58.5 34.64 58.5L35.088 59.816C36.194 59.816 37.244 59.774 38.224 59.69V61.44H34.388ZM36.726 68.426V65.878H41.318V68.426H36.726ZM32.092 57.618L31.098 58.556C32.134 59.228 32.918 59.858 33.478 60.432L34.472 59.452C33.814 58.836 33.016 58.22 32.092 57.618ZM31.77 60.95L30.748 61.944C31.784 62.686 32.596 63.372 33.17 64.016L34.178 63.008C33.534 62.322 32.722 61.636 31.77 60.95ZM33.016 64.73C32.442 66.41 31.756 68.048 30.972 69.644L32.442 70.288C33.142 68.72 33.772 67.04 34.346 65.262L33.016 64.73ZM45.602 58.332V59.718H50.866V58.332H45.602ZM45.084 62.098V63.526H46.82C46.218 65.794 45.728 67.194 45.364 67.726C45.308 67.768 45.21 67.81 45.07 67.852L45.406 69.224C47.086 68.916 48.668 68.524 50.138 68.02C50.25 68.286 50.362 68.566 50.474 68.874L51.678 68.258C51.37 68.748 51.02 69.196 50.614 69.588L51.72 70.554C53.624 68.692 54.59 65.752 54.632 61.734V61.622H56.228C56.2 65.332 56.158 67.502 56.074 68.132C55.962 68.748 55.626 69.056 55.038 69.056C54.674 69.056 54.254 69.028 53.764 69L54.1 70.274C54.66 70.316 55.038 70.344 55.262 70.344C56.55 70.344 57.278 69.826 57.446 68.79C57.572 67.698 57.642 64.842 57.642 60.222H54.632V57.534H53.176V60.222H51.454V61.622H53.176V61.734C53.148 64.394 52.672 66.55 51.734 68.174C51.146 66.774 50.53 65.5 49.914 64.352L48.696 64.94C49.004 65.528 49.312 66.144 49.62 66.816C48.766 67.124 47.898 67.39 47.016 67.586C47.366 66.69 47.772 65.346 48.234 63.526H51.37V62.098H45.084ZM64.026 58.43H59.672V69.322H61.1V68.146H62.626V68.986H64.026V58.43ZM61.1 66.788V63.89H62.626V66.788H61.1ZM61.1 62.532V59.76H62.626V62.532H61.1ZM66.168 62.672L64.964 63.428C65.776 64.716 66.42 65.892 66.896 66.928L68.114 66.088C67.666 65.122 67.008 63.988 66.168 62.672ZM69.178 70.316C70.13 70.316 70.62 69.826 70.62 68.846V61.328H72.132V59.914H70.62V57.618H69.136V59.914H64.544V61.328H69.136V68.482C69.136 68.818 68.968 68.986 68.66 68.986C67.932 68.986 67.162 68.958 66.35 68.902L66.672 70.316H69.178ZM77.102 61.188V68.048H82.786V61.188H77.102ZM81.428 66.76H78.474V65.248H81.428V66.76ZM78.474 63.988V62.476H81.428V63.988H78.474ZM84.144 70.344C85.25 70.344 85.81 69.784 85.81 68.678V58.08H79.174V59.424H84.382V68.272C84.382 68.762 84.2 69.014 83.85 69.014L82.632 68.972L83.024 70.344H84.144ZM74.162 59.83V70.47H75.59V59.83H74.162ZM76.64 57.352L75.31 57.954C75.926 58.696 76.5 59.55 77.018 60.53L78.334 59.844C77.844 58.934 77.284 58.108 76.64 57.352ZM90.29 57.45L89.604 63.862H97.472C97.472 66.284 97.318 67.754 97.01 68.258C96.73 68.734 95.848 68.972 94.392 68.972C94.112 68.972 93.594 68.93 92.866 68.86L93.272 70.19C93.762 70.232 94.238 70.26 94.7 70.26C96.45 70.26 97.598 69.952 98.13 69.364C98.662 68.734 98.942 66.452 98.942 62.504H91.228L91.424 60.642H99.698V59.242H91.564L91.732 57.562L90.29 57.45ZM87.938 65.682V67.082H95.82V65.682H87.938ZM114.65 59.998L111.682 60.908V57.506H110.282V61.342L108.7 61.832V58.934H107.272V62.266L106.376 62.546V63.974L107.272 63.708V68.566C107.272 69.658 107.818 70.204 108.91 70.204H113.348C113.88 70.204 114.272 70.064 114.538 69.798C114.818 69.532 115.014 68.65 115.126 67.166L113.768 66.746C113.726 67.754 113.642 68.356 113.53 68.552C113.432 68.748 113.278 68.846 113.068 68.846H109.358C108.91 68.846 108.7 68.65 108.7 68.272V63.274L110.282 62.798V67.446H111.682V62.378L113.25 61.916C113.236 63.442 113.208 64.324 113.18 64.562C113.124 64.842 112.998 64.982 112.774 64.982C112.55 64.982 112.284 64.968 111.99 64.954L112.41 66.382H112.466C113.6 66.382 114.244 66.06 114.412 65.43C114.566 64.786 114.65 62.98 114.65 59.998ZM106.53 65.878C106.04 66.102 105.55 66.326 105.046 66.522V62.49H106.348V61.062H105.046V57.562H103.604V61.062H102.162V62.49H103.604V66.998C103.072 67.152 102.526 67.278 101.98 67.39L102.358 68.888C103.842 68.468 105.228 67.95 106.53 67.334V65.878ZM121.902 57.604V61.524H118.122V66.368H127.782V61.524H123.344V60.152H128.636V58.794H123.344V57.604H121.902ZM126.326 65.024H119.578V62.882H126.326V65.024ZM118.094 66.774C117.604 67.866 117.03 68.79 116.358 69.574L117.562 70.456C118.234 69.588 118.808 68.552 119.312 67.362L118.094 66.774ZM121.552 67.236L120.18 67.516C120.432 68.37 120.656 69.35 120.824 70.47L122.294 70.12C122.07 69.084 121.832 68.132 121.552 67.236ZM124.45 67.04L123.078 67.32C123.47 68.216 123.792 69.266 124.044 70.442L125.5 70.092C125.192 69 124.842 67.978 124.45 67.04ZM127.236 66.704L126.046 67.46C126.872 68.58 127.53 69.602 128.02 70.526L129.252 69.686C128.776 68.846 128.104 67.852 127.236 66.704Z" fill="white"/>
<defs>
<filter id="filter0_d" x="0" y="0" width="507" height="493" filterUnits="userSpaceOnUse" color-interpolation-filters="sRGB">
<feFlood flood-opacity="0" result="BackgroundImageFix"/>
<feColorMatrix in="SourceAlpha" type="matrix" values="0 0 0 0 0 0 0 0 0 0 0 0 0 0 0 0 0 0 127 0"/>
<feOffset dy="5"/>
<feGaussianBlur stdDeviation="7.5"/>
<feColorMatrix type="matrix" values="0 0 0 0 0.94902 0 0 0 0 0.815686 0 0 0 0 0.494118 0 0 0 0.25 0"/>
<feBlend mode="normal" in2="BackgroundImageFix" result="effect1_dropShadow"/>
<feBlend mode="normal" in="SourceGraphic" in2="effect1_dropShadow" result="shape"/>
</filter>
</defs>
</svg>
