<svg width="166" height="166" viewBox="0 0 166 166" fill="none" xmlns="http://www.w3.org/2000/svg">
<path d="M83 166C128.84 166 166 128.84 166 83C166 37.1604 128.84 0 83 0C37.1604 0 0 37.1604 0 83C0 128.84 37.1604 166 83 166Z" fill="#FDB55B"/>
<path d="M119.5 95.0001C120.4 95.0001 121.2 94.2001 121.2 93.3001C121.2 92.4001 120.4 91.6001 119.5 91.6001H71.9C71 91.6001 70.2 92.4001 70.2 93.3001V120.5C70.2 121.4 71 122.2 71.9 122.2H90.1V126.8C90.1 127.4 90.4999 128 90.9999 128.3C91.1999 128.4 91.5 128.5 91.7 128.5C92.1 128.5 92.4 128.4 92.7 128.1L100.3 122.2H119.3C120.2 122.2 121 121.4 121 120.5V102.2C121 101.3 120.2 100.5 119.3 100.5C118.4 100.5 117.6 101.3 117.6 102.2V118.8H99.9C99.5 118.8 99.2 118.9 98.9 119.2L93.4999 123.3V120.5C93.4999 119.6 92.7 118.8 91.8 118.8H73.6V95.0001H119.5Z" fill="white" stroke="#FDB55B" stroke-width="0.4418" stroke-miterlimit="10"/>
<path d="M77.3 84.7999V57.5999C77.3 56.6999 76.5 55.8999 75.6 55.8999H41.4C40.5 55.8999 39.7 56.6999 39.7 57.5999V84.7999C39.7 85.6999 40.5 86.4999 41.4 86.4999H48.3C49.2 86.4999 49.9999 85.6999 49.9999 84.7999C49.9999 83.8999 49.2 83.0999 48.3 83.0999H43.1V59.2999H73.9V83.1999H64.7C63.8 83.1999 62.9999 83.9999 62.9999 84.8999V87.6999L57.6 83.5999C56.9 82.9999 55.8 83.1999 55.2 83.8999C54.6 84.5999 54.7999 85.6999 55.4999 86.2999L63.6 92.4999C63.9 92.6999 64.3 92.8999 64.6 92.8999C64.9 92.8999 65.1 92.7999 65.3 92.6999C65.9 92.3999 66.2 91.7999 66.2 91.1999V86.5999H75.4C76.5 86.4999 77.3 85.7999 77.3 84.7999Z" fill="white" stroke="#FDB55B" stroke-width="0.4418" stroke-miterlimit="10"/>
<path d="M119.6 49H94.7C93.8 49 92.9999 49.8 92.9999 50.7C92.9999 51.6 93.8 52.4 94.7 52.4H117.9V74H104.4C104 74 103.7 74.1 103.4 74.4L97.9999 78.5V75.7C97.9999 74.8 97.2 74 96.3 74H87.1V50.7C87.1 49.8 86.3 49 85.4 49C84.5 49 83.7 49.8 83.7 50.7V75.7C83.7 76.6 84.5 77.4 85.4 77.4H94.6V82C94.6 82.6 94.9999 83.2 95.4999 83.5C95.6999 83.6 96 83.7 96.2 83.7C96.6 83.7 96.9 83.6 97.2 83.3L104.8 77.4H119.4C120.3 77.4 121.1 76.6 121.1 75.7V50.7C121.2 49.7 120.5 49 119.6 49Z" fill="white" stroke="#FDB55B" stroke-width="0.4418" stroke-miterlimit="10"/>
</svg>
