<svg width="242" height="229" viewBox="0 0 242 229" fill="none" xmlns="http://www.w3.org/2000/svg">
<circle cx="130.5" cy="111.5" r="106.5" stroke="#466EB6" stroke-width="9"/>
<circle cx="47.5" cy="181.5" r="47.5" fill="white"/>
<path d="M52.77 156.04C47.38 156.04 43.04 157.86 39.75 161.5C36.53 164.93 34.92 169.41 34.85 175.01H43.04C43.18 171.09 44.02 168.08 45.56 166.12C47.1 164.02 49.41 162.97 52.49 162.97C55.36 162.97 57.53 163.6 59 164.93C60.4 166.26 61.17 168.29 61.17 171.02C61.17 173.82 60.05 176.48 57.88 178.93C56.48 180.4 54.24 182.29 51.02 184.53C45.21 188.52 41.36 191.6 39.54 193.7C36.18 197.48 34.57 201.89 34.57 207H69.43V199.79H44.79C45.91 197.27 48.99 194.33 54.1 190.97C59 187.68 62.5 185.02 64.46 182.92C67.68 179.35 69.36 175.43 69.36 171.09C69.36 166.61 67.82 163.04 64.74 160.24C61.59 157.44 57.6 156.04 52.77 156.04Z" fill="#466EB6"/>
</svg>
