<svg width="375" height="333" viewBox="0 0 375 333" fill="none" xmlns="http://www.w3.org/2000/svg">
<g opacity="0.6">
<path d="M67.6128 52L73.5996 64.7221L67.6128 66.9672L62.0001 54.744L67.6128 52Z" fill="#446CB8"/>
<path d="M304.717 300.324L312.81 311.755L307.337 315.005L299.724 303.857L304.717 300.324Z" fill="#F47458"/>
<path d="M103.233 289.847L108.846 277L114.583 279.993L108.846 292.341L103.233 289.847Z" fill="#F67453"/>
<path d="M29.5365 212.622L43.5059 213.495L42.6328 219.856L29.1623 218.858L29.5365 212.622Z" fill="#FBE1AF"/>
<path d="M24.6697 32.8076L30.8089 20.1355L36.3435 23.3276L30.2523 35.4876L24.6697 32.8076Z" fill="#FBE1AF"/>
<path d="M48.2409 319L58.3437 328.729L53.6042 332.969L44.0002 323.49L48.2409 319Z" fill="#FBE1AF"/>
<path d="M357.112 271L358.858 284.969L352.372 285.219L351 271.748L357.112 271Z" fill="#466EB6"/>
<path d="M238.561 264.415L245.256 276.843L239.432 279.399L233.096 267.483L238.561 264.415Z" fill="#FBE1AF"/>
<path d="M288.477 9.85339L298.456 -1.85367e-07L302.696 4.86433L292.843 14.2188L288.477 9.85339Z" fill="#446CB8"/>
<path d="M22.0002 253.853L31.9783 244L36.0942 248.864L26.3656 258.219L22.0002 253.853Z" fill="#446CB8"/>
<path d="M127.126 124.025L117.896 113.423L123.01 109.681L131.741 119.909L127.126 124.025Z" fill="#F47458"/>
<path d="M176.969 35.2407L167.365 45.4683L163 40.7287L172.479 31L176.969 35.2407Z" fill="#FBE1AF"/>
<path d="M372.131 52.6958L375 66.4157L368.514 67.1641L366.144 53.9431L372.131 52.6958Z" fill="#F67453"/>
</g>
<path d="M-48 113.998L1.55568 238.681L387.14 215.374L372.092 84.241L-48 113.998Z" fill="#466EB6"/>
<path d="M-19.375 79.2625L383.406 101.099L347.993 261.762L-28.4263 209.038L-19.375 79.2625Z" fill="#F47458"/>
<path d="M1.78271 84.5806L343.468 77L377.75 247.054L34.8198 257.916L1.78271 84.5806Z" fill="#FAE0B2"/>
<path d="M6.42087 190.03C6.30828 190.03 6.30828 190.143 6.42087 190.03C6.42087 190.143 6.42087 190.143 6.42087 190.143C6.42087 190.143 6.42087 190.143 6.42087 190.03Z" fill="#7533C7"/>
</svg>
