<svg width="242" height="229" viewBox="0 0 242 229" fill="none" xmlns="http://www.w3.org/2000/svg">
<circle cx="130.5" cy="111.5" r="106.5" stroke="#F2D07E" stroke-width="9"/>
<circle cx="47.5" cy="181.5" r="47.5" fill="white"/>
<path d="M51.44 156.04C46.4 156.04 42.2 157.65 38.84 160.94C35.48 164.16 33.8 168.29 33.8 173.33C33.8 178.23 35.2 182.22 38.14 185.3C41.08 188.52 45.07 190.13 49.97 190.13C52.49 190.13 54.73 189.64 56.69 188.73C58.72 187.75 60.47 186.21 61.94 184.18H62.29V184.81C62.29 189.43 61.31 193.28 59.42 196.36C57.39 199.58 54.73 201.26 51.44 201.26C46.61 201.26 43.74 198.95 42.76 194.33H34.78C35.97 203.43 41.5 207.98 51.37 207.98C57.11 207.98 61.73 205.46 65.16 200.42C68.52 195.38 70.27 188.73 70.27 180.61C70.27 172.91 68.66 166.96 65.44 162.62C62.22 158.21 57.53 156.04 51.44 156.04ZM51.72 162.83C54.52 162.83 56.9 163.74 58.72 165.56C60.54 167.38 61.45 169.83 61.45 173.05C61.45 176.27 60.54 178.79 58.86 180.68C57.11 182.5 54.73 183.48 51.72 183.48C48.64 183.48 46.26 182.5 44.58 180.68C42.76 178.86 41.92 176.41 41.92 173.33C41.92 170.25 42.76 167.73 44.58 165.77C46.4 163.81 48.78 162.83 51.72 162.83Z" fill="#F2D07E"/>
</svg>
