<svg width="166" height="166" viewBox="0 0 166 166" fill="none" xmlns="http://www.w3.org/2000/svg">
<path d="M83 166C128.84 166 166 128.84 166 83C166 37.1604 128.84 0 83 0C37.1604 0 0 37.1604 0 83C0 128.84 37.1604 166 83 166Z" fill="#FDB55B"/>
<path d="M111 83.1001H56.9C56.4 83.1001 56 82.7001 56 82.2001V75.0001C56 74.5001 56.4 74.1001 56.9 74.1001H111C111.5 74.1001 111.9 74.5001 111.9 75.0001V82.2001C111.9 82.7001 111.5 83.1001 111 83.1001ZM57.8 81.3001H110.1V75.9001H57.8V81.3001Z" fill="white" stroke="white" stroke-width="0.8836" stroke-miterlimit="10"/>
<path d="M67.3001 81.6001H65.4001V103.6H67.3001V81.6001Z" fill="white" stroke="white" stroke-width="0.8836" stroke-miterlimit="10"/>
<path d="M102.6 81.6001H100.7V103.6H102.6V81.6001Z" fill="white" stroke="white" stroke-width="0.8836" stroke-miterlimit="10"/>
<path d="M84.0002 75.4999C83.6002 75.4999 83.2002 75.1999 83.2002 74.6999V66.6999C83.2002 66.2999 83.5002 65.8999 84.0002 65.8999C84.4002 65.8999 84.8002 66.1999 84.8002 66.6999V74.6999C84.8002 75.0999 84.4002 75.4999 84.0002 75.4999Z" fill="white" stroke="white" stroke-width="0.8836" stroke-miterlimit="10"/>
<path d="M58.3001 109C57.9001 109.5 57.4001 109.9 56.9001 110.3C64.5001 111.9 65.7002 115.8 65.7002 119.6V120.4H67.3001V119.6C67.3001 115.6 66.1001 111 58.3001 109Z" fill="white" stroke="white" stroke-width="0.8836" stroke-miterlimit="10"/>
<path d="M39.3 109C30.3 111.3 30.3 116.9 30.3 119.7V120.5H31.9001V119.7C31.9001 117.1 31.9001 112.2 40.7001 110.4C40.2001 110 39.7 109.5 39.3 109Z" fill="white" stroke="white" stroke-width="0.8836" stroke-miterlimit="10"/>
<path d="M48.8002 92.1999C53.4002 92.1999 57.2002 95.8999 57.2002 100.6C57.2002 105.2 53.5002 109 48.8002 109C44.1002 109 40.4002 105.3 40.4002 100.6C40.4002 95.8999 44.2002 92.1999 48.8002 92.1999ZM48.8002 90.3999C43.2002 90.3999 38.7002 94.8999 38.7002 100.5C38.7002 106.1 43.2002 110.6 48.8002 110.6C54.4002 110.6 58.9002 106.1 58.9002 100.5C58.9002 94.9999 54.4002 90.3999 48.8002 90.3999Z" fill="white" stroke="white" stroke-width="0.8836" stroke-miterlimit="10"/>
<path d="M93.5001 109C93.1001 109.5 92.6001 109.9 92.1001 110.3C99.7001 111.9 100.9 115.8 100.9 119.6V120.4H102.5V119.6C102.5 115.6 101.3 111 93.5001 109Z" fill="white" stroke="white" stroke-width="0.8836" stroke-miterlimit="10"/>
<path d="M74.5 109C65.5 111.3 65.5 116.9 65.5 119.7V120.5H67.1V119.7C67.1 117.1 67.1 112.2 75.9 110.4C75.4 110 74.9 109.5 74.5 109Z" fill="white" stroke="white" stroke-width="0.8836" stroke-miterlimit="10"/>
<path d="M83.9999 92.1999C88.5999 92.1999 92.3999 95.8999 92.3999 100.6C92.3999 105.2 88.6999 109 83.9999 109C79.2999 109 75.5999 105.3 75.5999 100.6C75.5999 95.8999 79.3999 92.1999 83.9999 92.1999ZM83.9999 90.3999C78.3999 90.3999 73.8999 94.8999 73.8999 100.5C73.8999 106.1 78.3999 110.6 83.9999 110.6C89.5999 110.6 94.0999 106.1 94.0999 100.5C94.0999 94.9999 89.4999 90.3999 83.9999 90.3999Z" fill="white" stroke="white" stroke-width="0.8836" stroke-miterlimit="10"/>
<path d="M93.5001 59.6001C93.1001 60.1001 92.6001 60.5001 92.1001 60.9001C99.7001 62.5001 100.9 66.4001 100.9 70.2001V71.0001H102.5V70.2001C102.5 66.1001 101.3 61.5001 93.5001 59.6001Z" fill="white" stroke="white" stroke-width="0.8836" stroke-miterlimit="10"/>
<path d="M74.5 59.6001C65.5 61.9001 65.5 67.5001 65.5 70.3001V71.1001H67.1V70.3001C67.1 67.7001 67.1 62.8001 75.9 61.0001C75.4 60.5001 74.9 60.1001 74.5 59.6001Z" fill="white" stroke="white" stroke-width="0.8836" stroke-miterlimit="10"/>
<path d="M83.9999 42.7C88.5999 42.7 92.3999 46.4 92.3999 51.1C92.3999 55.7 88.6999 59.5 83.9999 59.5C79.2999 59.5 75.5999 55.8 75.5999 51.1C75.5999 46.4 79.3999 42.7 83.9999 42.7ZM83.9999 41C78.3999 41 73.8999 45.5 73.8999 51.1C73.8999 56.7 78.3999 61.2 83.9999 61.2C89.5999 61.2 94.0999 56.7 94.0999 51.1C94.0999 45.5 89.4999 41 83.9999 41Z" fill="white" stroke="white" stroke-width="0.8836" stroke-miterlimit="10"/>
<path d="M128.7 109C128.3 109.5 127.8 109.9 127.3 110.3C134.9 111.9 136.1 115.8 136.1 119.6V120.4H137.7V119.6C137.8 115.6 136.5 111 128.7 109Z" fill="white" stroke="white" stroke-width="0.8836" stroke-miterlimit="10"/>
<path d="M109.8 109C100.8 111.3 100.8 116.9 100.8 119.7V120.5H102.4V119.7C102.4 117.1 102.4 112.2 111.2 110.4C110.7 110 110.2 109.5 109.8 109Z" fill="white" stroke="white" stroke-width="0.8836" stroke-miterlimit="10"/>
<path d="M119.2 92.1999C123.8 92.1999 127.6 95.8999 127.6 100.6C127.6 105.2 123.9 109 119.2 109C114.6 109 110.8 105.3 110.8 100.6C110.9 95.8999 114.6 92.1999 119.2 92.1999ZM119.2 90.3999C113.6 90.3999 109.1 94.8999 109.1 100.5C109.1 106.1 113.6 110.6 119.2 110.6C124.8 110.6 129.3 106.1 129.3 100.5C129.3 94.9999 124.8 90.3999 119.2 90.3999Z" fill="white" stroke="white" stroke-width="0.8836" stroke-miterlimit="10"/>
</svg>
