<svg width="361" height="193" viewBox="0 0 361 193" fill="none" xmlns="http://www.w3.org/2000/svg">
<path d="M360.423 176.534C360.423 175.346 360.071 174.432 359.626 174.432H0.964144C0.426448 174.432 0 175.392 0 176.534C0 177.722 0.426448 178.635 0.964144 178.635H359.626C360.071 178.635 360.423 177.722 360.423 176.534Z" fill="#DCE6EA" fill-opacity="0.8"/>
<path d="M252.684 68.9716C251.745 64.6307 248.115 61.5125 243.873 61.6144C242.894 59.3319 240.997 57.4569 238.774 56.6009C234.369 54.889 227.986 55.7246 227.476 60.5954C225.253 63.5709 224.539 68.238 226.884 71.1523C225.334 75.3913 228.802 80.2826 234.104 80.9959C235.511 84.3586 238.734 86.9061 242.282 87.0284C243.139 87.0691 244.444 87.0487 244.648 87.1506C244.383 87.0487 249.624 92.5513 255.559 86.3558C261.637 80.038 259.291 70.8058 252.684 68.9716Z" fill="#13375B"/>
<path d="M223.683 71.8248C223.683 71.8248 209.182 64.8345 209.121 64.5492C209.019 64.1416 214.016 58.6593 216.626 58.211C218.625 57.8645 221.093 55.908 221.093 55.908C221.093 55.908 218.421 52.8306 215.872 53.3401C213.322 53.8496 213.485 55.9284 213.485 55.9284C213.485 55.9284 206.653 59.5968 202.697 63.2041C198.944 66.6279 218.91 76.0435 218.91 76.0435L223.683 71.8248Z" fill="#F7A491"/>
<path d="M216.035 146.579C216.646 149.921 217.707 152.876 217.85 153.223C217.911 153.386 218.584 153.997 218.665 154.16C218.319 158.236 215.708 160.661 213.261 162.394C213.791 160.335 214.974 157.971 214.811 157.523C214.566 156.789 213.628 153.467 211.609 149.289C213.669 149.065 214.383 147.822 216.035 146.579Z" fill="#F7A491"/>
<path d="M224.906 98.0132L237.592 107.653C237.592 107.653 231.31 113.685 228.945 115.948C226.579 118.189 213.384 126.79 213.18 127.32C213.037 127.707 214.342 132.537 217.381 148.005C216.035 149.371 213.078 150.716 211.344 151.164C206.939 142.768 203.492 125.547 203.492 123.611C203.513 120.431 224.906 98.0132 224.906 98.0132Z" fill="#355389"/>
<path d="M260.515 117.252C260.107 117.659 257.354 123.019 256.294 125.893C254.764 124.935 253.826 123.773 252.113 123.121C253.459 121.165 256.11 116.457 256.314 115.336C256.824 112.687 257.436 112.279 257.436 112.279C257.436 112.279 266.348 115.295 266.94 116.131C267.551 116.987 262.188 115.621 260.515 117.252Z" fill="#F7A491"/>
<path d="M256.232 115.927C255.539 115.927 256.293 112.809 256.456 112.075C256.64 111.26 257.109 111.015 257.211 110.995C257.537 110.914 267.449 114.276 269.121 115.479C269.244 115.56 269.448 115.825 269.468 115.866C270.386 117.578 262.208 117.904 261.045 117.15C259.985 116.498 259.332 115.907 256.232 115.927Z" fill="#3C8F7C"/>
<path d="M222.194 100.866C222.194 100.866 234.165 96.1585 234.308 96.668C235.552 100.662 239.937 99.3785 242.221 106.389C243.18 109.324 243.404 117.089 244.057 122.856C244.505 126.81 245.117 129.989 245.117 129.989C245.117 129.989 247.891 126.729 253.092 120.859C253.499 120.411 257.701 123.57 257.701 123.57C249.4 140.016 243.282 142.482 242.017 141.891C233.431 137.958 226.416 108.488 226.436 108.488C225.477 106.593 222.194 100.866 222.194 100.866Z" fill="#466EB6"/>
<g clip-path="url(#clip0)">
<path d="M312.68 166.655C312.68 166.655 318.097 170.566 318.958 171.744C320.197 173.426 309.762 176.581 310.916 174.604C311.168 174.141 311.924 172.627 311.966 172.48C312.134 171.681 309.93 169.515 309.93 169.515L312.68 166.655Z" fill="#F7A491"/>
<path d="M308.082 177.905L311.757 172.69C311.757 172.69 314.066 172.165 316.418 169.494C316.418 169.494 318.538 170.314 319.84 172.06C319.84 172.06 317.383 174.73 313.583 177.716C313.583 177.716 311.337 179.714 308.229 180.765C305.101 181.817 308.082 177.905 308.082 177.905Z" fill="#F7CC7F"/>
<path d="M357.989 95.2842C357.989 95.2842 357.317 95.873 357.086 96.0623C356.813 96.2726 355.932 96.8403 355.932 96.8403C355.932 96.8403 352.761 98.6488 352.656 98.3965C352.551 98.1651 352.551 97.4712 352.719 97.303C352.866 97.1137 353.328 96.9455 353.496 96.7562C353.643 96.567 353.706 96.2095 353.496 96.0202C353.286 95.8099 352.215 96.4198 352.215 96.4198C352.215 96.4198 351.334 96.9034 350.977 97.4922C349.717 99.532 350.095 99.6582 349.927 99.9105C349.717 100.205 345.287 102.224 345.287 102.224C345.287 102.224 332.017 107.754 331.304 108.049C331.199 108.658 331.535 109.226 331.703 109.773C332.017 111.666 332.584 111.792 333.004 113.621C335.041 112.591 349.129 104.81 350.557 104.011C350.557 104.011 352.698 103.654 354.042 103.359C355.386 103.086 356.561 102.245 356.918 102.097C356.981 102.076 358.178 101.551 359.501 100.541C360.635 99.6582 359.165 99.9946 359.165 99.9946C359.165 99.9946 356.771 101.256 356.708 101.067C356.666 100.92 358.01 100.289 359.27 99.3217C359.606 99.0694 359.921 98.8381 360.215 98.6067C360.992 98.0179 360.845 97.3871 359.942 97.8918C359.627 98.06 359.102 98.3754 358.766 98.6488C358.388 98.9432 357.968 99.0904 357.611 99.3007C356.918 99.7002 356.414 99.9946 356.414 99.9526C356.414 99.9105 356.226 99.8895 356.561 99.6161C356.96 99.2797 357.989 98.775 358.535 98.2493C358.85 97.9549 359.564 97.3661 359.564 97.3661C359.564 97.3661 360.467 96.2936 360.425 96.2095C360.194 95.831 359.375 96.3987 358.976 96.8614C358.577 97.0296 357.863 97.6815 357.863 97.6815C357.863 97.6815 356.121 98.6488 355.995 98.4175C355.932 98.3124 356.939 97.5974 357.821 96.7352C358.64 95.9361 359.333 95.0109 359.207 94.8216C358.997 94.5062 357.989 95.2842 357.989 95.2842Z" fill="#F8A492"/>
<path d="M320.974 126.407L320.113 130.654L298.55 150.295L313.982 165.94L309.804 170.209C309.804 170.209 287.003 153.449 286.184 151.241C284.924 147.856 302.518 125.439 302.518 125.439L320.974 126.407Z" fill="#B75742"/>
<path d="M336.091 177.969C336.091 177.969 341.508 181.88 342.368 183.057C343.607 184.74 333.172 187.894 334.327 185.917C334.579 185.455 335.335 183.941 335.377 183.793C335.545 182.994 333.34 180.828 333.34 180.828L336.091 177.969Z" fill="#F7A491"/>
<path d="M331.493 189.219L335.167 184.004C335.167 184.004 337.623 183.562 339.975 180.913C339.975 180.913 341.948 181.628 343.25 183.394C343.25 183.394 340.794 186.065 336.993 189.051C336.993 189.051 334.747 191.048 331.639 192.1C328.511 193.151 331.493 189.219 331.493 189.219Z" fill="#F7CC7F"/>
<path d="M320.239 128.383L319.252 155.195L337.476 177.59L333.193 181.543C333.193 181.543 312.03 163.354 309.699 158.286C308.25 155.132 303.4 126.722 303.4 126.722L320.239 128.383Z" fill="#F47458"/>
<path d="M302.833 126.175C304.597 122.201 304.387 93.7912 311.21 87.1251C313.604 87.5247 315.326 87.756 315.725 87.8611C316.081 90.7841 316.48 101.53 316.711 111.371C316.879 117.932 316.711 124.808 317.509 128.446C318.013 130.717 301.237 129.813 302.833 126.175Z" fill="#FAE0B2"/>
<path d="M321.309 89.3331C323.22 89.7747 324.627 90.0691 327.146 93.7912C329.561 97.345 334.894 105.798 334.894 105.798L348.961 99.532L349.612 106.661C349.612 106.661 333.697 114.946 331.45 114.189C329.204 113.432 322.905 104.2 322.422 103.569C322.317 103.422 322.947 113.432 322.947 115.03C322.947 116.628 325.991 130.57 325.991 130.57C325.991 130.57 318.244 132.484 316.732 129.014C312.092 118.395 315.662 87.8401 315.662 87.8401C315.662 87.8401 319.924 89.0177 321.309 89.3331Z" fill="#466EB6"/>
<path d="M292.043 58.9048C292.568 58.337 292.672 57.1174 292.651 56.3603L292.777 55.3299C292.526 55.2668 287.78 55.2248 286.374 55.372C286.29 55.8346 286.269 56.2131 286.353 56.4444C286.71 57.5589 289.166 64.8138 289.166 64.8138L293.176 64.3512C293.197 64.3512 291.749 60.0403 292.043 58.9048Z" fill="#F7A491"/>
<path d="M309.636 88.8074C309.636 88.8074 306.864 96.7142 304.576 95.5576C302.287 94.422 289.48 81.3423 289.354 80.7114C289.228 80.0806 288.346 64.0147 288.346 64.0147L293.406 63.0054L296.325 76.1482C296.325 76.1482 305.71 85.1274 307.599 86.0106C309.51 86.8938 309.636 88.8074 309.636 88.8074Z" fill="#466EB6"/>
<path d="M302.141 128.089C300.608 128.089 300.041 127.878 299.012 127.563C299.012 127.563 301.931 111.077 303.631 94.7164C304.303 88.2606 304.933 85.611 307.578 86.0736C308.355 86.1998 310.434 86.9989 311.19 87.1251C304.513 106.072 304.471 120.666 303.526 124.892C303.085 127.016 302.665 128.089 302.141 128.089Z" fill="#466EB6"/>
<path d="M311.925 84.2652L311.232 87.1251C311.232 87.1251 311.064 89.6275 312.218 89.8378C313.604 90.1111 315.683 88.0293 315.683 88.0293L316.88 79.9543L311.925 84.2652Z" fill="#F7A491"/>
<path d="M311.925 84.2652L311.232 87.1251C311.232 87.1251 311.064 89.6275 312.218 89.8378C313.604 90.1111 315.683 88.0293 315.683 88.0293L316.88 79.9543L311.925 84.2652Z" fill="#F7A491"/>
<path d="M316.858 79.9965L311.903 84.2653L311.378 86.4102C313.289 85.9475 315.976 83.8657 316.858 79.9965Z" fill="#F47458"/>
<path d="M311.904 72.5734C310.707 72.5734 309.636 73.3935 309.216 74.5921C308.859 75.5805 308.418 77.0525 308.145 78.7347C307.62 81.847 309.384 84.6858 310.917 84.9171C312.449 85.1485 316.103 84.1181 316.921 79.7231C317.278 77.8305 317.719 75.3702 316.187 74.0664C314.969 73.057 313.268 72.5734 311.904 72.5734Z" fill="#F7A491"/>
<path d="M316.418 83.0666C316.418 83.0666 321.835 78.2301 322.065 74.466C322.296 70.6808 318.811 68.6621 315.851 68.5569C314.507 68.5149 313.604 68.578 312.197 68.7462C309.216 69.1247 307.284 70.4495 307.956 72.8888C308.88 76.1693 315.053 73.3935 316.334 74.4239C317.383 75.265 315.683 77.2838 316.691 78.0618C317.635 78.7978 317.152 78.5455 316.838 79.9124C316.544 81.3002 316.418 83.0666 316.418 83.0666Z" fill="#184655"/>
<path d="M318.496 78.6926C318.37 79.5968 317.803 80.2698 317.257 80.1856C316.711 80.1015 316.376 79.3024 316.502 78.3982C316.628 77.494 317.194 76.8211 317.74 76.9052C318.307 76.9893 318.643 77.7884 318.496 78.6926Z" fill="#F7A491"/>
<path d="M291.58 55.7505C291.58 55.7505 290.824 56.2762 290.11 57.5379C290.11 57.5379 287.653 56.3813 287.674 55.9187C287.695 55.2878 290.173 56.129 290.173 56.129L291.58 55.7505Z" fill="#F47458"/>
<path d="M314.465 43.9547L286.121 58.5695C284.588 59.3476 282.468 58.2541 281.355 56.1092L271.991 37.8564C270.878 35.7115 271.235 33.3352 272.747 32.5362L301.091 17.9213C302.624 17.1432 304.744 18.2367 305.857 20.3816L315.221 38.6344C316.334 40.7794 315.998 43.1556 314.465 43.9547Z" fill="#F7CC7F"/>
<path d="M314.294 36.804L280.431 54.2672L281.546 56.436L315.409 38.9728L314.294 36.804Z" fill="#355389"/>
<path d="M292.21 53.8999L292.776 55.3089L291.454 56.0028C291.454 56.0028 291.79 55.3299 291.664 55.1406C291.034 54.1313 291.58 53.1429 292.21 53.8999Z" fill="#F7A491"/>
<path d="M296.409 27.0885L295.968 26.2474L299.978 24.1445L300.419 24.9857L296.409 27.0885Z" fill="#355389"/>
<path d="M301.112 26.3314L302.623 29.1913L301.91 29.5698L300.839 27.5301L299.915 28.0137L300.839 29.8011L300.146 30.1586L299.222 28.3712L297.542 29.2544L297.102 28.4132L301.112 26.3314Z" fill="#355389"/>
<path d="M303.022 29.9695L303.463 30.8317L301.007 32.1354C300.734 32.2826 300.545 32.4088 300.461 32.556C300.293 32.7663 300.293 33.0607 300.461 33.3971C300.629 33.7336 300.86 33.9018 301.154 33.8808C301.322 33.8808 301.531 33.7967 301.804 33.6705L304.261 32.3667L304.702 33.2289L302.245 34.4906C301.825 34.7219 301.447 34.8271 301.154 34.8061C300.587 34.785 300.125 34.4275 299.768 33.7336C299.411 33.0397 299.369 32.4509 299.684 31.9672C299.852 31.7149 300.146 31.4625 300.587 31.2522L303.022 29.9695Z" fill="#355389"/>
</g>
<path d="M240.671 72.9862C240.671 72.9862 254.948 72.9659 258.007 72.7824C260.78 72.6194 271.753 72.9047 272.181 72.8436C272.609 72.8028 275.444 67.9931 275.913 68.5026C276.382 69.0121 274.343 70.8871 274.975 71.3762C275.607 71.8653 282.419 70.7852 282.337 71.2743C282.174 72.2118 278.197 72.0895 278.197 72.5583C278.197 73.0066 282.358 72.2933 282.643 73.0678C282.929 73.8218 278.646 73.3735 278.483 73.7199C278.32 74.0664 282.46 74.6778 282.031 75.3707C281.807 75.7579 278.36 74.7389 278.381 75.2484C278.401 75.7579 280.91 76.9604 280.604 77.368C280.298 77.7756 278.626 76.1044 277.178 76.084C275.73 76.0636 274.689 75.3096 272.364 75.9414C271.222 76.2471 262.453 77.3272 255.07 77.959C247.483 78.6111 241.263 78.8149 241.263 78.8149L240.671 72.9862Z" fill="#F7A491"/>
<path d="M219.481 85.683C219.298 83.4005 219.746 79.0391 219.848 78.2647C219.155 75.8802 214.933 75.6357 214.403 74.637C214.403 74.637 216.259 68.6249 218.808 68.6453C218.808 68.6453 224.784 70.9075 226.803 71.9673C226.823 71.9673 227.516 72.273 227.822 72.273C229.76 72.2526 236.551 72.0488 237.816 72.436L237.102 82.9114C236.735 83.5024 236.143 96.1991 235.389 97.1774C234.634 98.176 223.866 102.028 222.071 100.866C221.969 100.825 219.869 90.3093 219.481 85.683Z" fill="#50BFA5"/>
<path d="M234.267 72.6806C235.511 72.0896 244.648 72.1099 244.648 72.1099C244.648 72.1099 245.912 78.4074 244.893 79.9155C244.893 79.9155 236.796 81.1179 237.02 81.7905L234.267 72.6806Z" fill="#50BFA5"/>
<path d="M232.779 67.9934C232.779 67.9934 231.31 71.3968 231.147 72.8234C230.984 74.25 229.332 78.6114 226.355 77.9796C223.397 77.3478 227.048 72.1305 227.639 70.8058C228.231 69.5015 229.23 65.2625 229.23 65.2625L232.779 67.9934Z" fill="#F7A491"/>
<path d="M228.68 67.382C228.986 66.2407 229.21 65.2625 229.21 65.2625L232.779 67.9934C232.779 67.9934 232.473 68.6863 232.126 69.583C230.311 69.5423 229.19 68.6252 228.68 67.382Z" fill="#F47458"/>
<path d="M237.469 59.7393C237.469 59.7393 238.55 61.1659 238.305 63.1224C238.061 65.0789 235.471 69.2568 231.29 68.6658C227.109 68.0748 227.088 63.8561 229.087 61.4513C231.086 59.026 234.288 56.2951 237.469 59.7393Z" fill="#F7A491"/>
<path d="M229.108 60.1674C228.843 60.9419 229.006 61.6755 229.454 61.8386C229.903 61.9812 230.474 61.4921 230.739 60.7177C231.004 59.9432 230.841 59.2096 230.393 59.0465C229.923 58.8835 229.352 59.393 229.108 60.1674Z" fill="#F7A491"/>
<path d="M217.891 153.325C218.156 152.672 220.726 154.731 221.337 155.138C222.031 155.607 222.072 156.137 222.051 156.259C222.01 156.565 215.423 164.656 213.506 165.777C213.322 165.879 212.935 165.879 212.833 165.838C211.772 165.43 213.506 158.807 214.913 157.503C215.831 156.667 216.749 156.219 217.891 153.325Z" fill="#3C8F7C"/>
<path d="M237.143 59.3113C237.143 59.3113 235.593 64.5693 236.797 66.1794C238 67.7894 236.348 69.6847 236.348 69.6847C236.348 69.6847 240.08 65.2419 239.55 63.0408C239.02 60.8194 237.143 59.3113 237.143 59.3113Z" fill="#13375B"/>
<path d="M235.532 66.4647C234.818 66.9131 234.471 67.6671 234.777 68.1563C235.083 68.6454 235.919 68.6861 236.633 68.2174C237.347 67.769 237.693 67.015 237.388 66.5259C237.082 66.0367 236.245 66.0164 235.532 66.4647Z" fill="#F7A491"/>
<path d="M227.252 53.8699L227.537 54.6239C227.701 55.0723 227.558 55.5614 227.17 55.8467L226.497 56.3562C226.069 56.6619 225.478 56.6212 225.11 56.2543L224.519 55.6633L227.252 53.8699Z" fill="#FF7345"/>
<path d="M223.499 55.0723L222.378 54.7666L221.603 55.1742C221.603 55.1742 216.626 57.3957 215.627 57.3957C214.648 57.3957 213.873 55.6022 214.118 55.2761C214.363 54.9297 217.585 54.1145 217.585 54.1145L219.584 52.3007L219.706 50.9963L223.499 55.0723Z" fill="#13375B"/>
<path d="M223.887 46.5332L227.415 52.7491C227.741 53.3198 227.578 54.0534 227.028 54.4203L224.907 55.8876C224.376 56.2545 223.662 56.173 223.234 55.6838L218.543 50.4665L223.887 46.5332Z" fill="#F47458"/>
<path d="M224.111 46.4314L218.543 50.6296C218.136 50.9353 217.544 50.915 217.177 50.5481L206.939 40.8065L218.074 32.7563L224.417 45.1067C224.662 45.555 224.539 46.1053 224.111 46.4314Z" fill="#F47458"/>
<path d="M210.936 34.5904C207.775 36.7506 205.838 39.4001 206.592 40.521C207.347 41.6419 210.528 40.8063 213.689 38.646C216.851 36.4857 218.788 33.8363 218.033 32.7154C217.299 31.5945 214.118 32.4301 210.936 34.5904Z" fill="#13375B"/>
<path d="M207.53 40.0523C208.428 40.2561 210.712 39.5836 213.2 37.892C216.32 35.7725 217.483 33.6734 217.299 33.2454C217.299 33.2454 217.259 33.2046 217.136 33.1843C216.239 32.9805 213.955 33.653 211.467 35.3445C208.346 37.4641 207.184 39.5632 207.367 39.9912C207.367 40.0116 207.408 40.0319 207.53 40.0523Z" fill="#FAE0B2"/>
<path d="M214.975 53.7273L216.3 54.2164C216.3 54.2164 217.157 54.6036 217.361 55.3373C217.565 56.0913 218.503 55.9079 218.238 55.1335C217.973 54.359 217.707 53.8699 217.707 53.8699C217.707 53.8699 218.788 55.3373 218.89 55.3577C219.523 55.4188 219.604 54.5017 218.544 53.4623C217.463 52.4229 214.975 53.7273 214.975 53.7273Z" fill="#F7A491"/>
<path d="M219.42 54.2776C219.42 54.2776 221.684 55.1947 221.235 55.7653C220.786 56.336 219.42 56.9474 219.379 56.6417C219.338 56.336 220.256 55.9284 219.664 55.2966C219.481 55.1539 218.665 54.2776 219.42 54.2776Z" fill="#F7A491"/>
<path d="M135.805 150.021C133.836 152.94 131.608 155.275 131.327 155.534C131.197 155.664 130.288 155.945 130.137 156.075C128.86 160.096 130.505 163.534 132.257 166.214C132.538 164.031 132.755 161.047 133.101 160.68C133.642 160.096 135.459 157.566 139.159 154.475C137.19 153.394 136.974 151.902 135.805 150.021Z" fill="#F7A491"/>
<path d="M131.219 155.599C129.769 155.686 127.043 156.594 127.065 156.875C127.086 157.221 128.622 169.09 130.505 170.149C131.63 170.776 131.846 168.939 132.257 166.236C130.505 163.534 130.418 156.291 131.219 155.599Z" fill="#466EB6"/>
<path d="M105.926 144.465C102.919 146.259 99.9332 147.621 99.5653 147.751C99.3923 147.816 98.4403 147.686 98.2456 147.751C95.3897 150.843 95.4113 154.626 95.8441 157.826C97.034 155.967 98.5052 153.372 98.9596 153.178C99.6952 152.875 102.356 151.729 107.008 150.475C105.71 148.659 106.186 146.67 105.926 144.465Z" fill="#F7A491"/>
<path d="M138.898 64.5136C138.898 64.5136 143.464 55.9521 144.134 52.882C144.805 49.812 147.142 34.3752 146.947 33.3591C146.752 32.3646 143.052 29.9647 143.507 29.1215C143.961 28.2784 147.488 28.2784 148.288 28.3432C149.089 28.4081 150.711 28.8837 151.404 29.4458C152.096 30.008 150.625 48.5364 150.192 52.5145C149.759 56.4926 143.074 69.5511 143.074 69.5511L138.898 64.5136Z" fill="#F7A491"/>
<path d="M118.432 76.9019C118.432 76.9019 109.15 91.7549 107.527 94.6736C105.905 97.5923 99.8685 105.03 99.5656 105.397C99.2627 105.765 92.8802 105.44 93.0533 106.175C93.2264 106.911 96.1688 106.175 96.2337 107.062C96.2986 107.927 91.171 113.461 91.6903 113.678C92.6422 114.088 94.9356 110.413 95.3467 110.694C95.7577 110.975 92.599 114.305 93.1182 115.018C93.6375 115.732 95.8226 111.58 96.2337 111.624C96.6448 111.667 94.6976 115.796 95.5846 115.84C96.0606 115.861 97.2289 112.121 97.6833 112.467C98.1376 112.791 97.7049 115.796 98.2674 115.753C98.83 115.732 98.3107 113.202 99.1761 111.862C100.042 110.521 99.9766 109.116 101.967 107.408C103.958 105.678 111.638 100.446 114.429 95.7978C117.22 91.1711 123.408 80.9232 123.408 80.9232L118.432 76.9019Z" fill="#F7A491"/>
<path d="M140.63 98.9976L124.511 104.186C124.511 104.186 133.382 119.256 135.134 122.261C136.887 125.266 144.437 132.682 144.459 134.627C144.459 136.011 137.341 145.113 133.057 150.67C134.031 152.464 136.67 154.799 138.358 155.815C145.498 149.048 155.926 138.368 156.121 134.887C156.359 129.763 140.63 98.9976 140.63 98.9976Z" fill="#3C8F7C"/>
<path d="M99.4359 147.751C98.0945 147.211 95.2602 146.865 95.1521 147.146C95.0222 147.47 91.3659 158.864 92.6207 160.615C93.378 161.674 94.3515 160.075 95.866 157.826C95.4117 154.626 98.5488 147.838 99.4359 147.751Z" fill="#466EB6"/>
<path d="M137.32 108.294C137.514 107.3 138.856 104.381 139.548 102.068C140.111 100.144 140.219 98.1113 139.851 96.1439L127.995 95.5818L127.54 96.4682C127.043 97.4195 126.351 98.2627 125.507 98.9113C123.733 100.252 120.617 103.192 120.704 107.3C120.833 113.029 124.901 133.979 123.56 134.757C121.115 136.163 110.924 141.135 104.823 144.184C104.91 146.411 105.537 149.567 106.684 151.47C111.509 149.632 128.471 142.13 131.63 140.292C133.036 139.449 136.974 109.981 137.32 108.294Z" fill="#50BFA5"/>
<path d="M108.653 41.5964C109.583 44.0827 108.112 45.942 107.073 48.3851C106.381 50.0282 107.917 52.6442 109.648 53.8333C114.04 56.8818 115.057 56.9466 114.754 61.0761C113.997 71.0213 125.896 66.7838 127.8 66.4595C129.726 66.1352 131.153 66.2216 132.084 65.5947C134.832 63.6921 137.428 57.9628 136.952 53.1415C136.476 48.3202 130.721 49.9849 129.401 47.7581C128.081 45.5528 132.062 42.7855 128.665 39.0884C118.951 28.473 108.782 35.586 108.436 39.6505C108.35 40.4289 108.458 41.0558 108.653 41.5964Z" fill="#F47458"/>
<path d="M142.058 76.7507C142.058 76.7507 145.368 68.9026 145.887 67.5837C145.887 67.5837 141.257 63.4759 138.51 63.8002C138.51 63.8002 134.94 69.4214 132.819 69.616C130.721 69.8106 123.3 70.1349 122.002 70.9132C120.704 71.6916 115.187 79.9937 115.187 79.9937C115.187 79.9937 120.141 84.9447 122.132 84.9447C122.132 84.9447 123.495 81.5936 123.949 82.1989C124.403 82.8043 126.242 95.8196 127.173 96.8141C128.038 97.7221 138.401 101.225 141.409 100.598C141.409 100.598 143.031 88.058 142.945 80.3612C142.945 79.1505 142.058 76.7507 142.058 76.7507Z" fill="#F7CC7F"/>
<path d="M127.605 65.919C127.605 65.919 128.773 69.7889 128.773 71.3456C128.773 72.9239 130.028 77.8532 133.338 77.5289C136.627 77.2046 133.295 71.0862 132.841 69.5944C132.365 68.1026 131.802 63.3894 131.802 63.3894L127.605 65.919Z" fill="#F7A491"/>
<path d="M132.127 65.7677C131.932 64.4921 131.824 63.4111 131.824 63.4111L127.626 65.9191C127.626 65.9191 127.864 66.719 128.124 67.7135C130.093 67.9081 131.413 67.0433 132.127 65.7677Z" fill="#F47458"/>
<path d="M124.879 55.2169C124.879 55.2169 123.278 56.3412 122.867 58.4383C122.456 60.5571 123.711 65.7459 128.233 66.5675C132.755 67.3891 134.226 63.0218 132.993 59.8436C131.738 56.6655 129.336 52.7306 124.879 55.2169Z" fill="#F7A491"/>
<path d="M133.403 58.5247C133.403 59.4111 132.992 60.1246 132.473 60.1246C131.954 60.1246 131.543 59.4111 131.521 58.5247C131.521 57.6383 131.932 56.9248 132.451 56.9248C132.971 56.9248 133.403 57.6383 133.403 58.5247Z" fill="#F7A491"/>
<path d="M124.814 62.9354C125.42 63.6489 125.507 64.5569 125.009 64.9461C124.533 65.3569 123.646 65.0974 123.062 64.384C122.456 63.6705 122.369 62.7625 122.867 62.3733C123.343 61.9625 124.23 62.222 124.814 62.9354Z" fill="#F7A491"/>
<path d="M146.687 29.1865C146.601 29.2514 146.492 29.3162 146.406 29.3811L145.908 29.8351C146.384 29.9432 147.141 29.8567 147.855 30.3973C147.877 30.3973 147.726 29.8135 146.687 29.1865Z" fill="#F47257"/>
<path d="M154.562 3.04788C153.481 3.26408 149.132 9.07988 149.132 9.07988L148.98 9.49067C148.98 9.49067 156.834 8.62586 157.137 8.27994C157.894 7.35028 155.449 2.8533 154.562 3.04788ZM149.175 9.18798C150.603 7.35028 153.87 4.66938 154.584 4.10726C155.211 4.75586 156.163 6.65843 156.293 7.50162C155.385 7.6962 151.469 8.92854 149.175 9.18798Z" fill="#F47458"/>
<path d="M145.433 1.83697C143.745 -0.454765 142.836 -0.0656033 142.187 0.215458C141.538 0.496519 139.158 3.45847 139.894 5.01512C140.63 6.57177 147.986 9.6202 147.986 9.6202L148.245 9.05808C148.267 9.03646 147.142 4.1287 145.433 1.83697ZM140.781 4.58272C140.413 3.80439 141.993 1.49104 142.62 1.08026C142.772 1.0154 142.901 0.950541 143.01 0.950541C143.139 0.950541 143.68 1.05864 144.675 2.39909C145.757 3.86925 147.51 7.50143 147.921 9.03646C144.957 7.73925 141.149 5.25294 140.781 4.58272Z" fill="#F47458"/>
<path d="M148.353 10.593H148.699C149.046 10.593 149.327 10.3119 149.327 9.96602V8.92825C149.327 8.58233 149.046 8.30127 148.699 8.30127H148.353C148.007 8.30127 147.726 8.58233 147.726 8.92825V9.96602C147.704 10.3119 147.985 10.593 148.353 10.593Z" fill="#F47458"/>
<path d="M160.426 29.8351H138.076C136.865 29.8351 135.87 28.9054 135.783 27.6947L134.615 9.75H163.714L162.503 28.4298C162.46 29.2297 161.529 29.8351 160.426 29.8351Z" fill="#F7CC7F"/>
<path d="M164.926 13.6633L133.338 13.7282L132.992 11.6959C132.797 10.4852 133.728 9.38257 134.961 9.38257L163.563 9.46905C164.58 9.46905 165.38 10.096 165.294 10.8311L164.926 13.6633Z" fill="#FAE0B2"/>
<path d="M149.089 9.40405H148.483V13.7065H149.089V9.40405Z" fill="#F47458"/>
<path d="M149.846 13.6848H149.089V29.8566H149.846V13.6848Z" fill="#F47458"/>
<path d="M146.211 30.9809L145.93 29.8566C145.043 29.8782 144.372 29.662 143.896 29.5323L143.117 29.1864C142.858 29.0783 142.577 29.1864 142.468 29.4458C142.382 29.6404 142.447 29.8782 142.62 30.008C142.62 30.008 144.74 31.7592 145.497 32.2997C145.865 32.5591 147.033 33.2726 147.033 33.2726L147.704 31.997L146.211 30.9809Z" fill="#F7A491"/>
<path d="M72.4103 48.552C72.4103 48.552 71.8128 51.5377 71.3347 52.6523C71.0758 53.2296 69.9803 55.4589 69.9803 55.4589L69.4624 61.5298L64.9209 60.9128C64.9209 60.9128 66.4546 56.5337 65.9367 55.22C65.5185 54.185 65.2794 52.0154 65.2994 51.478C65.379 49.6468 72.4103 48.552 72.4103 48.552Z" fill="#F7A491"/>
<path d="M18.5908 52.7715C18.5908 52.7715 20.3636 55.2596 21.24 56.0757C21.6981 56.4937 23.6303 58.086 23.6303 58.086L26.5583 63.4205L30.4624 61.0319C30.4624 61.0319 27.2754 57.668 27.2355 56.2548C27.1957 55.1401 26.5384 53.0701 26.2994 52.5725C25.4628 50.9204 18.5908 52.7715 18.5908 52.7715Z" fill="#F7A491"/>
<path d="M52.4924 70.8053C52.4924 70.8053 50.1221 68.3172 48.2298 71.3427C48.2298 71.3427 46.7558 70.5266 45.74 71.9796C45.74 71.9796 43.0908 71.1835 42.4534 75.1445C42.4534 75.1445 41.0989 74.8857 40.8997 76.498C40.7205 78.1103 41.5371 79.205 41.5371 79.205C41.5371 79.205 40.7802 79.7822 41.1188 81.2751C41.4176 82.549 42.4733 82.7281 42.4733 82.7281C42.4733 82.7281 42.7522 84.8579 43.6884 85.5148C44.6245 86.1517 45.8794 85.8531 45.8794 85.8531C45.8794 85.8531 46.218 87.0076 47.2937 86.9081C48.3693 86.8086 49.7038 85.7735 50.9189 86.2313C52.1339 86.6891 55.2611 86.2114 55.2611 86.2114C55.2611 86.2114 58.7868 84.639 57.7311 81.0362C57.7311 81.0362 59.5835 79.3642 57.9701 77.3539C57.9701 77.3539 59.1453 74.209 56.8148 72.3578C54.4644 70.5266 52.4924 70.8053 52.4924 70.8053Z" fill="#07345A"/>
<path d="M26.1795 158.903C26.1795 158.903 22.0962 158.445 21.419 158.107C20.7417 157.768 17.3157 161.052 17.9929 162.685C18.3714 163.6 19.5864 163.501 19.5864 163.501L20.5624 162.545L25.7413 163.62L26.1795 158.903Z" fill="#F7A491"/>
<path d="M49.4842 176.101C49.4842 176.101 47.333 179.604 46.7554 180.062C46.1777 180.539 47.6915 185.018 49.4643 185.097C50.4602 185.137 50.8785 184.003 50.8785 184.003L50.4204 182.709L53.5875 178.469L49.4842 176.101Z" fill="#F7A491"/>
<path d="M46.8746 179.922C46.8746 179.922 48.1096 181.495 48.7868 182.132C49.6633 182.948 50.7787 183.724 50.7787 183.724C50.7787 183.724 52.0336 186.013 52.3921 186.809C53.169 188.581 54.0255 190.571 53.9059 191.566C53.8661 191.885 53.149 192.223 52.5515 192.044C50.0616 191.288 43.6876 185.456 42.8909 183.883C41.9348 182.092 46.8746 179.922 46.8746 179.922Z" fill="#07345A"/>
<path d="M65.0605 126.637C64.8215 125.981 64.6024 125.384 64.3833 124.826C61.7341 125.403 58.7463 126.04 55.6589 126.697L55.2805 137.983C55.2805 137.107 57.591 155.977 57.591 155.977C57.591 155.977 51.2967 168.457 47.2134 176.18C48.8866 178.27 50.1813 179.186 52.6114 180.619C58.9654 173.015 67.0723 159.599 67.4309 157.291C67.65 155.937 67.8293 134.4 65.0605 126.637Z" fill="#B75742"/>
<path d="M41.417 129.902C42.1341 137.724 43.3292 149.548 43.5483 153.529C38.489 154.265 26.5377 157.848 24.3068 157.848C23.4702 159.739 22.9922 162.028 23.5897 163.919C23.7093 164.297 47.1536 165.034 53.2089 161.172C54.7825 160.157 55.2804 149.369 55.3004 137.983L55.6788 126.697C50.5398 127.792 45.819 128.867 41.417 129.902Z" fill="#F47458"/>
<path d="M58.2481 89.834L52.4916 90.7098C52.4916 90.7098 48.1493 90.7695 46.9941 90.7894C46.8945 90.7894 42.3729 112.804 41.2774 121.084C40.1819 129.365 41.0384 130.837 41.0384 130.837C41.0384 130.837 48.6872 132.549 54.364 132.052C60.2599 131.534 66.8729 128.349 66.8729 128.349C66.8729 128.349 60.0408 112.804 59.0449 107.828C58.049 102.852 58.2481 89.834 58.2481 89.834Z" fill="white"/>
<path d="M70.0803 59.1211C70.0803 59.1211 69.5824 79.5233 68.9649 80.7773C68.0685 82.6085 61.6149 95.6261 61.6149 95.6261C61.6149 95.6261 66.4551 115.889 68.4868 122.876C68.686 123.572 69.6023 128.13 69.6023 128.568C69.6023 129.544 65.3198 130.798 64.8019 130.718C64.3437 130.658 60.599 111.391 58.2287 101.956C57.412 98.7512 56.0376 95.7456 54.1254 93.0386L52.4722 90.6898L62.312 78.7869C62.312 78.7869 64.4433 59.9571 64.4433 58.7827C64.4632 58.4842 69.4629 57.9667 70.0803 59.1211Z" fill="#3C8F7C"/>
<path d="M46.9947 90.7893L37.1349 75.9405C37.1349 75.9405 30.741 60.3353 30.5817 59.758C30.4223 59.2007 25.4028 59.8377 23.8093 59.6784C23.2914 59.6386 30.502 76.0599 31.2589 78.8067C32.1552 82.0512 36.9756 94.7105 36.9756 94.7105C36.9756 94.7105 40.302 102.294 39.7841 108.146C38.9276 117.879 37.2146 131.892 37.6329 132.31C40.2223 133.942 48.3293 133.883 48.9667 132.868C55.8984 121.721 46.9947 90.7893 46.9947 90.7893Z" fill="#3C8F7C"/>
<path d="M52.0938 87.7439L52.532 90.9286C52.532 90.9286 53.4881 95.5066 52.2532 96.3824C51.0182 97.2582 46.9946 90.7893 46.9946 90.7893L47.4129 82.7478L52.0938 87.7439Z" fill="#F7A491"/>
<path d="M47.293 85.3354C48.3088 88.0822 50.7389 89.7741 52.4718 90.431L52.1133 87.7439L47.4324 82.7478L47.293 85.3354Z" fill="#F47458"/>
<path d="M40.8594 77.2542C40.8594 78.4883 41.5565 79.4835 42.413 79.4835C43.2695 79.4835 43.9667 78.4883 43.9667 77.2542C43.9667 76.0201 43.2695 75.0249 42.413 75.0249C41.5565 75.0448 40.8594 76.04 40.8594 77.2542Z" fill="#07345A"/>
<path d="M45.5205 72.497C45.5205 73.1937 46.377 73.7709 47.4128 73.7709C48.4685 73.7709 49.3051 73.1937 49.3051 72.497C49.3051 71.8004 48.4486 71.2232 47.4128 71.2232C46.377 71.2033 45.5205 71.7805 45.5205 72.497Z" fill="#07345A"/>
<path d="M50.2811 74.2686C52.7909 73.4127 55.46 75.0648 55.8384 77.6524C55.9978 78.767 56.1571 80.1803 56.177 81.7328C56.2368 85.4351 54.3246 89.0577 52.6315 89.0577C50.9384 89.0577 46.2774 86.6493 46.1181 81.3944C46.0185 78.1301 47.6518 75.1842 50.2811 74.2686Z" fill="#F7A491"/>
<path d="M47.3734 81.8123C47.3734 82.6283 46.8356 83.2852 46.1584 83.2852C45.4812 83.2852 44.9434 82.6283 44.9434 81.8123C44.9434 80.9962 45.4812 80.3393 46.1584 80.3393C46.8356 80.3194 47.3734 80.9763 47.3734 81.8123Z" fill="#F7A491"/>
<path d="M57.591 72.4174C59.324 73.7908 59.9415 75.9007 58.9455 77.0949C57.9496 78.3091 55.7386 78.1698 54.0057 76.7765C52.2727 75.403 51.6553 73.2932 52.6512 72.0989C53.6272 70.9046 55.8382 71.0439 57.591 72.4174Z" fill="#07345A"/>
<path d="M53.0301 73.552C53.0301 74.1492 52.313 74.6468 51.4166 74.6468C50.5203 74.6468 49.8032 74.1691 49.8032 73.552C49.8032 72.9549 50.5203 72.4573 51.4166 72.4573C52.313 72.4772 53.0301 72.9549 53.0301 73.552Z" fill="#07345A"/>
<path d="M56.4554 79.5633C57.2145 79.5633 57.8298 78.9394 57.8298 78.1699C57.8298 77.4004 57.2145 76.7766 56.4554 76.7766C55.6964 76.7766 55.0811 77.4004 55.0811 78.1699C55.0811 78.9394 55.6964 79.5633 56.4554 79.5633Z" fill="#07345A"/>
<path d="M21.6184 158.166C21.6184 158.166 20.7221 159.958 20.4233 160.834C20.0648 161.968 19.8058 163.302 19.8058 163.302C19.8058 163.302 18.2721 165.412 17.6944 166.068C16.3997 167.521 14.8261 169.233 13.87 169.532C13.5712 169.631 12.6948 169.373 12.6948 168.696C12.7347 166.088 15.2245 157.609 16.3001 156.216C17.555 154.603 21.6184 158.166 21.6184 158.166Z" fill="#07345A"/>
<path d="M19.5864 54.0056C19.5864 54.0056 20.7815 55.3591 22.2157 55.5582C23.6498 55.7572 24.9246 54.2843 24.9246 54.2843L19.5864 54.0056Z" fill="#F47458"/>
<path d="M65.6978 51.4578L66.6937 52.9706C66.6937 52.9706 70.3189 53.1895 71.4144 50.582L65.6978 51.4578Z" fill="#F47458"/>
<path d="M66.9333 52.0948C52.6515 48.3727 37.6328 49.2684 23.9088 54.6824C21.8173 55.4985 19.3873 54.6028 18.4511 52.5128C15.8616 46.5215 13.2722 40.5303 10.6628 34.539C9.72667 32.449 11.3002 29.6424 14.2482 28.488C33.1113 21.0437 53.7471 19.8096 73.367 24.9251C76.4146 25.7212 78.3268 28.3088 77.6495 30.4983C75.7971 36.7484 73.9447 43.0183 72.0922 49.2684C71.415 51.4778 69.1243 52.6522 66.9333 52.0948Z" fill="#FFF3D9"/>
<path d="M24.1675 55.2199C24.1675 55.2199 25.2829 54.2445 25.3427 52.7318C25.3427 52.5527 24.8447 50.8608 25.4821 50.7612C26.5577 50.5821 26.8764 54.563 26.8764 54.563C26.8764 54.563 25.522 55.0407 24.1675 55.2199Z" fill="#F7A491"/>
<path d="M19.8846 54.2047C20.6216 54.2246 21.4183 54.1051 21.4781 53.8265C21.5378 53.5478 21.1992 53.3886 20.7809 53.3289C21.0797 53.2891 21.2988 53.2094 21.3387 53.0701C21.4183 52.7715 21.0399 52.6123 20.6017 52.5327C20.8208 52.4929 20.9602 52.4133 20.9801 52.3137C21.1793 51.6569 19.1078 51.5175 19.1078 51.5175C19.1078 51.5175 17.9724 51.3185 17.8728 51.7564C17.8529 51.8161 18.0122 52.1744 18.1118 52.2341C18.3309 52.3535 18.4106 52.6322 18.311 52.8711C18.311 52.891 18.311 52.891 18.2911 52.9109C18.2911 52.9507 18.311 52.9905 18.3508 53.0303C18.55 53.1895 18.4903 53.8066 18.4704 53.8464C18.4504 53.926 18.55 54.0852 18.6895 54.2246C19.3069 54.8217 23.0317 57.8472 23.6492 58.0861C24.4061 58.3647 23.7887 56.0558 23.7887 56.0558C23.7887 56.0558 20.0639 54.8615 19.8846 54.2047Z" fill="#F7A491"/>
<path d="M68.3076 53.0503C68.3076 53.0503 66.8934 52.6124 66.2162 51.2589C66.1365 51.0997 65.9174 49.3481 65.28 49.5073C64.2243 49.7661 65.5389 53.5479 65.5389 53.5479C65.5389 53.5479 66.993 53.4484 68.3076 53.0503Z" fill="#F7A491"/>
<path d="M71.8134 50.403C71.1362 50.7215 70.3793 50.9205 70.2 50.7016C70.0207 50.4627 70.2797 50.1841 70.6382 49.9651C70.3394 50.0447 70.1004 50.0647 70.0207 49.9452C69.8215 49.7064 70.1004 49.4078 70.4789 49.1689C70.2797 49.2088 70.1004 49.2088 70.0406 49.1291C69.6024 48.6116 71.435 47.6363 71.435 47.6363C71.435 47.6363 72.3911 46.9993 72.6699 47.3576C72.7097 47.4173 72.7097 47.7955 72.65 47.8751C72.4906 48.0742 72.7097 48.333 72.7097 48.3529C72.7496 48.4922 72.7496 48.6514 72.7297 48.7111C72.6301 48.9301 72.9289 49.4675 72.9488 49.5073C72.9886 49.567 72.9687 49.7462 72.9089 49.9452C72.5703 50.7414 70.4191 55.0209 69.9411 55.4787C69.3634 56.036 69.0049 53.6873 69.0049 53.6873C69.0049 53.6873 71.913 51.0798 71.8134 50.403Z" fill="#F7A491"/>
<defs>
<clipPath id="clip0">
<rect width="89.3787" height="174.6" fill="white" transform="translate(271.34 17.6677)"/>
</clipPath>
</defs>
</svg>
