<svg width="166" height="166" viewBox="0 0 166 166" fill="none" xmlns="http://www.w3.org/2000/svg">
<path d="M83 166C128.84 166 166 128.84 166 83C166 37.1604 128.84 0 83 0C37.1604 0 0 37.1604 0 83C0 128.84 37.1604 166 83 166Z" fill="#FDB55B"/>
<path d="M121.4 89.8H45.4C44.9 89.8 44.5 89.4 44.5 88.9V83.6C44.5 83.1 44.9 82.7 45.4 82.7H121.4C121.9 82.7 122.3 83.1 122.3 83.6V88.9C122.3 89.4 121.9 89.8 121.4 89.8ZM46.3 88H120.5V84.5H46.3V88Z" fill="white" stroke="white" stroke-width="0.8836" stroke-miterlimit="10"/>
<path d="M121.4 122.8H45.4C44.9 122.8 44.5 122.4 44.5 121.9V116.6C44.5 116.1 44.9 115.7 45.4 115.7H121.4C121.9 115.7 122.3 116.1 122.3 116.6V121.9C122.3 122.4 121.9 122.8 121.4 122.8ZM46.3 121H120.5V117.5H46.3V121Z" fill="white" stroke="white" stroke-width="0.8836" stroke-miterlimit="10"/>
<path d="M49.4998 89.1001V114.9" stroke="white" stroke-width="0.8836" stroke-miterlimit="10"/>
<path d="M50.3999 88.2H48.5999V115.8H50.3999V88.2Z" fill="white" stroke="white" stroke-width="0.8836" stroke-miterlimit="10"/>
<path d="M124.2 121.9H41.7998" stroke="white" stroke-width="0.8836" stroke-miterlimit="10"/>
<path d="M125.2 121H40.8999V122.8H125.2V121Z" fill="white" stroke="white" stroke-width="0.8836" stroke-miterlimit="10"/>
<path d="M116.9 89.1001V114.9" stroke="white" stroke-width="0.8836" stroke-miterlimit="10"/>
<path d="M117.8 88.2H116V115.8H117.8V88.2Z" fill="white" stroke="white" stroke-width="0.8836" stroke-miterlimit="10"/>
<path d="M93.8 68.8C93.3 69.3 92.8 69.8 92.2 70.3C100.5 72 101.9 76.3 101.9 80.5V81.4H103.7V80.5C103.7 76 102.4 71 93.8 68.8Z" fill="white" stroke="white" stroke-width="0.8836" stroke-miterlimit="10"/>
<path d="M72.9 68.8C63 71.3 63 77.5 63 80.5V81.4H64.8V80.5C64.8 77.6 64.8 72.2 74.5 70.2C73.9 69.8 73.3 69.3 72.9 68.8Z" fill="white" stroke="white" stroke-width="0.8836" stroke-miterlimit="10"/>
<path d="M112.3 63.7C111.8 64.2 111.3 64.6999 110.7 65.1999C119 66.8999 120.4 71.2 120.4 75.4V76.3H122.2V75.4C122.2 70.9 120.9 65.9 112.3 63.7Z" fill="white" stroke="white" stroke-width="0.8836" stroke-miterlimit="10"/>
<path d="M54.4 63.7C44.5 66.2 44.5 72.4 44.5 75.4V76.3H46.3V75.4C46.3 72.5 46.3 67.0999 56 65.0999C55.4 64.6999 54.8 64.2 54.4 63.7Z" fill="white" stroke="white" stroke-width="0.8836" stroke-miterlimit="10"/>
<path d="M101.8 43.2C97.7 43.2 94.1 45.4 92.2 48.7C92.7 49.1 93.2 49.5999 93.6 50.0999C95.1 47.0999 98.2 45.0999 101.8 45.0999C106.9 45.0999 111 49.1999 111 54.2999C111 59.4 106.9 63.5 101.8 63.5C100 63.5 98.3 62.9999 96.9 62.0999C96.8 62.6999 96.6 63.4 96.4 64C98 64.9 99.8 65.4 101.8 65.4C107.9 65.4 112.9 60.4 112.9 54.2999C112.9 48.1999 108 43.2 101.8 43.2Z" fill="white" stroke="white" stroke-width="0.8836" stroke-miterlimit="10"/>
<path d="M83.3 50.2001C88.4 50.2001 92.5 54.3001 92.5 59.4001C92.5 64.5001 88.4 68.6 83.3 68.6C78.2 68.6 74.1 64.5001 74.1 59.4001C74.1 54.3001 78.2 50.2001 83.3 50.2001ZM83.3 48.3C77.2 48.3 72.2 53.3001 72.2 59.4001C72.2 65.5001 77.2 70.5 83.3 70.5C89.4 70.5 94.4 65.5001 94.4 59.4001C94.4 53.3001 89.4 48.3 83.3 48.3Z" fill="white" stroke="white" stroke-width="0.8836" stroke-miterlimit="10"/>
<path d="M64.8 63.5C59.7 63.5 55.5999 59.4 55.5999 54.2999C55.5999 49.1999 59.7 45.0999 64.8 45.0999C68.4 45.0999 71.4 47.0999 73 50.0999C73.4 49.5999 73.9 49.2 74.4 48.7C72.5 45.4 68.9 43.2 64.8 43.2C58.7 43.2 53.7 48.1999 53.7 54.2999C53.7 60.4 58.7 65.4 64.8 65.4C66.8 65.4 68.5999 64.9 70.1999 64C69.9999 63.4 69.7999 62.7999 69.6999 62.0999C68.2999 62.9999 66.6 63.5 64.8 63.5Z" fill="white" stroke="white" stroke-width="0.8836" stroke-miterlimit="10"/>
</svg>
