<svg width="111" height="82" viewBox="0 0 111 82" fill="none" xmlns="http://www.w3.org/2000/svg">
<path d="M43.7199 60.9663C43.7199 60.9663 36.5709 61.2011 33.727 65.7671C31.5353 69.2894 31.5875 72.5508 31.5875 75.4991" stroke="white" stroke-width="4" stroke-miterlimit="10" stroke-linecap="round" stroke-linejoin="round"/>
<path d="M67.2801 60.9663C67.2801 60.9663 74.4291 61.2011 77.273 65.7671C79.4647 69.2894 79.4125 72.5508 79.4125 75.4991" stroke="white" stroke-width="4" stroke-miterlimit="10" stroke-linecap="round" stroke-linejoin="round"/>
<path d="M55.513 60.9403C62.2568 60.9403 67.7237 55.4734 67.7237 48.7297C67.7237 41.9859 62.2568 36.519 55.513 36.519C48.7693 36.519 43.3024 41.9859 43.3024 48.7297C43.3024 55.4734 48.7693 60.9403 55.513 60.9403Z" stroke="white" stroke-width="4" stroke-miterlimit="10" stroke-linecap="round" stroke-linejoin="round"/>
<path d="M12.3583 66.6542C12.3583 66.6542 6.253 66.8629 3.82652 70.7505C1.94796 73.751 2.00014 76.5427 2.00014 79.0475" stroke="white" stroke-width="4" stroke-miterlimit="10" stroke-linecap="round" stroke-linejoin="round"/>
<path d="M22.4295 66.6542C28.1934 66.6542 32.8659 61.9816 32.8659 56.2177C32.8659 50.4538 28.1934 45.7812 22.4295 45.7812C16.6656 45.7812 11.993 50.4538 11.993 56.2177C11.993 61.9816 16.6656 66.6542 22.4295 66.6542Z" stroke="white" stroke-width="4" stroke-miterlimit="10" stroke-linecap="round" stroke-linejoin="round"/>
<path d="M98.6417 66.6542C98.6417 66.6542 104.747 66.8629 107.173 70.7505C109.052 73.751 109 76.5427 109 79.0475" stroke="white" stroke-width="4" stroke-miterlimit="10" stroke-linecap="round" stroke-linejoin="round"/>
<path d="M88.5705 66.6542C94.3344 66.6542 99.0069 61.9816 99.0069 56.2177C99.0069 50.4538 94.3344 45.7812 88.5705 45.7812C82.8066 45.7812 78.134 50.4538 78.134 56.2177C78.134 61.9816 82.8066 66.6542 88.5705 66.6542Z" stroke="white" stroke-width="4" stroke-miterlimit="10" stroke-linecap="round" stroke-linejoin="round"/>
<path d="M61.801 2.00047C59.2441 1.97438 56.9741 3.04411 55.513 4.71394C54.0258 3.04411 51.7298 1.97438 49.1468 2.00047C44.5809 2.05265 41.0586 5.62713 41.3456 9.69735C41.9457 18.1248 55.513 26.3696 55.513 26.3696C55.513 26.3696 68.8717 18.6727 69.6544 9.90608C70.0197 5.7315 66.4713 2.02656 61.801 2.00047Z" stroke="white" stroke-width="4" stroke-miterlimit="10" stroke-linecap="round" stroke-linejoin="round"/>
</svg>
