<svg width="88" height="86" viewBox="0 0 88 86" fill="none" xmlns="http://www.w3.org/2000/svg">
<path d="M21.8035 65.5988H65.3082C73.5636 65.5988 80.2455 72.2806 80.2455 80.5361C80.2455 82.4244 78.7203 83.9739 76.8077 83.9739H10.2797C8.39134 83.9739 6.84192 82.4487 6.84192 80.5361C6.84192 72.3048 13.548 65.5988 21.8035 65.5988Z" stroke="white" stroke-width="4" stroke-miterlimit="10"/>
<path d="M18.3657 65.5986C18.3173 64.1218 18.2931 62.4998 18.2931 60.6357V47.5382C18.2931 33.5935 29.599 22.2876 43.5437 22.2876C57.4885 22.2876 68.7944 33.5935 68.7944 47.5382V60.6357C68.7944 62.4998 68.7702 64.1461 68.7459 65.5986" stroke="white" stroke-width="4" stroke-miterlimit="10"/>
<path d="M43.5437 2V11.0302" stroke="white" stroke-width="4" stroke-miterlimit="10" stroke-linecap="round" stroke-linejoin="round"/>
<path d="M71.5542 10.1587L66.0587 17.3247" stroke="white" stroke-width="4" stroke-miterlimit="10" stroke-linecap="round" stroke-linejoin="round"/>
<path d="M85.0632 34.8766H76.033" stroke="white" stroke-width="4" stroke-miterlimit="10" stroke-linecap="round" stroke-linejoin="round"/>
<path d="M15.509 10.1587L21.0046 17.3247" stroke="white" stroke-width="4" stroke-miterlimit="10" stroke-linecap="round" stroke-linejoin="round"/>
<path d="M2 34.8766H11.0302" stroke="white" stroke-width="4" stroke-miterlimit="10" stroke-linecap="round" stroke-linejoin="round"/>
</svg>
