<svg width="107" height="70" viewBox="0 0 107 70" fill="none" xmlns="http://www.w3.org/2000/svg">
<path d="M0.0527344 36.1641C0.0527344 56.3301 9.08594 69.416 24.5645 69.416C40.043 69.416 49.2715 56.2324 49.2715 36.1641V33.332C49.2715 13.166 40.2383 0.03125 24.7109 0.03125C9.18359 0.03125 0.0527344 13.2637 0.0527344 33.332V36.1641ZM11.1367 33.3809C11.1367 18.3418 16.2637 9.21094 24.6133 9.21094C33.0117 9.21094 38.1875 18.3418 38.1875 33.3809V36.0664C38.1875 51.1055 33.0117 60.1875 24.6621 60.1875C16.2637 60.1875 11.1367 51.1055 11.1367 36.0664V33.3809ZM60.0625 54.6211C60.0625 61.7988 68.8516 69.416 81.9375 69.416C96.3906 69.416 106.352 59.8945 106.352 45.9785C106.352 33.2344 97.6113 24.3965 85.0625 24.3965C79.3984 24.3965 73.832 26.6426 71.5859 29.8164H70.9512L72.5625 10.5293H98.2949C101.762 10.5293 103.715 8.91797 103.715 5.93945C103.715 3.00977 101.713 1.30078 98.2949 1.30078H70.7559C65.9707 1.30078 63.4805 3.30273 63.1387 7.45312L61.1855 33.5762C60.8926 37.7266 63.041 40.3145 66.5078 40.3145C68.2168 40.3145 69.3887 39.7285 72.6113 36.8477C75.4434 34.5039 78.8125 33.2344 82.3281 33.2344C89.9941 33.2344 95.4629 38.6543 95.4629 46.4668C95.4629 54.5723 89.7988 60.1875 81.7422 60.1875C76.3711 60.1875 72.1719 57.6484 69.2422 52.7656C67.8262 50.4219 66.5078 49.543 64.6035 49.543C61.8203 49.543 60.0625 51.6914 60.0625 54.6211Z" fill="#FC6E62" fill-opacity="0.5"/>
</svg>
