<svg width="88" height="69" viewBox="0 0 88 69" fill="none" xmlns="http://www.w3.org/2000/svg">
<path d="M16.6543 62.5312C16.6543 66.291 18.7051 68.5371 22.123 68.5371C25.5898 68.5371 27.5918 66.3398 27.5918 62.5312V7.99023C27.5918 3.79102 24.8574 0.910156 20.8535 0.910156C18.5098 0.910156 16.2148 1.78906 12.8945 4.13281L3.66602 10.7734C1.37109 12.3359 0.296875 13.9473 0.296875 15.7051C0.296875 18 2.05469 19.8066 4.34961 19.8066C5.57031 19.8066 6.74219 19.3672 8.5 18.1465L16.3613 12.5312H16.6543V62.5312ZM42.582 62.7266C42.582 65.9492 45.1699 68 49.125 68H81.7422C85.0625 68 87.0156 66.2422 87.0156 63.4102C87.0156 60.5293 84.9648 58.7715 81.7422 58.7715H56.9375V58.1367L73.5879 39.6797C82.1328 30.3535 84.916 25.2266 84.916 18.6836C84.916 7.79492 75.9805 0.03125 63.5293 0.03125C50.4922 0.03125 41.7031 8.625 41.7031 17.1699C41.7031 20.1973 43.6562 22.248 46.4883 22.248C48.7832 22.248 50.3457 20.9297 51.5176 18.1465C53.1777 12.4824 57.3281 9.21094 62.8945 9.21094C69.5352 9.21094 73.9785 13.3613 73.9785 19.5625C73.9785 23.8594 71.8301 27.7656 66.4102 33.7227L47.2207 55.0117C43.7051 58.7715 42.582 60.5781 42.582 62.7266Z" fill="#FC6E62" fill-opacity="0.5"/>
</svg>
