<svg width="89" height="71" viewBox="0 0 89 71" fill="none" xmlns="http://www.w3.org/2000/svg">
<path d="M16.6543 63.5312C16.6543 67.291 18.7051 69.5371 22.123 69.5371C25.5898 69.5371 27.5918 67.3398 27.5918 63.5312V8.99023C27.5918 4.79102 24.8574 1.91016 20.8535 1.91016C18.5098 1.91016 16.2148 2.78906 12.8945 5.13281L3.66602 11.7734C1.37109 13.3359 0.296875 14.9473 0.296875 16.7051C0.296875 19 2.05469 20.8066 4.34961 20.8066C5.57031 20.8066 6.74219 20.3672 8.5 19.1465L16.3613 13.5312H16.6543V63.5312ZM42.6309 58.7461C42.6309 61.4805 44.7305 64.3125 48.1973 66.5098C52.0547 68.9512 57.2305 70.3184 62.7969 70.3184C79.6914 70.3184 88.7734 58.0625 88.7734 35.0156C88.7734 13.0918 80.0332 0.933594 64.2129 0.933594C49.9551 0.933594 40.4824 10.0645 40.4824 23.7852C40.4824 36.8711 49.0762 45.9531 61.4785 45.9531C69.1934 45.9531 75.3945 42.0957 77.8359 35.6992H78.2754C78.2754 51.959 72.9531 61.2852 62.6992 61.2852C58.3047 61.2852 54.9844 59.7227 51.5664 56.5977C49.6621 54.8887 48.5391 54.3516 47.0254 54.3516C44.4863 54.3516 42.6309 56.1094 42.6309 58.7461ZM76.6152 23.7852C76.6152 31.7441 71.4395 37.1152 63.8711 37.1152C56.2539 37.1152 51.1758 31.7441 51.1758 23.7363C51.1758 15.582 56.3027 9.9668 63.8223 9.9668C71.3906 9.9668 76.6152 15.6309 76.6152 23.7852Z" fill="#FC6E62" fill-opacity="0.5"/>
</svg>
