<svg width="50" height="50" viewBox="0 0 50 50" fill="none" xmlns="http://www.w3.org/2000/svg">
<circle cx="24.7611" cy="24.7611" r="23.5231" fill="white" stroke="#CC8ABD" stroke-width="2.47611"/>
<path d="M27.4444 14.855C27.792 14.855 28.07 14.9567 28.2785 15.1601L36.7755 23.3996C37.0187 23.6708 37.1404 23.9591 37.1404 24.2642C37.1404 24.5694 37.0187 24.8406 36.7755 25.078L28.2785 33.3174C28.0352 33.5548 27.7572 33.6735 27.4444 33.6735C27.1317 33.6735 26.8536 33.5548 26.6104 33.3174C26.3671 33.0801 26.2455 32.8088 26.2455 32.5037C26.2455 32.1985 26.3671 31.9272 26.6104 31.6899L34.2212 24.2642L26.6104 16.8385C26.3671 16.6012 26.2455 16.313 26.2455 15.9739C26.2455 15.6348 26.3584 15.3636 26.5843 15.1601C26.8102 14.9567 27.0969 14.855 27.4444 14.855Z" fill="#CC8ABD"/>
<path d="M13.865 23.0259C13.1812 23.0259 12.6269 23.5802 12.6269 24.2639C12.6269 24.9477 13.1812 25.502 13.865 25.502V23.0259ZM34.1691 23.0259H13.865V25.502H34.1691V23.0259Z" fill="#CC8ABD"/>
</svg>
