<svg width="50" height="50" viewBox="0 0 50 50" fill="none" xmlns="http://www.w3.org/2000/svg">
<circle cx="24.7611" cy="24.7611" r="23.5231" fill="white" stroke="#C9D74A" stroke-width="2.47611"/>
<path d="M27.4444 14.9861C27.792 14.9861 28.07 15.0894 28.2785 15.296L36.7755 23.6624C37.0187 23.9378 37.1404 24.2305 37.1404 24.5403C37.1404 24.8502 37.0187 25.1257 36.7755 25.3667L28.2785 33.7331C28.0352 33.9741 27.7572 34.0946 27.4444 34.0946C27.1317 34.0946 26.8537 33.9741 26.6104 33.7331C26.3671 33.4921 26.2455 33.2166 26.2455 32.9068C26.2455 32.5969 26.3671 32.3215 26.6104 32.0805L34.2212 24.5403L26.6104 17.0002C26.3671 16.7592 26.2455 16.4666 26.2455 16.1223C26.2455 15.778 26.3584 15.5025 26.5843 15.296C26.8102 15.0894 27.0969 14.9861 27.4444 14.9861Z" fill="#C9D74A"/>
<path d="M13.865 23.0259C13.1812 23.0259 12.6269 23.5802 12.6269 24.2639C12.6269 24.9477 13.1812 25.502 13.865 25.502V23.0259ZM34.1691 23.0259H13.865V25.502H34.1691V23.0259Z" fill="#C9D74A"/>
</svg>
