<svg width="50" height="50" viewBox="0 0 50 50" fill="none" xmlns="http://www.w3.org/2000/svg">
<circle cx="24.7611" cy="24.7611" r="23.5231" fill="white" stroke="#F96291" stroke-width="2.47611"/>
<path d="M27.4443 14.855C27.7918 14.855 28.0699 14.9567 28.2784 15.1601L36.7754 23.3996C37.0186 23.6708 37.1403 23.9591 37.1403 24.2642C37.1403 24.5694 37.0186 24.8406 36.7754 25.078L28.2784 33.3174C28.0351 33.5548 27.7571 33.6735 27.4443 33.6735C27.1315 33.6735 26.8535 33.5548 26.6103 33.3174C26.367 33.0801 26.2454 32.8088 26.2454 32.5037C26.2454 32.1985 26.367 31.9272 26.6103 31.6899L34.2211 24.2642L26.6103 16.8385C26.367 16.6012 26.2454 16.313 26.2454 15.9739C26.2454 15.6348 26.3583 15.3636 26.5842 15.1601C26.8101 14.9567 27.0968 14.855 27.4443 14.855Z" fill="#F96291"/>
<path d="M13.865 23.0259C13.1812 23.0259 12.6269 23.5802 12.6269 24.2639C12.6269 24.9477 13.1812 25.502 13.865 25.502V23.0259ZM34.1691 23.0259H13.865V25.502H34.1691V23.0259Z" fill="#F96291"/>
</svg>
