<svg width="64" height="64" viewBox="0 0 64 64" fill="none" xmlns="http://www.w3.org/2000/svg">
<path d="M42.672 20.0623H20.3434C19.015 20.0623 17.9553 21.1347 17.9553 22.4453C17.9553 23.7709 19.03 24.8284 20.3434 24.8284H42.672C44.0004 24.8284 45.0601 23.756 45.0601 22.4453C45.0601 21.1198 44.0004 20.0623 42.672 20.0623Z" fill="#4EBDF7"/>
<path d="M42.672 29.6093H20.3434C19.015 29.6093 17.9553 30.6817 17.9553 31.9923C17.9553 33.303 19.03 34.3754 20.3434 34.3754H42.672C44.0004 34.3754 45.0601 33.303 45.0601 31.9923C45.0601 30.6817 44.0004 29.6093 42.672 29.6093Z" fill="#4EBDF7"/>
<path d="M42.672 39.1565H20.3434C19.015 39.1565 17.9553 40.2289 17.9553 41.5396C17.9553 42.8503 19.03 43.9227 20.3434 43.9227H42.672C44.0004 43.9227 45.0601 42.8503 45.0601 41.5396C45.0601 40.2289 44.0004 39.1565 42.672 39.1565Z" fill="#4EBDF7"/>
<path d="M31.5078 0C14.1345 0 0 14.1047 0 31.4415C0 35.3735 0.731352 39.2311 2.1642 42.9099C3.28362 45.7249 4.76125 48.3165 6.56724 50.6251L2.26868 60.6786C1.92539 61.4829 2.0448 62.4063 2.59704 63.0915C3.05974 63.6723 3.74631 64 4.47766 64C4.61199 64 4.74632 63.9851 4.89558 63.9702L21.1644 61.1403C24.4182 62.3021 27.9108 62.8978 31.5227 62.8978C48.8961 62.8978 63.0306 48.7931 63.0306 31.4564C63.0306 14.1196 48.8811 0 31.5078 0ZM31.5078 58.1019C28.2391 58.1019 25.1197 57.5359 22.2391 56.4338C21.8361 56.2848 21.3883 56.2402 20.9704 56.3146L8.40308 58.5041L11.5374 51.1613C11.8957 50.3272 11.7464 49.3442 11.1494 48.6591C9.25383 46.4696 7.73143 43.9525 6.62694 41.1524C5.41797 38.0545 4.7911 34.7778 4.7911 31.4415C4.7911 16.741 16.7763 4.78101 31.5078 4.78101C46.2393 4.78101 58.2245 16.741 58.2245 31.4415C58.2245 46.142 46.2393 58.1019 31.5078 58.1019Z" fill="#4EBDF7"/>
</svg>
