<svg width="66" height="58" viewBox="0 0 66 58" fill="none" xmlns="http://www.w3.org/2000/svg">
<g clip-path="url(#clip0)">
<path d="M52.2365 58H13.7523C12.3715 58 11.2468 56.8673 11.2468 55.4768C11.2468 54.0862 12.3715 52.9536 13.7523 52.9536H52.2477C53.6285 52.9536 54.7532 54.0862 54.7532 55.4768C54.7532 56.8673 53.6173 58 52.2365 58Z" fill="#54BEF5"/>
<path d="M49.4416 57.7196H16.5474V33.0147C16.5474 24.6713 23.9302 17.8755 32.9945 17.8755C42.0588 17.8755 49.4416 24.6713 49.4416 33.0147V57.7196ZM21.0016 53.2339H44.9874V33.0147C44.9874 27.1384 39.6089 22.3612 32.9945 22.3612C26.38 22.3612 21.0016 27.1384 21.0016 33.0147V53.2339Z" fill="#54BEF5"/>
<path d="M25.7564 36.6817C24.5315 36.6817 23.5293 35.6725 23.5293 34.4389C23.5293 29.1794 27.7719 24.9068 32.9945 24.9068C34.2194 24.9068 35.2216 25.9161 35.2216 27.1496C35.2216 28.3832 34.2194 29.3925 32.9945 29.3925C30.2329 29.3925 27.9835 31.6578 27.9835 34.4389C27.9835 35.6837 26.9924 36.6817 25.7564 36.6817Z" fill="#54BEF5"/>
<path d="M33.4844 15.442C32.2595 15.442 31.2573 14.4327 31.2573 13.1991V2.24285C31.2573 1.00928 32.2595 0 33.4844 0C34.7093 0 35.7115 1.00928 35.7115 2.24285V13.1991C35.7115 14.4327 34.7093 15.442 33.4844 15.442Z" fill="#54BEF5"/>
<path d="M45.5886 18.7278C44.9539 18.7278 44.3192 18.4586 43.8849 17.9315C43.0943 16.9783 43.2168 15.5653 44.1633 14.7691L52.4926 7.7266C53.4391 6.93039 54.8422 7.05374 55.6328 8.00695C56.4235 8.96016 56.301 10.3732 55.3544 11.1694L47.0251 18.2119C46.602 18.5483 46.1009 18.7278 45.5886 18.7278Z" fill="#54BEF5"/>
<path d="M20.2332 18.9633C19.7321 18.9633 19.2198 18.7951 18.8078 18.4362L10.4785 11.3937C9.53196 10.5975 9.40947 9.18447 10.2001 8.23126C10.9907 7.27805 12.3938 7.15469 13.3403 7.9509L21.6696 14.9934C22.6161 15.7896 22.7386 17.2026 21.948 18.1559C21.5026 18.6829 20.8679 18.9633 20.2332 18.9633Z" fill="#54BEF5"/>
<path d="M52.9491 29.8971C51.8245 29.8971 50.8557 29.0336 50.7332 27.8786C50.6107 26.645 51.5015 25.546 52.7264 25.4227L63.5501 24.3124C64.7861 24.1779 65.8663 25.0862 65.9888 26.3198C66.1113 27.5534 65.2204 28.6524 63.9955 28.7757L53.1719 29.8859C53.0939 29.8859 53.0271 29.8971 52.9491 29.8971Z" fill="#54BEF5"/>
<path d="M13.0509 29.9083C12.973 29.9083 12.895 29.9083 12.8171 29.8971L2.00451 28.7757C0.779608 28.6524 -0.111231 27.5534 0.0112596 26.3198C0.13375 25.0862 1.21389 24.1779 2.44993 24.3124L13.2736 25.4227C14.4985 25.546 15.3894 26.645 15.2669 27.8786C15.1444 29.0449 14.1756 29.9083 13.0509 29.9083Z" fill="#54BEF5"/>
</g>
<defs>
<clipPath id="clip0">
<rect width="66" height="58" fill="white"/>
</clipPath>
</defs>
</svg>
