<svg width="35" height="30" viewBox="0 0 35 30" fill="none" xmlns="http://www.w3.org/2000/svg">
<path d="M1.33049 15.7418C1.32906 14.8556 1.58965 13.989 2.07929 13.2515C2.56893 12.514 3.26562 11.9388 4.08119 11.5987C4.89676 11.2585 5.79457 11.1688 6.66099 11.3408C7.52741 11.5128 8.32351 11.9388 8.94855 12.5649C9.57358 13.191 9.99947 13.989 10.1723 14.858C10.3451 15.727 10.2572 16.628 9.91951 17.4468C9.58185 18.2656 9.00968 18.9656 8.27541 19.458C7.54114 19.9505 6.67778 20.2134 5.79456 20.2134C4.61187 20.2134 3.47752 19.7425 2.64056 18.9041C1.80359 18.0658 1.33242 16.9284 1.33049 15.7418ZM20.859 6.6046e-05C19.6256 -0.00622452 18.432 0.437037 17.5 1.24744C16.568 0.437037 15.3744 -0.00622452 14.141 6.6046e-05C13.5964 0.000868784 13.0574 0.110911 12.5558 0.323724C12.0541 0.536537 11.6 0.847825 11.2199 1.23929C10.8399 1.63075 10.5418 2.09449 10.343 2.60323C10.1442 3.11198 10.0487 3.65547 10.0623 4.20175C10.0623 5.81386 10.9857 8.95053 17.1946 11.8027C17.2903 11.8472 17.3945 11.8702 17.5 11.8702C17.6055 11.8702 17.7097 11.8472 17.8054 11.8027C24.0143 8.95053 24.9377 5.81386 24.9377 4.20175C24.9513 3.65547 24.8558 3.11198 24.657 2.60323C24.4582 2.09449 24.1601 1.63075 23.7801 1.23929C23.4 0.847825 22.9459 0.536537 22.4442 0.323724C21.9426 0.110911 21.4036 0.000868784 20.859 6.6046e-05ZM17.5 22.161C18.1917 22.161 18.8678 21.9553 19.4429 21.5697C20.018 21.1842 20.4662 20.6362 20.7309 19.9951C20.9956 19.3539 21.0648 18.6484 20.9299 17.9678C20.795 17.2872 20.4619 16.662 19.9728 16.1713C19.4837 15.6806 18.8606 15.3464 18.1822 15.2111C17.5039 15.0757 16.8007 15.1452 16.1617 15.4107C15.5227 15.6763 14.9765 16.126 14.5923 16.703C14.208 17.28 14.0029 17.9584 14.0029 18.6523C14.0048 19.5823 14.3739 20.4736 15.0293 21.1312C15.6847 21.7888 16.5731 22.1591 17.5 22.161ZM18.4233 22.6717H16.5767C15.6966 22.6667 14.8484 23.0018 14.208 23.6076C13.5677 24.2134 13.1844 25.0433 13.1377 25.925L12.9778 28.9231H22.0004L21.8623 25.925C21.812 25.0459 21.4271 24.2196 20.7872 23.6169C20.1472 23.0142 19.3011 22.6811 18.4233 22.6862V22.6717ZM24.7705 16.8506V19.5058C24.7705 19.6993 24.8471 19.8848 24.9834 20.0216C25.1198 20.1584 25.3047 20.2353 25.4975 20.2353H32.9425C33.1353 20.2353 33.3202 20.1584 33.4566 20.0216C33.5929 19.8848 33.6695 19.6993 33.6695 19.5058V16.8506C33.6695 15.6834 33.7277 13.7358 32.4771 12.4738C32.039 12.0671 31.5231 11.7539 30.9607 11.5532C30.3983 11.3526 29.8011 11.2687 29.2054 11.3067C28.6107 11.2671 28.0142 11.3503 27.4528 11.5511C26.8913 11.7518 26.3768 12.0658 25.941 12.4738C24.6905 13.7139 24.7268 15.6616 24.7705 16.8506ZM7.03781 21.4097H4.54404C3.42629 21.4081 2.35058 21.837 1.53887 22.608C0.727155 23.379 0.241374 24.4332 0.181762 25.553L0 29.3243H11.5818L11.3855 25.553C11.3261 24.4357 10.8423 23.3836 10.0337 22.613C9.2251 21.8424 8.15304 21.4118 7.03781 21.4097ZM34.8037 25.553C34.7441 24.4332 34.2583 23.379 33.4466 22.608C32.6349 21.837 31.5592 21.4081 30.4414 21.4097H27.9622C26.8444 21.4081 25.7687 21.837 24.957 22.608C24.1453 23.379 23.6595 24.4332 23.5999 25.553L23.4036 29.3243H35L34.8037 25.553Z" fill="#CC8ABD"/>
</svg>
