<svg width="73" height="61" viewBox="0 0 73 61" fill="none" xmlns="http://www.w3.org/2000/svg">
<g clip-path="url(#clip0)">
<path d="M45.3153 2.98699C43.6514 1.34811 40.9696 1.35692 39.3234 3.01343L36.6771 5.67441L34.1015 3.12797C32.4376 1.48909 29.7559 1.4979 28.1097 3.15441C26.4634 4.81091 26.4723 7.48071 28.1362 9.1196L36.739 17.6224L42.7043 11.6308L42.6866 11.6132L45.333 8.95218C46.988 7.29568 46.9792 4.62588 45.3153 2.98699Z" stroke="#4EBDF7" stroke-width="4" stroke-miterlimit="10" stroke-linecap="round"/>
<path d="M36.5797 42.0735C41.3651 42.0735 45.2444 38.2115 45.2444 33.4474C45.2444 28.6833 41.3651 24.8212 36.5797 24.8212C31.7943 24.8212 27.9149 28.6833 27.9149 33.4474C27.9149 38.2115 31.7943 42.0735 36.5797 42.0735Z" fill="white"/>
<path d="M36.5797 43.827C30.8268 43.827 26.1448 39.1658 26.1448 33.4386C26.1448 27.7113 30.8268 23.0501 36.5797 23.0501C42.3326 23.0501 47.0146 27.7113 47.0146 33.4386C47.0146 39.1658 42.3326 43.827 36.5797 43.827ZM36.5797 26.5834C32.7827 26.5834 29.685 29.6585 29.685 33.4474C29.685 37.2362 32.7739 40.3113 36.5797 40.3113C40.3854 40.3113 43.4743 37.2362 43.4743 33.4474C43.4743 29.6585 40.3766 26.5834 36.5797 26.5834Z" fill="#4EBDF7"/>
<path d="M58.0955 48.0651C52.3426 48.0651 47.6606 43.404 47.6606 37.6767C47.6606 31.9494 52.3426 27.2971 58.0955 27.2971C63.8484 27.2971 68.5304 31.9582 68.5304 37.6767C68.5304 43.3952 63.8484 48.0651 58.0955 48.0651ZM58.0955 30.8216C54.2986 30.8216 51.2009 33.8967 51.2009 37.6767C51.2009 41.4567 54.2898 44.5407 58.0955 44.5407C61.9013 44.5407 64.9902 41.4655 64.9902 37.6767C64.9813 33.8967 61.8925 30.8216 58.0955 30.8216Z" fill="#4EBDF7"/>
<path d="M71.2298 59.2377C71.2298 52.0919 65.415 46.3029 58.2371 46.3029C51.0593 46.3029 45.2444 52.0919 45.2444 59.2377H71.2298Z" fill="white"/>
<path d="M72.9999 61H43.4742V59.2378C43.4742 51.1314 50.0945 44.5406 58.2371 44.5406C66.3797 44.5406 72.9999 51.1314 72.9999 59.2378V61ZM47.1473 57.4755H69.3181C68.4684 52.1447 63.8218 48.0651 58.2371 48.0651C52.6523 48.0651 48.0058 52.1447 47.1473 57.4755Z" fill="#4EBDF7"/>
<path d="M14.6213 48.0651C8.86839 48.0651 4.1864 43.404 4.1864 37.6767C4.1864 31.9494 8.86839 27.2971 14.6213 27.2971C20.3742 27.2971 25.0562 31.9582 25.0562 37.6767C25.0562 43.3952 20.3742 48.0651 14.6213 48.0651ZM14.6213 30.8216C10.8244 30.8216 7.72665 33.8967 7.72665 37.6767C7.72665 41.4567 10.8155 44.5407 14.6213 44.5407C18.4271 44.5407 21.5159 41.4655 21.5159 37.6767C21.5159 33.8967 18.4271 30.8216 14.6213 30.8216Z" fill="#4EBDF7"/>
<path d="M27.7555 59.2377C27.7555 52.0919 21.9406 46.3029 14.7627 46.3029C7.58488 46.3029 1.77002 52.0919 1.77002 59.2377H27.7555Z" fill="white"/>
<path d="M29.5257 61H0V59.2378C0 51.1314 6.62027 44.5406 14.7629 44.5406C22.9054 44.5406 29.5257 51.1314 29.5257 59.2378V61ZM3.68186 57.4755H25.8527C25.003 52.1447 20.3565 48.0651 14.7717 48.0651C9.1781 48.0651 4.53152 52.1447 3.68186 57.4755Z" fill="#4EBDF7"/>
<path d="M47.227 56.7618H25.773L25.3659 55.5723C24.888 54.1889 24.1445 52.9289 23.1621 51.8363L22.4629 51.061L22.8169 50.0741C24.9057 44.2323 30.4904 40.3113 36.7213 40.3113C42.7662 40.3113 48.2979 44.0737 50.484 49.6776L50.8911 50.7261L50.1123 51.5368C49.0059 52.6822 48.1474 54.0832 47.6341 55.5723L47.227 56.7618ZM28.2424 53.2373H44.7576C45.2798 52.0742 45.9525 50.9817 46.7579 49.9948C44.8727 46.2677 40.9607 43.827 36.7213 43.827C32.3136 43.827 28.322 46.4086 26.5165 50.3384C27.2068 51.2372 27.7821 52.2064 28.2424 53.2373Z" fill="#4EBDF7"/>
</g>
<defs>
<clipPath id="clip0">
<rect width="73" height="61" fill="white"/>
</clipPath>
</defs>
</svg>
