<svg width="839" height="565" viewBox="0 0 839 565" fill="none" xmlns="http://www.w3.org/2000/svg">
<rect width="839" height="565" fill="#C9D74A" fill-opacity="0.15"/>
<path d="M565.428 181.714C564.521 176.765 559.509 172.545 554.503 170.683C549.454 168.83 544.412 169.336 540.234 170.85C536.047 172.32 532.682 174.806 532.032 177.818C531.374 180.786 533.431 184.28 534.284 187.786C535.162 191.31 534.88 194.839 536.211 195.368C537.567 195.915 540.494 193.47 544.734 193.442C548.974 193.413 554.442 195.818 558.81 194.131C563.161 192.469 566.343 186.705 565.428 181.714Z" fill="#C9D74A" fill-opacity="0.15"/>
<path d="M631.593 442.279C627.887 442.31 624.172 445.505 622.168 449.004C620.164 452.535 619.872 456.371 620.424 459.692C620.942 463.013 622.305 465.854 624.404 466.733C626.469 467.613 629.271 466.532 631.925 466.353C634.594 466.157 637.116 466.829 637.673 465.903C638.247 464.961 636.857 462.454 637.391 459.28C637.924 456.107 640.383 452.334 639.73 448.848C639.094 445.379 635.331 442.247 631.593 442.279Z" fill="#C9D74A" fill-opacity="0.15"/>
<path d="M343.831 53.0319C340.811 52.3582 337.059 53.9324 333.87 56.6371C330.668 59.3281 328.029 63.1223 328.74 66.152C329.438 69.1681 333.487 71.3925 336.631 73.829C339.747 76.2657 341.932 78.8874 345.097 79.8198C348.262 80.7521 352.379 79.9954 354.65 77.5167C356.92 75.038 357.356 70.8508 356.513 67.6034C355.67 64.3286 353.549 61.9662 351.351 59.3309C349.153 56.6683 346.865 53.7192 343.831 53.0319Z" fill="#C9D74A" fill-opacity="0.15"/>
<path d="M773.246 59.4157C773.776 60.9781 773.874 62.6545 773.529 64.2674C773.303 65.9581 772.919 67.631 772.822 69.33C772.62 72.758 774.334 74.047 777.634 72.9927C778.639 72.6277 779.623 72.211 780.585 71.7443C781.941 71.0985 783.371 70.6204 784.843 70.3205C785.759 70.0557 786.724 70.0126 787.66 70.1946C788.596 70.3767 789.476 70.7788 790.226 71.3678C790.976 71.9567 791.576 72.7156 791.976 73.5819C792.375 74.4482 792.564 75.3969 792.525 76.35C792.514 77.9523 792.353 79.55 792.042 81.1219C791.774 83.3096 790.655 85.786 792.801 87.427C794.946 89.0681 797.059 87.5025 799.102 86.6726C800.647 85.9527 802.267 85.4095 803.933 85.053C804.793 84.836 805.69 84.8134 806.56 84.9868C807.43 85.1602 808.25 85.5252 808.961 86.0554C809.672 86.5856 810.257 87.2676 810.672 88.0518C811.087 88.8361 811.322 89.7028 811.36 90.5891C811.424 92.4119 811.258 94.2354 810.867 96.0165C810.279 97.8613 810.33 99.8509 811.011 101.664C811.439 102.493 810.971 103.084 810.522 103.666C810.073 104.248 809.176 104.686 808.497 103.662C807.526 102.241 807.082 100.525 807.242 98.8124C807.391 97.3113 807.679 95.8381 807.858 94.3466C808.042 93.2996 808.137 92.2389 808.143 91.1757C808.184 90.7163 808.112 90.2537 807.933 89.8286C807.754 89.4034 807.473 89.0287 807.116 88.7372C806.758 88.4457 806.335 88.2463 805.882 88.1566C805.43 88.067 804.963 88.0896 804.521 88.2227C803.26 88.4414 802.035 88.8379 800.885 89.4004C799.634 90.0062 798.345 90.5299 797.026 90.9681C796.029 91.3924 794.938 91.5463 793.862 91.4146C792.787 91.2828 791.765 90.87 790.899 90.2176C790.033 89.5652 789.354 88.6963 788.93 87.6983C788.507 86.7002 788.353 85.6084 788.485 84.5325C788.512 82.8443 788.917 81.1612 789.112 79.4609C789.308 77.7606 790.052 75.4775 788.267 74.0504C786.481 72.6233 784.581 73.7294 782.793 74.3774C781.391 74.9014 780.071 75.6329 778.677 76.0774C773.322 77.8426 769.393 74.8737 769.725 69.2796C769.827 67.2529 770.327 65.2707 770.528 63.2427C770.972 59.2656 769.097 57.8098 765.373 59.1077C763.762 59.6641 762.235 60.4777 760.636 61.1035C758.975 61.8702 757.106 62.0614 755.324 61.6469C754.637 61.4768 753.623 61.3506 753.631 60.4966C753.64 59.6426 754.525 58.3109 755.361 58.4791C758.863 59.1698 761.484 56.9425 764.468 56.0015C768.648 54.668 771.809 55.8098 773.246 59.4157Z" fill="#C9D74A" fill-opacity="0.2"/>
<path d="M588.05 318.029C589.698 317.944 591.338 318.305 592.796 319.075C594.362 319.752 595.867 320.577 597.476 321.131C600.72 322.258 602.426 320.959 602.309 317.496C602.23 316.43 602.097 315.369 601.909 314.317C601.656 312.836 601.585 311.33 601.696 309.832C601.69 308.879 601.911 307.938 602.341 307.087C602.77 306.236 603.396 305.498 604.167 304.936C604.938 304.374 605.831 304.004 606.773 303.854C607.716 303.705 608.68 303.782 609.587 304.078C611.126 304.524 612.619 305.114 614.048 305.84C616.08 306.693 618.159 308.442 620.322 306.823C622.484 305.204 621.552 302.746 621.308 300.554C621.035 298.872 620.953 297.165 621.063 295.464C621.087 294.578 621.31 293.709 621.713 292.919C622.116 292.129 622.69 291.439 623.394 290.898C624.097 290.358 624.913 289.981 625.78 289.795C626.648 289.608 627.546 289.618 628.409 289.822C630.18 290.256 631.89 290.911 633.498 291.772C635.114 292.839 637.042 293.33 638.972 293.168C639.886 292.981 640.328 293.593 640.766 294.183C641.203 294.773 641.381 295.755 640.211 296.13C638.58 296.678 636.809 296.639 635.203 296.02C633.799 295.469 632.46 294.791 631.073 294.214C630.115 293.752 629.121 293.372 628.099 293.077C627.668 292.913 627.203 292.857 626.745 292.914C626.288 292.97 625.851 293.139 625.473 293.403C625.095 293.668 624.788 294.022 624.579 294.432C624.37 294.843 624.265 295.299 624.273 295.76C624.14 297.034 624.189 298.32 624.418 299.58C624.661 300.948 624.815 302.331 624.878 303.72C625.015 304.794 624.867 305.886 624.448 306.885C624.029 307.885 623.353 308.756 622.49 309.412C621.627 310.068 620.606 310.485 619.531 310.622C618.455 310.758 617.363 310.609 616.363 310.19C614.746 309.705 613.236 308.858 611.653 308.208C610.07 307.557 608.075 306.221 606.216 307.551C604.358 308.882 604.906 311.011 605.043 312.908C605.167 314.399 605.512 315.869 605.561 317.33C605.804 322.964 601.879 325.938 596.586 324.098C594.663 323.449 592.891 322.429 590.994 321.684C587.288 320.177 585.377 321.586 585.614 325.522C585.712 327.223 586.079 328.914 586.247 330.623C586.534 332.43 586.21 334.28 585.326 335.883C584.976 336.498 584.579 337.439 583.759 337.199C582.94 336.959 581.899 335.745 582.288 334.986C583.904 331.803 582.473 328.676 582.379 325.549C582.231 321.164 584.189 318.432 588.05 318.029Z" fill="#C9D74A" fill-opacity="0.2"/>
<path d="M46.3178 66.0726C47.9518 66.3006 49.4936 66.9659 50.7801 67.998C52.1896 68.9586 53.5117 70.0533 54.9866 70.9022C57.9589 72.6221 59.8802 71.6691 60.4198 68.2466C60.5444 67.1852 60.6142 66.1181 60.6288 65.0495C60.6605 63.5477 60.8752 62.0553 61.2681 60.6054C61.4425 59.6683 61.8375 58.7861 62.4203 58.0315C63.0032 57.2769 63.7573 56.6715 64.6204 56.2654C65.4835 55.8593 66.4309 55.6641 67.3844 55.6959C68.3379 55.7276 69.2702 55.9854 70.1043 56.448C71.5314 57.1767 72.8866 58.0383 74.1518 59.0212C75.986 60.2434 77.6969 62.3543 80.1264 61.1739C82.556 59.9935 82.1055 57.4027 82.2811 55.2044C82.3311 53.5013 82.5732 51.8093 83.0026 50.1604C83.1946 49.2949 83.5772 48.483 84.1226 47.7837C84.668 47.0844 85.3624 46.5153 86.1554 46.1177C86.9485 45.7202 87.8202 45.5042 88.7073 45.4854C89.5944 45.4666 90.4745 45.6455 91.2837 46.009C92.941 46.7708 94.4959 47.7375 95.9119 48.8865C97.2965 50.2399 99.0972 51.0876 101.023 51.2927C101.956 51.2824 102.274 51.9667 102.592 52.6288C102.911 53.2908 102.899 54.2893 101.68 54.4358C99.9743 54.666 98.242 54.2926 96.7831 53.3806C95.5085 52.5738 94.3215 51.655 93.0688 50.8258C92.2158 50.1914 91.3109 49.63 90.3635 49.1474C89.9715 48.9044 89.5257 48.7613 89.0654 48.7305C88.6051 48.6997 88.1442 48.7822 87.7233 48.9708C87.3023 49.1594 86.9341 49.4483 86.6509 49.8122C86.3677 50.1761 86.1782 50.6039 86.099 51.058C85.728 52.2836 85.5327 53.5556 85.5189 54.8359C85.4987 56.2258 85.3879 57.6128 85.1873 58.9883C85.1189 60.0694 84.7667 61.1135 84.1661 62.0155C83.5656 62.9174 82.7378 63.6454 81.7662 64.1262C80.7946 64.6069 79.7133 64.8235 78.6313 64.7541C77.5493 64.6847 76.5047 64.3317 75.6026 63.7308C74.1063 62.9486 72.7838 61.8317 71.3523 60.8936C69.9209 59.9554 68.2147 58.2659 66.1379 59.2206C64.0612 60.1753 64.1964 62.3701 63.973 64.2584C63.8117 65.7466 63.8728 67.2545 63.6445 68.6991C62.8178 74.2768 58.4008 76.4554 53.5514 73.6469C51.7861 72.6458 50.2393 71.3096 48.5174 70.2193C45.1626 68.0377 43.02 69.0597 42.508 72.97C42.2824 74.6586 42.3237 76.3886 42.1649 78.0986C42.1045 79.9267 41.4363 81.6827 40.2659 83.0892C39.8055 83.6267 39.2376 84.476 38.4783 84.085C37.719 83.694 36.9265 82.3051 37.452 81.6338C39.6414 78.8142 38.8274 75.4732 39.3263 72.3839C40.0112 68.0501 42.4505 65.7381 46.3178 66.0726Z" fill="#C9D74A" fill-opacity="0.2"/>
<circle cx="776.5" cy="337.5" r="8.5" fill="#C9D74A" fill-opacity="0.2"/>
<circle cx="58" cy="244" r="8" fill="#C9D74A" fill-opacity="0.2"/>
<path d="M727.705 243.168L748.303 213.865L763.381 246.355L727.705 243.168Z" fill="#C9D74A" fill-opacity="0.15"/>
<path d="M660.108 95.2813L633.921 74.097L665.36 62.0107L660.108 95.2813Z" fill="#C9D74A" fill-opacity="0.15"/>
<rect x="530" y="46.6748" width="8" height="22" transform="rotate(-56.5467 530 46.6748)" fill="#C9D74A" fill-opacity="0.15"/>
<rect x="718.569" y="410.132" width="8" height="22" transform="rotate(-124.829 718.569 410.132)" fill="#C9D74A" fill-opacity="0.15"/>
<path d="M78.0334 389.031L52.6853 405.297L51.2724 375.212L78.0334 389.031Z" fill="#C9D74A" fill-opacity="0.15"/>
</svg>
