<svg width="798" height="565" viewBox="0 0 798 565" fill="none" xmlns="http://www.w3.org/2000/svg">
<rect width="840" height="565" fill="#CC8ABD" fill-opacity="0.15"/>
<path d="M615.428 174.792C614.521 169.919 609.509 165.762 604.503 163.929C599.454 162.104 594.412 162.602 590.234 164.093C586.047 165.541 582.682 167.99 582.032 170.956C581.374 173.879 583.431 177.319 584.284 180.772C585.162 184.243 584.88 187.718 586.211 188.239C587.567 188.777 590.494 186.37 594.734 186.342C598.974 186.314 604.442 188.683 608.81 187.02C613.161 185.384 616.343 179.708 615.428 174.792Z" fill="#CC8ABD" fill-opacity="0.15"/>
<path d="M385.593 362.464C381.887 362.494 378.172 365.641 376.168 369.086C374.165 372.565 373.872 376.342 374.424 379.612C374.942 382.883 376.305 385.681 378.404 386.547C380.469 387.414 383.271 386.349 385.925 386.172C388.594 385.979 391.116 386.641 391.673 385.73C392.247 384.802 390.857 382.332 391.391 379.207C391.924 376.082 394.383 372.366 393.73 368.934C393.094 365.517 389.331 362.432 385.593 362.464Z" fill="#CC8ABD" fill-opacity="0.15"/>
<path d="M343.831 46.1252C340.811 45.4617 337.059 47.012 333.87 49.6756C330.668 52.3258 328.029 56.0624 328.74 59.0461C329.438 62.0164 333.487 64.207 336.631 66.6066C339.747 69.0063 341.932 71.5882 345.097 72.5064C348.262 73.4247 352.379 72.6794 354.65 70.2383C356.92 67.7972 357.356 63.6736 356.513 60.4755C355.67 57.2504 353.549 54.9239 351.351 52.3286C349.153 49.7063 346.865 46.8021 343.831 46.1252Z" fill="#CC8ABD" fill-opacity="0.15"/>
<path d="M762.246 128.416C762.776 129.978 762.874 131.655 762.529 133.267C762.303 134.958 761.919 136.631 761.822 138.33C761.62 141.758 763.334 143.047 766.634 141.993C767.639 141.628 768.623 141.211 769.585 140.744C770.941 140.098 772.371 139.62 773.843 139.321C774.759 139.056 775.724 139.013 776.66 139.195C777.596 139.377 778.476 139.779 779.226 140.368C779.976 140.957 780.576 141.716 780.976 142.582C781.375 143.448 781.564 144.397 781.525 145.35C781.514 146.952 781.353 148.55 781.042 150.122C780.774 152.31 779.655 154.786 781.801 156.427C783.946 158.068 786.059 156.503 788.102 155.673C789.647 154.953 791.267 154.409 792.933 154.053C793.793 153.836 794.69 153.813 795.56 153.987C796.43 154.16 797.25 154.525 797.961 155.055C798.672 155.586 799.257 156.268 799.672 157.052C800.087 157.836 800.322 158.703 800.36 159.589C800.424 161.412 800.258 163.235 799.867 165.016C799.279 166.861 799.33 168.851 800.011 170.664C800.439 171.493 799.971 172.084 799.522 172.666C799.073 173.248 798.176 173.686 797.497 172.662C796.526 171.241 796.082 169.525 796.242 167.812C796.391 166.311 796.679 164.838 796.858 163.347C797.042 162.3 797.137 161.239 797.143 160.176C797.184 159.716 797.112 159.254 796.933 158.829C796.754 158.403 796.473 158.029 796.116 157.737C795.758 157.446 795.335 157.246 794.882 157.157C794.43 157.067 793.963 157.09 793.521 157.223C792.26 157.441 791.035 157.838 789.885 158.4C788.634 159.006 787.345 159.53 786.026 159.968C785.029 160.392 783.938 160.546 782.862 160.415C781.787 160.283 780.765 159.87 779.899 159.218C779.033 158.565 778.354 157.696 777.93 156.698C777.507 155.7 777.353 154.608 777.485 153.533C777.512 151.844 777.917 150.161 778.112 148.461C778.308 146.761 779.052 144.478 777.267 143.05C775.481 141.623 773.581 142.729 771.793 143.377C770.391 143.901 769.071 144.633 767.677 145.077C762.322 146.843 758.393 143.874 758.725 138.28C758.827 136.253 759.327 134.271 759.528 132.243C759.972 128.266 758.097 126.81 754.373 128.108C752.762 128.664 751.235 129.478 749.636 130.103C747.975 130.87 746.106 131.061 744.324 130.647C743.637 130.477 742.623 130.351 742.631 129.497C742.64 128.643 743.525 127.311 744.361 127.479C747.863 128.17 750.484 125.943 753.468 125.001C757.648 123.668 760.809 124.81 762.246 128.416Z" fill="#CC8ABD" fill-opacity="0.15"/>
<path d="M569.05 333.029C570.698 332.944 572.338 333.305 573.796 334.075C575.362 334.752 576.867 335.577 578.476 336.131C581.72 337.258 583.426 335.959 583.309 332.496C583.23 331.43 583.097 330.369 582.909 329.317C582.656 327.836 582.585 326.33 582.696 324.832C582.69 323.879 582.911 322.938 583.341 322.087C583.77 321.236 584.396 320.498 585.167 319.936C585.938 319.374 586.831 319.004 587.773 318.854C588.716 318.705 589.68 318.782 590.587 319.078C592.126 319.524 593.619 320.114 595.048 320.84C597.08 321.693 599.159 323.442 601.322 321.823C603.484 320.204 602.552 317.746 602.308 315.554C602.035 313.872 601.953 312.165 602.063 310.464C602.087 309.578 602.31 308.709 602.713 307.919C603.116 307.129 603.69 306.439 604.394 305.898C605.097 305.358 605.913 304.981 606.78 304.795C607.648 304.608 608.546 304.618 609.409 304.822C611.18 305.256 612.89 305.911 614.498 306.772C616.114 307.839 618.042 308.33 619.972 308.168C620.886 307.981 621.328 308.593 621.766 309.183C622.203 309.773 622.381 310.755 621.211 311.13C619.58 311.678 617.809 311.639 616.203 311.02C614.799 310.469 613.46 309.791 612.073 309.214C611.115 308.752 610.121 308.372 609.099 308.077C608.668 307.913 608.203 307.857 607.745 307.914C607.288 307.97 606.851 308.139 606.473 308.403C606.095 308.668 605.788 309.022 605.579 309.432C605.37 309.843 605.265 310.299 605.273 310.76C605.14 312.034 605.189 313.32 605.418 314.58C605.661 315.948 605.815 317.331 605.878 318.72C606.015 319.794 605.867 320.886 605.448 321.885C605.029 322.885 604.353 323.756 603.49 324.412C602.627 325.068 601.606 325.485 600.531 325.622C599.455 325.758 598.363 325.609 597.363 325.19C595.746 324.705 594.236 323.858 592.653 323.208C591.07 322.557 589.075 321.221 587.216 322.551C585.358 323.882 585.906 326.011 586.043 327.908C586.167 329.399 586.512 330.869 586.561 332.33C586.804 337.964 582.879 340.938 577.586 339.098C575.663 338.449 573.891 337.429 571.994 336.684C568.288 335.177 566.377 336.586 566.614 340.522C566.712 342.223 567.079 343.914 567.247 345.623C567.534 347.43 567.21 349.28 566.326 350.883C565.976 351.498 565.579 352.439 564.759 352.199C563.94 351.959 562.899 350.745 563.288 349.986C564.904 346.803 563.473 343.676 563.379 340.549C563.231 336.164 565.189 333.432 569.05 333.029Z" fill="#CC8ABD" fill-opacity="0.15"/>
<path d="M238.538 420.278C237.559 418.951 236.956 417.383 236.794 415.742C236.495 414.063 236.353 412.352 235.929 410.704C235.08 407.377 233.055 406.67 230.231 408.677C229.385 409.33 228.574 410.026 227.8 410.763C226.704 411.791 225.487 412.681 224.176 413.414C223.384 413.944 222.477 414.279 221.53 414.39C220.583 414.501 219.623 414.385 218.729 414.052C217.835 413.719 217.033 413.178 216.389 412.475C215.745 411.771 215.278 410.924 215.025 410.004C214.548 408.475 214.216 406.903 214.034 405.312C213.625 403.146 213.938 400.447 211.395 399.535C208.852 398.624 207.315 400.757 205.621 402.169C204.369 403.324 202.99 404.334 201.511 405.18C200.758 405.648 199.91 405.943 199.029 406.042C198.147 406.141 197.255 406.042 196.416 405.754C195.577 405.465 194.813 404.992 194.18 404.371C193.546 403.75 193.058 402.996 192.752 402.164C192.138 400.446 191.742 398.659 191.573 396.843C191.572 394.907 190.919 393.027 189.719 391.506C189.06 390.847 189.326 390.141 189.577 389.45C189.828 388.76 190.549 388.07 191.507 388.839C192.864 389.897 193.808 391.397 194.177 393.078C194.491 394.553 194.664 396.044 194.948 397.519C195.091 398.573 195.322 399.612 195.639 400.627C195.74 401.077 195.949 401.496 196.249 401.846C196.549 402.197 196.93 402.469 197.359 402.638C197.789 402.807 198.253 402.868 198.711 402.816C199.169 402.764 199.607 402.6 199.987 402.339C201.123 401.747 202.169 400.998 203.094 400.112C204.101 399.155 205.17 398.264 206.294 397.446C207.115 396.739 208.107 396.26 209.172 396.059C210.237 395.857 211.336 395.94 212.359 396.299C213.382 396.657 214.293 397.278 215 398.1C215.707 398.922 216.185 399.916 216.386 400.981C216.874 402.598 217 404.324 217.33 406.003C217.661 407.683 217.646 410.084 219.781 410.901C221.915 411.718 223.39 410.086 224.896 408.926C226.072 408 227.108 406.902 228.3 406.055C232.865 402.746 237.511 404.38 238.895 409.811C239.413 411.773 239.54 413.813 239.964 415.806C240.751 419.73 242.98 420.547 246.133 418.179C247.498 417.159 248.706 415.92 250.039 414.838C251.388 413.602 253.111 412.852 254.935 412.705C255.641 412.659 256.645 412.471 256.897 413.287C257.148 414.103 256.709 415.641 255.862 415.735C252.315 416.141 250.496 419.059 247.939 420.863C244.362 423.404 241.004 423.277 238.538 420.278Z" fill="#CC8ABD" fill-opacity="0.15"/>
<path d="M46.3178 66.0726C47.9517 66.3006 49.4936 66.9659 50.78 67.998C52.1895 68.9586 53.5117 70.0533 54.9866 70.9022C57.9588 72.6221 59.8801 71.6691 60.4197 68.2466C60.5444 67.1852 60.6142 66.1181 60.6287 65.0495C60.6605 63.5477 60.8752 62.0553 61.2681 60.6054C61.4425 59.6683 61.8374 58.7861 62.4203 58.0315C63.0031 57.2769 63.7572 56.6715 64.6203 56.2654C65.4835 55.8593 66.4308 55.6641 67.3843 55.6959C68.3378 55.7276 69.2701 55.9854 70.1042 56.448C71.5313 57.1767 72.8865 58.0383 74.1517 59.0212C75.986 60.2434 77.6968 62.3543 80.1264 61.1739C82.5559 59.9935 82.1054 57.4027 82.281 55.2044C82.3311 53.5013 82.5731 51.8093 83.0026 50.1604C83.1946 49.2949 83.5772 48.483 84.1225 47.7837C84.6679 47.0844 85.3623 46.5153 86.1554 46.1177C86.9484 45.7202 87.8202 45.5042 88.7073 45.4854C89.5943 45.4666 90.4745 45.6455 91.2837 46.009C92.9409 46.7708 94.4958 47.7375 95.9119 48.8865C97.2965 50.2399 99.0972 51.0876 101.023 51.2927C101.956 51.2824 102.274 51.9667 102.592 52.6288C102.911 53.2908 102.899 54.2893 101.68 54.4358C99.9742 54.666 98.2419 54.2926 96.783 53.3806C95.5084 52.5738 94.3214 51.655 93.0688 50.8258C92.2158 50.1914 91.3108 49.63 90.3635 49.1474C89.9714 48.9044 89.5257 48.7613 89.0653 48.7305C88.605 48.6997 88.1442 48.7822 87.7232 48.9708C87.3022 49.1594 86.934 49.4483 86.6508 49.8122C86.3676 50.1761 86.1781 50.6039 86.0989 51.058C85.728 52.2836 85.5327 53.5556 85.5189 54.8359C85.4986 56.2258 85.3878 57.6128 85.1872 58.9883C85.1189 60.0694 84.7666 61.1135 84.1661 62.0155C83.5655 62.9174 82.7378 63.6454 81.7662 64.1262C80.7945 64.6069 79.7133 64.8235 78.6313 64.7541C77.5492 64.6847 76.5047 64.3317 75.6026 63.7308C74.1062 62.9486 72.7837 61.8317 71.3523 60.8936C69.9208 59.9554 68.2146 58.2659 66.1379 59.2206C64.0611 60.1753 64.1963 62.3701 63.9729 64.2584C63.8117 65.7466 63.8728 67.2545 63.6444 68.6991C62.8178 74.2768 58.4008 76.4554 53.5513 73.6469C51.7861 72.6458 50.2392 71.3096 48.5174 70.2193C45.1626 68.0377 43.02 69.0597 42.508 72.97C42.2823 74.6586 42.3236 76.3886 42.1648 78.0986C42.1045 79.9267 41.4363 81.6827 40.2658 83.0892C39.8055 83.6267 39.2375 84.476 38.4782 84.085C37.7189 83.694 36.9264 82.3051 37.4519 81.6338C39.6413 78.8142 38.8273 75.4732 39.3262 72.3839C40.0112 68.0501 42.4504 65.7381 46.3178 66.0726Z" fill="#CC8ABD" fill-opacity="0.15"/>
<circle cx="561.5" cy="402.5" r="16.5" fill="#CC8ABD" fill-opacity="0.15"/>
<circle cx="58" cy="244" r="8" fill="#CC8ABD" fill-opacity="0.15"/>
<path d="M735.975 291.826L750.114 271.712L760.463 294.013L735.975 291.826Z" fill="#CC8ABD" fill-opacity="0.15"/>
<path d="M739.975 432.826L754.113 412.712L764.463 435.013L739.975 432.826Z" fill="#CC8ABD" fill-opacity="0.15"/>
<path d="M660.108 95.2813L633.921 74.097L665.36 62.0107L660.108 95.2813Z" fill="#CC8ABD" fill-opacity="0.15"/>
<path d="M78.0335 389.031L52.6854 405.297L51.2725 375.212L78.0335 389.031Z" fill="#CC8ABD" fill-opacity="0.15"/>
<rect x="441.686" y="437.642" width="8" height="22" transform="rotate(-51.0273 441.686 437.642)" fill="#CC8ABD" fill-opacity="0.15"/>
<rect x="241.787" y="57.4741" width="8" height="22" transform="rotate(-133.201 241.787 57.4741)" fill="#CC8ABD" fill-opacity="0.15"/>
</svg>
