<svg width="24" height="44" viewBox="0 0 24 44" fill="none" xmlns="http://www.w3.org/2000/svg">
<path d="M2.64115 0.800003C3.4067 0.800003 4.01914 1.02919 4.47847 1.48757L23.1962 20.0519C23.7321 20.6631 24 21.3124 24 22C24 22.6876 23.7321 23.2987 23.1962 23.8335L4.47847 42.3978C3.94258 42.9326 3.33014 43.2 2.64115 43.2C1.95215 43.2 1.33971 42.9326 0.803828 42.3978C0.267943 41.8631 0 41.2519 0 40.5643C0 39.8768 0.267943 39.2656 0.803828 38.7308L17.5694 22L0.803828 5.26919C0.267943 4.73442 0 4.08505 0 3.32108C0 2.55712 0.248804 1.94595 0.746412 1.48757C1.24402 1.02919 1.8756 0.800003 2.64115 0.800003Z" fill="#54BEF5"/>
</svg>
