<svg width="30" height="31" viewBox="0 0 30 31" fill="none" xmlns="http://www.w3.org/2000/svg">
<path d="M7.76706 11.6678C7.76706 15.6625 11.0055 18.901 15.0003 18.901C18.9951 18.901 22.2336 15.6625 22.2336 11.6678C22.2336 11.14 22.1736 10.6269 22.0664 10.1314L25.2179 8.27299V13.7643H24.9876C24.8664 13.7643 24.7684 13.8624 24.7684 13.9835V15.4896C24.7684 15.6107 24.8664 15.7088 24.9876 15.7088H25.8866C26.0077 15.7088 26.1058 15.6107 26.1058 15.4896V13.9835C26.1058 13.8624 26.0077 13.7643 25.8866 13.7643H25.6563V8.0145L26.7523 7.36819L15.0003 0L3.24829 7.36819L7.93423 10.1314C7.82689 10.6269 7.76706 11.14 7.76706 11.6678Z" fill="#FDA63B"/>
<path d="M0.344654 21.5495L14.8874 28.382C14.9173 28.3962 14.949 28.403 14.9807 28.403C14.9935 28.403 15.0056 28.403 15.0184 28.403C15.0501 28.403 15.0818 28.3962 15.1117 28.382L29.6545 21.5495C29.7135 21.5221 29.7572 21.469 29.7734 21.4061C29.7897 21.3427 29.7769 21.2755 29.7388 21.2228C27.6355 18.3198 23.9191 17.9954 19.0824 20.2677C17.239 21.1338 15.8669 22.0803 14.9996 23.0838C14.1322 22.0803 12.7602 21.1338 10.9167 20.2677C6.07956 17.9954 2.36317 18.3198 0.260316 21.2228C0.222217 21.2755 0.209386 21.3427 0.225663 21.4061C0.241907 21.469 0.285585 21.5221 0.344654 21.5495Z" fill="#FDA63B"/>
<path d="M29.9584 22.9189C29.8548 22.6993 29.5932 22.6051 29.3753 22.7083L15.0184 29.4535L0.62466 22.7083C0.404202 22.6051 0.143905 22.7002 0.0415841 22.9189C-0.061163 23.1385 0.0330191 23.3993 0.252198 23.502L14.8326 30.3346C14.8917 30.3624 14.9555 30.3761 15.0188 30.3761C15.0826 30.3761 15.1464 30.3624 15.2051 30.3346L29.7478 23.502C29.967 23.3988 30.0612 23.1377 29.9584 22.9189Z" fill="#FDA63B"/>
</svg>
