<svg width="80" height="80" viewBox="0 0 80 80" fill="none" xmlns="http://www.w3.org/2000/svg">
<circle cx="40" cy="40" r="40" fill="#22A5D8" fill-opacity="0.6"/>
<path d="M30.6411 19.2C31.4067 19.2 32.0191 19.4291 32.4785 19.8875L51.1962 38.4518C51.7321 39.063 52 39.7124 52 40.4C52 41.0875 51.7321 41.6987 51.1962 42.2335L32.4785 60.7978C31.9426 61.3326 31.3301 61.5999 30.6411 61.5999C29.9522 61.5999 29.3397 61.3326 28.8038 60.7978C28.2679 60.263 28 59.6518 28 58.9643C28 58.2767 28.2679 57.6655 28.8038 57.1308L45.5694 40.4L28.8038 23.6691C28.2679 23.1344 28 22.485 28 21.721C28 20.9571 28.2488 20.3459 28.7464 19.8875C29.244 19.4291 29.8756 19.2 30.6411 19.2Z" fill="white"/>
</svg>
