<svg width="68" height="59" viewBox="0 0 68 59" fill="none" xmlns="http://www.w3.org/2000/svg">
<path d="M25.5 0C11.4412 0 0 9.44933 0 21.0714C0 27.2106 3.16176 32.9123 8.73529 36.9516L6.58824 41.195C6.19118 41.9825 6.32353 42.9449 6.94118 43.5865C7.35294 44.0094 7.91176 44.2427 8.48529 44.2427C8.76471 44.2427 9.04412 44.1844 9.32353 44.0677L16.8382 40.8742C20.3676 41.9387 24.1176 42.2449 27.8824 42.0408C29.0588 41.9825 29.9559 40.9909 29.8971 39.8243C29.8382 38.6577 28.7206 37.7098 27.6618 37.8411C24.1471 38.0161 20.6471 37.7098 17.3971 36.6307C16.8971 36.4703 16.3676 36.4995 15.8824 36.6891L12.9706 37.9286L13.3824 37.1849C13.8676 36.2224 13.5294 35.0267 12.6029 34.458C7.29412 31.177 4.25 26.2919 4.25 21.0714C4.25 11.7679 13.7794 4.21429 25.5 4.21429C37.2206 4.21429 46.75 11.7679 46.75 21.0714C46.75 21.6985 46.7206 22.2963 46.6176 22.8942C46.4118 24.0462 47.1765 25.1399 48.3382 25.344C49.5147 25.5628 50.5882 24.7899 50.8088 23.6379C50.9559 22.7921 51.0147 21.9609 51.0147 21.0714C51 9.44933 39.5588 0 25.5 0Z" fill="#4EBDF7"/>
<path d="M60.7941 50.5277C65.3382 47.3487 68 42.7553 68 37.9285C68 28.625 58.4706 21.0714 46.75 21.0714C35.0294 21.0714 25.5 28.625 25.5 37.9285C25.5 48.2237 37.0588 56.5356 50.5882 54.494L60.7794 58.825C61.0441 58.9416 61.3382 59 61.6177 59C62.1912 59 62.75 58.7667 63.1618 58.3292C63.7794 57.6876 63.9118 56.7397 63.5147 55.9377L60.7941 50.5277ZM56.9853 47.9466C56.0147 48.5007 55.6324 49.711 56.1324 50.7172L57.1176 52.6858L51.6912 50.3673C51.4265 50.2506 51.1324 50.1923 50.8529 50.1923C50.7353 50.1923 50.6177 50.2068 50.4853 50.2214C49.1765 50.4547 47.9559 50.5568 46.7353 50.5568C37.3529 50.5568 29.7353 44.8843 29.7353 37.914C29.7353 30.9436 37.3529 25.2711 46.7353 25.2711C56.1176 25.2711 63.7353 30.9436 63.7353 37.914C63.75 41.8512 61.2794 45.5113 56.9853 47.9466Z" fill="#4EBDF7"/>
<path d="M17.0882 12.6428H17.0441C15.8676 12.6428 14.9412 13.5907 14.9412 14.7427C14.9412 15.8947 15.9118 16.8425 17.0882 16.8425C18.2647 16.8425 19.2059 15.8947 19.2059 14.7427C19.2059 13.5907 18.25 12.6428 17.0882 12.6428Z" fill="#4EBDF7"/>
<path d="M34.0882 12.6428H34.0441C32.8676 12.6428 31.9412 13.5907 31.9412 14.7427C31.9412 15.8947 32.9118 16.8425 34.0882 16.8425C35.2647 16.8425 36.2059 15.8947 36.2059 14.7427C36.2059 13.5907 35.25 12.6428 34.0882 12.6428Z" fill="#4EBDF7"/>
<path d="M40.4559 31.5998H40.4118C39.2353 31.5998 38.3088 32.5477 38.3088 33.6997C38.3088 34.8517 39.2794 35.7995 40.4559 35.7995C41.6324 35.7995 42.5735 34.8517 42.5735 33.6997C42.5735 32.5477 41.6324 31.5998 40.4559 31.5998Z" fill="#4EBDF7"/>
<path d="M53.2059 31.5998H53.1618C51.9853 31.5998 51.0588 32.5477 51.0588 33.6997C51.0588 34.8517 52.0294 35.7995 53.2059 35.7995C54.3824 35.7995 55.3235 34.8517 55.3235 33.6997C55.3235 32.5477 54.3824 31.5998 53.2059 31.5998Z" fill="#4EBDF7"/>
</svg>
