<svg width="713" height="530" viewBox="0 0 713 530" fill="none" xmlns="http://www.w3.org/2000/svg">
<mask id="mask0" mask-type="alpha" maskUnits="userSpaceOnUse" x="0" y="0" width="713" height="522">
<rect x="0.305664" width="712.389" height="522" fill="#C4C4C4"/>
</mask>
<g mask="url(#mask0)">
<path d="M333.365 511.906C333.365 511.906 357.168 682.436 356.579 739.593C356.107 782.519 337.607 901.773 333.954 924.824C333.601 927.058 335.015 929.175 337.254 929.646C345.62 931.41 364.827 934.82 369.187 929.293C384.387 910.123 409.486 795.691 419.502 747.355C431.757 688.787 444.483 500.968 444.483 500.968L333.365 511.906Z" fill="#35488B"/>
<path d="M351.512 662.208L433.289 523.549L442.952 509.554L357.168 513.67L347.506 625.515L351.512 662.208Z" fill="#2C3A64"/>
<path d="M266.671 500.968C266.671 500.968 251.235 674.438 251.706 732.771C252.177 793.692 285.524 927.646 305.556 943.288C311.094 947.639 326.413 943.17 328.534 936.467C335.957 913.18 320.168 791.928 322.76 744.062C326.177 681.377 382.266 508.142 382.266 508.142L266.671 500.968Z" fill="#35488B"/>
<path d="M655.994 173.551C655.994 173.551 664.242 143.678 671.077 141.562C676.851 139.915 699.71 143.326 666.953 179.666L655.994 173.551Z" fill="#FFC190"/>
<path d="M41.3706 139.68C41.3706 139.68 34.1827 109.455 27.4661 107.103C21.6922 105.338 -1.4033 107.926 30.1763 145.442L41.3706 139.68Z" fill="#FFC190"/>
<path d="M250.998 274.928C250.998 274.928 154.021 303.506 121.145 291.04C77.1925 274.222 26.9951 144.267 26.9951 144.267L40.4282 136.034C40.4282 136.034 97.8135 230.237 132.693 241.528C162.505 251.171 251.352 216.948 251.352 216.948C251.352 216.948 290.944 202.364 298.603 229.414C298.721 229.532 278.1 265.167 250.998 274.928Z" fill="#51B0DA"/>
<path d="M440.946 286.806C440.946 286.806 538.277 337.848 571.625 326.557C616.048 311.386 670.134 176.609 670.134 176.609L657.054 167.788C657.054 167.788 596.841 258.345 561.727 268.812C531.561 277.868 469.462 252.347 444.599 235.177C433.994 227.768 404.182 224.945 395.58 251.759C395.58 251.759 414.08 275.986 440.946 286.806Z" fill="#51B0DA"/>
<path d="M266.198 535.193C266.198 535.193 463.453 536.486 450.726 519.316C438.825 503.086 436.468 416.057 435.172 379.364C433.994 343.964 464.984 274.929 449.548 241.293C446.249 234.119 422.564 215.89 387.803 210.48C382.854 209.657 277.039 208.245 255.004 215.772C238.86 221.3 259.481 338.672 266.905 403.591C270.44 434.874 265.02 498.617 263.841 522.256C263.723 527.313 261.249 536.251 266.198 535.193Z" fill="#51B0DA"/>
<path d="M339.845 183.312L333.6 217.065C333.6 217.065 386.625 241.645 379.673 225.768C373.192 210.832 366.475 180.842 366.475 180.842L339.845 183.312Z" fill="#FFC190"/>
<path d="M330.183 124.743C327.237 135.328 321.345 155.909 328.533 168.493C335.721 181.195 346.915 204.01 362.705 208.009C378.613 212.008 386.036 197.542 387.804 191.191C390.632 180.959 387.804 125.449 361.88 114.747C342.32 106.749 332.422 116.746 330.183 124.743Z" fill="#FFC190"/>
<path d="M372.957 123.803C372.957 123.803 363.295 135.681 345.973 133.329C328.534 130.977 332.54 147.442 332.776 149.323C333.011 151.205 338.549 174.726 332.776 175.785C326.884 176.843 315.69 147.912 322.171 127.096C328.416 106.162 360.231 99.8107 372.957 123.803Z" fill="#2C3A64"/>
</g>
</svg>
