<svg width="347" height="376" viewBox="0 0 347 376" fill="none" xmlns="http://www.w3.org/2000/svg">
<path d="M155 374.014C251.607 374.014 298.931 352.205 322.313 317.001C334.039 299.346 339.853 278.173 342.721 254.332C345.505 231.195 345.502 205.67 345.5 178.539C345.5 177.699 345.5 176.857 345.5 176.014C345.5 120.259 327.618 76.6966 294.991 47.0582C262.345 17.4013 214.747 1.51427 155 1.51427C152.768 1.51427 150.55 1.51072 148.348 1.50719C129 1.47622 110.823 1.44713 94.2292 3.84263C75.7852 6.50524 59.4417 12.1482 45.8037 24.0207C18.4933 47.7955 1.5 97.0337 1.5 199.515C1.5 263.625 11.8786 307.148 36.0643 334.67C60.2024 362.138 98.4115 374.014 155 374.014Z" fill="white" stroke="#22A5D8" stroke-width="3"/>
</svg>
