<svg width="135" height="135" viewBox="0 0 135 135" fill="none" xmlns="http://www.w3.org/2000/svg">
<circle cx="67.5" cy="67.5" r="67.5" fill="#FDA63B"/>
<path d="M85.6197 60.6001L66.6697 65.7201C64.9997 66.1601 63.9997 67.8701 64.4397 69.5401C64.8797 71.2101 66.5897 72.2101 68.2597 71.7701L83.2997 67.8201" stroke="white" stroke-width="2.5" stroke-miterlimit="10"/>
<path d="M78.5098 83.29L86.1198 81.29" stroke="white" stroke-width="2.5" stroke-miterlimit="10"/>
<path d="M87.0298 73.7798L76.5098 76.3598" stroke="white" stroke-width="2.5" stroke-miterlimit="10"/>
<path d="M14.25 61.5098L33.84 66.2098C33.84 66.2098 41.38 62.3098 45.3 62.3498C49.22 62.3998 56.82 60.4698 56.82 60.4698C56.82 60.4698 61.99 59.0298 62.9 61.9298C63.81 64.8298 57.07 69.4598 51.25 68.4198L53.28 68.7998L74.56 73.9098C76.24 74.3098 77.27 75.9998 76.87 77.6798C76.47 79.3598 74.78 80.3898 73.1 79.9898L58.72 76.5398L55.04 75.6598L76.11 80.7198C77.79 81.1198 78.82 82.8098 78.42 84.4898C78.02 86.1698 76.33 87.1998 74.65 86.7998L52.65 81.5198L54.62 81.9898L70.88 85.8998C72.56 86.2998 73.59 87.9898 73.19 89.6698C72.79 91.3498 71.1 92.3798 69.42 91.9798L54.95 88.4998L53.01 88.0298L63.79 90.6198C65.47 91.0198 66.5 92.7098 66.1 94.3898C65.7 96.0698 64.01 97.0998 62.33 96.6998L46.07 92.7898C46.07 92.7898 38.94 91.2098 36.7 90.5398C36.08 90.3498 29.59 87.2298 28.28 82.0898C22.96 80.8098 16.52 79.2698 16.52 79.2698" stroke="white" stroke-width="2.5" stroke-miterlimit="10" stroke-linecap="round"/>
<path d="M122.37 52.1501L104.38 56.8101C104.38 56.8101 97.91 54.0001 94.46 54.5401C90.11 53.6901 81.04 51.9201 81.04 51.9201C81.04 51.9201 75.97 50.3601 75.16 53.4501C74.34 56.5301 76.22 58.9201 79.34 59.9001C82.47 60.8801 85.45 60.6501 85.45 60.6501C85.45 60.6501 85.95 65.3601 90.14 67.6801C94.33 70.0001 99.53 67.9301 99.53 67.9301" stroke="white" stroke-width="2.5" stroke-miterlimit="10" stroke-linecap="round"/>
<path d="M120.5 75.1802L109.44 78.0902C109.44 78.0902 107.22 84.5602 91.9703 88.4302L77.7203 92.5002L76.9203 92.7502L74.3103 93.4402C72.9303 93.8002 71.5103 93.1802 70.8203 92.0002" stroke="white" stroke-width="2.5" stroke-miterlimit="10" stroke-linecap="round"/>
<path d="M58.18 46.6898C57.62 46.9598 56.95 46.7298 56.68 46.1698L51.32 35.1198C51.05 34.5598 51.28 33.8898 51.84 33.6198C52.4 33.3498 53.07 33.5798 53.34 34.1398L58.7 45.1898C58.97 45.7398 58.74 46.4098 58.18 46.6898Z" fill="white" stroke="white" stroke-width="0.7795" stroke-miterlimit="10"/>
<path d="M70.0502 32.4301C69.4502 32.2701 68.8402 32.6301 68.6802 33.2301L65.5702 45.1001C65.4102 45.7001 65.7702 46.3101 66.3702 46.4701C66.9702 46.6301 67.5802 46.2701 67.7402 45.6701L70.8502 33.8001C71.0102 33.2001 70.6502 32.5801 70.0502 32.4301Z" fill="white" stroke="white" stroke-width="0.7795" stroke-miterlimit="10"/>
<path d="M37.5499 45.2301C37.2499 45.7701 37.4399 46.4501 37.9899 46.7601L48.7199 52.7201C49.2599 53.0201 49.9399 52.8301 50.2499 52.2801C50.5499 51.7401 50.3599 51.0601 49.8099 50.7501L39.0799 44.7901C38.5299 44.4901 37.8499 44.6901 37.5499 45.2301Z" fill="white" stroke="white" stroke-width="0.7795" stroke-miterlimit="10"/>
</svg>
