<svg width="135" height="135" viewBox="0 0 135 135" fill="none" xmlns="http://www.w3.org/2000/svg">
<circle cx="67.5" cy="67.5" r="67.5" fill="#FDA63B"/>
<path d="M82.3701 46.2099C89.8101 46.2099 95.8501 52.2499 95.8501 59.6899C95.8501 67.1299 89.8101 73.1699 82.3701 73.1699C74.9301 73.1699 68.8901 67.1299 68.8901 59.6899C68.8901 52.2499 74.9301 46.2099 82.3701 46.2099ZM82.3701 43.4399C73.4101 43.4399 66.1201 50.7299 66.1201 59.6899C66.1201 68.6499 73.4101 75.9399 82.3701 75.9399C91.3301 75.9399 98.6201 68.6499 98.6201 59.6899C98.6201 50.7299 91.3301 43.4399 82.3701 43.4399Z" fill="white" stroke="white" stroke-width="0.88" stroke-miterlimit="10"/>
<path d="M43.6503 51.56C49.7603 51.56 54.7103 56.51 54.7103 62.62C54.7103 68.73 49.7603 73.68 43.6503 73.68C37.5403 73.68 32.6003 68.72 32.6003 62.61C32.6003 56.51 37.5503 51.56 43.6503 51.56ZM43.6503 49.29C36.3003 49.29 30.3203 55.27 30.3203 62.62C30.3203 69.97 36.3003 75.95 43.6503 75.95C51.0003 75.95 56.9803 69.97 56.9803 62.62C56.9803 55.27 51.0003 49.29 43.6503 49.29Z" fill="white" stroke="white" stroke-width="0.88" stroke-miterlimit="10"/>
<path d="M97.6795 73.4399C96.9795 74.2199 96.2195 74.9499 95.4095 75.6099C107.619 78.1099 109.589 84.4199 109.589 90.6199V90.7799H55.1595V90.6199C55.1595 86.3999 55.1595 78.4999 69.3295 75.5999C68.5195 74.9299 67.7595 74.1999 67.0595 73.4199C52.5295 77.0799 52.5195 86.1899 52.5195 90.6199V90.7799H23.6195C23.7395 87.1799 24.8395 81.7799 35.2195 79.6599C34.5495 79.1099 33.9295 78.5199 33.3595 77.8799C22.6295 80.5799 21.5595 86.8999 21.4495 90.7899L21.4395 91.2899V91.9899V93.0699V93.2199H112.229V91.9499V90.7799V90.6199C112.229 83.9899 110.259 76.6099 97.6795 73.4399Z" fill="white" stroke="white" stroke-width="0.88" stroke-miterlimit="10"/>
</svg>
