<svg width="135" height="135" viewBox="0 0 135 135" fill="none" xmlns="http://www.w3.org/2000/svg">
<circle cx="67.5" cy="67.5" r="67.5" fill="#FDA63B"/>
<path d="M80.9093 77.6499C80.2593 78.3699 79.5593 79.0399 78.8193 79.6499C90.0593 81.9499 91.8693 87.7599 91.8693 93.4699V94.6899H94.2993V93.4699C94.3093 87.3599 92.4893 80.5699 80.9093 77.6499Z" fill="white" stroke="white" stroke-width="0.8092" stroke-miterlimit="10"/>
<path d="M52.7296 77.6299C39.3596 80.9999 39.3496 89.3899 39.3496 93.4599V94.6799H41.7796V93.4599C41.7796 89.5699 41.7796 82.3099 54.8196 79.6299C54.0696 79.0199 53.3796 78.3499 52.7296 77.6299Z" fill="white" stroke="white" stroke-width="0.8092" stroke-miterlimit="10"/>
<path d="M66.8301 52.59C73.6801 52.59 79.2401 58.14 79.2401 65C79.2401 71.85 73.6901 77.41 66.8301 77.41C59.9701 77.41 54.4201 71.86 54.4201 65C54.4201 58.14 59.9801 52.59 66.8301 52.59ZM66.8301 50.04C58.5801 50.04 51.8701 56.75 51.8701 65C51.8701 73.25 58.5801 79.96 66.8301 79.96C75.0801 79.96 81.7901 73.25 81.7901 65C81.7901 56.75 75.0801 50.04 66.8301 50.04Z" fill="white" stroke="white" stroke-width="0.8092" stroke-miterlimit="10"/>
<path d="M101.099 104.02H32.5595C31.9395 104.02 31.4395 103.59 31.4395 103.05V95.1902C31.4395 94.6602 31.9395 94.2202 32.5595 94.2202H101.099C101.719 94.2202 102.219 94.6502 102.219 95.1902V103.05C102.219 103.58 101.719 104.02 101.099 104.02ZM33.6895 102.08H99.9795V96.1602H33.6895V102.08Z" fill="white" stroke="white" stroke-width="0.88" stroke-miterlimit="10"/>
<path d="M63.7402 39.9501L67.0702 43.2801L70.4802 39.8701" stroke="white" stroke-width="3" stroke-miterlimit="10" stroke-linecap="round"/>
<path d="M67.0703 43.28V28.5" stroke="white" stroke-width="3" stroke-miterlimit="10" stroke-linecap="round"/>
<path d="M78.7002 42.6802L79.5202 47.3202L84.2702 46.4802" stroke="white" stroke-width="3" stroke-miterlimit="10" stroke-linecap="round"/>
<path d="M79.5205 47.32L88.0005 35.21" stroke="white" stroke-width="3" stroke-miterlimit="10" stroke-linecap="round"/>
<path d="M49.9102 46.2999L54.5502 47.1199L55.3902 42.3599" stroke="white" stroke-width="3" stroke-miterlimit="10" stroke-linecap="round"/>
<path d="M54.5503 47.1198L46.0703 35.0098" stroke="white" stroke-width="3" stroke-miterlimit="10" stroke-linecap="round"/>
</svg>
