<svg width="135" height="135" viewBox="0 0 135 135" fill="none" xmlns="http://www.w3.org/2000/svg">
<circle cx="67.5" cy="67.5" r="67.5" fill="#FDA63B"/>
<path d="M90.95 46.29C96.43 52.19 99.79 60.09 99.79 68.78C99.79 87.02 85.01 101.8 66.77 101.8C48.53 101.8 33.75 87.01 33.75 68.77C33.75 50.53 48.53 35.75 66.77 35.75C72.18 35.75 77.29 37.05 81.8 39.36" stroke="white" stroke-width="3.5" stroke-miterlimit="10" stroke-linecap="round"/>
<path d="M47.3896 73.8198C47.3896 73.8198 48.2696 78.3698 53.2596 78.3698C58.2496 78.3698 59.7196 73.8198 59.7196 73.8198" stroke="white" stroke-width="3.5" stroke-miterlimit="10" stroke-linecap="round"/>
<path d="M71.0303 74.0698C71.0303 74.0698 71.9103 78.6198 76.9003 78.6198C81.8903 78.6198 83.3603 74.0698 83.3603 74.0698" stroke="white" stroke-width="3.5" stroke-miterlimit="10" stroke-linecap="round"/>
<path d="M58.6104 88.2598H73.5004" stroke="white" stroke-width="3.5" stroke-miterlimit="10" stroke-linecap="round"/>
</svg>
