<svg width="221" height="161" viewBox="0 0 221 161" fill="none" xmlns="http://www.w3.org/2000/svg">
<g clip-path="url(#clip0)">
<path d="M190.211 59.2373H186.981L175.642 75.6708L168.199 67.7841L165.145 69.973L172.447 81.6814L177.678 83.5228L182.242 77.8597L190.211 59.2373Z" fill="#A7DEFC"/>
<path d="M183.928 32.8329C185.121 33.3888 185.894 35.0217 186.034 37.3843C186.139 38.774 185.999 40.3027 185.648 41.9356C185.297 43.6728 184.7 45.4099 183.892 47.1471C183.085 48.8843 182.102 50.4477 181.014 51.8374C179.996 53.1577 178.872 54.2347 177.749 55.0686C175.853 56.4583 174.062 56.9447 172.869 56.4235C171.675 55.8677 170.903 54.2347 170.762 51.8722C170.657 50.4825 170.797 48.9538 171.149 47.3208C171.5 45.5837 172.096 43.8465 172.904 42.1093C173.711 40.3722 174.694 38.8087 175.783 37.419C176.801 36.0988 177.924 35.0217 179.048 34.1879C180.979 32.7634 182.734 32.277 183.928 32.8329ZM184.981 30.5746C180.663 28.629 174.238 33.3193 170.622 41.067C167.006 48.8148 167.532 56.7015 171.851 58.6471C176.169 60.5927 182.594 55.9024 186.21 48.1547C189.826 40.4069 189.299 32.5202 184.981 30.5746Z" fill="#FB5E90"/>
<path d="M157.912 89.9513L156.719 89.3954C156.403 89.2564 156.298 88.909 156.438 88.5963L171.043 57.3969C171.183 57.0842 171.534 56.98 171.85 57.119L173.044 57.6749C173.36 57.8139 173.465 58.1613 173.325 58.474L158.685 89.6734C158.544 89.9513 158.193 90.0903 157.912 89.9513Z" fill="#FB5E90"/>
<path d="M183.506 32.6938C183.155 32.5896 179.363 32.5201 178.064 32.3116C172.377 31.3736 169.604 28.073 168.585 22.7572C168.129 20.3252 167.041 17.9974 165.461 16.0866C162.266 12.1953 157.105 10.076 152.155 11.6742C150.47 12.2301 148.785 13.3766 147.556 14.8358C146.327 16.295 145.555 18.0669 145.731 19.8041C144.748 18.6923 143.168 18.1017 141.377 17.9279C138.99 17.6847 136.287 18.1711 134.461 19.144C126.141 23.5563 127.65 35.1606 134.321 40.6153C137.902 43.5337 142.15 45.653 146.538 47.286C147.24 47.5639 148.153 47.8418 149.136 48.1893C151.769 49.0231 155.104 49.9959 157.176 50.5518C157.808 50.6908 158.51 50.8645 159.177 51.0035C160.757 51.3509 162.442 51.6636 164.267 51.9415C165.391 52.15 166.514 52.4974 167.567 52.8796C168.515 53.227 169.428 53.6787 170.271 54.2346C170.692 54.5125 171.183 54.86 171.499 55.2421C172.061 55.937 172.623 56.4929 173.571 56.5624C174.483 56.6666 175.396 56.5276 176.274 56.215C179.96 54.9642 183.787 47.3207 183.892 47.0775C183.927 47.1122 189.544 34.7437 183.506 32.6938Z" fill="#FFC1D6"/>
<path d="M177.538 32.207C176.906 32.6934 176.239 33.2146 175.607 33.84C175.466 33.9789 175.291 34.1527 175.15 34.3264C175.01 34.5001 174.835 34.6391 174.694 34.8128C174.554 34.9865 174.378 35.1602 174.238 35.3339C174.097 35.5076 173.957 35.6814 173.781 35.8898C173.641 36.0635 173.5 36.272 173.36 36.4457C173.22 36.6542 173.079 36.8279 172.939 37.0363C172.798 37.2448 172.658 37.4533 172.517 37.6617C172.377 37.8702 172.237 38.0786 172.131 38.2871C171.991 38.4956 171.885 38.704 171.745 38.9472C171.605 39.1557 171.499 39.3989 171.359 39.6073C171.254 39.8505 171.113 40.059 171.008 40.3022C170.902 40.5454 170.762 40.7886 170.657 41.0318C170.551 41.275 170.411 41.553 170.306 41.7962C170.271 41.8656 170.235 41.9699 170.2 42.0394C170.13 42.2131 170.06 42.3868 169.99 42.5605C169.955 42.6647 169.919 42.769 169.884 42.8732C169.814 43.0469 169.779 43.1859 169.709 43.3596C169.674 43.4638 169.639 43.5681 169.604 43.6723C169.533 43.8113 169.498 43.985 169.463 44.124C169.428 44.2282 169.393 44.3324 169.358 44.4366C169.323 44.5756 169.252 44.7493 169.217 44.8883C169.182 44.9925 169.147 45.0968 169.112 45.201C169.077 45.34 169.042 45.5137 168.972 45.6527C168.936 45.7569 168.936 45.8611 168.901 45.9306C168.866 46.1043 168.831 46.278 168.796 46.4517C168.761 46.5212 168.761 46.6255 168.726 46.6949C168.621 47.1814 168.515 47.6678 168.445 48.1542C168.445 48.2237 168.41 48.2931 168.41 48.3974C168.375 48.5711 168.375 48.7101 168.34 48.8838C168.34 48.988 168.305 49.0575 168.305 49.1617C168.305 49.3007 168.269 49.4397 168.269 49.5786C168.269 49.6829 168.269 49.7524 168.234 49.8566C168.234 49.9956 168.234 50.1345 168.199 50.2735C168.199 50.3777 168.199 50.4472 168.199 50.5514C168.199 50.6904 168.199 50.8294 168.199 50.9684C168.199 51.0726 168.199 51.1421 168.199 51.2463C168.199 51.3853 168.199 51.5243 168.199 51.6632C168.199 51.7327 168.199 51.8369 168.199 51.9064C168.199 52.0454 168.234 52.1844 168.234 52.3234C168.234 52.3928 168.234 52.4623 168.269 52.5318C168.305 52.7403 168.305 52.9487 168.34 53.1572C168.515 53.2267 168.656 53.2962 168.796 53.3656H168.831C168.972 53.4351 169.147 53.5394 169.288 53.6088C169.288 53.6088 169.288 53.6088 169.323 53.6088C169.463 53.6783 169.604 53.7478 169.709 53.8521C169.744 53.8868 169.779 53.8868 169.814 53.9215C169.955 53.991 170.095 54.0953 170.235 54.1995C170.587 54.4427 170.938 54.6859 171.254 54.9638C170.867 54.1647 170.797 53.053 170.727 51.8369C170.692 51.4895 170.692 51.1421 170.692 50.7599C170.692 50.4125 170.727 50.0303 170.727 49.6481C170.762 49.0922 170.867 48.5016 170.973 47.8762C171.008 47.6678 171.043 47.4593 171.078 47.2856C171.429 45.5484 172.026 43.8113 172.833 42.0741C173.536 40.5801 174.378 39.1557 175.291 37.9049C175.431 37.7312 175.572 37.5575 175.712 37.3838C176.344 36.5499 177.046 35.8203 177.713 35.1949C178.135 34.8128 178.556 34.4653 178.977 34.1527C179.925 33.4578 180.978 32.7629 181.786 32.5545H181.751C181.68 32.5545 181.645 32.5545 181.575 32.5545C181.54 32.5545 181.54 32.5545 181.505 32.5545C181.47 32.5545 181.4 32.5545 181.364 32.5545C181.154 32.5545 180.978 32.5197 180.768 32.5197H180.733C180.662 32.5197 180.592 32.5197 180.522 32.5197C180.487 32.5197 180.487 32.5197 180.452 32.5197C180.381 32.5197 180.311 32.5197 180.241 32.5197H180.206C180.03 32.5197 179.855 32.485 179.714 32.485H179.679C179.609 32.485 179.539 32.485 179.469 32.485C179.434 32.485 179.434 32.485 179.398 32.485C179.328 32.485 179.293 32.485 179.223 32.485C179.188 32.485 179.188 32.485 179.153 32.485C179.082 32.485 179.047 32.485 178.977 32.485H178.942C178.872 32.485 178.802 32.485 178.731 32.4502H178.696C178.626 32.4502 178.591 32.4502 178.521 32.4502C178.486 32.4502 178.486 32.4502 178.451 32.4502C178.415 32.4502 178.38 32.4502 178.31 32.4502C178.275 32.4502 178.275 32.4502 178.24 32.4502C178.205 32.4502 178.17 32.4502 178.135 32.4502H178.099C178.064 32.4502 177.994 32.4502 177.959 32.4155C177.889 32.2418 177.713 32.2418 177.538 32.207Z" fill="#D07F98"/>
<path opacity="0.5" d="M164.653 22.7225C164.197 22.7572 163.81 22.4098 163.775 21.9581C163.494 17.7542 159.808 14.5926 155.595 14.8705C153.384 15.0095 151.382 16.0865 150.013 17.8237C149.732 18.1711 149.206 18.2406 148.855 17.9626C148.504 17.6847 148.433 17.1636 148.714 16.8161C150.364 14.7315 152.822 13.4113 155.49 13.2376C160.616 12.8901 165.074 16.7466 165.425 21.8539C165.46 22.3055 165.109 22.7225 164.653 22.7225Z" fill="white"/>
<path opacity="0.5" d="M166.514 25.7106C166.198 26.1275 165.601 26.2318 165.144 25.9191C164.723 25.6064 164.618 25.0158 164.934 24.5641C165.25 24.1472 165.847 24.043 166.303 24.3556C166.724 24.6683 166.83 25.259 166.514 25.7106Z" fill="white"/>
<path d="M97.3885 10.7359C92.1926 12.5426 87.2425 18.2405 87.8393 23.5214C84.2233 19.5954 75.271 20.2556 70.4964 22.9308C57.8578 30.0184 60.6663 47.8417 71.1634 55.9716C76.8157 60.3492 83.4158 63.4066 90.1915 65.7692C92.3331 66.5335 95.6683 67.4716 99.0034 68.3749C105.288 70.0773 111.888 67.0894 114.731 61.2873C116.206 58.2299 117.68 55.103 118.523 53.0184C121.156 46.4172 123.192 39.4686 123.543 32.3809C124.21 19.1785 111.08 5.94137 97.3885 10.7359Z" fill="#FFC1D6"/>
<path opacity="0.5" d="M116.627 28.3852C115.96 28.3852 115.434 27.864 115.434 27.2039C115.434 20.9849 110.343 15.9471 104.059 15.9471C100.794 15.9471 97.7045 17.3368 95.5279 19.7341C95.0715 20.2205 94.3343 20.29 93.8076 19.8383C93.3161 19.3867 93.2459 18.6571 93.7023 18.1359C96.3354 15.2175 100.092 13.5498 104.024 13.5498C111.642 13.5498 117.821 19.6646 117.821 27.2039C117.856 27.8293 117.294 28.3852 116.627 28.3852Z" fill="white"/>
<path opacity="0.5" d="M119.085 32.9021C118.558 33.5275 117.681 33.597 117.049 33.0758C116.417 32.5547 116.346 31.6861 116.873 31.0607C117.4 30.4353 118.277 30.3658 118.909 30.887C119.506 31.4081 119.611 32.3115 119.085 32.9021Z" fill="white"/>
<path d="M62.1055 38.4961C62.3863 45.0278 65.7566 51.768 71.128 55.9372C76.7803 60.3148 83.3804 63.3722 90.1561 65.7348C92.2977 66.4991 95.6329 67.4372 98.9681 68.3405C105.252 70.0429 111.852 67.055 114.696 61.2529C116.171 58.1955 117.645 55.0686 118.488 52.984C118.558 52.8103 118.628 52.6018 118.698 52.4281C112.414 57.0837 104.62 59.8632 96.1595 59.8632C81.0985 59.8284 68.1439 51.1079 62.1055 38.4961Z" fill="#F7B7D1"/>
<path d="M145.554 66.2551C142.991 65.6645 139.515 66.672 138.392 68.9303C137.971 66.4288 134.214 64.4137 131.581 64.24C124.665 63.8578 121.119 71.7098 123.226 77.6509C124.349 80.8473 126.21 83.7657 128.281 86.4409C128.913 87.24 129.931 88.3865 130.949 89.5331C133.126 91.9303 136.742 92.4515 139.515 90.7838C140.849 89.9847 142.113 89.1856 142.956 88.595C145.729 86.6146 148.362 84.3563 150.363 81.6116C154.12 76.5044 152.294 67.8533 145.554 66.2551Z" fill="#FFC1D6"/>
<path opacity="0.5" d="M147.379 79.1794C147.168 78.9709 147.203 78.6235 147.414 78.4151C149.555 76.5737 149.766 73.3425 147.905 71.2579C146.922 70.1809 145.553 69.5208 144.079 69.5208C143.763 69.5208 143.517 69.2776 143.552 68.9649C143.552 68.6522 143.798 68.409 144.114 68.4437C145.904 68.4437 147.589 69.2081 148.748 70.5631C150.995 73.1341 150.749 77.0253 148.151 79.2489C147.941 79.4226 147.589 79.4226 147.379 79.1794Z" fill="white"/>
<path opacity="0.5" d="M146.571 81.3675C146.22 81.3675 145.904 81.0896 145.904 80.7422C145.904 80.3947 146.185 80.082 146.536 80.082C146.887 80.082 147.203 80.36 147.203 80.7074C147.203 81.0549 146.922 81.3675 146.571 81.3675Z" fill="white"/>
<path d="M123.015 71.1543C122.453 73.2736 122.524 75.5667 123.226 77.6513C124.349 80.8476 126.21 83.7661 128.281 86.4413C128.913 87.2404 129.931 88.3869 130.949 89.5334C133.126 91.9307 136.742 92.4519 139.516 90.7842C140.323 90.2978 141.166 89.7766 141.868 89.325C132.283 87.9353 124.665 80.5697 123.015 71.1543Z" fill="#F7B7D1"/>
<path d="M50.7655 3.09253C48.2729 2.29343 44.7271 3.05778 43.4281 5.24661C43.1824 2.7451 39.6014 0.417301 37.0035 0.0698693C30.1225 -0.833454 26.0149 6.74056 27.6299 12.8206C28.5076 16.0865 30.1225 19.1439 32.0183 21.9581C32.58 22.7919 33.4928 24.0427 34.4407 25.2239C36.4418 27.7949 39.9876 28.594 42.9015 27.1001C44.2707 26.4052 45.6399 25.6756 46.5176 25.1545C49.4315 23.3826 52.24 21.3327 54.4518 18.727C58.5242 13.9671 57.3657 5.17712 50.7655 3.09253Z" fill="#FFC1D6"/>
<path opacity="0.5" d="M51.6089 16.1213C51.4334 15.8781 51.4685 15.5307 51.7142 15.3569C53.9962 13.6893 54.4526 10.4929 52.7324 8.23459C51.8547 7.08807 50.5206 6.32371 49.0461 6.21949C48.7301 6.18474 48.5195 5.94154 48.5546 5.62885C48.5897 5.31616 48.8355 5.1077 49.1514 5.14245C50.9419 5.28142 52.5568 6.18474 53.61 7.57447C55.6814 10.2844 55.1196 14.1757 52.3813 16.1908C52.1355 16.434 51.7845 16.3645 51.6089 16.1213Z" fill="white"/>
<path opacity="0.5" d="M50.6261 18.2406C50.275 18.2406 49.9941 17.9279 49.9941 17.5805C49.9941 17.233 50.3101 16.9551 50.6612 16.9551C51.0122 16.9551 51.2931 17.2678 51.2931 17.6152C51.2931 17.9974 50.9771 18.2753 50.6261 18.2406Z" fill="white"/>
<path d="M27.9107 6.32324C27.2085 8.37309 27.0681 10.7009 27.6298 12.8202C28.5075 16.0861 30.1224 19.1435 32.0182 21.9577C32.5799 22.7915 33.4927 24.0423 34.4406 25.2235C36.4417 27.7945 39.9876 28.5936 42.9015 27.0997C43.7791 26.648 44.6217 26.2311 45.359 25.8142C35.9151 23.7643 28.8586 15.8429 27.9107 6.32324Z" fill="#F7B7D1"/>
<path d="M10.1811 26.4398C8.70658 26.8915 7.26718 28.4202 7.3725 29.8794C6.4246 28.7329 3.89688 28.8023 2.5277 29.4972C-1.08834 31.3386 -0.526626 36.3416 2.28195 38.7042C3.79156 39.9897 5.61714 40.9277 7.47782 41.6573C8.14486 41.9353 9.19808 42.2827 10.2162 42.5954C11.7609 43.0818 13.4461 42.4217 14.2184 40.9972C14.7099 40.0591 15.2365 39.0863 15.5525 38.4262C16.36 36.6196 17.027 34.7087 17.2025 32.7283C17.5536 29.115 14.078 25.2585 10.1811 26.4398Z" fill="#FFC1D6"/>
<path opacity="0.5" d="M15.2723 31.9642C15.0967 31.9295 14.9563 31.7905 14.9563 31.6168C15.1318 29.9143 13.868 28.3509 12.1126 28.1772C11.1998 28.073 10.3222 28.3856 9.65512 28.9763C9.51469 29.1153 9.30404 29.0805 9.16362 28.9415C9.02319 28.8026 9.05829 28.5941 9.19872 28.4551C10.0062 27.7255 11.0945 27.3433 12.1828 27.4823C14.2893 27.6908 15.834 29.5669 15.6233 31.6515C15.6233 31.86 15.4478 31.9989 15.2723 31.9642Z" fill="white"/>
<path opacity="0.5" d="M15.833 33.2841C15.6575 33.4231 15.4118 33.4231 15.2713 33.2841C15.1309 33.1104 15.1309 32.8672 15.2713 32.7283C15.4118 32.5893 15.6926 32.5893 15.833 32.7283C15.9735 32.902 15.9735 33.1452 15.833 33.2841Z" fill="white"/>
<path d="M0.210938 35.3682C0.56201 36.6537 1.26415 37.8349 2.28226 38.7035C3.79187 39.989 5.61745 40.9271 7.47813 41.6567C8.14517 41.9346 9.19839 42.2821 10.2165 42.5948C11.7612 43.0812 13.4464 42.421 14.2187 40.9966C14.7102 40.0932 15.2368 39.1204 15.5177 38.4603C13.973 39.3984 12.1825 39.9543 10.2516 40.0932C6.17917 40.3712 2.4578 38.4603 0.210938 35.3682Z" fill="#F7B7D1"/>
<path d="M165.004 70.599C165.004 70.599 164.828 66.812 165.004 66.4298C165.179 66.0824 167.216 63.8936 167.216 63.8936L169.427 65.3528L167.777 68.7923H165.846L165.004 70.599Z" fill="#F4CDAF"/>
<path d="M180.731 99.0186L175.605 126.57L175.886 156.588L180.872 156.97L185.787 128.759L196.284 99.0186H180.731Z" fill="#2B478B"/>
<path d="M186.91 93.9453L191.72 124.901L198.917 157.039L203.586 156.935L203.059 124.554L205.728 94.8139L186.91 93.9453Z" fill="#2B478B"/>
<path d="M211.064 103.466C211.204 106.349 211.239 110.24 210.221 110.379C210.046 110.414 209.87 110.31 209.695 110.206C207.939 109.198 206.675 107.774 204.955 106.801C203.13 105.793 201.093 105.272 199.092 104.96C196.073 104.438 193.019 104.126 189.964 104.16C187.577 104.195 185.155 104.473 182.803 104.751C180.837 104.994 179.011 105.689 176.975 105.585C174.903 105.481 172.832 104.821 171.042 103.674C170.971 103.639 170.901 103.57 170.866 103.5C170.831 103.431 170.866 103.327 170.901 103.222C171.287 101.937 171.568 100.651 172.305 99.5743C173.113 98.3583 173.71 96.8296 174.271 95.4746C175.5 92.6257 176.624 89.6378 177.431 86.6151C178.695 82.4807 180.134 78.4852 181.328 74.3508C182.171 71.5018 182.908 68.5834 184.102 65.8387C185.014 63.7193 186.664 60.5924 188.736 59.5849C189.438 59.2375 190.21 59.2027 190.983 59.168C193.3 59.029 195.582 58.89 197.899 58.7511C198.741 58.7163 199.619 58.6468 200.391 59.029C201.55 59.5849 202.252 60.9051 202.849 62.1211C205.552 67.6453 207.342 73.6559 208.431 79.8402C208.993 83.0713 209.519 86.3372 209.94 89.5683C210.432 93.2163 210.783 96.8643 210.923 100.512C210.888 100.964 210.994 102.111 211.064 103.466Z" fill="#A7DEFC"/>
<path d="M194.773 71.5023C194.738 72.7878 194.949 74.0733 195.16 75.3588C196.494 83.1413 199.688 97.5944 201.023 105.377C194.844 105.481 185.575 105.342 179.396 105.446C179.537 102.528 180.906 93.2168 181.047 90.2636C181.152 88.3875 181.222 86.5114 181.573 84.6352C182.135 81.6473 183.364 78.7984 184.557 76.0189C186.804 70.8422 189.016 65.6654 191.263 60.4539C191.368 60.176 191.508 59.8981 191.754 59.6896C192.035 59.4464 192.421 59.3422 192.772 59.2727C194.528 58.9252 196.529 58.6126 198.319 58.821C198.811 60.4192 197.161 60.2107 196.599 61.7047C195.792 63.8935 194.879 69.105 194.773 71.5023Z" fill="white"/>
<path d="M176.519 156.588L173.113 157.943L173.254 159.854L180.31 160.027L180.591 156.97L176.519 156.588Z" fill="#233862"/>
<path d="M199.409 156.379L195.828 158.776L196.6 161L203.797 159.679L203.482 156.865L199.409 156.379Z" fill="#233862"/>
<path d="M190.246 49.3004C190.316 51.2461 190.702 51.9409 191.615 53.8171C192.142 52.2189 192.633 50.5859 193.16 48.9877C192.528 48.9877 191.896 48.953 191.264 48.953C190.878 48.9183 190.422 48.953 190.246 49.3004Z" fill="#3B2C24"/>
<path d="M191.44 53.9217C191.791 52.254 191.651 49.6483 193.16 48.5712C194.846 47.39 197.198 47.7721 199.058 48.6407C200.533 49.3356 202.007 50.5168 202.218 52.115C202.394 53.6785 201.376 55.103 200.393 56.319C199.936 56.9096 199.48 57.8477 198.813 58.1603C197.865 58.612 196.566 58.3341 196.566 58.3341C196.215 58.2646 195.899 58.5078 195.864 58.8552L195.794 59.7933C195.794 59.7933 195.829 60.5229 194.775 60.4187C194.038 60.1407 193.266 59.828 192.529 59.5501C192.529 58.751 193.09 57.9172 192.669 57.257C192.423 56.8749 191.967 56.7011 191.686 56.3537C191.124 55.6936 191.265 54.7555 191.44 53.9217Z" fill="#F4CDAF"/>
<path d="M189.824 44.3673C190.175 43.2902 190.526 42.2132 190.877 41.1362C191.018 40.7192 191.158 40.3371 191.439 40.0244C191.931 39.5032 194.318 39.538 195.02 39.6422C195.722 39.7464 196.389 40.0244 197.091 40.1634C197.829 40.3023 198.636 40.3023 199.303 40.6498C200.602 41.2751 201.059 42.9428 202.252 43.7072C203.937 44.7842 205.938 44.68 206.079 47.251C206.114 47.7374 205.974 48.189 205.974 48.6754C205.974 49.3008 206.219 49.8567 206.325 50.4821C206.851 53.1226 205.026 55.9715 202.533 56.9096C201.339 57.3612 200.637 57.9866 199.373 57.7434C200.356 56.9096 201.55 52.393 200.321 51.2812C200.005 51.0032 198.636 50.9337 198.18 50.8295C197.197 50.5516 196.214 50.3084 195.161 50.2736C193.616 50.2389 192.036 49.9957 190.561 49.4745C190.386 49.405 190.281 49.2313 190.07 49.1618C189.017 48.6754 188.736 48.8144 188.49 48.5017C187.683 47.2857 189.403 45.7223 189.824 44.3673Z" fill="#3B2C24"/>
<path d="M200.357 59.0986L205.764 61.6001L214.224 80.7089L219.806 104.647L216.261 105.481L206.957 82.3766L197.303 63.9279L200.357 59.0986Z" fill="#A7DEFC"/>
<path d="M219.28 104.785L221 107.321L219.806 110.344L218.472 109.997L216.717 105.376L219.28 104.785Z" fill="#F4CDAF"/>
</g>
<defs>
<clipPath id="clip0">
<rect width="221" height="161" fill="white"/>
</clipPath>
</defs>
</svg>
