<svg width="852" height="1455" viewBox="0 0 852 1455" fill="none" xmlns="http://www.w3.org/2000/svg">
<path d="M852 0H0V1455H852V0Z" fill="#FCECDB"/>
<path d="M37.7756 40.2848C42.2551 38.4277 44.3823 33.2877 42.5267 28.8044C40.6712 24.321 35.5357 22.1919 31.0562 24.049C26.5767 25.9061 24.4495 31.0462 26.305 35.5295C28.1606 40.0129 33.2961 42.1419 37.7756 40.2848Z" fill="#EFCBAB"/>
<path d="M808.023 32.1616C808.023 27.3539 811.916 23.375 816.802 23.375C821.606 23.375 825.581 27.271 825.581 32.1616C825.581 36.9693 821.689 40.9481 816.802 40.9481C811.999 40.9481 808.023 37.0522 808.023 32.1616Z" fill="#EFCBAB"/>
<path d="M816.802 31.25H34.4023V33.1566H816.802V31.25Z" fill="#EFCBAB"/>
<path d="M35.397 28.6797H33.4922V1251H35.397V28.6797Z" fill="#EFCBAB"/>
<path d="M818 29.0005H816V1251H818V29.0005Z" fill="#EFCBAB"/>
</svg>
