<svg width="147" height="156" viewBox="0 0 147 156" fill="none" xmlns="http://www.w3.org/2000/svg">
<g clip-path="url(#clip0)">
<path d="M20.6458 47.5037C20.5789 47.5037 20.5454 47.5037 20.4785 47.5371L20.6458 47.5037C20.6124 47.3368 20.5789 47.1698 20.5789 47.0363C20.4785 45.8345 20.8466 44.566 21.5493 43.5645C23.0217 43.5978 24.4605 44.3657 25.2636 45.5674C25.5983 46.0682 25.8325 46.6691 25.9663 47.27C25.9663 47.27 25.9663 47.27 25.9663 47.3034C25.9663 47.3701 25.9998 47.4035 25.9998 47.4703C26.1671 48.3383 27.0037 52.1106 29.9149 54.9481C33.2277 58.1529 32.8596 59.9223 32.8596 59.9223C32.8596 59.9223 29.7141 62.7264 27.1375 63.2272C24.6278 63.6946 21.6162 53.8465 20.6458 47.5037Z" fill="#C45A45"/>
<path d="M17.8356 59.4883L15.3259 62.8934L11.3439 79.3179L1.74023 98.5801L5.48801 100.616L18.0364 83.6912L22.8215 63.561L17.8356 59.4883Z" fill="#FFA72A"/>
<path d="M33.0276 57.1857L42.397 52.7791L37.545 34.0177L41.3931 33.083L50.0599 51.5106L49.2903 56.2176L36.2734 65.2645L29.8486 57.3193L33.0276 57.1857Z" fill="#FFA72A"/>
<path d="M43.5683 98.8144L43.0998 119.545L39.0509 151.026L34.5 150.959L33.8307 125.354L26.9375 95.7432L43.5683 98.8144Z" fill="#35488B"/>
<path d="M35.8711 94.9081L29.6137 123.184L21.0473 152.394L16.8311 151.626L19.2738 122.182L18.6046 94.5742L35.8711 94.9081Z" fill="#35488B"/>
<path d="M38.5149 150.959L41.4931 152.528L41.1919 154.264L34.7002 153.797L34.7337 150.959H38.5149Z" fill="#233862"/>
<path d="M20.9809 151.593L24.0594 154.03L23.156 155.999L16.7646 154.263L17.2666 151.726L20.9809 151.593Z" fill="#233862"/>
<path d="M17.2334 109.731C17.3673 111.567 16.7984 116.675 19.1408 117.342C21.9851 118.177 23.3905 115.706 25.0636 114.004C26.3686 112.669 28.0752 111.801 29.7483 110.966C34.3327 108.663 38.047 107.861 43.1333 107.962C45.4087 108.028 54.0085 108.596 53.7408 104.89C53.5401 102.053 50.8965 98.9815 49.6919 96.4777C48.2195 93.3731 46.8141 90.1349 45.6764 86.7966C44.0033 82.2898 42.1629 77.9166 40.5232 73.3765C39.3855 70.2385 38.3147 67.0337 36.9093 64.0626C35.805 61.7591 33.8977 58.4208 31.8899 57.5194C31.2207 57.219 30.4845 57.2524 29.8153 57.2858C27.7071 57.3859 25.599 57.5194 23.4574 57.6196C22.6878 57.653 21.8847 57.7197 21.2154 58.2205C20.2116 58.9549 19.7766 60.5239 19.375 61.9928C17.635 68.5359 16.7649 75.513 16.5976 82.657C16.4972 86.396 16.4303 90.1015 16.4638 93.8404C16.4972 98.0133 16.6311 102.186 16.9657 106.359C17.0326 106.893 17.0996 108.195 17.2334 109.731Z" fill="#FFA72A"/>
<path d="M22.7881 57.753C22.7881 57.753 23.5912 63.4281 27.339 64.3628C31.1202 65.2976 33.0276 61.5586 29.8152 57.3857L22.7881 57.753Z" fill="#FFFFE2"/>
<path d="M40.5899 33.2494L42.4304 31.3132L41.4265 26.3057L38.6157 26.773V30.2115L37.6787 31.3132L38.1472 33.8169C38.1472 33.8503 40.523 33.3162 40.5899 33.2494Z" fill="#F4CDAF"/>
<path d="M2.24198 98.8477L0 102.353L2.37583 105.524L4.04894 104.59L4.81857 100.25L2.24198 98.8477Z" fill="#F4CDAF"/>
<path d="M25.0626 47.3703C21.7498 43.0305 16.1616 46.8362 16.3958 51.5766C16.5297 54.2806 19.1063 56.8845 21.8167 57.4521C22.0844 57.8527 22.7202 58.9877 23.1887 59.1212C23.6906 59.2548 24.661 58.4202 25.0291 58.0863C25.1295 57.9862 25.2299 57.886 25.2968 57.7859C25.3637 57.619 25.2299 57.3185 25.0626 56.9847C25.3637 56.8178 25.6649 56.5841 25.9326 56.317C27.1038 55.182 27.4718 53.3793 27.2041 51.7769C26.903 50.1411 26.0664 48.6723 25.0626 47.3703Z" fill="#F4CDAF"/>
<path d="M12.4476 56.684C11.678 51.8435 12.9496 48.6053 12.9496 48.6053C13.7527 46.3686 15.5931 44.4658 17.7347 43.4976C18.8724 42.9635 19.9767 42.9635 21.1813 43.4643C21.9509 43.7981 22.6536 44.4324 22.8544 45.2336C23.0552 45.968 22.8544 46.7692 22.5533 47.4703C21.6832 49.4733 20.5121 50.6751 20.3447 52.4778C20.1774 54.3138 21.5159 56.5505 22.3859 58.1195C22.6871 58.687 27.0707 66.7992 27.7399 66.2651C26.736 67.0329 25.6318 67.7339 24.5275 68.3348C22.6536 69.3029 20.2778 69.8371 18.2032 69.0359C16.1619 68.2681 14.79 66.4654 13.0165 65.2969C11.2095 64.0284 13.2507 61.5246 12.4476 56.684Z" fill="#C45A45"/>
<path d="M85.6974 14.2541C83.0873 12.7185 78.871 12.6851 76.8633 14.855C77.2314 11.9173 73.7848 8.37866 70.907 7.34378C63.378 4.57296 56.7859 12.1844 57.0871 19.4953C57.2544 23.4345 58.2917 27.307 59.7306 31.0125C60.2325 32.3145 61.136 34.3508 62.0395 36.2537C63.4115 39.158 66.6238 40.6603 69.7358 39.8925C71.777 39.3583 73.9186 38.7908 75.2571 38.3568C79.0049 37.0883 82.6857 35.4191 85.8312 33.0489C91.6871 28.5755 92.6241 18.2935 85.6974 14.2541Z" fill="#FFC1D6"/>
<path opacity="0.5" d="M84.4257 29.1428C84.1914 28.8423 84.2583 28.4417 84.5595 28.2081C87.3034 26.1383 87.8723 22.1991 85.7641 19.4616C84.6934 18.0262 83.0537 17.1248 81.2467 16.9913C80.8787 16.9579 80.611 16.6575 80.6444 16.2902C80.6779 15.923 80.9791 15.656 81.3471 15.6893C83.5222 15.8563 85.4965 16.9579 86.8015 18.6605C89.3112 21.9988 88.6754 26.7392 85.3291 29.2763C85.0614 29.4766 84.6264 29.4099 84.4257 29.1428Z" fill="white"/>
<path opacity="0.5" d="M83.2208 31.7137C82.7858 31.6803 82.4512 31.3131 82.4512 30.8791C82.4846 30.4452 82.8527 30.1113 83.2877 30.1113C83.7227 30.1447 84.0574 30.5119 84.0574 30.9459C84.0239 31.4133 83.6558 31.7471 83.2208 31.7137Z" fill="white"/>
<path d="M59.1956 11.9502C57.7902 14.1535 56.9871 16.8575 57.0875 19.4948C57.2548 23.434 58.2922 27.3065 59.731 31.012C60.233 32.314 61.1365 34.3504 62.0399 36.2532C63.4119 39.1576 66.6243 40.6598 69.7363 39.892C71.744 39.3912 73.8521 38.7904 75.1906 38.3564C71.744 37.3883 68.4982 35.5856 65.7208 32.9483C59.8984 27.3399 57.6898 19.3613 59.1956 11.9502Z" fill="#F7B7D1"/>
<path d="M114.408 25.2371C113.003 24.8699 111.028 25.3707 110.359 26.6392C110.158 25.2371 108.117 24.0353 106.645 23.9018C102.797 23.568 100.688 27.9412 101.759 31.3129C102.328 33.1156 103.299 34.7848 104.436 36.3538C104.838 36.8879 105.507 37.7225 106.176 38.4903C107.18 39.6587 108.887 39.9592 110.225 39.1913C111.095 38.6906 112.032 38.1565 112.601 37.7892C114.174 36.721 115.68 35.4858 116.851 33.9836C118.992 31.146 118.156 26.2386 114.408 25.2371Z" fill="#FFC1D6"/>
<path opacity="0.5" d="M115.68 32.3147C115.546 32.2146 115.513 32.0143 115.613 31.8807C116.617 30.5788 116.383 28.6759 115.078 27.6744C114.408 27.1403 113.505 26.94 112.668 27.1069C112.501 27.1403 112.334 27.0401 112.3 26.8398C112.267 26.6729 112.367 26.506 112.568 26.4726C113.605 26.2723 114.676 26.5394 115.479 27.1737C117.085 28.4089 117.353 30.7123 116.148 32.2813C116.048 32.3815 115.814 32.4149 115.68 32.3147Z" fill="white"/>
<path opacity="0.5" d="M115.445 33.6834C115.245 33.7168 115.044 33.6167 114.977 33.383C114.944 33.1827 115.044 32.9824 115.278 32.9156C115.512 32.8489 115.68 32.9824 115.747 33.2161C115.814 33.4498 115.68 33.6167 115.445 33.6834Z" fill="white"/>
<path d="M101.792 27.5078C101.424 28.7096 101.391 30.0783 101.759 31.2801C102.328 33.0828 103.298 34.752 104.436 36.321C104.837 36.8551 105.507 37.6897 106.176 38.4575C107.18 39.6259 108.886 39.9264 110.225 39.1586C111.095 38.6578 111.998 38.1237 112.567 37.7565C110.827 37.7231 109.087 37.2891 107.481 36.4211C104.034 34.5851 102.027 31.1466 101.792 27.5078Z" fill="#F7B7D1"/>
<path d="M143.386 3.50502C141.68 2.73721 139.07 2.97089 137.965 4.43976C137.999 2.60368 135.656 0.634064 133.816 0.200081C128.997 -1.0351 125.417 4.07254 126.053 8.57928C126.387 11.0163 127.291 13.3197 128.429 15.523C128.83 16.2908 129.533 17.4926 130.202 18.5943C131.239 20.2968 133.314 21.0312 135.188 20.3302C136.426 19.8962 137.698 19.3955 138.501 19.0282C140.743 17.9934 142.918 16.7582 144.691 15.089C148.004 11.951 147.937 5.5414 143.386 3.50502Z" fill="#FFC1D6"/>
<path opacity="0.5" d="M143.554 12.7523C143.386 12.5854 143.42 12.3183 143.587 12.1848C145.16 10.7159 145.227 8.27892 143.788 6.70991C143.018 5.90871 141.947 5.44135 140.843 5.47473C140.609 5.47473 140.442 5.30781 140.408 5.07413C140.408 4.84045 140.576 4.67353 140.81 4.64015C142.148 4.60676 143.453 5.1409 144.357 6.14239C146.13 8.04524 146.03 11.0164 144.123 12.7857C143.955 12.9192 143.721 12.9192 143.554 12.7523Z" fill="white"/>
<path opacity="0.5" d="M142.985 14.4217C142.717 14.4217 142.483 14.2214 142.449 13.9543C142.449 13.6872 142.65 13.4536 142.918 13.4202C143.185 13.3868 143.42 13.6205 143.453 13.8875C143.453 14.188 143.252 14.4217 142.985 14.4217Z" fill="white"/>
<path d="M126.889 3.77148C126.153 5.24035 125.852 6.94289 126.086 8.57867C126.42 11.0157 127.324 13.3191 128.462 15.5224C128.863 16.2902 129.566 17.492 130.235 18.5937C131.272 20.2962 133.347 21.0306 135.221 20.3296C136.426 19.8956 137.697 19.3949 138.5 19.0276C136.325 18.627 134.184 17.7257 132.31 16.2902C128.294 13.2189 126.42 8.44514 126.889 3.77148Z" fill="#F7B7D1"/>
</g>
<defs>
<clipPath id="clip0">
<rect width="147" height="156" fill="white"/>
</clipPath>
</defs>
</svg>
