<svg width="236" height="369" viewBox="0 0 236 369" fill="none" xmlns="http://www.w3.org/2000/svg">
<path fill-rule="evenodd" clip-rule="evenodd" d="M123.685 61.765C127.611 57.1564 130.268 51.5086 129.824 45.1801C128.545 26.9459 103.162 30.9572 98.2244 40.1602C93.287 49.3633 93.8737 72.7077 100.255 74.3526C102.8 75.0085 108.221 73.4017 113.739 70.076L110.275 94.5773H130.724L123.685 61.765Z" fill="#FFC190"/>
<path fill-rule="evenodd" clip-rule="evenodd" d="M109.88 29.5535C112.575 29.1116 119.832 28.8077 121.17 28.8079C122.025 28.8079 122.952 29.0033 123.458 28.218C123.873 27.575 123.721 26.4874 123.845 25.7411C123.989 24.8743 124.193 24.0186 124.399 23.165C124.987 20.7362 125.876 18.4255 127.119 16.2561C129.452 12.1859 132.87 8.99773 137.185 7.14254C141.95 5.09412 147.342 4.62507 152.468 5.04056C157.953 5.48508 162.918 7.29575 168.097 8.99969C173.032 10.6234 178.201 11.2625 183.362 10.4696C188.562 9.67079 192.492 6.8522 196.878 4.17701C201.369 1.43827 206.5 -0.352973 211.809 0.0587901C216.764 0.443286 221.331 2.48935 225.429 5.22261C229.263 7.7799 232.426 10.8566 234.212 15.1869C236.133 19.845 236.132 24.958 232.972 29.0747C228.393 35.0418 219.891 36.5849 212.818 36.4315C208.727 36.343 204.709 35.5962 200.847 34.2377C195.695 32.4259 191.244 29.355 186.425 26.8634C184.164 25.6943 181.826 24.734 179.376 24.0423C176.998 23.3708 174.656 23.0628 172.503 24.4992C170.226 26.0187 168.185 27.5114 165.58 28.4626C163.08 29.3752 160.433 29.8857 157.77 29.8651C152.589 29.825 147.482 28.2107 142.45 27.1294C138.346 26.2479 133.956 25.3692 129.772 26.2167C128.026 26.5704 125.477 27.3005 124.846 29.1147C135.458 31.038 139.626 44.1618 136.634 53.796C135.019 58.9959 125.314 65.0746 121.54 62.3409C119.149 60.609 120.601 58.3354 121.54 56.8345C123.339 53.9602 123.954 50.2681 120.626 48.2669C117.755 46.541 114.736 50.6396 114.679 50.6351C113.89 50.5729 107.071 46.7166 102.373 41.0893C97.7383 41.3641 97.0352 38.3081 98.1418 35.809C99.2485 33.3098 106.156 30.1646 109.88 29.5535Z" fill="#2C3A64"/>
<path fill-rule="evenodd" clip-rule="evenodd" d="M147.217 165.297C145.68 186.266 46.7067 248 46.1292 249.732C45.8726 250.502 56.1415 274.837 76.936 322.737L68.2842 326.099C36.389 275.369 21.2605 247.302 22.8987 241.896C25.2442 234.157 50.8417 208.699 99.6911 165.52L147.217 165.297Z" fill="#FFC190"/>
<path fill-rule="evenodd" clip-rule="evenodd" d="M74.6594 311.919L60.5339 317.061C30.7485 283.455 19.0734 255.726 21.2021 241.597C22.6213 232.179 48.1305 206.762 97.7296 165.349L148.23 165.349C146.507 213.909 54.7705 249.917 53.5434 251.986C52.3164 254.056 64.3917 274.323 74.6594 311.919Z" fill="#2C3A64"/>
<path fill-rule="evenodd" clip-rule="evenodd" d="M80.1192 321.086C81.8853 323.151 82.9844 324.777 83.4165 325.964C83.942 327.408 84.4683 329.602 84.9954 332.547C83.3205 333.157 68.2675 338.636 39.8365 348.984C37.2509 345.531 37.166 343.19 39.5818 341.961C41.9976 340.731 43.9963 339.687 45.5779 338.829L63.1616 321.833C63.4999 321.506 64.0393 321.515 64.3664 321.853C64.372 321.859 64.3775 321.865 64.3829 321.871L66.9233 324.652C69.6614 324.893 71.7621 324.746 73.2255 324.214C74.4144 323.781 75.8816 322.703 77.627 320.98L77.627 320.98C78.2968 320.319 79.3758 320.326 80.0369 320.996C80.0654 321.025 80.0929 321.055 80.1192 321.086Z" fill="#2C3A64"/>
<path fill-rule="evenodd" clip-rule="evenodd" d="M135.837 165.297L179.927 271.145L223.26 360.63H213.037L101.181 165.297H135.837Z" fill="#FFC190"/>
<path fill-rule="evenodd" clip-rule="evenodd" d="M223.872 356.499C224.825 359.043 225.302 360.947 225.302 362.211C225.302 363.747 225.046 365.989 224.534 368.937C222.751 368.937 206.732 368.937 176.477 368.937C175.228 364.808 175.949 362.58 178.639 362.25C181.33 361.921 183.565 361.624 185.345 361.359L207.681 351.401C208.111 351.209 208.615 351.402 208.807 351.832C208.81 351.84 208.813 351.847 208.816 351.854L210.252 355.337C212.743 356.499 214.767 357.08 216.324 357.08C217.589 357.08 219.337 356.569 221.566 355.548L221.566 355.547C222.421 355.155 223.433 355.531 223.825 356.386C223.842 356.423 223.858 356.461 223.872 356.499Z" fill="#2C3A64"/>
<path fill-rule="evenodd" clip-rule="evenodd" d="M219.347 342.04L196.63 346.301C179.065 320.477 105.554 214.59 97.4944 165.297H148.069C174.984 200.931 202.604 315.789 219.347 342.04Z" fill="#35488B"/>
<path fill-rule="evenodd" clip-rule="evenodd" d="M59.1521 141.966L28.2785 128.407C22.8702 123.018 17.6476 118.922 12.6109 116.119C11.1049 115.639 8.53183 115.494 11.2771 119.504C14.0223 123.514 16.7296 127.855 15.6326 129.26C14.5357 130.665 11.3582 129.114 10.1028 131.4C9.2659 132.923 14.6221 134.745 26.1715 136.867L49.294 154.595L59.1521 141.966ZM183.97 145.7L166.51 149.164C184.069 181.888 193.486 199.231 194.76 201.194C197.627 205.612 194.952 213.708 193.964 217.972C200.163 219.415 197.718 210.085 205.562 212.033C212.722 213.811 218.793 218.374 225.469 212.22C226.29 211.464 226.89 209.099 224.092 207.886C217.12 204.864 206.819 199.206 205.149 197.009C202.871 194.013 195.812 176.91 183.97 145.7Z" fill="#FFC190"/>
<path fill-rule="evenodd" clip-rule="evenodd" d="M119.056 80.3755L111.688 79.1118C95.6401 94.6788 89.0914 132.078 78.3967 137.029C68.2853 141.709 53.9517 137.18 36.914 131.064L31.6963 142.722C47.1767 159.47 80.156 173.619 93.5239 165.542C114.896 152.627 119.83 106.501 119.056 80.3755Z" fill="#489EC3"/>
<path fill-rule="evenodd" clip-rule="evenodd" d="M151.173 172.966C121.631 172.966 99.9008 172.966 85.9819 172.966C83.003 172.966 83.5643 168.664 83.9949 166.494C88.9648 141.443 108.365 114.44 108.365 78.781L127.17 75.8323C142.723 100.847 148.102 131.645 151.173 172.966Z" fill="#EEF5FD"/>
<path fill-rule="evenodd" clip-rule="evenodd" d="M157.676 147.603C170.966 171.575 182.136 188.834 191.188 199.379L204.853 196.703C196.051 142.114 170.561 101.824 128.383 75.8323H124.989L120.937 75.8323C104.056 133.377 99.4024 171.719 106.976 190.859H165.658C164.73 176.854 161.753 162.044 157.676 147.603H157.676Z" fill="#51B0DA"/>
</svg>
