<svg width="383" height="350" viewBox="0 0 383 350" fill="none" xmlns="http://www.w3.org/2000/svg">
<path d="M71.2 350H361.8C373.5 350 383 338.446 383 324.216V96.7838C383 82.5541 373.5 71 361.8 71H71.2C59.5 71 50 82.5541 50 96.7838V324.216C50.1 338.446 59.5 350 71.2 350Z" fill="#A8DDCB"/>
<path d="M92.9012 258.945H339.401C351.101 258.945 360.601 249.445 360.601 237.745V105.345C360.601 93.6445 351.101 84.1445 339.401 84.1445H92.9012C81.2012 84.1445 71.7012 93.6445 71.7012 105.345V237.845C71.7012 249.445 81.2012 258.945 92.9012 258.945Z" fill="white"/>
<path d="M313.9 258.944H180C193.5 240.644 218.4 228.344 247 228.344C275.5 228.344 300.4 240.644 313.9 258.944Z" fill="#CDEDFF"/>
<path d="M245.3 244.844C257.395 244.844 267.2 239.113 267.2 232.044C267.2 224.975 257.395 219.244 245.3 219.244C233.205 219.244 223.4 224.975 223.4 232.044C223.4 239.113 233.205 244.844 245.3 244.844Z" fill="#5C79B1"/>
<path d="M218.3 123.545H237.6C250.4 123.545 260.9 135.545 260.9 150.145V180.045C260.9 180.845 260.9 181.745 260.8 182.545C261 183.445 261.1 184.345 261.1 185.245V203.445V204.445V222.645C261.1 229.245 255.7 234.645 249.1 234.645H241.4C234.8 234.645 229.4 229.245 229.4 222.645V206.545H218.2C205.4 206.545 194.9 194.645 194.9 179.945V150.045C194.9 135.445 205.4 123.545 218.3 123.545Z" fill="#FCDBC2"/>
<path d="M262.5 163.544C262.5 163.544 243.6 157.244 237.8 145.044C232.1 132.844 233.5 130.244 233.5 130.244C233.5 130.244 222.8 144.844 206 148.444C192.1 151.444 192.7 149.344 191.3 146.144C190 143.144 189.2 122.544 210.3 109.844C231.4 97.1444 254.1 98.4444 269.8 114.244C285.5 130.044 283.5 154.944 278.3 161.144C273 167.344 266.1 170.744 262.5 163.544Z" fill="#505B7A"/>
<path d="M285.2 170.844C285.2 179.244 278.3 186.044 269.8 186.044C261.3 186.044 254.4 179.244 254.4 170.844C254.4 162.444 261.3 155.644 269.8 155.644C278.3 155.544 285.2 162.444 285.2 170.844Z" fill="#FCDBC2"/>
<path d="M26.9007 1.94434H134.601C148.401 1.94434 159.501 13.1443 159.501 26.8443V70.8443V86.2443V134.444L134.201 111.144H26.9007C13.1007 111.144 2.00066 99.9443 2.00066 86.2443V26.9443C1.90066 13.1443 13.1007 1.94434 26.9007 1.94434Z" fill="#A8DDCB" stroke="#A8DDCB" stroke-width="2.6923" stroke-miterlimit="10"/>
<path d="M71.1304 63.915H86.5465C86.5465 55.9471 100.75 53.9552 100.75 40.4443C100.75 29.8782 91.2234 24.1621 77.8858 24.1621C65.1544 24.1621 56.7535 29.272 52.1633 36.98L65.0678 43.9087C67.3196 40.0113 71.217 37.6729 75.8938 37.6729C80.3108 37.6729 83.5153 39.7515 83.5153 43.2158C83.5153 49.7114 71.1304 52.5694 71.1304 63.915ZM78.8385 86.7795C84.6412 86.7795 88.7117 82.7089 88.7117 77.6857C88.7117 72.5758 84.6412 68.7651 78.8385 68.7651C73.0357 68.7651 69.0518 72.5758 69.0518 77.6857C69.0518 82.7089 73.0357 86.7795 78.8385 86.7795Z" fill="white"/>
<path d="M71.1304 63.915H69.7842V65.2612H71.1304V63.915ZM86.5465 63.915V65.2612H87.8927V63.915H86.5465ZM52.1633 36.98L51.0067 36.2913L50.2867 37.5004L51.5265 38.1661L52.1633 36.98ZM65.0678 43.9087L64.431 45.0947L65.5806 45.7119L66.2334 44.5821L65.0678 43.9087ZM71.1304 65.2612H86.5465V62.5689H71.1304V65.2612ZM87.8927 63.915C87.8927 62.3737 88.5627 61.0595 89.7779 59.6738C91.0384 58.2365 92.6862 56.9285 94.5469 55.2607C98.1801 52.0041 102.096 47.7889 102.096 40.4444H99.404C99.404 46.6106 96.2185 50.1468 92.7499 53.2559C91.0596 54.7709 89.1565 56.2992 87.7538 57.8986C86.3059 59.5496 85.2004 61.4724 85.2004 63.915H87.8927ZM102.096 40.4444C102.096 34.6916 99.4737 30.2141 95.0759 27.2273C90.7321 24.2773 84.7221 22.816 77.8858 22.816V25.5083C84.3871 25.5083 89.8092 26.905 93.5633 29.4545C97.2632 31.9673 99.404 35.6309 99.404 40.4444H102.096ZM77.8858 22.816C64.7503 22.816 55.8736 28.1186 51.0067 36.2913L53.3199 37.6688C57.6334 30.4253 65.5586 25.5083 77.8858 25.5083V22.816ZM51.5265 38.1661L64.431 45.0947L65.7046 42.7226L52.8001 35.794L51.5265 38.1661ZM66.2334 44.5821C68.2487 41.094 71.7058 39.0191 75.8938 39.0191V36.3268C70.7281 36.3268 66.3905 38.9286 63.9022 43.2352L66.2334 44.5821ZM75.8938 39.0191C77.9109 39.0191 79.521 39.4962 80.586 40.246C81.6109 40.9675 82.1691 41.9569 82.1691 43.2158H84.8614C84.8614 41.0104 83.8174 39.2283 82.1358 38.0445C80.4943 36.8889 78.2937 36.3268 75.8938 36.3268V39.0191ZM82.1691 43.2158C82.1691 44.3753 81.6272 45.4677 80.5568 46.7203C79.4558 48.0087 78.0222 49.2237 76.3951 50.7712C73.2402 53.7717 69.7842 57.6608 69.7842 63.915H72.4765C72.4765 58.8237 75.213 55.6109 78.2505 52.7221C79.7196 51.3249 81.3823 49.8984 82.6035 48.4694C83.8552 47.0048 84.8614 45.3041 84.8614 43.2158H82.1691ZM78.8384 88.1256C85.3106 88.1256 90.0579 83.5243 90.0579 77.6857H87.3656C87.3656 81.8935 83.9717 85.4333 78.8384 85.4333V88.1256ZM90.0579 77.6857C90.0579 71.7197 85.2667 67.4189 78.8384 67.4189V70.1112C84.0156 70.1112 87.3656 73.4319 87.3656 77.6857H90.0579ZM78.8384 67.4189C72.3937 67.4189 67.7056 71.7348 67.7056 77.6857H70.3979C70.3979 73.4168 73.6778 70.1112 78.8384 70.1112V67.4189ZM67.7056 77.6857C67.7056 83.5088 72.35 88.1256 78.8384 88.1256V85.4333C73.7214 85.4333 70.3979 81.909 70.3979 77.6857H67.7056Z" fill="white"/>
<path d="M183.116 291.08L181.532 292.592C182.468 293.312 183.236 294.032 183.836 294.704H180.452C180.404 293.6 180.38 292.448 180.38 291.224H177.836C177.836 292.424 177.836 293.6 177.884 294.704H167.996V302.696C167.924 306.584 167.156 309.632 165.668 311.816L167.564 313.52C169.412 310.808 170.396 307.232 170.516 302.768H173.9C173.852 305.216 173.78 306.728 173.636 307.28C173.516 307.76 173.252 308 172.868 308.024C172.196 308.024 171.404 307.976 170.444 307.904L171.212 310.184C171.932 310.256 172.58 310.304 173.156 310.304C174.452 310.28 175.292 309.776 175.676 308.768C176.084 307.664 176.324 304.88 176.396 300.416H170.516V297.08H178.004C178.196 299.96 178.532 302.384 179.06 304.304C179.324 305.288 179.612 306.2 179.948 307.04C178.364 308.96 176.444 310.424 174.188 311.432L175.628 313.544C177.692 312.632 179.516 311.312 181.1 309.584C181.388 310.112 181.724 310.592 182.06 311.024C183.236 312.44 184.34 313.16 185.396 313.16C186.596 313.16 187.484 311.456 188.108 308.072L185.852 306.848C185.54 309.152 185.252 310.304 185.012 310.304C184.652 310.304 184.124 309.776 183.452 308.744C183.212 308.384 182.972 307.952 182.756 307.472C184.22 305.336 185.42 302.744 186.356 299.696L184.076 298.712C183.452 300.872 182.66 302.816 181.7 304.496C181.604 304.16 181.508 303.848 181.436 303.512C181.052 302.024 180.764 299.864 180.572 297.08H187.628V294.704H184.772L185.876 293.576C185.108 292.736 184.196 291.896 183.116 291.08ZM196.052 291.824L194.156 293.192C195.452 294.536 196.508 295.784 197.3 296.888L199.268 295.544C198.5 294.464 197.444 293.216 196.052 291.824ZM204.74 301.904L202.724 303.176C204.212 305 205.412 306.656 206.3 308.144L208.508 306.608C207.62 305.264 206.372 303.704 204.74 301.904ZM200.78 291.272V294.896C200.756 295.592 200.708 296.288 200.66 296.984H193.22V299.432H200.396C200.084 301.592 199.58 303.464 198.908 305.072C197.78 307.52 195.62 309.56 192.404 311.192L193.82 313.424C197.06 311.912 199.388 309.752 200.804 306.968C201.812 304.952 202.508 302.432 202.916 299.432H210.356C210.356 302.264 210.284 304.904 210.14 307.304C209.996 309.704 209.42 310.952 208.436 311.048C207.308 311.048 206.06 310.952 204.716 310.808L205.388 313.232C206.252 313.328 207.308 313.376 208.556 313.376C210.188 313.376 211.34 312.392 211.988 310.472C212.612 308.552 212.924 304.04 212.924 296.984H203.156C203.204 296.312 203.228 295.616 203.252 294.896V291.272H200.78ZM240.188 295.928H235.844C236.636 294.896 237.404 293.624 238.172 292.136L235.58 291.176C234.884 292.856 234.068 294.44 233.108 295.928H229.436L231.428 294.92C230.708 293.504 229.94 292.208 229.172 291.032L226.892 292.136C227.684 293.24 228.428 294.512 229.124 295.928H224.372L225.812 295.208C225.044 293.864 224.276 292.64 223.46 291.536L221.18 292.64C221.972 293.6 222.716 294.704 223.436 295.928H219.212V301.904H221.684V298.328H237.692V301.904H240.188V295.928ZM223.196 299.624V301.832H232.556C231.596 302.312 230.324 302.864 228.74 303.536V305.312H219.356V307.664H228.74V310.328C228.74 310.904 228.5 311.216 228.044 311.216C227.012 311.216 226.052 311.192 225.188 311.144L225.812 313.424H228.884C230.468 313.424 231.26 312.656 231.26 311.168V307.664H240.116V305.312H231.26V304.64C233.084 303.728 234.74 302.792 236.228 301.832V299.624H223.196ZM264.452 299.84H247.772V309.368H250.268V302.12H261.956V308.984H264.452V299.84ZM249.188 291.944V298.496H263.036V291.944H249.188ZM260.612 296.336H251.612V294.152H260.612V296.336ZM255.044 303.248C254.876 306.08 254.252 308.096 253.172 309.248C251.924 310.448 249.38 311.144 245.54 311.336L246.524 313.616C251.228 313.184 254.156 312.2 255.356 310.712C256.508 309.536 257.252 307.136 257.588 303.488L255.044 303.248ZM258.068 308.624L256.82 310.472C259.7 311.24 262.508 312.296 265.244 313.64L266.588 311.552C263.996 310.4 261.164 309.44 258.068 308.624Z" fill="#202020"/>
</svg>
