<svg width="383" height="351" viewBox="0 0 383 351" fill="none" xmlns="http://www.w3.org/2000/svg">
<path d="M71.2 351H361.8C373.5 351 383 339.446 383 325.216V97.7838C383 83.5541 373.5 72 361.8 72H71.2C59.5 72 50 83.5541 50 97.7838V325.216C50.1 339.446 59.5 351 71.2 351Z" fill="#66C3A3"/>
<path d="M92.9012 259.945H339.401C351.101 259.945 360.601 250.445 360.601 238.745V106.345C360.601 94.6445 351.101 85.1445 339.401 85.1445H92.9012C81.2012 85.1445 71.7012 94.6445 71.7012 106.345V238.845C71.7012 250.445 81.2012 259.945 92.9012 259.945Z" fill="white"/>
<path d="M313.901 259.944H180.001C193.501 241.644 218.401 229.344 247.001 229.344C275.501 229.344 300.401 241.644 313.901 259.944Z" fill="#A7DEFC"/>
<path d="M245.301 245.844C257.396 245.844 267.201 240.113 267.201 233.044C267.201 225.975 257.396 220.244 245.301 220.244C233.206 220.244 223.401 225.975 223.401 233.044C223.401 240.113 233.206 245.844 245.301 245.844Z" fill="#2A4E96"/>
<path d="M218.301 124.545H237.601C250.401 124.545 260.901 136.545 260.901 151.145V181.045C260.901 181.845 260.901 182.745 260.801 183.545C261.001 184.445 261.101 185.345 261.101 186.245V204.445V205.445V223.645C261.101 230.245 255.701 235.645 249.101 235.645H241.401C234.801 235.645 229.401 230.245 229.401 223.645V207.545H218.201C205.401 207.545 194.901 195.645 194.901 180.945V151.045C194.901 136.445 205.401 124.545 218.301 124.545Z" fill="#F4CDAF"/>
<path d="M262.501 164.544C262.501 164.544 243.601 158.244 237.801 146.044C232.101 133.844 233.501 131.244 233.501 131.244C233.501 131.244 222.801 145.844 206.001 149.444C192.101 152.444 192.701 150.344 191.301 147.144C190.001 144.144 189.201 123.544 210.301 110.844C231.401 98.1444 254.101 99.4444 269.801 115.244C285.501 131.044 283.501 155.944 278.301 162.144C273.001 168.344 266.101 171.744 262.501 164.544Z" fill="#2C3A64"/>
<path d="M285.201 171.844C285.201 180.244 278.301 187.044 269.801 187.044C261.301 187.044 254.401 180.244 254.401 171.844C254.401 163.444 261.301 156.644 269.801 156.644C278.301 156.544 285.201 163.444 285.201 171.844Z" fill="#F4CDAF"/>
<path d="M26.9007 2.94434H134.601C148.401 2.94434 159.501 14.1443 159.501 27.8443V71.8443V87.2443V135.444L134.201 112.144H26.9007C13.1007 112.144 2.00066 100.944 2.00066 87.2443V27.9443C1.90066 14.1443 13.1007 2.94434 26.9007 2.94434Z" fill="white" stroke="#66C3A3" stroke-width="2.6923" stroke-miterlimit="10"/>
<path d="M71.1313 61.915H69.7852V63.2612H71.1313V61.915ZM73.0367 54.8132L74.146 55.5758L74.1514 55.5679L74.1568 55.5599L73.0367 54.8132ZM78.5796 48.5774L79.4956 49.5639L79.4969 49.5627L78.5796 48.5774ZM82.3037 44.6801L83.3663 45.5066L83.3771 45.4927L83.3875 45.4786L82.3037 44.6801ZM81.351 37.2318L80.5434 38.3088L80.5683 38.3275L80.5941 38.345L81.351 37.2318ZM69.5724 37.3184L68.9007 36.1518L68.8929 36.1563L68.8851 36.161L69.5724 37.3184ZM65.0688 41.9087L64.432 43.0947L65.5727 43.7071L66.2291 42.5912L65.0688 41.9087ZM52.1643 34.98L51.0027 34.2997L50.2966 35.5052L51.5275 36.1661L52.1643 34.98ZM62.2107 25.5398L62.8318 26.7341H62.8318L62.2107 25.5398ZM94.4288 26.4925L93.661 27.5982L93.6697 27.6043L93.6786 27.6102L94.4288 26.4925ZM99.5387 44.7667L100.766 45.3208L100.769 45.3135L100.772 45.3063L99.5387 44.7667ZM96.594 49.3569L95.5979 48.4514L95.5958 48.4538L96.594 49.3569ZM92.2636 53.5141L93.1372 54.5383L93.1477 54.5292L92.2636 53.5141ZM87.9332 57.8445L88.9844 58.6854L88.9944 58.673L89.004 58.6603L87.9332 57.8445ZM86.5475 61.915V63.2612H87.8937V61.915H86.5475ZM71.8242 82.1812L70.8876 83.1481L70.8955 83.1558L70.9035 83.1633L71.8242 82.1812ZM71.7376 69.2767L70.8336 68.2792L70.8257 68.2864L70.818 68.2936L71.7376 69.2767ZM85.9413 69.2767L85.0373 70.2742L85.9413 69.2767ZM85.9413 82.1812L86.8619 83.1633L86.87 83.1558L86.8779 83.1481L85.9413 82.1812ZM72.4775 61.915C72.4775 59.2225 73.069 57.1424 74.146 55.5758L71.9274 54.0506C70.464 56.1792 69.7852 58.8337 69.7852 61.915H72.4775ZM74.1568 55.5599C75.3491 53.7715 77.1168 51.7728 79.4956 49.5639L77.6636 47.591C75.1924 49.8857 73.2648 52.0442 71.9166 54.0665L74.1568 55.5599ZM79.4969 49.5627C81.1916 47.9849 82.4932 46.6291 83.3663 45.5066L81.2411 43.8536C80.4976 44.8097 79.3164 46.0522 77.6623 47.5922L79.4969 49.5627ZM83.3875 45.4786C84.3442 44.1803 84.8624 42.7508 84.8624 41.2158H82.1701C82.1701 42.1058 81.88 42.9859 81.22 43.8816L83.3875 45.4786ZM84.8624 41.2158C84.8624 39.0735 83.9014 37.3382 82.108 36.1187L80.5941 38.345C81.6877 39.0886 82.1701 40.0092 82.1701 41.2158H84.8624ZM82.1587 36.1549C80.4785 34.8948 78.3503 34.3268 75.8948 34.3268V37.0191C77.9428 37.0191 79.4521 37.4903 80.5434 38.3088L82.1587 36.1549ZM75.8948 34.3268C73.3618 34.3268 71.0209 34.9312 68.9007 36.1518L70.2441 38.4851C71.9347 37.5117 73.8086 37.0191 75.8948 37.0191V34.3268ZM68.8851 36.161C66.8306 37.3809 65.1713 39.0795 63.9085 41.2261L66.2291 42.5912C67.2759 40.8116 68.619 39.4501 70.2597 38.4759L68.8851 36.161ZM65.7056 40.7226L52.801 33.794L51.5275 36.1661L64.432 43.0947L65.7056 40.7226ZM53.3258 35.6604C55.5594 31.847 58.7165 28.8741 62.8318 26.7341L61.5897 24.3455C57.0443 26.7091 53.5037 30.0297 51.0027 34.2997L53.3258 35.6604ZM62.8318 26.7341C66.9278 24.6042 71.9289 23.5083 77.8867 23.5083V20.816C71.604 20.816 66.1545 21.9718 61.5897 24.3455L62.8318 26.7341ZM77.8867 23.5083C84.5791 23.5083 89.797 24.9148 93.661 27.5982L95.1967 25.3868C90.7463 22.2963 84.9361 20.816 77.8867 20.816V23.5083ZM93.6786 27.6102C97.5155 30.1857 99.405 33.7476 99.405 38.4444H102.097C102.097 32.8637 99.7719 28.4577 95.1791 25.3748L93.6786 27.6102ZM99.405 38.4444C99.405 40.6578 99.0275 42.5766 98.3054 44.2271L100.772 45.3063C101.667 43.2615 102.097 40.9654 102.097 38.4444H99.405ZM98.3118 44.2127C97.5533 45.8922 96.6453 47.2993 95.5979 48.4514L97.5901 50.2624C98.8522 48.874 99.9073 47.221 100.766 45.3208L98.3118 44.2127ZM95.5958 48.4538C94.5465 49.6135 93.1454 50.9609 91.3795 52.499L93.1477 54.5292C94.9616 52.9494 96.4474 51.5254 97.5922 50.2601L95.5958 48.4538ZM91.39 52.4899C89.3967 54.1901 87.8707 55.7054 86.8625 57.0286L89.004 58.6603C89.8434 57.5586 91.2043 56.1869 93.1372 54.5383L91.39 52.4899ZM86.8821 57.0035C85.7565 58.4106 85.2014 60.0683 85.2014 61.915H87.8937C87.8937 60.6439 88.2624 59.5879 88.9844 58.6854L86.8821 57.0035ZM86.5475 60.5689H71.1313V63.2612H86.5475V60.5689ZM78.8394 83.4333C76.3089 83.4333 74.3131 82.6693 72.7449 81.1992L70.9035 83.1633C73.0306 85.1574 75.7116 86.1256 78.8394 86.1256V83.4333ZM72.7608 81.2144C71.1712 79.6745 70.3989 77.8566 70.3989 75.6857H67.7066C67.7066 78.5957 68.7819 81.1082 70.8876 83.1481L72.7608 81.2144ZM70.3989 75.6857C70.3989 73.4349 71.1572 71.663 72.6572 70.2597L70.818 68.2936C68.7382 70.2393 67.7066 72.74 67.7066 75.6857H70.3989ZM72.6416 70.2742C74.2029 68.8592 76.2304 68.1112 78.8394 68.1112V65.4189C75.6746 65.4189 72.9676 66.3453 70.8336 68.2792L72.6416 70.2742ZM78.8394 68.1112C81.4484 68.1112 83.476 68.8592 85.0373 70.2742L86.8452 68.2792C84.7113 66.3453 82.0043 65.4189 78.8394 65.4189V68.1112ZM85.0373 70.2742C86.5902 71.6815 87.3666 73.4493 87.3666 75.6857H90.0589C90.0589 72.7255 88.9876 70.2207 86.8452 68.2792L85.0373 70.2742ZM87.3666 75.6857C87.3666 77.8566 86.5942 79.6745 85.0046 81.2144L86.8779 83.1481C88.9836 81.1082 90.0589 78.5957 90.0589 75.6857H87.3666ZM85.0206 81.1992C83.4576 82.6644 81.4359 83.4333 78.8394 83.4333V86.1256C82.0168 86.1256 84.7296 85.1624 86.8619 83.1633L85.0206 81.1992Z" fill="#66C3A3"/>
<path d="M183.116 292.08L181.532 293.592C182.468 294.312 183.236 295.032 183.836 295.704H180.452C180.404 294.6 180.38 293.448 180.38 292.224H177.836C177.836 293.424 177.836 294.6 177.884 295.704H167.996V303.696C167.924 307.584 167.156 310.632 165.668 312.816L167.564 314.52C169.412 311.808 170.396 308.232 170.516 303.768H173.9C173.852 306.216 173.78 307.728 173.636 308.28C173.516 308.76 173.252 309 172.868 309.024C172.196 309.024 171.404 308.976 170.444 308.904L171.212 311.184C171.932 311.256 172.58 311.304 173.156 311.304C174.452 311.28 175.292 310.776 175.676 309.768C176.084 308.664 176.324 305.88 176.396 301.416H170.516V298.08H178.004C178.196 300.96 178.532 303.384 179.06 305.304C179.324 306.288 179.612 307.2 179.948 308.04C178.364 309.96 176.444 311.424 174.188 312.432L175.628 314.544C177.692 313.632 179.516 312.312 181.1 310.584C181.388 311.112 181.724 311.592 182.06 312.024C183.236 313.44 184.34 314.16 185.396 314.16C186.596 314.16 187.484 312.456 188.108 309.072L185.852 307.848C185.54 310.152 185.252 311.304 185.012 311.304C184.652 311.304 184.124 310.776 183.452 309.744C183.212 309.384 182.972 308.952 182.756 308.472C184.22 306.336 185.42 303.744 186.356 300.696L184.076 299.712C183.452 301.872 182.66 303.816 181.7 305.496C181.604 305.16 181.508 304.848 181.436 304.512C181.052 303.024 180.764 300.864 180.572 298.08H187.628V295.704H184.772L185.876 294.576C185.108 293.736 184.196 292.896 183.116 292.08ZM196.052 292.824L194.156 294.192C195.452 295.536 196.508 296.784 197.3 297.888L199.268 296.544C198.5 295.464 197.444 294.216 196.052 292.824ZM204.74 302.904L202.724 304.176C204.212 306 205.412 307.656 206.3 309.144L208.508 307.608C207.62 306.264 206.372 304.704 204.74 302.904ZM200.78 292.272V295.896C200.756 296.592 200.708 297.288 200.66 297.984H193.22V300.432H200.396C200.084 302.592 199.58 304.464 198.908 306.072C197.78 308.52 195.62 310.56 192.404 312.192L193.82 314.424C197.06 312.912 199.388 310.752 200.804 307.968C201.812 305.952 202.508 303.432 202.916 300.432H210.356C210.356 303.264 210.284 305.904 210.14 308.304C209.996 310.704 209.42 311.952 208.436 312.048C207.308 312.048 206.06 311.952 204.716 311.808L205.388 314.232C206.252 314.328 207.308 314.376 208.556 314.376C210.188 314.376 211.34 313.392 211.988 311.472C212.612 309.552 212.924 305.04 212.924 297.984H203.156C203.204 297.312 203.228 296.616 203.252 295.896V292.272H200.78ZM240.188 296.928H235.844C236.636 295.896 237.404 294.624 238.172 293.136L235.58 292.176C234.884 293.856 234.068 295.44 233.108 296.928H229.436L231.428 295.92C230.708 294.504 229.94 293.208 229.172 292.032L226.892 293.136C227.684 294.24 228.428 295.512 229.124 296.928H224.372L225.812 296.208C225.044 294.864 224.276 293.64 223.46 292.536L221.18 293.64C221.972 294.6 222.716 295.704 223.436 296.928H219.212V302.904H221.684V299.328H237.692V302.904H240.188V296.928ZM223.196 300.624V302.832H232.556C231.596 303.312 230.324 303.864 228.74 304.536V306.312H219.356V308.664H228.74V311.328C228.74 311.904 228.5 312.216 228.044 312.216C227.012 312.216 226.052 312.192 225.188 312.144L225.812 314.424H228.884C230.468 314.424 231.26 313.656 231.26 312.168V308.664H240.116V306.312H231.26V305.64C233.084 304.728 234.74 303.792 236.228 302.832V300.624H223.196ZM264.452 300.84H247.772V310.368H250.268V303.12H261.956V309.984H264.452V300.84ZM249.188 292.944V299.496H263.036V292.944H249.188ZM260.612 297.336H251.612V295.152H260.612V297.336ZM255.044 304.248C254.876 307.08 254.252 309.096 253.172 310.248C251.924 311.448 249.38 312.144 245.54 312.336L246.524 314.616C251.228 314.184 254.156 313.2 255.356 311.712C256.508 310.536 257.252 308.136 257.588 304.488L255.044 304.248ZM258.068 309.624L256.82 311.472C259.7 312.24 262.508 313.296 265.244 314.64L266.588 312.552C263.996 311.4 261.164 310.44 258.068 309.624Z" fill="white"/>
</svg>
