<svg width="361" height="259" viewBox="0 0 361 259" fill="none" xmlns="http://www.w3.org/2000/svg">
<path d="M92.9007 259H339.401C351.101 259 360.601 249.5 360.601 237.8V105.4C360.601 93.7002 351.101 84.2002 339.401 84.2002H92.9007C81.2007 84.2002 71.7007 93.7002 71.7007 105.4V237.9C71.7007 249.5 81.2007 259 92.9007 259Z" fill="white"/>
<path d="M313.9 259H180C193.5 240.7 218.4 228.4 247 228.4C275.5 228.4 300.4 240.7 313.9 259Z" fill="#A7DEFC"/>
<path d="M245.3 244.9C257.395 244.9 267.2 239.169 267.2 232.1C267.2 225.031 257.395 219.3 245.3 219.3C233.205 219.3 223.4 225.031 223.4 232.1C223.4 239.169 233.205 244.9 245.3 244.9Z" fill="#2A4E96"/>
<path d="M218.3 123.6H237.6C250.4 123.6 260.9 135.6 260.9 150.2V180.1C260.9 180.9 260.9 181.8 260.8 182.6C261 183.5 261.1 184.4 261.1 185.3V203.5V204.5V222.7C261.1 229.3 255.7 234.7 249.1 234.7H241.4C234.8 234.7 229.4 229.3 229.4 222.7V206.6H218.2C205.4 206.6 194.9 194.7 194.9 180V150.1C194.9 135.5 205.4 123.6 218.3 123.6Z" fill="#F4CDAF"/>
<path d="M262.5 163.6C262.5 163.6 243.6 157.3 237.8 145.1C232.1 132.9 233.5 130.3 233.5 130.3C233.5 130.3 222.8 144.9 206 148.5C192.1 151.5 192.7 149.4 191.3 146.2C190 143.2 189.2 122.6 210.3 109.9C231.4 97.2001 254.101 98.5001 269.801 114.3C285.501 130.1 283.501 155 278.301 161.2C273.001 167.4 266.1 170.8 262.5 163.6Z" fill="#2C3A64"/>
<path d="M285.2 170.9C285.2 179.3 278.3 186.1 269.8 186.1C261.3 186.1 254.4 179.3 254.4 170.9C254.4 162.5 261.3 155.7 269.8 155.7C278.3 155.6 285.2 162.5 285.2 170.9Z" fill="#F4CDAF"/>
<path d="M26.9007 2H134.601C148.401 2 159.501 13.2 159.501 26.9V70.9V86.3V134.5L134.201 111.2H26.9007C13.1007 111.2 2.00066 100 2.00066 86.3V27C1.90066 13.2 13.1007 2 26.9007 2Z" fill="white" stroke="#66C3A3" stroke-width="2.6923" stroke-miterlimit="10"/>
<path d="M71.1304 63.9707H69.7842V65.3168H71.1304V63.9707ZM73.0357 56.8689L74.145 57.6315L74.1505 57.6236L74.1558 57.6156L73.0357 56.8689ZM78.5786 50.6331L79.4946 51.6196L79.4959 51.6184L78.5786 50.6331ZM82.3028 46.7358L83.3653 47.5622L83.3761 47.5484L83.3865 47.5343L82.3028 46.7358ZM81.3501 39.2875L80.5424 40.3644L80.5673 40.3831L80.5931 40.4007L81.3501 39.2875ZM69.5714 39.3741L68.8997 38.2075L68.8919 38.212L68.8842 38.2166L69.5714 39.3741ZM65.0678 43.9643L64.431 45.1503L65.5717 45.7628L66.2281 44.6468L65.0678 43.9643ZM52.1633 37.0357L51.0017 36.3554L50.2956 37.5609L51.5265 38.2217L52.1633 37.0357ZM62.2098 27.5955L62.8308 28.7898L62.8308 28.7898L62.2098 27.5955ZM94.4278 28.5482L93.66 29.6538L93.6687 29.6599L93.6776 29.6659L94.4278 28.5482ZM99.5377 46.8224L100.765 47.3764L100.768 47.3692L100.771 47.3619L99.5377 46.8224ZM96.593 51.4126L95.597 50.5071L95.5948 50.5094L96.593 51.4126ZM92.2626 55.5698L93.1363 56.594L93.1468 56.5849L92.2626 55.5698ZM87.9323 59.9001L88.9834 60.7411L88.9934 60.7286L89.003 60.716L87.9323 59.9001ZM86.5465 63.9707V65.3168H87.8927V63.9707H86.5465ZM71.8232 84.2369L70.8866 85.2038L70.8945 85.2114L70.9025 85.219L71.8232 84.2369ZM71.7366 71.3324L70.8327 70.3349L70.8248 70.342L70.817 70.3493L71.7366 71.3324ZM85.9403 71.3324L85.0363 72.3298L85.0363 72.3298L85.9403 71.3324ZM85.9403 84.2369L86.861 85.219L86.869 85.2114L86.8769 85.2038L85.9403 84.2369ZM72.4765 63.9707C72.4765 61.2782 73.068 59.1981 74.145 57.6315L71.9264 56.1062C70.463 58.2349 69.7842 60.8894 69.7842 63.9707H72.4765ZM74.1558 57.6156C75.3481 55.8271 77.1158 53.8285 79.4946 51.6196L77.6626 49.6467C75.1914 51.9414 73.2639 54.0999 71.9157 56.1222L74.1558 57.6156ZM79.4959 51.6184C81.1906 50.0405 82.4922 48.6848 83.3653 47.5622L81.2402 45.9093C80.4966 46.8653 79.3155 48.1078 77.6613 49.6479L79.4959 51.6184ZM83.3865 47.5343C84.3432 46.2359 84.8614 44.8065 84.8614 43.2715H82.1691C82.1691 44.1615 81.879 45.0416 81.219 45.9372L83.3865 47.5343ZM84.8614 43.2715C84.8614 41.1292 83.9004 39.3938 82.107 38.1743L80.5931 40.4007C81.6867 41.1443 82.1691 42.0649 82.1691 43.2715H84.8614ZM82.1578 38.2106C80.4776 36.9504 78.3493 36.3824 75.8938 36.3824V39.0747C77.9419 39.0747 79.4511 39.546 80.5424 40.3644L82.1578 38.2106ZM75.8938 36.3824C73.3609 36.3824 71.0199 36.9868 68.8997 38.2075L70.2431 40.5407C71.9337 39.5673 73.8076 39.0747 75.8938 39.0747V36.3824ZM68.8842 38.2166C66.8296 39.4365 65.1703 41.1351 63.9075 43.2818L66.2281 44.6468C67.2749 42.8673 68.618 41.5058 70.2587 40.5316L68.8842 38.2166ZM65.7046 42.7783L52.8001 35.8497L51.5265 38.2217L64.431 45.1503L65.7046 42.7783ZM53.3248 37.7161C55.5584 33.9026 58.7155 30.9298 62.8308 28.7898L61.5887 26.4011C57.0433 28.7648 53.5027 32.0854 51.0017 36.3554L53.3248 37.7161ZM62.8308 28.7898C66.9268 26.6599 71.928 25.5639 77.8858 25.5639V22.8716C71.603 22.8716 66.1535 24.0274 61.5887 26.4011L62.8308 28.7898ZM77.8858 25.5639C84.5782 25.5639 89.796 26.9705 93.66 29.6538L95.1957 27.4425C90.7453 24.3519 84.9351 22.8716 77.8858 22.8716V25.5639ZM93.6776 29.6659C97.5146 32.2414 99.404 35.8032 99.404 40.5H102.096C102.096 34.9193 99.7709 30.5133 95.1781 27.4304L93.6776 29.6659ZM99.404 40.5C99.404 42.7135 99.0265 44.6323 98.3044 46.2828L100.771 47.3619C101.666 45.3172 102.096 43.0211 102.096 40.5H99.404ZM98.3108 46.2683C97.5523 47.9479 96.6443 49.355 95.597 50.5071L97.5891 52.3181C98.8513 50.9297 99.9064 49.2767 100.765 47.3764L98.3108 46.2683ZM95.5948 50.5094C94.5456 51.6691 93.1444 53.0166 91.3785 54.5546L93.1468 56.5849C94.9607 55.005 96.4464 53.5811 97.5912 52.3157L95.5948 50.5094ZM91.3891 54.5456C89.3957 56.2458 87.8697 57.761 86.8615 59.0843L89.003 60.716C89.8425 59.6142 91.2034 58.2426 93.1362 56.5939L91.3891 54.5456ZM86.8811 59.0592C85.7555 60.4662 85.2004 62.1239 85.2004 63.9707H87.8927C87.8927 62.6996 88.2614 61.6436 88.9834 60.7411L86.8811 59.0592ZM86.5465 62.6245H71.1304V65.3168H86.5465V62.6245ZM78.8385 85.489C76.3079 85.489 74.3121 84.725 72.7439 83.2548L70.9025 85.219C73.0296 87.2131 75.7106 88.1813 78.8385 88.1813V85.489ZM72.7599 83.27C71.1703 81.7301 70.3979 79.9122 70.3979 77.7413H67.7056C67.7056 80.6514 68.7809 83.1639 70.8866 85.2038L72.7599 83.27ZM70.3979 77.7413C70.3979 75.4906 71.1563 73.7186 72.6562 72.3154L70.817 70.3493C68.7372 72.2949 67.7056 74.7956 67.7056 77.7413H70.3979ZM72.6406 72.3298C74.2019 70.9149 76.2295 70.1669 78.8385 70.1669V67.4746C75.6736 67.4746 72.9666 68.401 70.8327 70.3349L72.6406 72.3298ZM78.8385 70.1669C81.4474 70.1669 83.475 70.9149 85.0363 72.3298L86.8442 70.3349C84.7103 68.401 82.0033 67.4746 78.8385 67.4746V70.1669ZM85.0363 72.3298C86.5892 73.7372 87.3656 75.505 87.3656 77.7413H90.0579C90.0579 74.7812 88.9866 72.2764 86.8442 70.3349L85.0363 72.3298ZM87.3656 77.7413C87.3656 79.9122 86.5932 81.7301 85.0036 83.27L86.8769 85.2038C88.9826 83.1639 90.0579 80.6514 90.0579 77.7413H87.3656ZM85.0196 83.2548C83.4567 84.7201 81.4349 85.489 78.8385 85.489V88.1813C82.0159 88.1813 84.7286 87.218 86.861 85.219L85.0196 83.2548Z" fill="#66C3A3"/>
</svg>
