<svg width="361" height="259" viewBox="0 0 361 259" fill="none" xmlns="http://www.w3.org/2000/svg">
<path d="M92.9007 259H339.401C351.101 259 360.601 249.5 360.601 237.8V105.4C360.601 93.7002 351.101 84.2002 339.401 84.2002H92.9007C81.2007 84.2002 71.7007 93.7002 71.7007 105.4V237.9C71.7007 249.5 81.2007 259 92.9007 259Z" fill="white"/>
<path d="M313.9 259H180C193.5 240.7 218.4 228.4 247 228.4C275.5 228.4 300.4 240.7 313.9 259Z" fill="#CDEDFF"/>
<path d="M245.3 244.9C257.395 244.9 267.2 239.169 267.2 232.1C267.2 225.031 257.395 219.3 245.3 219.3C233.205 219.3 223.4 225.031 223.4 232.1C223.4 239.169 233.205 244.9 245.3 244.9Z" fill="#5C79B1"/>
<path d="M218.3 123.6H237.6C250.4 123.6 260.9 135.6 260.9 150.2V180.1C260.9 180.9 260.9 181.8 260.8 182.6C261 183.5 261.1 184.4 261.1 185.3V203.5V204.5V222.7C261.1 229.3 255.7 234.7 249.1 234.7H241.4C234.8 234.7 229.4 229.3 229.4 222.7V206.6H218.2C205.4 206.6 194.9 194.7 194.9 180V150.1C194.9 135.5 205.4 123.6 218.3 123.6Z" fill="#FCDBC2"/>
<path d="M262.5 163.6C262.5 163.6 243.6 157.3 237.8 145.1C232.1 132.9 233.5 130.3 233.5 130.3C233.5 130.3 222.8 144.9 206 148.5C192.1 151.5 192.7 149.4 191.3 146.2C190 143.2 189.2 122.6 210.3 109.9C231.4 97.2001 254.101 98.5001 269.801 114.3C285.501 130.1 283.501 155 278.301 161.2C273.001 167.4 266.1 170.8 262.5 163.6Z" fill="#505B7A"/>
<path d="M285.2 170.9C285.2 179.3 278.3 186.1 269.8 186.1C261.3 186.1 254.4 179.3 254.4 170.9C254.4 162.5 261.3 155.7 269.8 155.7C278.3 155.6 285.2 162.5 285.2 170.9Z" fill="#FCDBC2"/>
<path d="M26.9007 2H134.601C148.401 2 159.501 13.2 159.501 26.9V70.9V86.3V134.5L134.201 111.2H26.9007C13.1007 111.2 2.00066 100 2.00066 86.3V27C1.90066 13.2 13.1007 2 26.9007 2Z" fill="#A8DDCB" stroke="#A8DDCB" stroke-width="2.6923" stroke-miterlimit="10"/>
<path d="M71.1304 63.9707H86.5465C86.5465 56.0028 100.75 54.0108 100.75 40.5C100.75 29.9339 91.2234 24.2178 77.8858 24.2178C65.1544 24.2178 56.7535 29.3276 52.1633 37.0357L65.0678 43.9643C67.3196 40.067 71.217 37.7286 75.8938 37.7286C80.3108 37.7286 83.5153 39.8072 83.5153 43.2715C83.5153 49.767 71.1304 52.6251 71.1304 63.9707ZM78.8385 86.8351C84.6412 86.8351 88.7117 82.7646 88.7117 77.7413C88.7117 72.6315 84.6412 68.8207 78.8385 68.8207C73.0357 68.8207 69.0518 72.6315 69.0518 77.7413C69.0518 82.7646 73.0357 86.8351 78.8385 86.8351Z" fill="white"/>
<path d="M71.1304 63.9707H69.7842V65.3168H71.1304V63.9707ZM86.5465 63.9707V65.3168H87.8927V63.9707H86.5465ZM52.1633 37.0357L51.0067 36.3469L50.2867 37.556L51.5265 38.2217L52.1633 37.0357ZM65.0678 43.9643L64.431 45.1503L65.5806 45.7676L66.2334 44.6378L65.0678 43.9643ZM71.1304 65.3168H86.5465V62.6245H71.1304V65.3168ZM87.8927 63.9707C87.8927 62.4294 88.5627 61.1152 89.7779 59.7295C91.0384 58.2922 92.6862 56.9841 94.5469 55.3163C98.1801 52.0597 102.096 47.8445 102.096 40.5H99.404C99.404 46.6663 96.2185 50.2025 92.7499 53.3115C91.0596 54.8266 89.1565 56.3549 87.7538 57.9543C86.3059 59.6053 85.2004 61.528 85.2004 63.9707H87.8927ZM102.096 40.5C102.096 34.7473 99.4737 30.2698 95.0759 27.283C90.7321 24.3329 84.7221 22.8716 77.8858 22.8716V25.5639C84.3871 25.5639 89.8092 26.9607 93.5633 29.5102C97.2632 32.023 99.404 35.6866 99.404 40.5H102.096ZM77.8858 22.8716C64.7503 22.8716 55.8736 28.1742 51.0067 36.3469L53.3199 37.7245C57.6334 30.481 65.5586 25.5639 77.8858 25.5639V22.8716ZM51.5265 38.2217L64.431 45.1503L65.7046 42.7783L52.8001 35.8497L51.5265 38.2217ZM66.2334 44.6378C68.2487 41.1497 71.7058 39.0747 75.8938 39.0747V36.3824C70.7281 36.3824 66.3905 38.9843 63.9022 43.2909L66.2334 44.6378ZM75.8938 39.0747C77.9109 39.0747 79.521 39.5519 80.586 40.3016C81.6109 41.0232 82.1691 42.0125 82.1691 43.2715H84.8614C84.8614 41.0661 83.8174 39.284 82.1358 38.1002C80.4943 36.9445 78.2937 36.3824 75.8938 36.3824V39.0747ZM82.1691 43.2715C82.1691 44.4309 81.6272 45.5234 80.5568 46.776C79.4558 48.0644 78.0222 49.2794 76.3951 50.8269C73.2402 53.8274 69.7842 57.7165 69.7842 63.9707H72.4765C72.4765 58.8793 75.213 55.6666 78.2505 52.7778C79.7196 51.3806 81.3823 49.9541 82.6035 48.5251C83.8552 47.0604 84.8614 45.3598 84.8614 43.2715H82.1691ZM78.8385 88.1813C85.3106 88.1813 90.0579 83.5799 90.0579 77.7413H87.3656C87.3656 81.9492 83.9717 85.489 78.8385 85.489V88.1813ZM90.0579 77.7413C90.0579 71.7754 85.2667 67.4746 78.8385 67.4746V70.1669C84.0156 70.1669 87.3656 73.4876 87.3656 77.7413H90.0579ZM78.8385 67.4746C72.3937 67.4746 67.7056 71.7905 67.7056 77.7413H70.3979C70.3979 73.4724 73.6778 70.1669 78.8385 70.1669V67.4746ZM67.7056 77.7413C67.7056 83.5645 72.35 88.1813 78.8385 88.1813V85.489C73.7214 85.489 70.3979 81.9646 70.3979 77.7413H67.7056Z" fill="white"/>
</svg>
