<svg width="297" height="109" viewBox="0 0 297 109" fill="none" xmlns="http://www.w3.org/2000/svg">
<g clip-path="url(#clip0)">
<path d="M276.52 39.3684H274.372L266.829 50.2901L261.878 45.0486L259.847 46.5033L264.704 54.2847L268.183 55.5085L271.219 51.7448L276.52 39.3684Z" fill="#A7DEFC"/>
<path d="M272.339 21.82C273.133 22.1895 273.647 23.2747 273.741 24.8448C273.811 25.7685 273.717 26.7844 273.484 27.8697C273.25 29.0242 272.853 30.1787 272.316 31.3332C271.779 32.4877 271.125 33.5268 270.401 34.4504C269.724 35.3278 268.977 36.0436 268.23 36.5978C266.969 37.5214 265.778 37.8446 264.984 37.4983C264.19 37.1288 263.676 36.0436 263.583 34.4735C263.512 33.5499 263.606 32.5339 263.839 31.4486C264.073 30.2941 264.47 29.1396 265.007 27.9851C265.544 26.8306 266.198 25.7915 266.922 24.8679C267.599 23.9905 268.346 23.2747 269.094 22.7205C270.378 21.7739 271.546 21.4506 272.339 21.82ZM273.04 20.3192C270.168 19.0261 265.894 22.1433 263.489 27.2924C261.084 32.4415 261.434 37.683 264.306 38.9761C267.179 40.2691 271.452 37.1519 273.857 32.0028C276.263 26.8537 275.912 21.6122 273.04 20.3192Z" fill="#FB5E90"/>
<path d="M255.036 59.7803L254.242 59.4109C254.032 59.3185 253.962 59.0876 254.055 58.8798L263.77 38.1448C263.863 37.937 264.097 37.8677 264.307 37.9601L265.101 38.3295C265.311 38.4219 265.381 38.6528 265.288 38.8606L255.55 59.5956C255.456 59.7803 255.223 59.8727 255.036 59.7803Z" fill="#FB5E90"/>
<path d="M272.059 21.7277C271.826 21.6585 269.304 21.6123 268.44 21.4737C264.657 20.8503 262.812 18.6567 262.135 15.1239C261.831 13.5076 261.107 11.9606 260.056 10.6906C257.931 8.1045 254.499 6.696 251.206 7.75815C250.085 8.12759 248.964 8.88957 248.147 9.85936C247.33 10.8291 246.816 12.0067 246.933 13.1613C246.279 12.4224 245.228 12.0298 244.037 11.9144C242.449 11.7528 240.651 12.076 239.437 12.7225C233.902 15.655 234.906 23.3671 239.343 26.9923C241.725 28.9319 244.551 30.3404 247.47 31.4256C247.937 31.6103 248.544 31.7951 249.198 32.026C250.949 32.5801 253.168 33.2266 254.545 33.5961C254.966 33.6884 255.433 33.8039 255.876 33.8963C256.927 34.1272 258.048 34.335 259.262 34.5197C260.01 34.6582 260.757 34.8891 261.458 35.1431C262.088 35.374 262.695 35.6742 263.256 36.0437C263.536 36.2284 263.863 36.4593 264.073 36.7133C264.447 37.1751 264.82 37.5445 265.451 37.5907C266.058 37.66 266.665 37.5676 267.249 37.3598C269.701 36.5285 272.246 31.4487 272.316 31.2871C272.34 31.3102 276.076 23.09 272.059 21.7277Z" fill="#FFC1D6"/>
<path d="M268.09 21.4042C267.669 21.7274 267.226 22.0738 266.805 22.4894C266.712 22.5818 266.595 22.6972 266.502 22.8127C266.408 22.9281 266.291 23.0205 266.198 23.1359C266.105 23.2514 265.988 23.3668 265.894 23.4823C265.801 23.5977 265.708 23.7132 265.591 23.8517C265.497 23.9672 265.404 24.1057 265.311 24.2212C265.217 24.3597 265.124 24.4752 265.03 24.6137C264.937 24.7523 264.844 24.8908 264.75 25.0293C264.657 25.1679 264.563 25.3064 264.493 25.445C264.4 25.5835 264.33 25.722 264.236 25.8837C264.143 26.0222 264.073 26.1838 263.98 26.3224C263.91 26.484 263.816 26.6226 263.746 26.7842C263.676 26.9458 263.583 27.1075 263.513 27.2691C263.443 27.4307 263.349 27.6154 263.279 27.7771C263.256 27.8233 263.232 27.8925 263.209 27.9387C263.162 28.0542 263.116 28.1696 263.069 28.2851C263.046 28.3543 263.022 28.4236 262.999 28.4929C262.952 28.6083 262.929 28.7007 262.882 28.8161C262.859 28.8854 262.835 28.9547 262.812 29.0239C262.765 29.1163 262.742 29.2318 262.719 29.3241C262.695 29.3934 262.672 29.4627 262.649 29.5319C262.625 29.6243 262.578 29.7397 262.555 29.8321C262.532 29.9014 262.508 29.9706 262.485 30.0399C262.462 30.1323 262.438 30.2477 262.392 30.3401C262.368 30.4094 262.368 30.4786 262.345 30.5248C262.322 30.6403 262.298 30.7557 262.275 30.8712C262.252 30.9173 262.252 30.9866 262.228 31.0328C262.158 31.3561 262.088 31.6793 262.041 32.0026C262.041 32.0488 262.018 32.0949 262.018 32.1642C261.995 32.2797 261.995 32.372 261.971 32.4875C261.971 32.5567 261.948 32.6029 261.948 32.6722C261.948 32.7646 261.925 32.8569 261.925 32.9493C261.925 33.0185 261.925 33.0647 261.901 33.134C261.901 33.2264 261.901 33.3187 261.878 33.4111C261.878 33.4804 261.878 33.5265 261.878 33.5958C261.878 33.6882 261.878 33.7805 261.878 33.8729C261.878 33.9422 261.878 33.9883 261.878 34.0576C261.878 34.15 261.878 34.2423 261.878 34.3347C261.878 34.3809 261.878 34.4501 261.878 34.4963C261.878 34.5887 261.901 34.681 261.901 34.7734C261.901 34.8196 261.901 34.8658 261.925 34.9119C261.948 35.0505 261.948 35.189 261.971 35.3276C262.088 35.3737 262.182 35.4199 262.275 35.4661H262.298C262.392 35.5123 262.508 35.5816 262.602 35.6277C262.602 35.6277 262.602 35.6277 262.625 35.6277C262.719 35.6739 262.812 35.7201 262.882 35.7894C262.905 35.8125 262.929 35.8125 262.952 35.8356C263.046 35.8817 263.139 35.951 263.232 36.0203C263.466 36.1819 263.699 36.3435 263.91 36.5283C263.653 35.9972 263.606 35.2583 263.559 34.4501C263.536 34.2192 263.536 33.9883 263.536 33.7343C263.536 33.5034 263.559 33.2494 263.559 32.9955C263.583 32.626 263.653 32.2335 263.723 31.8179C263.746 31.6793 263.769 31.5408 263.793 31.4253C264.026 30.2708 264.423 29.1163 264.96 27.9618C265.427 26.9689 265.988 26.0222 266.595 25.191C266.688 25.0755 266.782 24.9601 266.875 24.8446C267.296 24.2905 267.763 23.8056 268.206 23.3899C268.487 23.1359 268.767 22.905 269.047 22.6972C269.677 22.2354 270.378 21.7736 270.915 21.6351H270.892C270.845 21.6351 270.822 21.6351 270.775 21.6351C270.752 21.6351 270.752 21.6351 270.728 21.6351C270.705 21.6351 270.658 21.6351 270.635 21.6351C270.495 21.6351 270.378 21.612 270.238 21.612H270.215C270.168 21.612 270.121 21.612 270.074 21.612C270.051 21.612 270.051 21.612 270.028 21.612C269.981 21.612 269.934 21.612 269.888 21.612H269.864C269.748 21.612 269.631 21.5889 269.537 21.5889H269.514C269.467 21.5889 269.421 21.5889 269.374 21.5889C269.351 21.5889 269.351 21.5889 269.327 21.5889C269.281 21.5889 269.257 21.5889 269.21 21.5889C269.187 21.5889 269.187 21.5889 269.164 21.5889C269.117 21.5889 269.094 21.5889 269.047 21.5889H269.024C268.977 21.5889 268.93 21.5889 268.884 21.5658H268.86C268.813 21.5658 268.79 21.5658 268.743 21.5658C268.72 21.5658 268.72 21.5658 268.697 21.5658C268.673 21.5658 268.65 21.5658 268.603 21.5658C268.58 21.5658 268.58 21.5658 268.557 21.5658C268.533 21.5658 268.51 21.5658 268.487 21.5658H268.463C268.44 21.5658 268.393 21.5658 268.37 21.5427C268.323 21.4273 268.206 21.4273 268.09 21.4042Z" fill="#D07F98"/>
<path opacity="0.5" d="M259.519 15.1009C259.216 15.124 258.959 14.8931 258.935 14.5929C258.749 11.799 256.297 9.69781 253.494 9.88253C252.023 9.97489 250.692 10.6907 249.782 11.8452C249.595 12.0761 249.244 12.1223 249.011 11.9376C248.777 11.7528 248.731 11.4065 248.918 11.1756C250.015 9.79017 251.65 8.91274 253.424 8.79729C256.834 8.56639 259.8 11.1294 260.033 14.5237C260.056 14.8238 259.823 15.1009 259.519 15.1009Z" fill="white"/>
<path opacity="0.5" d="M260.757 17.0868C260.547 17.3639 260.15 17.4331 259.846 17.2253C259.566 17.0175 259.496 16.625 259.706 16.3248C259.916 16.0477 260.313 15.9784 260.617 16.1863C260.897 16.3941 260.967 16.7866 260.757 17.0868Z" fill="white"/>
<path d="M214.777 7.13458C211.321 8.33527 208.029 12.1221 208.426 15.6318C206.02 13.0226 200.066 13.4613 196.89 15.2392C188.483 19.9496 190.351 31.7949 197.334 37.198C201.093 40.1074 205.483 42.1393 209.99 43.7095C211.415 44.2174 213.633 44.8409 215.852 45.4412C220.032 46.5727 224.422 44.5869 226.313 40.7308C227.294 38.6989 228.275 36.6208 228.835 35.2354C230.587 30.8482 231.941 26.2302 232.175 21.5198C232.618 12.7455 223.885 3.94813 214.777 7.13458Z" fill="#FFC1D6"/>
<path opacity="0.5" d="M227.574 18.8645C227.131 18.8645 226.78 18.5182 226.78 18.0795C226.78 13.9463 223.394 10.5982 219.214 10.5982C217.043 10.5982 214.988 11.5218 213.54 13.1151C213.236 13.4383 212.746 13.4845 212.396 13.1843C212.069 12.8842 212.022 12.3993 212.325 12.0529C214.077 10.1133 216.576 9.005 219.191 9.005C224.258 9.005 228.368 13.0689 228.368 18.0795C228.392 18.4951 228.018 18.8645 227.574 18.8645Z" fill="white"/>
<path opacity="0.5" d="M229.209 21.8662C228.859 22.2819 228.275 22.328 227.855 21.9817C227.434 21.6353 227.387 21.0581 227.738 20.6425C228.088 20.2268 228.672 20.1806 229.092 20.527C229.489 20.8734 229.559 21.4737 229.209 21.8662Z" fill="white"/>
<path d="M191.309 25.5839C191.496 29.9248 193.738 34.4043 197.311 37.1751C201.07 40.0845 205.46 42.1165 209.967 43.6866C211.392 44.1946 213.61 44.818 215.829 45.4184C220.009 46.5498 224.399 44.564 226.29 40.708C227.271 38.676 228.252 36.5979 228.812 35.2125C228.859 35.097 228.906 34.9585 228.952 34.843C224.772 37.9371 219.588 39.7843 213.96 39.7843C203.942 39.7613 195.326 33.9656 191.309 25.5839Z" fill="#F7B7D1"/>
<path d="M246.816 44.0327C245.112 43.6402 242.8 44.3098 242.053 45.8107C241.772 44.1482 239.274 42.8089 237.522 42.6935C232.922 42.4395 230.563 47.6579 231.965 51.6063C232.712 53.7306 233.949 55.6702 235.327 57.4481C235.748 57.9792 236.425 58.7412 237.102 59.5032C238.55 61.0964 240.955 61.4428 242.8 60.3344C243.687 59.8033 244.528 59.2723 245.088 58.8797C246.933 57.5636 248.684 56.0627 250.016 54.2386C252.514 50.8443 251.3 45.0949 246.816 44.0327Z" fill="#FFC1D6"/>
<path opacity="0.5" d="M248.03 52.6227C247.89 52.4841 247.914 52.2532 248.054 52.1147C249.478 50.8909 249.618 48.7435 248.381 47.3581C247.727 46.6423 246.816 46.2036 245.835 46.2036C245.625 46.2036 245.462 46.042 245.485 45.8341C245.485 45.6263 245.649 45.4647 245.859 45.4878C247.05 45.4878 248.171 45.9958 248.941 46.8963C250.436 48.605 250.272 51.1911 248.544 52.6689C248.404 52.7843 248.171 52.7843 248.03 52.6227Z" fill="white"/>
<path opacity="0.5" d="M247.493 54.0774C247.26 54.0774 247.05 53.8926 247.05 53.6617C247.05 53.4308 247.237 53.223 247.47 53.223C247.704 53.223 247.914 53.4077 247.914 53.6387C247.914 53.8696 247.727 54.0774 247.493 54.0774Z" fill="white"/>
<path d="M231.824 47.2886C231.451 48.6971 231.497 50.221 231.964 51.6064C232.712 53.7307 233.949 55.6703 235.327 57.4483C235.747 57.9793 236.425 58.7413 237.102 59.5033C238.55 61.0965 240.955 61.4429 242.8 60.3345C243.337 60.0113 243.897 59.6649 244.364 59.3647C237.989 58.4411 232.922 53.546 231.824 47.2886Z" fill="#F7B7D1"/>
<path d="M183.766 2.05483C182.108 1.52375 179.75 2.03174 178.886 3.48642C178.722 1.82392 176.34 0.276881 174.612 0.0459792C170.035 -0.554366 167.303 4.4793 168.377 8.52008C168.961 10.6906 170.035 12.7225 171.296 14.5928C171.67 15.147 172.277 15.9782 172.907 16.7633C174.239 18.472 176.597 19.003 178.535 18.0102C179.446 17.5484 180.357 17.0635 180.941 16.7171C182.879 15.5395 184.747 14.1772 186.218 12.4454C188.927 9.28206 188.156 3.44024 183.766 2.05483Z" fill="#FFC1D6"/>
<path opacity="0.5" d="M184.326 10.7134C184.209 10.5518 184.233 10.3209 184.396 10.2055C185.914 9.09713 186.218 6.97283 185.073 5.47196C184.49 4.70999 183.602 4.202 182.621 4.13273C182.411 4.10964 182.271 3.94801 182.295 3.7402C182.318 3.53239 182.481 3.39385 182.692 3.41694C183.882 3.5093 184.957 4.10964 185.657 5.03325C187.035 6.83429 186.661 9.42039 184.84 10.7596C184.676 10.9213 184.443 10.8751 184.326 10.7134Z" fill="white"/>
<path opacity="0.5" d="M183.672 12.122C183.439 12.122 183.252 11.9142 183.252 11.6833C183.252 11.4524 183.462 11.2677 183.696 11.2677C183.929 11.2677 184.116 11.4755 184.116 11.7064C184.116 11.9604 183.906 12.1451 183.672 12.122Z" fill="white"/>
<path d="M168.564 4.20227C168.097 5.56459 168.004 7.11164 168.378 8.52014C168.961 10.6906 170.036 12.7226 171.297 14.5929C171.67 15.147 172.277 15.9783 172.908 16.7633C174.239 18.472 176.597 19.0031 178.536 18.0102C179.119 17.71 179.68 17.433 180.17 17.1559C173.889 15.7936 169.195 10.529 168.564 4.20227Z" fill="#F7B7D1"/>
<path d="M156.772 17.5716C155.791 17.8717 154.833 18.8877 154.903 19.8575C154.273 19.0955 152.592 19.1417 151.681 19.6035C149.276 20.8273 149.649 24.1523 151.517 25.7224C152.521 26.5767 153.736 27.2002 154.973 27.6851C155.417 27.8698 156.118 28.1007 156.795 28.3085C157.822 28.6318 158.943 28.1931 159.457 27.2464C159.784 26.6229 160.134 25.9764 160.344 25.5377C160.881 24.337 161.325 23.067 161.442 21.7509C161.675 19.3495 159.364 16.7865 156.772 17.5716Z" fill="#FFC1D6"/>
<path opacity="0.5" d="M160.157 21.2428C160.041 21.2197 159.947 21.1273 159.947 21.0119C160.064 19.8804 159.223 18.8414 158.056 18.7259C157.449 18.6567 156.865 18.8645 156.421 19.257C156.328 19.3494 156.188 19.3263 156.094 19.2339C156.001 19.1415 156.024 19.003 156.117 18.9106C156.655 18.4257 157.378 18.1718 158.102 18.2641C159.504 18.4027 160.531 19.6495 160.391 21.0349C160.391 21.1735 160.274 21.2658 160.157 21.2428Z" fill="white"/>
<path opacity="0.5" d="M160.531 22.1204C160.414 22.2127 160.251 22.2127 160.157 22.1204C160.064 22.0049 160.064 21.8433 160.157 21.7509C160.251 21.6586 160.438 21.6586 160.531 21.7509C160.624 21.8664 160.624 22.028 160.531 22.1204Z" fill="white"/>
<path d="M150.139 23.5057C150.373 24.3601 150.84 25.1451 151.517 25.7224C152.521 26.5767 153.735 27.2002 154.973 27.6851C155.417 27.8698 156.117 28.1007 156.794 28.3085C157.822 28.6318 158.943 28.1931 159.457 27.2464C159.783 26.646 160.134 25.9995 160.321 25.5608C159.293 26.1842 158.102 26.5536 156.818 26.646C154.109 26.8307 151.634 25.5608 150.139 23.5057Z" fill="#F7B7D1"/>
<path d="M259.753 46.9191C259.753 46.9191 259.636 44.4022 259.753 44.1482C259.87 43.9173 261.224 42.4626 261.224 42.4626L262.695 43.4324L261.598 45.7184H260.314L259.753 46.9191Z" fill="#F4CDAF"/>
<path d="M270.215 65.8068L266.805 84.1173L266.992 104.067L270.308 104.321L273.577 85.572L280.559 65.8068H270.215Z" fill="#2B478B"/>
<path d="M274.325 62.4358L277.524 83.0092L282.311 104.368L285.417 104.298L285.067 82.7783L286.841 63.013L274.325 62.4358Z" fill="#2B478B"/>
<path d="M290.391 68.7627C290.484 70.6792 290.507 73.2653 289.83 73.3576C289.713 73.3807 289.597 73.3115 289.48 73.2422C288.312 72.5726 287.472 71.6259 286.327 70.9794C285.113 70.3097 283.759 69.9634 282.428 69.7556C280.419 69.4092 278.388 69.2014 276.356 69.2245C274.768 69.2476 273.157 69.4323 271.592 69.617C270.285 69.7787 269.07 70.2405 267.716 70.1712C266.338 70.1019 264.96 69.6632 263.769 68.9012C263.723 68.8781 263.676 68.832 263.653 68.7858C263.629 68.7396 263.653 68.6703 263.676 68.6011C263.933 67.7467 264.12 66.8924 264.61 66.1766C265.147 65.3684 265.544 64.3525 265.918 63.4519C266.735 61.5585 267.482 59.5728 268.02 57.5639C268.86 54.8162 269.818 52.1608 270.612 49.4131C271.172 47.5197 271.662 45.5801 272.456 43.756C273.064 42.3475 274.161 40.2694 275.539 39.5998C276.006 39.3689 276.52 39.3458 277.033 39.3227C278.575 39.2303 280.092 39.138 281.634 39.0456C282.194 39.0225 282.778 38.9763 283.292 39.2303C284.062 39.5998 284.529 40.4772 284.926 41.2854C286.724 44.9567 287.915 48.9513 288.639 53.0614C289.013 55.2087 289.363 57.3792 289.643 59.5266C289.97 61.9511 290.204 64.3756 290.297 66.8C290.274 67.1002 290.344 67.8622 290.391 68.7627Z" fill="#A7DEFC"/>
<path d="M279.556 47.5195C279.532 48.3739 279.673 49.2282 279.813 50.0825C280.7 55.2547 282.825 64.8603 283.712 70.0325C279.602 70.1018 273.438 70.0094 269.328 70.0787C269.421 68.1391 270.332 61.9509 270.425 59.9882C270.495 58.7414 270.542 57.4945 270.775 56.2476C271.149 54.2619 271.966 52.3685 272.76 50.5213C274.255 47.0808 275.726 43.6404 277.221 40.1768C277.291 39.9921 277.384 39.8074 277.547 39.6689C277.734 39.5072 277.991 39.4379 278.225 39.3918C279.392 39.1609 280.723 38.9531 281.914 39.0916C282.241 40.1537 281.144 40.0152 280.77 41.0081C280.233 42.4628 279.626 45.9263 279.556 47.5195Z" fill="white"/>
<path d="M267.412 104.067L265.147 104.968L265.24 106.238L269.934 106.353L270.121 104.321L267.412 104.067Z" fill="#233862"/>
<path d="M282.637 103.929L280.255 105.522L280.769 107L285.556 106.123L285.346 104.252L282.637 103.929Z" fill="#233862"/>
<path d="M276.543 32.7652C276.59 34.0582 276.847 34.52 277.454 35.7669C277.804 34.7048 278.131 33.6195 278.481 32.5574C278.061 32.5574 277.64 32.5343 277.22 32.5343C276.963 32.5112 276.66 32.5343 276.543 32.7652Z" fill="#3B2C24"/>
<path d="M277.337 35.8358C277.571 34.7274 277.477 32.9957 278.481 32.2799C279.602 31.4948 281.167 31.7488 282.404 32.3261C283.385 32.7879 284.366 33.5729 284.506 34.6351C284.623 35.6741 283.946 36.6208 283.292 37.429C282.988 37.8215 282.685 38.445 282.241 38.6528C281.61 38.9529 280.746 38.7682 280.746 38.7682C280.513 38.722 280.303 38.8837 280.279 39.1146L280.233 39.738C280.233 39.738 280.256 40.2229 279.555 40.1536C279.065 39.9689 278.551 39.7611 278.061 39.5764C278.061 39.0453 278.435 38.4911 278.154 38.0524C277.991 37.7984 277.687 37.683 277.5 37.4521C277.127 37.0134 277.22 36.3899 277.337 35.8358Z" fill="#F4CDAF"/>
<path d="M276.263 29.4862C276.496 28.7704 276.73 28.0546 276.963 27.3388C277.057 27.0617 277.15 26.8077 277.337 26.5999C277.664 26.2535 279.252 26.2766 279.719 26.3459C280.186 26.4152 280.63 26.5999 281.097 26.6922C281.587 26.7846 282.124 26.7846 282.568 27.0155C283.432 27.4311 283.735 28.5395 284.529 29.0474C285.65 29.7632 286.981 29.694 287.075 31.4026C287.098 31.7259 287.005 32.0261 287.005 32.3493C287.005 32.765 287.168 33.1344 287.238 33.55C287.588 35.3049 286.374 37.1983 284.716 37.8217C283.922 38.1219 283.455 38.5375 282.615 38.3759C283.268 37.8217 284.062 34.82 283.245 34.0811C283.035 33.8964 282.124 33.8502 281.821 33.7809C281.167 33.5962 280.513 33.4346 279.812 33.4115C278.785 33.3884 277.734 33.2268 276.753 32.8804C276.636 32.8342 276.566 32.7188 276.426 32.6726C275.726 32.3493 275.539 32.4417 275.375 32.2339C274.838 31.4257 275.983 30.3867 276.263 29.4862Z" fill="#3B2C24"/>
<path d="M283.268 39.2762L286.864 40.9387L292.492 53.6383L296.205 69.5475L293.846 70.1017L287.658 54.7467L281.236 42.4858L283.268 39.2762Z" fill="#A7DEFC"/>
<path d="M295.855 69.6399L296.999 71.3255L296.205 73.3343L295.317 73.1034L294.15 70.0324L295.855 69.6399Z" fill="#F4CDAF"/>
</g>
<g clip-path="url(#clip1)">
<path d="M13.7644 36.6692C13.7198 36.6692 13.6974 36.6692 13.6528 36.6915L13.7644 36.6692C13.7421 36.558 13.7198 36.4467 13.7198 36.3577C13.6528 35.5565 13.8982 34.7108 14.3667 34.0431C15.3483 34.0653 16.3075 34.5772 16.8429 35.3784C17.066 35.7123 17.2221 36.1129 17.3114 36.5135C17.3114 36.5135 17.3114 36.5135 17.3114 36.5357C17.3114 36.5802 17.3337 36.6025 17.3337 36.647C17.4452 37.2256 18.0029 39.7405 19.9438 41.6322C22.1523 43.7688 21.9069 44.9483 21.9069 44.9483C21.9069 44.9483 19.8099 46.8178 18.0922 47.1516C16.4191 47.4632 14.4113 40.8978 13.7644 36.6692Z" fill="#C45A45"/>
<path d="M11.8904 44.6591L10.2173 46.9291L7.56261 57.8788L1.16016 70.7203L3.65868 72.0779L12.0243 60.7943L15.2143 47.3742L11.8904 44.6591Z" fill="#FFA72A"/>
<path d="M22.0187 43.1234L28.265 40.1857L25.0303 27.6781L27.5958 27.0549L33.3736 39.34L32.8605 42.478L24.1826 48.5092L19.8994 43.2124L22.0187 43.1234Z" fill="#FFA72A"/>
<path d="M29.0452 70.8758L28.7329 84.6964L26.0336 105.683L22.9997 105.639L22.5535 88.5689L17.958 68.8282L29.0452 70.8758Z" fill="#35488B"/>
<path d="M23.9141 68.2724L19.7424 87.1228L14.0315 106.596L11.2207 106.084L12.8492 86.4551L12.403 68.0498L23.9141 68.2724Z" fill="#35488B"/>
<path d="M25.6764 105.639L27.6619 106.685L27.4611 107.842L23.1333 107.531L23.1556 105.639H25.6764Z" fill="#233862"/>
<path d="M13.9871 106.062L16.0395 107.687L15.4371 109L11.1763 107.843L11.5109 106.151L13.9871 106.062Z" fill="#233862"/>
<path d="M11.4886 78.1538C11.5779 79.3778 11.1986 82.7829 12.7602 83.228C14.6564 83.7844 15.5933 82.1375 16.7087 81.0025C17.5788 80.1122 18.7165 79.5336 19.8319 78.9772C22.8881 77.4416 25.3643 76.9074 28.7552 76.9742C30.2721 77.0187 36.0054 77.3971 35.8269 74.9267C35.693 73.035 33.9307 70.9875 33.1276 69.3183C32.146 67.2486 31.2091 65.0898 30.4506 62.8642C29.3352 59.8597 28.1082 56.9443 27.0151 53.9175C26.2567 51.8255 25.5428 49.689 24.6059 47.7082C23.8697 46.1726 22.5981 43.947 21.2596 43.3461C20.8135 43.1458 20.3227 43.1681 19.8765 43.1903C18.4711 43.2571 17.0657 43.3461 15.6379 43.4129C15.1249 43.4352 14.5895 43.4797 14.1433 43.8135C13.4741 44.3031 13.184 45.3491 12.9163 46.3284C11.7563 50.6905 11.1763 55.3419 11.0648 60.1045C10.9978 62.5972 10.9532 65.0675 10.9755 67.5601C10.9978 70.3421 11.0871 73.124 11.3102 75.9059C11.3548 76.262 11.3994 77.13 11.4886 78.1538Z" fill="#FFA72A"/>
<path d="M15.1919 43.5018C15.1919 43.5018 15.7273 47.2852 18.2258 47.9084C20.7466 48.5315 22.0182 46.0389 19.8766 43.257L15.1919 43.5018Z" fill="#FFFFE2"/>
<path d="M27.0604 27.1663L28.2874 25.8754L27.6182 22.5371L25.7443 22.8487V25.141L25.1196 25.8754L25.4319 27.5446C25.4319 27.5669 27.0158 27.2108 27.0604 27.1663Z" fill="#F4CDAF"/>
<path d="M1.49465 70.8984L0 73.2353L1.58388 75.3496L2.69929 74.7264L3.21238 71.8332L1.49465 70.8984Z" fill="#F4CDAF"/>
<path d="M16.7084 36.5806C14.4999 33.6874 10.7744 36.2245 10.9305 39.3848C11.0198 41.1875 12.7375 42.9234 14.5445 43.3018C14.7229 43.5688 15.1468 44.3255 15.4591 44.4146C15.7937 44.5036 16.4407 43.9472 16.6861 43.7246C16.753 43.6579 16.8199 43.5911 16.8645 43.5243C16.9091 43.4131 16.8199 43.2128 16.7084 42.9902C16.9091 42.8789 17.1099 42.7231 17.2884 42.5451C18.0692 41.7884 18.3146 40.5866 18.1361 39.5183C17.9353 38.4278 17.3776 37.4486 16.7084 36.5806Z" fill="#F4CDAF"/>
<path d="M8.29826 42.7899C7.78517 39.5628 8.63288 37.404 8.63288 37.404C9.16828 35.9129 10.3952 34.6443 11.823 33.9989C12.5814 33.6428 13.3176 33.6428 14.1207 33.9767C14.6338 34.1992 15.1023 34.6221 15.2361 35.1562C15.37 35.6458 15.2361 36.18 15.0353 36.6473C14.4553 37.9827 13.6745 38.7839 13.563 39.9857C13.4515 41.2097 14.3438 42.7008 14.9238 43.7468C15.1246 44.1252 18.0469 49.5333 18.4931 49.1772C17.8239 49.6891 17.0877 50.1564 16.3515 50.557C15.1023 51.2024 13.5184 51.5585 12.1353 51.0244C10.7745 50.5125 9.85983 49.3107 8.6775 48.5318C7.47285 47.6861 8.83366 46.0169 8.29826 42.7899Z" fill="#C45A45"/>
<path d="M57.1314 14.5031C55.3914 13.4794 52.5805 13.4571 51.242 14.9037C51.4874 12.9453 49.1897 10.5862 47.2712 9.89626C42.2518 8.04905 37.8571 13.1233 38.0579 17.9973C38.1694 20.6234 38.861 23.2051 39.8202 25.6754C40.1549 26.5434 40.7572 27.901 41.3595 29.1695C42.2741 31.1058 44.4157 32.1073 46.4904 31.5954C47.8512 31.2393 49.2789 30.861 50.1712 30.5716C52.6698 29.7259 55.1237 28.6131 57.2206 27.033C61.1246 24.0508 61.7492 17.1961 57.1314 14.5031Z" fill="#FFC1D6"/>
<path opacity="0.5" d="M56.2839 24.4291C56.1278 24.2288 56.1724 23.9617 56.3732 23.8059C58.2024 22.4261 58.5817 19.8 57.1763 17.975C56.4624 17.018 55.3693 16.4171 54.1647 16.3281C53.9193 16.3058 53.7408 16.1055 53.7631 15.8607C53.7854 15.6159 53.9862 15.4379 54.2316 15.4601C55.6816 15.5714 56.9978 16.3058 57.8678 17.4409C59.5409 19.6664 59.1171 22.8267 56.8863 24.5181C56.7078 24.6517 56.4178 24.6071 56.2839 24.4291Z" fill="white"/>
<path opacity="0.5" d="M55.4809 26.143C55.1909 26.1207 54.9678 25.8759 54.9678 25.5866C54.9901 25.2973 55.2355 25.0747 55.5255 25.0747C55.8155 25.097 56.0386 25.3418 56.0386 25.6311C56.0163 25.9427 55.7709 26.1652 55.4809 26.143Z" fill="white"/>
<path d="M39.4633 12.9673C38.5263 14.4361 37.9909 16.2388 38.0579 17.997C38.1694 20.6232 38.861 23.2048 39.8202 25.6752C40.1548 26.5432 40.7571 27.9007 41.3595 29.1693C42.2741 31.1055 44.4157 32.107 46.4904 31.5952C47.8289 31.2613 49.2343 30.8607 50.1266 30.5714C47.8289 29.926 45.665 28.7242 43.8134 26.966C39.9317 23.2271 38.4594 17.908 39.4633 12.9673Z" fill="#F7B7D1"/>
<path d="M76.272 21.8251C75.3351 21.5803 74.0189 21.9141 73.5727 22.7598C73.4389 21.8251 72.0781 21.0239 71.0965 20.9349C68.5311 20.7123 67.1256 23.6278 67.8395 25.8756C68.2187 27.0774 68.8657 28.1902 69.6242 29.2362C69.8919 29.5923 70.338 30.1486 70.7842 30.6605C71.4534 31.4395 72.5912 31.6398 73.4835 31.1279C74.0635 30.7941 74.6881 30.438 75.0674 30.1932C76.1159 29.481 77.1197 28.6575 77.9005 27.656C79.3282 25.7643 78.7705 22.4928 76.272 21.8251Z" fill="#FFC1D6"/>
<path opacity="0.5" d="M77.1197 26.5434C77.0304 26.4767 77.0081 26.3431 77.0751 26.2541C77.7443 25.3861 77.5881 24.1176 76.7181 23.4499C76.272 23.0938 75.6696 22.9603 75.1119 23.0716C75.0004 23.0938 74.8888 23.027 74.8665 22.8935C74.8442 22.7822 74.9111 22.671 75.045 22.6487C75.7366 22.5152 76.4504 22.6932 76.9858 23.1161C78.0566 23.9395 78.2351 25.4752 77.432 26.5212C77.3651 26.5879 77.2089 26.6102 77.1197 26.5434Z" fill="white"/>
<path opacity="0.5" d="M76.9635 27.456C76.8296 27.4782 76.6958 27.4114 76.6512 27.2557C76.6288 27.1221 76.6958 26.9886 76.8519 26.9441C77.0081 26.8996 77.1196 26.9886 77.1642 27.1444C77.2089 27.3002 77.1196 27.4114 76.9635 27.456Z" fill="white"/>
<path d="M67.8621 23.3385C67.6167 24.1397 67.5944 25.0522 67.8398 25.8534C68.219 27.0552 68.866 28.1679 69.6244 29.214C69.8921 29.57 70.3383 30.1264 70.7845 30.6383C71.4537 31.4173 72.5914 31.6176 73.4838 31.1057C74.0638 30.7718 74.6661 30.4158 75.0453 30.1709C73.8853 30.1487 72.7253 29.8594 71.6545 29.2807C69.3567 28.0567 68.0182 25.7644 67.8621 23.3385Z" fill="#F7B7D1"/>
<path d="M95.5908 7.33689C94.4531 6.82501 92.713 6.9808 91.9769 7.96004C91.9992 6.73599 90.4376 5.42291 89.2106 5.13359C85.9983 4.31014 83.6113 7.71523 84.0352 10.7197C84.2582 12.3444 84.8605 13.88 85.619 15.3489C85.8867 15.8607 86.3552 16.6619 86.8014 17.3964C87.4929 18.5314 88.876 19.021 90.1253 18.5537C90.9507 18.2643 91.7984 17.9305 92.3338 17.6857C93.8284 16.9958 95.2785 16.1723 96.4608 15.0595C98.6693 12.9675 98.6247 8.69447 95.5908 7.33689Z" fill="#FFC1D6"/>
<path opacity="0.5" d="M95.7029 13.5017C95.5914 13.3904 95.6137 13.2124 95.7252 13.1234C96.7737 12.1441 96.8183 10.5195 95.8591 9.47348C95.346 8.93934 94.6321 8.62777 93.896 8.65002C93.7398 8.65002 93.6283 8.53875 93.606 8.38296C93.606 8.22717 93.7175 8.11589 93.8737 8.09363C94.766 8.07138 95.636 8.42747 96.2383 9.09513C97.4206 10.3637 97.3537 12.3444 96.0822 13.524C95.9706 13.613 95.8145 13.613 95.7029 13.5017Z" fill="white"/>
<path opacity="0.5" d="M95.3237 14.6144C95.1453 14.6144 94.9891 14.4808 94.9668 14.3028C94.9668 14.1248 95.1006 13.969 95.2791 13.9467C95.4576 13.9245 95.6137 14.0802 95.636 14.2583C95.636 14.4586 95.5022 14.6144 95.3237 14.6144Z" fill="white"/>
<path d="M84.5927 7.51477C84.102 8.49401 83.9012 9.62904 84.0573 10.7196C84.2804 12.3442 84.8827 13.8798 85.6412 15.3487C85.9089 15.8606 86.3774 16.6618 86.8236 17.3962C87.5151 18.5312 88.8982 19.0209 90.1475 18.5535C90.9506 18.2642 91.7983 17.9303 92.3337 17.6855C90.8836 17.4185 89.4559 16.8176 88.2067 15.8606C85.5297 13.8131 84.2804 10.6305 84.5927 7.51477Z" fill="#F7B7D1"/>
</g>
<path d="M85.4584 51.958H86.8187V60.8037H91.9047V62H85.4584V51.958ZM96.5561 54.5146C97.0757 54.5146 97.5792 54.6377 98.0669 54.8838C98.5545 55.1253 98.9259 55.4398 99.1811 55.8271C99.4272 56.1963 99.5913 56.627 99.6733 57.1191C99.7462 57.4564 99.7827 57.9941 99.7827 58.7324H94.4165C94.4393 59.4753 94.6147 60.0723 94.9428 60.5234C95.271 60.9701 95.7791 61.1934 96.4673 61.1934C97.1098 61.1934 97.6225 60.9814 98.0053 60.5576C98.2241 60.3115 98.379 60.0267 98.4702 59.7031H99.6802C99.6483 59.972 99.5412 60.2728 99.3589 60.6055C99.1811 60.9336 98.9806 61.2025 98.7573 61.4121C98.3836 61.7767 97.921 62.0228 97.3696 62.1504C97.0734 62.2233 96.7384 62.2598 96.3647 62.2598C95.4533 62.2598 94.6808 61.9294 94.0473 61.2686C93.4139 60.6032 93.0971 59.6735 93.0971 58.4795C93.0971 57.3037 93.4162 56.349 94.0542 55.6152C94.6922 54.8815 95.5262 54.5146 96.5561 54.5146ZM98.518 57.7549C98.4679 57.2217 98.3517 56.7956 98.1694 56.4766C97.8322 55.8841 97.2693 55.5879 96.4809 55.5879C95.9158 55.5879 95.4419 55.793 95.0591 56.2031C94.6762 56.6087 94.4734 57.126 94.4507 57.7549H98.518ZM101.966 52.6348H103.211V54.6787H104.379V55.6836H103.211V60.4619C103.211 60.7171 103.297 60.888 103.47 60.9746C103.566 61.0247 103.725 61.0498 103.949 61.0498C104.008 61.0498 104.072 61.0498 104.14 61.0498C104.209 61.0452 104.288 61.0384 104.379 61.0293V62C104.238 62.041 104.09 62.0706 103.935 62.0889C103.785 62.1071 103.621 62.1162 103.443 62.1162C102.869 62.1162 102.479 61.9704 102.274 61.6787C102.069 61.3825 101.966 60.9997 101.966 60.5303V55.6836H100.975V54.6787H101.966V52.6348ZM113.443 61.1729C114.017 61.1729 114.494 60.9336 114.872 60.4551C115.255 59.972 115.446 59.252 115.446 58.2949C115.446 57.7116 115.362 57.2103 115.193 56.791C114.874 55.9844 114.291 55.5811 113.443 55.5811C112.591 55.5811 112.008 56.0072 111.693 56.8594C111.524 57.3151 111.44 57.8939 111.44 58.5957C111.44 59.1608 111.524 59.6416 111.693 60.0381C112.012 60.7946 112.595 61.1729 113.443 61.1729ZM110.258 54.7129H111.454V55.6836C111.7 55.3509 111.969 55.0934 112.26 54.9111C112.675 54.6377 113.163 54.501 113.723 54.501C114.553 54.501 115.257 54.82 115.836 55.458C116.414 56.0915 116.704 56.9984 116.704 58.1787C116.704 59.7738 116.287 60.9131 115.453 61.5967C114.924 62.0296 114.309 62.2461 113.607 62.2461C113.056 62.2461 112.593 62.1253 112.219 61.8838C112.001 61.7471 111.757 61.5124 111.488 61.1797V64.9189H110.258V54.7129ZM121.615 54.5146C122.135 54.5146 122.638 54.6377 123.126 54.8838C123.613 55.1253 123.985 55.4398 124.24 55.8271C124.486 56.1963 124.65 56.627 124.732 57.1191C124.805 57.4564 124.842 57.9941 124.842 58.7324H119.475C119.498 59.4753 119.674 60.0723 120.002 60.5234C120.33 60.9701 120.838 61.1934 121.526 61.1934C122.169 61.1934 122.681 60.9814 123.064 60.5576C123.283 60.3115 123.438 60.0267 123.529 59.7031H124.739C124.707 59.972 124.6 60.2728 124.418 60.6055C124.24 60.9336 124.04 61.2025 123.816 61.4121C123.443 61.7767 122.98 62.0228 122.429 62.1504C122.132 62.2233 121.797 62.2598 121.424 62.2598C120.512 62.2598 119.74 61.9294 119.106 61.2686C118.473 60.6032 118.156 59.6735 118.156 58.4795C118.156 57.3037 118.475 56.349 119.113 55.6152C119.751 54.8815 120.585 54.5146 121.615 54.5146ZM123.577 57.7549C123.527 57.2217 123.411 56.7956 123.228 56.4766C122.891 55.8841 122.328 55.5879 121.54 55.5879C120.975 55.5879 120.501 55.793 120.118 56.2031C119.735 56.6087 119.532 57.126 119.51 57.7549H123.577ZM129.828 54.5146C130.348 54.5146 130.851 54.6377 131.339 54.8838C131.826 55.1253 132.198 55.4398 132.453 55.8271C132.699 56.1963 132.863 56.627 132.945 57.1191C133.018 57.4564 133.055 57.9941 133.055 58.7324H127.688C127.711 59.4753 127.887 60.0723 128.215 60.5234C128.543 60.9701 129.051 61.1934 129.739 61.1934C130.382 61.1934 130.894 60.9814 131.277 60.5576C131.496 60.3115 131.651 60.0267 131.742 59.7031H132.952C132.92 59.972 132.813 60.2728 132.631 60.6055C132.453 60.9336 132.252 61.2025 132.029 61.4121C131.655 61.7767 131.193 62.0228 130.641 62.1504C130.345 62.2233 130.01 62.2598 129.637 62.2598C128.725 62.2598 127.953 61.9294 127.319 61.2686C126.686 60.6032 126.369 59.6735 126.369 58.4795C126.369 57.3037 126.688 56.349 127.326 55.6152C127.964 54.8815 128.798 54.5146 129.828 54.5146ZM131.79 57.7549C131.74 57.2217 131.624 56.7956 131.441 56.4766C131.104 55.8841 130.541 55.5879 129.753 55.5879C129.188 55.5879 128.714 55.793 128.331 56.2031C127.948 56.6087 127.745 57.126 127.723 57.7549H131.79ZM135.026 54.6787H136.195V55.9434C136.291 55.6973 136.526 55.3988 136.899 55.0479C137.273 54.6924 137.704 54.5146 138.191 54.5146C138.214 54.5146 138.253 54.5169 138.308 54.5215C138.362 54.526 138.456 54.5352 138.588 54.5488V55.8477C138.515 55.834 138.447 55.8249 138.383 55.8203C138.324 55.8158 138.257 55.8135 138.185 55.8135C137.565 55.8135 137.088 56.014 136.756 56.415C136.423 56.8115 136.257 57.2695 136.257 57.7891V62H135.026V54.6787ZM144.391 54.6787H145.608V55.7178C145.899 55.3577 146.164 55.0957 146.401 54.9316C146.806 54.6536 147.266 54.5146 147.781 54.5146C148.365 54.5146 148.834 54.6582 149.19 54.9453C149.39 55.1094 149.572 55.3509 149.736 55.6699C150.01 55.278 150.331 54.9886 150.7 54.8018C151.069 54.6104 151.484 54.5146 151.944 54.5146C152.929 54.5146 153.599 54.8701 153.954 55.5811C154.146 55.9639 154.241 56.4788 154.241 57.126V62H152.963V56.9141C152.963 56.4264 152.84 56.0915 152.594 55.9092C152.352 55.7269 152.056 55.6357 151.705 55.6357C151.222 55.6357 150.805 55.7975 150.454 56.1211C150.108 56.4447 149.935 56.9847 149.935 57.7412V62H148.684V57.2217C148.684 56.7249 148.624 56.3626 148.506 56.1348C148.319 55.793 147.97 55.6221 147.46 55.6221C146.995 55.6221 146.571 55.8021 146.189 56.1621C145.81 56.5221 145.621 57.1738 145.621 58.1172V62H144.391V54.6787ZM159.522 54.5146C160.041 54.5146 160.545 54.6377 161.032 54.8838C161.52 55.1253 161.891 55.4398 162.147 55.8271C162.393 56.1963 162.557 56.627 162.639 57.1191C162.712 57.4564 162.748 57.9941 162.748 58.7324H157.382C157.405 59.4753 157.58 60.0723 157.908 60.5234C158.237 60.9701 158.745 61.1934 159.433 61.1934C160.075 61.1934 160.588 60.9814 160.971 60.5576C161.19 60.3115 161.345 60.0267 161.436 59.7031H162.646C162.614 59.972 162.507 60.2728 162.324 60.6055C162.147 60.9336 161.946 61.2025 161.723 61.4121C161.349 61.7767 160.887 62.0228 160.335 62.1504C160.039 62.2233 159.704 62.2598 159.33 62.2598C158.419 62.2598 157.646 61.9294 157.013 61.2686C156.379 60.6032 156.063 59.6735 156.063 58.4795C156.063 57.3037 156.382 56.349 157.02 55.6152C157.658 54.8815 158.492 54.5146 159.522 54.5146ZM161.484 57.7549C161.433 57.2217 161.317 56.7956 161.135 56.4766C160.798 55.8841 160.235 55.5879 159.446 55.5879C158.881 55.5879 158.407 55.793 158.025 56.2031C157.642 56.6087 157.439 57.126 157.416 57.7549H161.484ZM164.686 54.6787H165.855V55.7178C166.201 55.2894 166.568 54.9818 166.955 54.7949C167.343 54.6081 167.773 54.5146 168.247 54.5146C169.286 54.5146 169.988 54.877 170.353 55.6016C170.553 55.998 170.654 56.5654 170.654 57.3037V62H169.403V57.3857C169.403 56.9391 169.337 56.5791 169.204 56.3057C168.986 55.8499 168.589 55.6221 168.015 55.6221C167.723 55.6221 167.484 55.6517 167.297 55.7109C166.96 55.8112 166.664 56.0117 166.408 56.3125C166.203 56.554 166.069 56.8047 166.005 57.0645C165.946 57.3197 165.916 57.6865 165.916 58.165V62H164.686V54.6787ZM173.145 52.6348H174.389V54.6787H175.558V55.6836H174.389V60.4619C174.389 60.7171 174.476 60.888 174.649 60.9746C174.744 61.0247 174.904 61.0498 175.127 61.0498C175.187 61.0498 175.25 61.0498 175.319 61.0498C175.387 61.0452 175.467 61.0384 175.558 61.0293V62C175.417 62.041 175.269 62.0706 175.114 62.0889C174.963 62.1071 174.799 62.1162 174.621 62.1162C174.047 62.1162 173.658 61.9704 173.452 61.6787C173.247 61.3825 173.145 60.9997 173.145 60.5303V55.6836H172.154V54.6787H173.145V52.6348ZM180.121 61.207C180.936 61.207 181.495 60.8994 181.795 60.2842C182.101 59.6644 182.253 58.9762 182.253 58.2197C182.253 57.5361 182.144 56.9801 181.925 56.5518C181.579 55.8773 180.982 55.54 180.134 55.54C179.382 55.54 178.835 55.8271 178.494 56.4014C178.152 56.9756 177.981 57.6683 177.981 58.4795C177.981 59.2588 178.152 59.9082 178.494 60.4277C178.835 60.9473 179.378 61.207 180.121 61.207ZM180.168 54.4668C181.112 54.4668 181.909 54.7812 182.561 55.4102C183.213 56.0391 183.539 56.9642 183.539 58.1855C183.539 59.3659 183.251 60.3411 182.677 61.1113C182.103 61.8815 181.212 62.2666 180.004 62.2666C178.997 62.2666 178.197 61.9271 177.605 61.248C177.012 60.5645 176.716 59.6484 176.716 58.5C176.716 57.2695 177.028 56.2897 177.653 55.5605C178.277 54.8314 179.116 54.4668 180.168 54.4668ZM185.462 54.6787H186.631V55.9434C186.727 55.6973 186.962 55.3988 187.335 55.0479C187.709 54.6924 188.14 54.5146 188.627 54.5146C188.65 54.5146 188.689 54.5169 188.744 54.5215C188.798 54.526 188.892 54.5352 189.024 54.5488V55.8477C188.951 55.834 188.883 55.8249 188.819 55.8203C188.76 55.8158 188.694 55.8135 188.621 55.8135C188.001 55.8135 187.525 56.014 187.192 56.415C186.859 56.8115 186.693 57.2695 186.693 57.7891V62H185.462V54.6787ZM191.242 59.7031C191.278 60.1133 191.381 60.4277 191.549 60.6465C191.859 61.043 192.397 61.2412 193.163 61.2412C193.618 61.2412 194.019 61.1432 194.366 60.9473C194.712 60.7467 194.885 60.4391 194.885 60.0244C194.885 59.71 194.746 59.4707 194.468 59.3066C194.291 59.2064 193.94 59.0902 193.416 58.958L192.438 58.7119C191.814 58.557 191.353 58.3838 191.057 58.1924C190.529 57.8597 190.264 57.3994 190.264 56.8115C190.264 56.1188 190.513 55.5583 191.009 55.1299C191.511 54.7015 192.183 54.4873 193.026 54.4873C194.129 54.4873 194.924 54.8109 195.412 55.458C195.717 55.8682 195.865 56.3102 195.856 56.7842H194.694C194.671 56.5062 194.573 56.2533 194.4 56.0254C194.117 55.7018 193.628 55.54 192.93 55.54C192.465 55.54 192.112 55.6289 191.871 55.8066C191.634 55.9844 191.515 56.2191 191.515 56.5107C191.515 56.8298 191.672 57.085 191.987 57.2764C192.169 57.3903 192.438 57.4906 192.794 57.5771L193.607 57.7754C194.491 57.9896 195.084 58.1969 195.384 58.3975C195.863 58.7119 196.102 59.2064 196.102 59.8809C196.102 60.5326 195.854 61.0954 195.357 61.5693C194.865 62.0433 194.113 62.2803 193.101 62.2803C192.012 62.2803 191.24 62.0342 190.784 61.542C190.333 61.0452 190.091 60.4323 190.059 59.7031H191.242ZM63.5254 71.9238H64.7559V75.6699C65.0476 75.3008 65.3096 75.041 65.542 74.8906C65.9385 74.6309 66.433 74.501 67.0254 74.501C68.0873 74.501 68.8073 74.8724 69.1856 75.6152C69.3907 76.0208 69.4932 76.5837 69.4932 77.3037V82H68.2286V77.3857C68.2286 76.848 68.1602 76.4538 68.0235 76.2031C67.8002 75.8021 67.3809 75.6016 66.7657 75.6016C66.2552 75.6016 65.7927 75.777 65.378 76.1279C64.9633 76.4788 64.7559 77.1419 64.7559 78.1172V82H63.5254V71.9238ZM74.7872 74.5146C75.3068 74.5146 75.8103 74.6377 76.298 74.8838C76.7856 75.1253 77.157 75.4398 77.4122 75.8271C77.6583 76.1963 77.8224 76.627 77.9044 77.1191C77.9773 77.4564 78.0138 77.9941 78.0138 78.7324H72.6476C72.6704 79.4753 72.8458 80.0723 73.1739 80.5234C73.5021 80.9701 74.0102 81.1934 74.6984 81.1934C75.3409 81.1934 75.8536 80.9814 76.2364 80.5576C76.4552 80.3115 76.6101 80.0267 76.7013 79.7031H77.9112C77.8793 79.972 77.7723 80.2728 77.59 80.6055C77.4122 80.9336 77.2117 81.2025 76.9884 81.4121C76.6147 81.7767 76.1521 82.0228 75.6007 82.1504C75.3045 82.2233 74.9695 82.2598 74.5958 82.2598C73.6844 82.2598 72.9119 81.9294 72.2784 81.2686C71.645 80.6032 71.3282 79.6735 71.3282 78.4795C71.3282 77.3037 71.6473 76.349 72.2853 75.6152C72.9233 74.8815 73.7573 74.5146 74.7872 74.5146ZM76.7491 77.7549C76.699 77.2217 76.5828 76.7956 76.4005 76.4766C76.0633 75.8841 75.5004 75.5879 74.712 75.5879C74.1469 75.5879 73.673 75.793 73.2902 76.2031C72.9073 76.6087 72.7045 77.126 72.6818 77.7549H76.7491ZM79.9855 71.958H81.216V82H79.9855V71.958ZM86.5784 81.1729C87.1526 81.1729 87.6289 80.9336 88.0071 80.4551C88.3899 79.972 88.5813 79.252 88.5813 78.2949C88.5813 77.7116 88.497 77.2103 88.3284 76.791C88.0094 75.9844 87.4261 75.5811 86.5784 75.5811C85.7262 75.5811 85.1429 76.0072 84.8284 76.8594C84.6598 77.3151 84.5755 77.8939 84.5755 78.5957C84.5755 79.1608 84.6598 79.6416 84.8284 80.0381C85.1474 80.7946 85.7307 81.1729 86.5784 81.1729ZM83.3929 74.7129H84.5891V75.6836C84.8352 75.3509 85.1041 75.0934 85.3958 74.9111C85.8105 74.6377 86.2981 74.501 86.8587 74.501C87.6881 74.501 88.3922 74.82 88.971 75.458C89.5498 76.0915 89.8391 76.9984 89.8391 78.1787C89.8391 79.7738 89.4221 80.9131 88.5882 81.5967C88.0595 82.0296 87.4443 82.2461 86.7425 82.2461C86.191 82.2461 85.7285 82.1253 85.3548 81.8838C85.136 81.7471 84.8922 81.5124 84.6233 81.1797V84.9189H83.3929V74.7129ZM100.591 74.6787H101.952C101.778 75.1481 101.393 76.2191 100.796 77.8916C100.35 79.1494 99.976 80.1748 99.6752 80.9678C98.9643 82.8363 98.463 83.9756 98.1713 84.3857C97.8797 84.7959 97.3784 85.001 96.6674 85.001C96.4942 85.001 96.3598 84.9941 96.2641 84.9805C96.173 84.9668 96.059 84.9417 95.9223 84.9053V83.7842C96.1365 83.8434 96.2914 83.8799 96.3871 83.8936C96.4828 83.9072 96.5672 83.9141 96.6401 83.9141C96.8679 83.9141 97.0343 83.8753 97.1391 83.7979C97.2485 83.7249 97.3396 83.6338 97.4125 83.5244C97.4353 83.488 97.5174 83.3011 97.6586 82.9639C97.7999 82.6266 97.9024 82.376 97.9662 82.2119L95.2592 74.6787H96.6537L98.6157 80.6396L100.591 74.6787ZM106.343 81.207C107.159 81.207 107.717 80.8994 108.018 80.2842C108.323 79.6644 108.476 78.9762 108.476 78.2197C108.476 77.5361 108.367 76.9801 108.148 76.5518C107.802 75.8773 107.205 75.54 106.357 75.54C105.605 75.54 105.058 75.8271 104.716 76.4014C104.375 76.9756 104.204 77.6683 104.204 78.4795C104.204 79.2588 104.375 79.9082 104.716 80.4277C105.058 80.9473 105.6 81.207 106.343 81.207ZM106.391 74.4668C107.334 74.4668 108.132 74.7812 108.784 75.4102C109.435 76.0391 109.761 76.9642 109.761 78.1855C109.761 79.3659 109.474 80.3411 108.9 81.1113C108.326 81.8815 107.435 82.2666 106.227 82.2666C105.22 82.2666 104.42 81.9271 103.828 81.248C103.235 80.5645 102.939 79.6484 102.939 78.5C102.939 77.2695 103.251 76.2897 103.876 75.5605C104.5 74.8314 105.338 74.4668 106.391 74.4668ZM112.881 74.6787V79.5391C112.881 79.9128 112.941 80.2181 113.059 80.4551C113.278 80.8926 113.686 81.1113 114.283 81.1113C115.14 81.1113 115.723 80.7285 116.033 79.9629C116.201 79.5527 116.286 78.9899 116.286 78.2744V74.6787H117.516V82H116.354L116.368 80.9199C116.208 81.1979 116.01 81.4326 115.773 81.624C115.304 82.0068 114.734 82.1982 114.064 82.1982C113.02 82.1982 112.309 81.8496 111.931 81.1523C111.726 80.7786 111.624 80.2796 111.624 79.6553V74.6787H112.881ZM126.764 74.5488C127.339 74.5488 127.84 74.6901 128.268 74.9727C128.501 75.1322 128.738 75.3646 128.979 75.6699V74.7471H130.114V81.4053C130.114 82.335 129.977 83.0687 129.704 83.6064C129.193 84.5999 128.23 85.0967 126.812 85.0967C126.024 85.0967 125.361 84.9189 124.823 84.5635C124.285 84.2126 123.984 83.6611 123.921 82.9092H125.172C125.231 83.2373 125.349 83.4902 125.527 83.668C125.805 83.9414 126.243 84.0781 126.84 84.0781C127.783 84.0781 128.4 83.7454 128.692 83.0801C128.865 82.6882 128.945 81.9886 128.931 80.9814C128.685 81.3551 128.389 81.6331 128.043 81.8154C127.696 81.9977 127.238 82.0889 126.669 82.0889C125.876 82.0889 125.181 81.8086 124.584 81.248C123.991 80.6829 123.695 79.751 123.695 78.4521C123.695 77.2262 123.994 76.2692 124.591 75.5811C125.192 74.8929 125.917 74.5488 126.764 74.5488ZM128.979 78.3086C128.979 77.4017 128.792 76.7295 128.419 76.292C128.045 75.8545 127.569 75.6357 126.99 75.6357C126.124 75.6357 125.532 76.0413 125.213 76.8525C125.044 77.2855 124.96 77.8529 124.96 78.5547C124.96 79.3796 125.126 80.0085 125.459 80.4414C125.796 80.8698 126.247 81.084 126.812 81.084C127.696 81.084 128.318 80.6852 128.678 79.8877C128.879 79.4365 128.979 78.9102 128.979 78.3086ZM135.442 74.5146C135.962 74.5146 136.465 74.6377 136.953 74.8838C137.441 75.1253 137.812 75.4398 138.067 75.8271C138.313 76.1963 138.477 76.627 138.559 77.1191C138.632 77.4564 138.669 77.9941 138.669 78.7324H133.303C133.325 79.4753 133.501 80.0723 133.829 80.5234C134.157 80.9701 134.665 81.1934 135.353 81.1934C135.996 81.1934 136.509 80.9814 136.891 80.5576C137.11 80.3115 137.265 80.0267 137.356 79.7031H138.566C138.534 79.972 138.427 80.2728 138.245 80.6055C138.067 80.9336 137.867 81.2025 137.643 81.4121C137.27 81.7767 136.807 82.0228 136.256 82.1504C135.959 82.2233 135.625 82.2598 135.251 82.2598C134.339 82.2598 133.567 81.9294 132.933 81.2686C132.3 80.6032 131.983 79.6735 131.983 78.4795C131.983 77.3037 132.302 76.349 132.94 75.6152C133.578 74.8815 134.412 74.5146 135.442 74.5146ZM137.404 77.7549C137.354 77.2217 137.238 76.7956 137.056 76.4766C136.718 75.8841 136.155 75.5879 135.367 75.5879C134.802 75.5879 134.328 75.793 133.945 76.2031C133.562 76.6087 133.36 77.126 133.337 77.7549H137.404ZM140.852 72.6348H142.097V74.6787H143.266V75.6836H142.097V80.4619C142.097 80.7171 142.183 80.888 142.356 80.9746C142.452 81.0247 142.612 81.0498 142.835 81.0498C142.894 81.0498 142.958 81.0498 143.026 81.0498C143.095 81.0452 143.174 81.0384 143.266 81.0293V82C143.124 82.041 142.976 82.0706 142.821 82.0889C142.671 82.1071 142.507 82.1162 142.329 82.1162C141.755 82.1162 141.365 81.9704 141.16 81.6787C140.955 81.3825 140.852 80.9997 140.852 80.5303V75.6836H139.861V74.6787H140.852V72.6348ZM152.145 81.207C152.96 81.207 153.519 80.8994 153.819 80.2842C154.125 79.6644 154.277 78.9762 154.277 78.2197C154.277 77.5361 154.168 76.9801 153.949 76.5518C153.603 75.8773 153.006 75.54 152.158 75.54C151.406 75.54 150.859 75.8271 150.518 76.4014C150.176 76.9756 150.005 77.6683 150.005 78.4795C150.005 79.2588 150.176 79.9082 150.518 80.4277C150.859 80.9473 151.402 81.207 152.145 81.207ZM152.192 74.4668C153.136 74.4668 153.933 74.7812 154.585 75.4102C155.237 76.0391 155.563 76.9642 155.563 78.1855C155.563 79.3659 155.275 80.3411 154.701 81.1113C154.127 81.8815 153.236 82.2666 152.028 82.2666C151.021 82.2666 150.221 81.9271 149.629 81.248C149.037 80.5645 148.74 79.6484 148.74 78.5C148.74 77.2695 149.052 76.2897 149.677 75.5605C150.301 74.8314 151.14 74.4668 152.192 74.4668ZM158.683 74.6787V79.5391C158.683 79.9128 158.742 80.2181 158.861 80.4551C159.079 80.8926 159.487 81.1113 160.084 81.1113C160.941 81.1113 161.524 80.7285 161.834 79.9629C162.003 79.5527 162.087 78.9899 162.087 78.2744V74.6787H163.318V82H162.155L162.169 80.9199C162.01 81.1979 161.811 81.4326 161.574 81.624C161.105 82.0068 160.535 82.1982 159.865 82.1982C158.822 82.1982 158.111 81.8496 157.733 81.1523C157.527 80.7786 157.425 80.2796 157.425 79.6553V74.6787H158.683ZM165.911 72.6348H167.156V74.6787H168.324V75.6836H167.156V80.4619C167.156 80.7171 167.242 80.888 167.415 80.9746C167.511 81.0247 167.67 81.0498 167.894 81.0498C167.953 81.0498 168.017 81.0498 168.085 81.0498C168.154 81.0452 168.233 81.0384 168.324 81.0293V82C168.183 82.041 168.035 82.0706 167.88 82.0889C167.73 82.1071 167.566 82.1162 167.388 82.1162C166.814 82.1162 166.424 81.9704 166.219 81.6787C166.014 81.3825 165.911 80.9997 165.911 80.5303V75.6836H164.92V74.6787H165.911V72.6348ZM177.204 81.207C178.019 81.207 178.578 80.8994 178.878 80.2842C179.184 79.6644 179.336 78.9762 179.336 78.2197C179.336 77.5361 179.227 76.9801 179.008 76.5518C178.662 75.8773 178.065 75.54 177.217 75.54C176.465 75.54 175.918 75.8271 175.577 76.4014C175.235 76.9756 175.064 77.6683 175.064 78.4795C175.064 79.2588 175.235 79.9082 175.577 80.4277C175.918 80.9473 176.461 81.207 177.204 81.207ZM177.251 74.4668C178.195 74.4668 178.992 74.7812 179.644 75.4102C180.296 76.0391 180.621 76.9642 180.621 78.1855C180.621 79.3659 180.334 80.3411 179.76 81.1113C179.186 81.8815 178.295 82.2666 177.087 82.2666C176.08 82.2666 175.28 81.9271 174.688 81.248C174.095 80.5645 173.799 79.6484 173.799 78.5C173.799 77.2695 174.111 76.2897 174.736 75.5605C175.36 74.8314 176.199 74.4668 177.251 74.4668ZM182.819 73.5645C182.837 73.054 182.926 72.6803 183.085 72.4434C183.373 72.0241 183.926 71.8145 184.747 71.8145C184.824 71.8145 184.904 71.8167 184.986 71.8213C185.068 71.8258 185.161 71.8327 185.266 71.8418V72.9629C185.138 72.9538 185.045 72.9492 184.986 72.9492C184.931 72.9447 184.879 72.9424 184.829 72.9424C184.455 72.9424 184.232 73.0404 184.159 73.2363C184.086 73.4277 184.049 73.9199 184.049 74.7129H185.266V75.6836H184.036V82H182.819V75.6836H181.8V74.7129H182.819V73.5645ZM191.178 74.6787H192.347V75.9434C192.443 75.6973 192.678 75.3988 193.051 75.0479C193.425 74.6924 193.856 74.5146 194.343 74.5146C194.366 74.5146 194.405 74.5169 194.46 74.5215C194.514 74.526 194.608 74.5352 194.74 74.5488V75.8477C194.667 75.834 194.599 75.8249 194.535 75.8203C194.476 75.8158 194.409 75.8135 194.337 75.8135C193.717 75.8135 193.241 76.014 192.908 76.415C192.575 76.8115 192.409 77.2695 192.409 77.7891V82H191.178V74.6787ZM199.132 81.207C199.947 81.207 200.506 80.8994 200.806 80.2842C201.112 79.6644 201.264 78.9762 201.264 78.2197C201.264 77.5361 201.155 76.9801 200.936 76.5518C200.59 75.8773 199.993 75.54 199.145 75.54C198.393 75.54 197.846 75.8271 197.505 76.4014C197.163 76.9756 196.992 77.6683 196.992 78.4795C196.992 79.2588 197.163 79.9082 197.505 80.4277C197.846 80.9473 198.389 81.207 199.132 81.207ZM199.179 74.4668C200.123 74.4668 200.92 74.7812 201.572 75.4102C202.224 76.0391 202.55 76.9642 202.55 78.1855C202.55 79.3659 202.262 80.3411 201.688 81.1113C201.114 81.8815 200.223 82.2666 199.015 82.2666C198.008 82.2666 197.208 81.9271 196.616 81.248C196.023 80.5645 195.727 79.6484 195.727 78.5C195.727 77.2695 196.039 76.2897 196.664 75.5605C197.288 74.8314 198.127 74.4668 199.179 74.4668ZM207.263 74.4668C208.087 74.4668 208.757 74.6673 209.272 75.0684C209.792 75.4694 210.104 76.1598 210.209 77.1396H209.013C208.94 76.6885 208.773 76.3148 208.513 76.0186C208.254 75.7178 207.837 75.5674 207.263 75.5674C206.479 75.5674 205.918 75.9502 205.581 76.7158C205.362 77.2126 205.253 77.8255 205.253 78.5547C205.253 79.2884 205.408 79.9059 205.718 80.4072C206.027 80.9085 206.515 81.1592 207.18 81.1592C207.691 81.1592 208.094 81.0042 208.39 80.6943C208.691 80.3799 208.899 79.9515 209.013 79.4092H210.209C210.072 80.3799 209.73 81.0908 209.183 81.542C208.637 81.9886 207.937 82.2119 207.085 82.2119C206.128 82.2119 205.364 81.8633 204.795 81.166C204.225 80.4642 203.94 79.5892 203.94 78.541C203.94 77.2559 204.252 76.2555 204.877 75.54C205.501 74.8245 206.296 74.4668 207.263 74.4668ZM211.832 71.958H213.015V77.7891L216.173 74.6787H217.745L214.942 77.4199L217.902 82H216.33L214.047 78.3086L213.015 79.252V82H211.832V71.958ZM48.6064 91.9238H49.8027V95.5674C50.0716 95.2165 50.3929 94.9499 50.7666 94.7676C51.1403 94.5807 51.5459 94.4873 51.9834 94.4873C52.8948 94.4873 53.6331 94.8018 54.1982 95.4307C54.7679 96.055 55.0527 96.9779 55.0527 98.1992C55.0527 99.3568 54.7724 100.318 54.2119 101.084C53.6513 101.85 52.8743 102.232 51.8808 102.232C51.3248 102.232 50.8554 102.098 50.4726 101.829C50.2448 101.67 50.0009 101.414 49.7412 101.063V102H48.6064V91.9238ZM51.8056 101.146C52.471 101.146 52.9677 100.881 53.2959 100.353C53.6285 99.8239 53.7949 99.1266 53.7949 98.2607C53.7949 97.4906 53.6285 96.8525 53.2959 96.3467C52.9677 95.8408 52.4824 95.5879 51.8398 95.5879C51.2793 95.5879 50.7871 95.7952 50.3632 96.21C49.944 96.6247 49.7343 97.3083 49.7343 98.2607C49.7343 98.9489 49.8209 99.5072 49.9941 99.9355C50.3177 100.742 50.9215 101.146 51.8056 101.146ZM59.8204 101.207C60.6361 101.207 61.1944 100.899 61.4952 100.284C61.8005 99.6644 61.9532 98.9762 61.9532 98.2197C61.9532 97.5361 61.8438 96.9801 61.625 96.5518C61.2787 95.8773 60.6817 95.54 59.834 95.54C59.0821 95.54 58.5352 95.8271 58.1934 96.4014C57.8516 96.9756 57.6807 97.6683 57.6807 98.4795C57.6807 99.2588 57.8516 99.9082 58.1934 100.428C58.5352 100.947 59.0775 101.207 59.8204 101.207ZM59.8682 94.4668C60.8116 94.4668 61.6091 94.7812 62.2608 95.4102C62.9125 96.0391 63.2383 96.9642 63.2383 98.1855C63.2383 99.3659 62.9512 100.341 62.377 101.111C61.8028 101.882 60.9118 102.267 59.7041 102.267C58.697 102.267 57.8972 101.927 57.3047 101.248C56.7123 100.564 56.4161 99.6484 56.4161 98.5C56.4161 97.2695 56.7282 96.2897 57.3526 95.5605C57.9769 94.8314 58.8155 94.4668 59.8682 94.4668ZM65.3741 92.6348H66.6183V94.6787H67.7872V95.6836H66.6183V100.462C66.6183 100.717 66.7049 100.888 66.878 100.975C66.9738 101.025 67.1333 101.05 67.3566 101.05C67.4158 101.05 67.4796 101.05 67.548 101.05C67.6163 101.045 67.6961 101.038 67.7872 101.029V102C67.646 102.041 67.4978 102.071 67.3429 102.089C67.1925 102.107 67.0284 102.116 66.8507 102.116C66.2765 102.116 65.8868 101.97 65.6818 101.679C65.4767 101.382 65.3741 101 65.3741 100.53V95.6836H64.3829V94.6787H65.3741V92.6348ZM69.6906 92.6348H70.9348V94.6787H72.1037V95.6836H70.9348V100.462C70.9348 100.717 71.0214 100.888 71.1945 100.975C71.2902 101.025 71.4497 101.05 71.673 101.05C71.7323 101.05 71.7961 101.05 71.8645 101.05C71.9328 101.045 72.0126 101.038 72.1037 101.029V102C71.9624 102.041 71.8143 102.071 71.6594 102.089C71.509 102.107 71.3449 102.116 71.1672 102.116C70.593 102.116 70.2033 101.97 69.9982 101.679C69.7932 101.382 69.6906 101 69.6906 100.53V95.6836H68.6994V94.6787H69.6906V92.6348ZM76.6663 101.207C77.482 101.207 78.0403 100.899 78.3411 100.284C78.6464 99.6644 78.7991 98.9762 78.7991 98.2197C78.7991 97.5361 78.6897 96.9801 78.471 96.5518C78.1246 95.8773 77.5276 95.54 76.68 95.54C75.928 95.54 75.3811 95.8271 75.0393 96.4014C74.6975 96.9756 74.5266 97.6683 74.5266 98.4795C74.5266 99.2588 74.6975 99.9082 75.0393 100.428C75.3811 100.947 75.9235 101.207 76.6663 101.207ZM76.7141 94.4668C77.6575 94.4668 78.455 94.7812 79.1067 95.4102C79.7584 96.0391 80.0843 96.9642 80.0843 98.1855C80.0843 99.3659 79.7971 100.341 79.2229 101.111C78.6487 101.882 77.7578 102.267 76.5501 102.267C75.5429 102.267 74.7431 101.927 74.1507 101.248C73.5582 100.564 73.262 99.6484 73.262 98.5C73.262 97.2695 73.5742 96.2897 74.1985 95.5605C74.8229 94.8314 75.6614 94.4668 76.7141 94.4668ZM81.974 94.6787H83.1908V95.7178C83.4824 95.3577 83.7468 95.0957 83.9837 94.9316C84.3893 94.6536 84.8496 94.5146 85.3646 94.5146C85.9479 94.5146 86.4173 94.6582 86.7728 94.9453C86.9733 95.1094 87.1556 95.3509 87.3197 95.6699C87.5931 95.278 87.9144 94.9886 88.2836 94.8018C88.6527 94.6104 89.0674 94.5146 89.5277 94.5146C90.5121 94.5146 91.182 94.8701 91.5375 95.5811C91.7289 95.9639 91.8246 96.4788 91.8246 97.126V102H90.5462V96.9141C90.5462 96.4264 90.4232 96.0915 90.1771 95.9092C89.9356 95.7269 89.6393 95.6357 89.2884 95.6357C88.8054 95.6357 88.3884 95.7975 88.0375 96.1211C87.6911 96.4447 87.5179 96.9847 87.5179 97.7412V102H86.267V97.2217C86.267 96.7249 86.2077 96.3626 86.0892 96.1348C85.9024 95.793 85.5537 95.6221 85.0433 95.6221C84.5785 95.6221 84.1546 95.8021 83.7718 96.1621C83.3936 96.5221 83.2045 97.1738 83.2045 98.1172V102H81.974V94.6787ZM99.1519 98.4248C99.1519 99.2087 99.3182 99.8649 99.6509 100.394C99.9836 100.922 100.517 101.187 101.251 101.187C101.82 101.187 102.287 100.943 102.652 100.455C103.021 99.9629 103.206 99.2588 103.206 98.3428C103.206 97.4176 103.016 96.734 102.638 96.292C102.26 95.8454 101.793 95.6221 101.237 95.6221C100.617 95.6221 100.113 95.859 99.7261 96.333C99.3433 96.807 99.1519 97.5042 99.1519 98.4248ZM101.004 94.5488C101.565 94.5488 102.034 94.6673 102.413 94.9043C102.631 95.041 102.88 95.2803 103.158 95.6221V91.9238H104.34V102H103.233V100.981C102.946 101.433 102.606 101.758 102.214 101.959C101.822 102.16 101.374 102.26 100.868 102.26C100.052 102.26 99.3456 101.918 98.7486 101.234C98.1515 100.546 97.853 99.6325 97.853 98.4932C97.853 97.4268 98.1242 96.5039 98.6665 95.7246C99.2134 94.9408 99.9927 94.5488 101.004 94.5488ZM107.816 94.6787V99.5391C107.816 99.9128 107.875 100.218 107.994 100.455C108.213 100.893 108.62 101.111 109.217 101.111C110.074 101.111 110.657 100.729 110.967 99.9629C111.136 99.5527 111.22 98.9899 111.22 98.2744V94.6787H112.451V102H111.289L111.302 100.92C111.143 101.198 110.945 101.433 110.708 101.624C110.238 102.007 109.669 102.198 108.999 102.198C107.955 102.198 107.244 101.85 106.866 101.152C106.661 100.779 106.558 100.28 106.558 99.6553V94.6787H107.816ZM114.833 94.6787H116.002V95.9434C116.097 95.6973 116.332 95.3988 116.706 95.0479C117.079 94.6924 117.51 94.5146 117.998 94.5146C118.021 94.5146 118.059 94.5169 118.114 94.5215C118.169 94.526 118.262 94.5352 118.394 94.5488V95.8477C118.321 95.834 118.253 95.8249 118.189 95.8203C118.13 95.8158 118.064 95.8135 117.991 95.8135C117.371 95.8135 116.895 96.014 116.562 96.415C116.23 96.8115 116.063 97.2695 116.063 97.7891V102H114.833V94.6787ZM119.881 94.7129H121.132V102H119.881V94.7129ZM119.881 91.958H121.132V93.3525H119.881V91.958ZM123.418 94.6787H124.587V95.7178C124.933 95.2894 125.3 94.9818 125.687 94.7949C126.075 94.6081 126.505 94.5146 126.979 94.5146C128.018 94.5146 128.72 94.877 129.085 95.6016C129.285 95.998 129.386 96.5654 129.386 97.3037V102H128.135V97.3857C128.135 96.9391 128.069 96.5791 127.936 96.3057C127.718 95.8499 127.321 95.6221 126.747 95.6221C126.455 95.6221 126.216 95.6517 126.029 95.7109C125.692 95.8112 125.396 96.0117 125.14 96.3125C124.935 96.554 124.801 96.8047 124.737 97.0645C124.678 97.3197 124.648 97.6865 124.648 98.165V102H123.418V94.6787ZM134.215 94.5488C134.789 94.5488 135.29 94.6901 135.719 94.9727C135.951 95.1322 136.188 95.3646 136.43 95.6699V94.7471H137.564V101.405C137.564 102.335 137.428 103.069 137.154 103.606C136.644 104.6 135.68 105.097 134.263 105.097C133.474 105.097 132.811 104.919 132.273 104.563C131.736 104.213 131.435 103.661 131.371 102.909H132.622C132.681 103.237 132.8 103.49 132.977 103.668C133.255 103.941 133.693 104.078 134.29 104.078C135.233 104.078 135.851 103.745 136.143 103.08C136.316 102.688 136.395 101.989 136.382 100.981C136.136 101.355 135.839 101.633 135.493 101.815C135.147 101.998 134.689 102.089 134.119 102.089C133.326 102.089 132.631 101.809 132.034 101.248C131.442 100.683 131.145 99.751 131.145 98.4521C131.145 97.2262 131.444 96.2692 132.041 95.5811C132.643 94.8929 133.367 94.5488 134.215 94.5488ZM136.43 98.3086C136.43 97.4017 136.243 96.7295 135.869 96.292C135.495 95.8545 135.019 95.6357 134.44 95.6357C133.574 95.6357 132.982 96.0413 132.663 96.8525C132.494 97.2855 132.41 97.8529 132.41 98.5547C132.41 99.3796 132.576 100.008 132.909 100.441C133.246 100.87 133.698 101.084 134.263 101.084C135.147 101.084 135.769 100.685 136.129 99.8877C136.329 99.4365 136.43 98.9102 136.43 98.3086ZM144.892 99.7031C144.928 100.113 145.031 100.428 145.199 100.646C145.509 101.043 146.047 101.241 146.813 101.241C147.268 101.241 147.669 101.143 148.016 100.947C148.362 100.747 148.535 100.439 148.535 100.024C148.535 99.71 148.396 99.4707 148.118 99.3066C147.941 99.2064 147.59 99.0902 147.066 98.958L146.088 98.7119C145.464 98.557 145.003 98.3838 144.707 98.1924C144.178 97.8597 143.914 97.3994 143.914 96.8115C143.914 96.1188 144.163 95.5583 144.659 95.1299C145.161 94.7015 145.833 94.4873 146.676 94.4873C147.779 94.4873 148.574 94.8109 149.062 95.458C149.367 95.8682 149.515 96.3102 149.506 96.7842H148.344C148.321 96.5062 148.223 96.2533 148.05 96.0254C147.767 95.7018 147.277 95.54 146.58 95.54C146.115 95.54 145.762 95.6289 145.521 95.8066C145.284 95.9844 145.165 96.2191 145.165 96.5107C145.165 96.8298 145.322 97.085 145.637 97.2764C145.819 97.3903 146.088 97.4906 146.443 97.5771L147.257 97.7754C148.141 97.9896 148.733 98.1969 149.034 98.3975C149.513 98.7119 149.752 99.2064 149.752 99.8809C149.752 100.533 149.504 101.095 149.007 101.569C148.515 102.043 147.763 102.28 146.751 102.28C145.662 102.28 144.889 102.034 144.434 101.542C143.982 101.045 143.741 100.432 143.709 99.7031H144.892ZM151.826 92.6348H153.07V94.6787H154.239V95.6836H153.07V100.462C153.07 100.717 153.157 100.888 153.33 100.975C153.426 101.025 153.585 101.05 153.809 101.05C153.868 101.05 153.932 101.05 154 101.05C154.069 101.045 154.148 101.038 154.239 101.029V102C154.098 102.041 153.95 102.071 153.795 102.089C153.645 102.107 153.481 102.116 153.303 102.116C152.729 102.116 152.339 101.97 152.134 101.679C151.929 101.382 151.826 101 151.826 100.53V95.6836H150.835V94.6787H151.826V92.6348ZM157.127 94.6787V99.5391C157.127 99.9128 157.186 100.218 157.305 100.455C157.524 100.893 157.932 101.111 158.529 101.111C159.385 101.111 159.969 100.729 160.279 99.9629C160.447 99.5527 160.531 98.9899 160.531 98.2744V94.6787H161.762V102H160.6L160.614 100.92C160.454 101.198 160.256 101.433 160.019 101.624C159.549 102.007 158.98 102.198 158.31 102.198C157.266 102.198 156.555 101.85 156.177 101.152C155.972 100.779 155.869 100.28 155.869 99.6553V94.6787H157.127ZM164.889 98.4248C164.889 99.2087 165.055 99.8649 165.388 100.394C165.721 100.922 166.254 101.187 166.988 101.187C167.557 101.187 168.024 100.943 168.389 100.455C168.758 99.9629 168.943 99.2588 168.943 98.3428C168.943 97.4176 168.754 96.734 168.375 96.292C167.997 95.8454 167.53 95.6221 166.974 95.6221C166.354 95.6221 165.851 95.859 165.463 96.333C165.08 96.807 164.889 97.5042 164.889 98.4248ZM166.742 94.5488C167.302 94.5488 167.771 94.6673 168.15 94.9043C168.368 95.041 168.617 95.2803 168.895 95.6221V91.9238H170.077V102H168.97V100.981C168.683 101.433 168.343 101.758 167.951 101.959C167.56 102.16 167.111 102.26 166.605 102.26C165.789 102.26 165.083 101.918 164.486 101.234C163.889 100.546 163.59 99.6325 163.59 98.4932C163.59 97.4268 163.861 96.5039 164.404 95.7246C164.951 94.9408 165.73 94.5488 166.742 94.5488ZM176.896 94.6787H178.256C178.083 95.1481 177.698 96.2191 177.101 97.8916C176.654 99.1494 176.281 100.175 175.98 100.968C175.269 102.836 174.768 103.976 174.476 104.386C174.184 104.796 173.683 105.001 172.972 105.001C172.799 105.001 172.664 104.994 172.569 104.98C172.478 104.967 172.364 104.942 172.227 104.905V103.784C172.441 103.843 172.596 103.88 172.692 103.894C172.788 103.907 172.872 103.914 172.945 103.914C173.173 103.914 173.339 103.875 173.444 103.798C173.553 103.725 173.644 103.634 173.717 103.524C173.74 103.488 173.822 103.301 173.963 102.964C174.105 102.627 174.207 102.376 174.271 102.212L171.564 94.6787H172.958L174.92 100.64L176.896 94.6787ZM185.003 100.052C185.003 100.407 185.132 100.688 185.392 100.893C185.652 101.098 185.96 101.2 186.315 101.2C186.748 101.2 187.167 101.1 187.573 100.899C188.256 100.567 188.598 100.022 188.598 99.2656V98.2744C188.448 98.3701 188.254 98.4499 188.017 98.5137C187.78 98.5775 187.548 98.623 187.32 98.6504L186.575 98.7461C186.128 98.8053 185.793 98.8988 185.57 99.0264C185.192 99.2406 185.003 99.5824 185.003 100.052ZM187.983 97.5635C188.266 97.527 188.455 97.4085 188.55 97.208C188.605 97.0986 188.632 96.9414 188.632 96.7363C188.632 96.3171 188.482 96.014 188.181 95.8271C187.885 95.6357 187.459 95.54 186.903 95.54C186.26 95.54 185.805 95.7132 185.536 96.0596C185.385 96.251 185.287 96.5358 185.242 96.9141H184.093C184.116 96.0117 184.408 95.3851 184.968 95.0342C185.533 94.6787 186.187 94.501 186.93 94.501C187.792 94.501 188.491 94.665 189.029 94.9932C189.562 95.3213 189.829 95.8317 189.829 96.5244V100.742C189.829 100.87 189.854 100.972 189.904 101.05C189.959 101.127 190.07 101.166 190.239 101.166C190.294 101.166 190.355 101.164 190.423 101.159C190.492 101.15 190.565 101.139 190.642 101.125V102.034C190.451 102.089 190.305 102.123 190.205 102.137C190.104 102.15 189.968 102.157 189.794 102.157C189.371 102.157 189.063 102.007 188.872 101.706C188.771 101.547 188.701 101.321 188.66 101.029C188.409 101.357 188.049 101.642 187.58 101.884C187.11 102.125 186.593 102.246 186.028 102.246C185.349 102.246 184.793 102.041 184.36 101.631C183.932 101.216 183.717 100.699 183.717 100.079C183.717 99.4001 183.929 98.8737 184.353 98.5C184.777 98.1263 185.333 97.8962 186.021 97.8096L187.983 97.5635ZM192.176 91.9238H193.373V95.5674C193.642 95.2165 193.963 94.9499 194.337 94.7676C194.71 94.5807 195.116 94.4873 195.553 94.4873C196.465 94.4873 197.203 94.8018 197.768 95.4307C198.338 96.055 198.623 96.9779 198.623 98.1992C198.623 99.3568 198.342 100.318 197.782 101.084C197.221 101.85 196.444 102.232 195.451 102.232C194.895 102.232 194.425 102.098 194.043 101.829C193.815 101.67 193.571 101.414 193.311 101.063V102H192.176V91.9238ZM195.376 101.146C196.041 101.146 196.538 100.881 196.866 100.353C197.199 99.8239 197.365 99.1266 197.365 98.2607C197.365 97.4906 197.199 96.8525 196.866 96.3467C196.538 95.8408 196.052 95.5879 195.41 95.5879C194.849 95.5879 194.357 95.7952 193.933 96.21C193.514 96.6247 193.304 97.3083 193.304 98.2607C193.304 98.9489 193.391 99.5072 193.564 99.9355C193.888 100.742 194.492 101.146 195.376 101.146ZM200.519 94.6787H201.688V95.9434C201.784 95.6973 202.019 95.3988 202.392 95.0479C202.766 94.6924 203.197 94.5146 203.684 94.5146C203.707 94.5146 203.746 94.5169 203.801 94.5215C203.855 94.526 203.949 94.5352 204.081 94.5488V95.8477C204.008 95.834 203.94 95.8249 203.876 95.8203C203.816 95.8158 203.75 95.8135 203.677 95.8135C203.058 95.8135 202.581 96.014 202.249 96.415C201.916 96.8115 201.75 97.2695 201.75 97.7891V102H200.519V94.6787ZM208.472 101.207C209.288 101.207 209.846 100.899 210.147 100.284C210.453 99.6644 210.605 98.9762 210.605 98.2197C210.605 97.5361 210.496 96.9801 210.277 96.5518C209.931 95.8773 209.334 95.54 208.486 95.54C207.734 95.54 207.187 95.8271 206.846 96.4014C206.504 96.9756 206.333 97.6683 206.333 98.4795C206.333 99.2588 206.504 99.9082 206.846 100.428C207.187 100.947 207.73 101.207 208.472 101.207ZM208.52 94.4668C209.464 94.4668 210.261 94.7812 210.913 95.4102C211.565 96.0391 211.89 96.9642 211.89 98.1855C211.89 99.3659 211.603 100.341 211.029 101.111C210.455 101.882 209.564 102.267 208.356 102.267C207.349 102.267 206.549 101.927 205.957 101.248C205.364 100.564 205.068 99.6484 205.068 98.5C205.068 97.2695 205.38 96.2897 206.005 95.5605C206.629 94.8314 207.468 94.4668 208.52 94.4668ZM214.724 100.052C214.724 100.407 214.853 100.688 215.113 100.893C215.373 101.098 215.681 101.2 216.036 101.2C216.469 101.2 216.888 101.1 217.294 100.899C217.977 100.567 218.319 100.022 218.319 99.2656V98.2744C218.169 98.3701 217.975 98.4499 217.738 98.5137C217.501 98.5775 217.269 98.623 217.041 98.6504L216.296 98.7461C215.849 98.8053 215.514 98.8988 215.291 99.0264C214.913 99.2406 214.724 99.5824 214.724 100.052ZM217.704 97.5635C217.987 97.527 218.176 97.4085 218.271 97.208C218.326 97.0986 218.353 96.9414 218.353 96.7363C218.353 96.3171 218.203 96.014 217.902 95.8271C217.606 95.6357 217.18 95.54 216.624 95.54C215.981 95.54 215.526 95.7132 215.257 96.0596C215.106 96.251 215.008 96.5358 214.963 96.9141H213.814C213.837 96.0117 214.129 95.3851 214.689 95.0342C215.254 94.6787 215.908 94.501 216.651 94.501C217.513 94.501 218.212 94.665 218.75 94.9932C219.283 95.3213 219.55 95.8317 219.55 96.5244V100.742C219.55 100.87 219.575 100.972 219.625 101.05C219.68 101.127 219.791 101.166 219.96 101.166C220.015 101.166 220.076 101.164 220.144 101.159C220.213 101.15 220.286 101.139 220.363 101.125V102.034C220.172 102.089 220.026 102.123 219.926 102.137C219.825 102.15 219.689 102.157 219.516 102.157C219.092 102.157 218.784 102.007 218.593 101.706C218.492 101.547 218.422 101.321 218.381 101.029C218.13 101.357 217.77 101.642 217.301 101.884C216.831 102.125 216.314 102.246 215.749 102.246C215.07 102.246 214.514 102.041 214.081 101.631C213.653 101.216 213.438 100.699 213.438 100.079C213.438 99.4001 213.65 98.8737 214.074 98.5C214.498 98.1263 215.054 97.8962 215.742 97.8096L217.704 97.5635ZM222.772 98.4248C222.772 99.2087 222.939 99.8649 223.271 100.394C223.604 100.922 224.137 101.187 224.871 101.187C225.441 101.187 225.908 100.943 226.272 100.455C226.642 99.9629 226.826 99.2588 226.826 98.3428C226.826 97.4176 226.637 96.734 226.259 96.292C225.881 95.8454 225.413 95.6221 224.857 95.6221C224.238 95.6221 223.734 95.859 223.347 96.333C222.964 96.807 222.772 97.5042 222.772 98.4248ZM224.625 94.5488C225.186 94.5488 225.655 94.6673 226.033 94.9043C226.252 95.041 226.5 95.2803 226.778 95.6221V91.9238H227.961V102H226.853V100.981C226.566 101.433 226.227 101.758 225.835 101.959C225.443 102.16 224.994 102.26 224.488 102.26C223.672 102.26 222.966 101.918 222.369 101.234C221.772 100.546 221.474 99.6325 221.474 98.4932C221.474 97.4268 221.745 96.5039 222.287 95.7246C222.834 94.9408 223.613 94.5488 224.625 94.5488ZM230.5 100.51H231.929V102H230.5V100.51Z" fill="#202020"/>
<defs>
<clipPath id="clip0">
<rect width="147" height="107" fill="white" transform="translate(150)"/>
</clipPath>
<clipPath id="clip1">
<rect width="98" height="104" fill="white" transform="translate(0 5)"/>
</clipPath>
</defs>
</svg>
