<svg width="297" height="109" viewBox="0 0 297 109" fill="none" xmlns="http://www.w3.org/2000/svg">
<g clip-path="url(#clip0)">
<path d="M276.521 39.3682H274.373L266.83 50.2898L261.879 45.0484L259.848 46.503L264.705 54.2844L268.184 55.5082L271.22 51.7445L276.521 39.3682Z" fill="#A7DEFC"/>
<path d="M272.341 21.8195C273.135 22.189 273.649 23.2742 273.743 24.8444C273.813 25.768 273.719 26.7839 273.486 27.8692C273.252 29.0237 272.855 30.1782 272.318 31.3327C271.781 32.4872 271.127 33.5263 270.403 34.4499C269.726 35.3273 268.979 36.0431 268.232 36.5973C266.971 37.5209 265.78 37.8441 264.986 37.4978C264.192 37.1283 263.678 36.0431 263.584 34.473C263.514 33.5494 263.608 32.5334 263.841 31.4482C264.075 30.2936 264.472 29.1391 265.009 27.9846C265.546 26.8301 266.2 25.7911 266.924 24.8674C267.601 23.99 268.348 23.2742 269.096 22.7201C270.38 21.7734 271.547 21.4501 272.341 21.8195ZM273.042 20.3187C270.17 19.0256 265.896 22.1428 263.491 27.2919C261.086 32.441 261.436 37.6825 264.308 38.9756C267.181 40.2686 271.454 37.1514 273.859 32.0023C276.265 26.8532 275.914 21.6117 273.042 20.3187Z" fill="#FB5E90"/>
<path d="M255.037 59.7793L254.243 59.4099C254.033 59.3175 253.963 59.0866 254.056 58.8788L263.771 38.1438C263.864 37.936 264.098 37.8667 264.308 37.9591L265.102 38.3285C265.312 38.4209 265.382 38.6518 265.288 38.8596L255.551 59.5946C255.457 59.7793 255.224 59.8717 255.037 59.7793Z" fill="#FB5E90"/>
<path d="M272.061 21.7275C271.827 21.6582 269.305 21.612 268.441 21.4735C264.658 20.8501 262.813 18.6565 262.136 15.1237C261.833 13.5074 261.109 11.9603 260.058 10.6904C257.933 8.10426 254.5 6.69575 251.208 7.7579C250.087 8.12735 248.966 8.88932 248.148 9.85911C247.331 10.8289 246.817 12.0065 246.934 13.161C246.28 12.4221 245.229 12.0296 244.039 11.9141C242.451 11.7525 240.653 12.0758 239.438 12.7223C233.904 15.6548 234.908 23.3669 239.345 26.992C241.727 28.9316 244.552 30.3401 247.471 31.4254C247.938 31.6101 248.545 31.7948 249.199 32.0257C250.951 32.5799 253.169 33.2264 254.547 33.5958C254.967 33.6882 255.434 33.8037 255.878 33.896C256.929 34.1269 258.05 34.3347 259.264 34.5195C260.011 34.658 260.758 34.8889 261.459 35.1429C262.09 35.3738 262.697 35.674 263.257 36.0434C263.537 36.2281 263.864 36.459 264.074 36.713C264.448 37.1748 264.822 37.5443 265.452 37.5905C266.059 37.6597 266.666 37.5674 267.25 37.3595C269.702 36.5283 272.248 31.4485 272.318 31.2868C272.341 31.3099 276.077 23.0898 272.061 21.7275Z" fill="#FFC1D6"/>
<path d="M268.091 21.4043C267.67 21.7276 267.227 22.0739 266.806 22.4895C266.713 22.5819 266.596 22.6973 266.503 22.8128C266.409 22.9283 266.292 23.0206 266.199 23.1361C266.106 23.2515 265.989 23.367 265.895 23.4824C265.802 23.5979 265.709 23.7133 265.592 23.8519C265.498 23.9673 265.405 24.1059 265.312 24.2213C265.218 24.3598 265.125 24.4753 265.031 24.6138C264.938 24.7524 264.845 24.8909 264.751 25.0295C264.658 25.168 264.564 25.3065 264.494 25.4451C264.401 25.5836 264.331 25.7222 264.237 25.8838C264.144 26.0223 264.074 26.184 263.981 26.3225C263.911 26.4841 263.817 26.6227 263.747 26.7843C263.677 26.9459 263.584 27.1076 263.514 27.2692C263.443 27.4308 263.35 27.6156 263.28 27.7772C263.257 27.8234 263.233 27.8926 263.21 27.9388C263.163 28.0543 263.117 28.1697 263.07 28.2852C263.047 28.3544 263.023 28.4237 263 28.493C262.953 28.6084 262.93 28.7008 262.883 28.8163C262.86 28.8855 262.836 28.9548 262.813 29.0241C262.766 29.1164 262.743 29.2319 262.72 29.3242C262.696 29.3935 262.673 29.4628 262.65 29.5321C262.626 29.6244 262.579 29.7399 262.556 29.8322C262.533 29.9015 262.509 29.9708 262.486 30.04C262.463 30.1324 262.439 30.2478 262.393 30.3402C262.369 30.4095 262.369 30.4787 262.346 30.5249C262.323 30.6404 262.299 30.7558 262.276 30.8713C262.253 30.9175 262.253 30.9867 262.229 31.0329C262.159 31.3562 262.089 31.6794 262.042 32.0027C262.042 32.0489 262.019 32.0951 262.019 32.1643C261.996 32.2798 261.996 32.3721 261.972 32.4876C261.972 32.5569 261.949 32.603 261.949 32.6723C261.949 32.7647 261.926 32.857 261.926 32.9494C261.926 33.0187 261.926 33.0649 261.902 33.1341C261.902 33.2265 261.902 33.3188 261.879 33.4112C261.879 33.4805 261.879 33.5267 261.879 33.5959C261.879 33.6883 261.879 33.7806 261.879 33.873C261.879 33.9423 261.879 33.9885 261.879 34.0577C261.879 34.1501 261.879 34.2425 261.879 34.3348C261.879 34.381 261.879 34.4503 261.879 34.4964C261.879 34.5888 261.902 34.6812 261.902 34.7735C261.902 34.8197 261.902 34.8659 261.926 34.9121C261.949 35.0506 261.949 35.1891 261.972 35.3277C262.089 35.3739 262.182 35.4201 262.276 35.4662H262.299C262.393 35.5124 262.509 35.5817 262.603 35.6279C262.603 35.6279 262.603 35.6279 262.626 35.6279C262.72 35.674 262.813 35.7202 262.883 35.7895C262.906 35.8126 262.93 35.8126 262.953 35.8357C263.047 35.8819 263.14 35.9511 263.233 36.0204C263.467 36.182 263.7 36.3437 263.911 36.5284C263.654 35.9973 263.607 35.2584 263.56 34.4503C263.537 34.2194 263.537 33.9885 263.537 33.7345C263.537 33.5036 263.56 33.2496 263.56 32.9956C263.584 32.6261 263.654 32.2336 263.724 31.818C263.747 31.6794 263.77 31.5409 263.794 31.4254C264.027 30.2709 264.424 29.1164 264.961 27.9619C265.428 26.969 265.989 26.0223 266.596 25.1911C266.689 25.0756 266.783 24.9602 266.876 24.8447C267.297 24.2906 267.764 23.8057 268.207 23.3901C268.488 23.1361 268.768 22.9052 269.048 22.6973C269.678 22.2355 270.379 21.7737 270.916 21.6352H270.893C270.846 21.6352 270.823 21.6352 270.776 21.6352C270.753 21.6352 270.753 21.6352 270.729 21.6352C270.706 21.6352 270.659 21.6352 270.636 21.6352C270.496 21.6352 270.379 21.6121 270.239 21.6121H270.216C270.169 21.6121 270.122 21.6121 270.075 21.6121C270.052 21.6121 270.052 21.6121 270.029 21.6121C269.982 21.6121 269.935 21.6121 269.889 21.6121H269.865C269.749 21.6121 269.632 21.589 269.538 21.589H269.515C269.468 21.589 269.422 21.589 269.375 21.589C269.352 21.589 269.352 21.589 269.328 21.589C269.281 21.589 269.258 21.589 269.211 21.589C269.188 21.589 269.188 21.589 269.165 21.589C269.118 21.589 269.095 21.589 269.048 21.589H269.025C268.978 21.589 268.931 21.589 268.884 21.5659H268.861C268.814 21.5659 268.791 21.5659 268.744 21.5659C268.721 21.5659 268.721 21.5659 268.698 21.5659C268.674 21.5659 268.651 21.5659 268.604 21.5659C268.581 21.5659 268.581 21.5659 268.558 21.5659C268.534 21.5659 268.511 21.5659 268.488 21.5659H268.464C268.441 21.5659 268.394 21.5659 268.371 21.5428C268.324 21.4274 268.207 21.4274 268.091 21.4043Z" fill="#D07F98"/>
<path opacity="0.5" d="M259.522 15.1003C259.218 15.1234 258.961 14.8925 258.938 14.5923C258.751 11.7984 256.299 9.6972 253.497 9.88192C252.026 9.97428 250.695 10.6901 249.784 11.8446C249.597 12.0755 249.247 12.1217 249.013 11.9369C248.78 11.7522 248.733 11.4059 248.92 11.175C250.017 9.78956 251.652 8.91213 253.427 8.79668C256.836 8.56578 259.802 11.1288 260.035 14.5231C260.059 14.8232 259.825 15.1003 259.522 15.1003Z" fill="white"/>
<path opacity="0.5" d="M260.759 17.0858C260.549 17.3629 260.152 17.4322 259.848 17.2243C259.568 17.0165 259.498 16.624 259.708 16.3238C259.918 16.0467 260.315 15.9775 260.619 16.1853C260.899 16.3931 260.969 16.7856 260.759 17.0858Z" fill="white"/>
<path d="M214.777 7.1347C211.321 8.33539 208.029 12.1222 208.426 15.6319C206.02 13.0227 200.066 13.4614 196.89 15.2394C188.483 19.9498 190.351 31.795 197.334 37.1982C201.093 40.1075 205.483 42.1395 209.99 43.7096C211.415 44.2176 213.633 44.841 215.852 45.4414C220.032 46.5728 224.422 44.587 226.313 40.7309C227.294 38.699 228.275 36.6209 228.835 35.2355C230.587 30.8483 231.941 26.2303 232.175 21.5199C232.618 12.7456 223.885 3.94825 214.777 7.1347Z" fill="#FFC1D6"/>
<path opacity="0.5" d="M227.575 18.8644C227.132 18.8644 226.781 18.518 226.781 18.0793C226.781 13.9462 223.395 10.5981 219.215 10.5981C217.044 10.5981 214.989 11.5217 213.541 13.1149C213.237 13.4382 212.747 13.4844 212.397 13.1842C212.07 12.884 212.023 12.3991 212.326 12.0528C214.078 10.1132 216.577 9.00488 219.192 9.00488C224.259 9.00488 228.369 13.0688 228.369 18.0793C228.393 18.495 228.019 18.8644 227.575 18.8644Z" fill="white"/>
<path opacity="0.5" d="M229.211 21.8664C228.861 22.282 228.277 22.3282 227.856 21.9818C227.436 21.6355 227.389 21.0582 227.74 20.6426C228.09 20.227 228.674 20.1808 229.094 20.5271C229.491 20.8735 229.561 21.4738 229.211 21.8664Z" fill="white"/>
<path d="M191.309 25.584C191.495 29.9249 193.737 34.4044 197.31 37.1753C201.07 40.0846 205.46 42.1166 209.967 43.6867C211.391 44.1947 213.61 44.8181 215.828 45.4185C220.008 46.5499 224.398 44.5641 226.29 40.7081C227.27 38.6761 228.251 36.598 228.812 35.2126C228.858 35.0972 228.905 34.9586 228.952 34.8432C224.772 37.9372 219.588 39.7845 213.96 39.7845C203.942 39.7614 195.325 33.9657 191.309 25.584Z" fill="#F7B7D1"/>
<path d="M246.816 44.0327C245.112 43.6402 242.8 44.3098 242.053 45.8107C241.772 44.1482 239.274 42.8089 237.522 42.6935C232.922 42.4395 230.563 47.6579 231.965 51.6063C232.712 53.7306 233.949 55.6702 235.327 57.4481C235.748 57.9792 236.425 58.7412 237.102 59.5032C238.55 61.0964 240.955 61.4428 242.8 60.3344C243.687 59.8033 244.528 59.2723 245.088 58.8797C246.933 57.5636 248.684 56.0627 250.016 54.2386C252.514 50.8443 251.3 45.0949 246.816 44.0327Z" fill="#FFC1D6"/>
<path opacity="0.5" d="M248.03 52.6224C247.89 52.4839 247.913 52.253 248.053 52.1144C249.478 50.8907 249.618 48.7433 248.38 47.3579C247.726 46.6421 246.816 46.2034 245.835 46.2034C245.625 46.2034 245.461 46.0417 245.485 45.8339C245.485 45.6261 245.648 45.4645 245.858 45.4876C247.049 45.4876 248.17 45.9955 248.941 46.8961C250.435 48.6047 250.272 51.1908 248.544 52.6686C248.404 52.7841 248.17 52.7841 248.03 52.6224Z" fill="white"/>
<path opacity="0.5" d="M247.493 54.077C247.259 54.077 247.049 53.8923 247.049 53.6614C247.049 53.4305 247.236 53.2227 247.469 53.2227C247.703 53.2227 247.913 53.4074 247.913 53.6383C247.913 53.8692 247.726 54.077 247.493 54.077Z" fill="white"/>
<path d="M231.823 47.2891C231.45 48.6976 231.496 50.2215 231.963 51.6069C232.711 53.7312 233.948 55.6708 235.326 57.4487C235.746 57.9798 236.424 58.7418 237.101 59.5038C238.549 61.097 240.954 61.4433 242.799 60.335C243.336 60.0118 243.896 59.6654 244.363 59.3652C237.988 58.4416 232.921 53.5465 231.823 47.2891Z" fill="#F7B7D1"/>
<path d="M183.767 2.05495C182.109 1.52387 179.75 2.03186 178.886 3.48654C178.723 1.82405 176.341 0.277003 174.613 0.0461012C170.036 -0.554244 167.304 4.47942 168.378 8.52021C168.962 10.6907 170.036 12.7226 171.297 14.5929C171.67 15.1471 172.277 15.9783 172.908 16.7634C174.239 18.4721 176.598 19.0032 178.536 18.0103C179.447 17.5485 180.357 17.0636 180.941 16.7172C182.879 15.5396 184.747 14.1773 186.219 12.4455C188.927 9.28218 188.157 3.44036 183.767 2.05495Z" fill="#FFC1D6"/>
<path opacity="0.5" d="M184.327 10.714C184.21 10.5524 184.234 10.3215 184.397 10.2061C185.915 9.09774 186.219 6.97344 185.074 5.47258C184.491 4.7106 183.603 4.20261 182.622 4.13334C182.412 4.11025 182.272 3.94862 182.296 3.74081C182.319 3.533 182.482 3.39446 182.692 3.41755C183.883 3.50991 184.958 4.11025 185.658 5.03386C187.036 6.8349 186.662 9.421 184.841 10.7602C184.677 10.9219 184.444 10.8757 184.327 10.714Z" fill="white"/>
<path opacity="0.5" d="M183.672 12.1229C183.439 12.1229 183.252 11.9151 183.252 11.6842C183.252 11.4533 183.462 11.2686 183.696 11.2686C183.929 11.2686 184.116 11.4764 184.116 11.7073C184.116 11.9613 183.906 12.146 183.672 12.1229Z" fill="white"/>
<path d="M168.564 4.20215C168.097 5.56447 168.003 7.11151 168.377 8.52002C168.961 10.6905 170.035 12.7224 171.296 14.5927C171.67 15.1469 172.277 15.9782 172.907 16.7632C174.238 18.4719 176.597 19.003 178.535 18.0101C179.119 17.7099 179.679 17.4328 180.17 17.1558C173.888 15.7934 169.194 10.5289 168.564 4.20215Z" fill="#F7B7D1"/>
<path d="M156.772 17.5721C155.791 17.8722 154.834 18.8882 154.904 19.858C154.273 19.096 152.592 19.1422 151.681 19.604C149.276 20.8278 149.65 24.1528 151.518 25.7229C152.522 26.5772 153.736 27.2007 154.974 27.6856C155.418 27.8703 156.118 28.1012 156.795 28.309C157.823 28.6323 158.944 28.1935 159.457 27.2468C159.784 26.6234 160.135 25.9769 160.345 25.5382C160.882 24.3375 161.326 23.0675 161.442 21.7514C161.676 19.35 159.364 16.787 156.772 17.5721Z" fill="#FFC1D6"/>
<path opacity="0.5" d="M160.158 21.2435C160.041 21.2204 159.948 21.128 159.948 21.0126C160.064 19.8812 159.224 18.8421 158.056 18.7267C157.449 18.6574 156.865 18.8652 156.422 19.2577C156.328 19.3501 156.188 19.327 156.095 19.2346C156.001 19.1423 156.025 19.0037 156.118 18.9114C156.655 18.4265 157.379 18.1725 158.103 18.2648C159.504 18.4034 160.531 19.6503 160.391 21.0357C160.391 21.1742 160.275 21.2666 160.158 21.2435Z" fill="white"/>
<path opacity="0.5" d="M160.532 22.1213C160.415 22.2137 160.251 22.2137 160.158 22.1213C160.065 22.0059 160.065 21.8442 160.158 21.7519C160.251 21.6595 160.438 21.6595 160.532 21.7519C160.625 21.8673 160.625 22.029 160.532 22.1213Z" fill="white"/>
<path d="M150.141 23.5059C150.374 24.3602 150.841 25.1453 151.518 25.7225C152.523 26.5769 153.737 27.2003 154.974 27.6852C155.418 27.8699 156.119 28.1008 156.796 28.3086C157.823 28.6319 158.944 28.1932 159.458 27.2465C159.785 26.6461 160.135 25.9996 160.322 25.5609C159.295 26.1843 158.104 26.5538 156.819 26.6461C154.11 26.8309 151.635 25.5609 150.141 23.5059Z" fill="#F7B7D1"/>
<path d="M259.753 46.9193C259.753 46.9193 259.636 44.4025 259.753 44.1485C259.87 43.9176 261.224 42.4629 261.224 42.4629L262.695 43.4327L261.598 45.7186H260.314L259.753 46.9193Z" fill="#F4CDAF"/>
<path d="M270.216 65.8066L266.807 84.1172L266.993 104.067L270.309 104.321L273.579 85.5718L280.561 65.8066H270.216Z" fill="#2B478B"/>
<path d="M274.326 62.4355L277.525 83.0089L282.313 104.367L285.418 104.298L285.068 82.778L286.843 63.0128L274.326 62.4355Z" fill="#2B478B"/>
<path d="M290.392 68.7623C290.485 70.6788 290.509 73.2649 289.832 73.3573C289.715 73.3804 289.598 73.3111 289.481 73.2418C288.314 72.5722 287.473 71.6255 286.329 70.979C285.115 70.3094 283.76 69.963 282.429 69.7552C280.421 69.4089 278.389 69.201 276.358 69.2241C274.77 69.2472 273.158 69.4319 271.594 69.6167C270.286 69.7783 269.072 70.2401 267.717 70.1708C266.34 70.1016 264.962 69.6628 263.771 68.9009C263.724 68.8778 263.678 68.8316 263.654 68.7854C263.631 68.7392 263.654 68.67 263.678 68.6007C263.934 67.7464 264.121 66.892 264.612 66.1762C265.149 65.3681 265.546 64.3521 265.919 63.4516C266.737 61.5582 267.484 59.5724 268.021 57.5636C268.862 54.8158 269.819 52.1605 270.613 49.4127C271.173 47.5193 271.664 45.5798 272.458 43.7556C273.065 42.3471 274.163 40.269 275.54 39.5994C276.007 39.3685 276.521 39.3454 277.035 39.3223C278.576 39.23 280.094 39.1376 281.635 39.0452C282.196 39.0221 282.779 38.976 283.293 39.23C284.064 39.5994 284.531 40.4768 284.928 41.285C286.726 44.9563 287.917 48.9509 288.641 53.061C289.014 55.2084 289.365 57.3789 289.645 59.5262C289.972 61.9507 290.205 64.3752 290.299 66.7997C290.275 67.0998 290.345 67.8618 290.392 68.7623Z" fill="#A7DEFC"/>
<path d="M279.556 47.5194C279.533 48.3737 279.673 49.2281 279.813 50.0824C280.7 55.2546 282.825 64.8602 283.713 70.0324C279.603 70.1016 273.438 70.0093 269.328 70.0785C269.422 68.139 270.332 61.9508 270.426 59.9881C270.496 58.7412 270.542 57.4944 270.776 56.2475C271.15 54.2617 271.967 52.3683 272.761 50.5211C274.255 47.0807 275.727 43.6402 277.221 40.1767C277.291 39.992 277.385 39.8073 277.548 39.6687C277.735 39.5071 277.992 39.4378 278.225 39.3916C279.393 39.1607 280.724 38.9529 281.915 39.0915C282.242 40.1536 281.144 40.0151 280.771 41.008C280.233 42.4626 279.626 45.9262 279.556 47.5194Z" fill="white"/>
<path d="M267.414 104.067L265.148 104.968L265.242 106.238L269.936 106.353L270.122 104.321L267.414 104.067Z" fill="#233862"/>
<path d="M282.64 103.929L280.258 105.522L280.772 107L285.559 106.122L285.349 104.252L282.64 103.929Z" fill="#233862"/>
<path d="M276.545 32.7653C276.592 34.0584 276.848 34.5202 277.456 35.767C277.806 34.7049 278.133 33.6196 278.483 32.5575C278.063 32.5575 277.642 32.5344 277.222 32.5344C276.965 32.5113 276.662 32.5344 276.545 32.7653Z" fill="#3B2C24"/>
<path d="M277.339 35.8359C277.573 34.7276 277.48 32.9958 278.484 32.28C279.605 31.4949 281.169 31.7489 282.407 32.3262C283.388 32.788 284.368 33.573 284.508 34.6352C284.625 35.6743 283.948 36.621 283.294 37.4291C282.991 37.8216 282.687 38.4451 282.243 38.6529C281.613 38.9531 280.749 38.7683 280.749 38.7683C280.515 38.7222 280.305 38.8838 280.282 39.1147L280.235 39.7381C280.235 39.7381 280.258 40.223 279.558 40.1538C279.067 39.969 278.554 39.7612 278.063 39.5765C278.063 39.0454 278.437 38.4913 278.157 38.0525C277.993 37.7986 277.69 37.6831 277.503 37.4522C277.129 37.0135 277.223 36.3901 277.339 35.8359Z" fill="#F4CDAF"/>
<path d="M276.265 29.4859C276.499 28.7701 276.732 28.0543 276.966 27.3385C277.059 27.0614 277.153 26.8075 277.339 26.5996C277.666 26.2533 279.254 26.2764 279.721 26.3456C280.188 26.4149 280.632 26.5996 281.099 26.692C281.589 26.7844 282.127 26.7844 282.57 27.0153C283.434 27.4309 283.738 28.5392 284.532 29.0472C285.653 29.763 286.984 29.6937 287.077 31.4024C287.101 31.7257 287.007 32.0258 287.007 32.3491C287.007 32.7647 287.171 33.1342 287.241 33.5498C287.591 35.3046 286.377 37.198 284.719 37.8215C283.925 38.1216 283.458 38.5373 282.617 38.3756C283.271 37.8215 284.065 34.8198 283.247 34.0809C283.037 33.8961 282.127 33.85 281.823 33.7807C281.169 33.596 280.515 33.4343 279.815 33.4112C278.787 33.3882 277.736 33.2265 276.756 32.8802C276.639 32.834 276.569 32.7185 276.429 32.6724C275.728 32.3491 275.541 32.4415 275.378 32.2336C274.841 31.4255 275.985 30.3864 276.265 29.4859Z" fill="#3B2C24"/>
<path d="M283.27 39.2764L286.866 40.9389L292.494 53.6385L296.207 69.5476L293.848 70.1018L287.66 54.7468L281.238 42.4859L283.27 39.2764Z" fill="#A7DEFC"/>
<path d="M295.855 69.6396L296.999 71.3252L296.205 73.3341L295.318 73.1032L294.15 70.0322L295.855 69.6396Z" fill="#F4CDAF"/>
</g>
<g clip-path="url(#clip1)">
<path d="M13.7639 36.6691C13.7193 36.6691 13.697 36.6691 13.6523 36.6914L13.7639 36.6691C13.7416 36.5578 13.7193 36.4466 13.7193 36.3575C13.6523 35.5563 13.8977 34.7106 14.3662 34.043C15.3478 34.0652 16.307 34.5771 16.8424 35.3783C17.0655 35.7121 17.2217 36.1127 17.3109 36.5133C17.3109 36.5133 17.3109 36.5133 17.3109 36.5356C17.3109 36.5801 17.3332 36.6024 17.3332 36.6469C17.4447 37.2255 18.0024 39.7404 19.9433 41.6321C22.1518 43.7686 21.9064 44.9482 21.9064 44.9482C21.9064 44.9482 19.8094 46.8176 18.0917 47.1515C16.4186 47.463 14.4108 40.8977 13.7639 36.6691Z" fill="#C45A45"/>
<path d="M11.8904 44.6592L10.2173 46.9292L7.56261 57.879L1.16016 70.7204L3.65868 72.078L12.0243 60.7944L15.2143 47.3744L11.8904 44.6592Z" fill="#FFA72A"/>
<path d="M22.0177 43.1232L28.264 40.1854L25.0293 27.6778L27.5948 27.0547L33.3726 39.3397L32.8595 42.4778L24.1816 48.509L19.8984 43.2122L22.0177 43.1232Z" fill="#FFA72A"/>
<path d="M29.0462 70.8756L28.7339 84.6963L26.0346 105.683L23.0006 105.639L22.5545 88.5688L17.959 68.8281L29.0462 70.8756Z" fill="#35488B"/>
<path d="M23.9141 68.2724L19.7424 87.1228L14.0315 106.596L11.2207 106.084L12.8492 86.4551L12.403 68.0498L23.9141 68.2724Z" fill="#35488B"/>
<path d="M25.676 105.639L27.6614 106.685L27.4606 107.842L23.1328 107.53L23.1551 105.639H25.676Z" fill="#233862"/>
<path d="M13.9866 106.062L16.039 107.687L15.4367 109L11.1758 107.843L11.5104 106.152L13.9866 106.062Z" fill="#233862"/>
<path d="M11.4896 78.1542C11.5788 79.3783 11.1996 82.7834 12.7612 83.2285C14.6574 83.7849 15.5943 82.138 16.7097 81.0029C17.5797 80.1127 18.7175 79.5341 19.8329 78.9777C22.8891 77.4421 25.3653 76.9079 28.7562 76.9747C30.2731 77.0192 36.0063 77.3976 35.8279 74.9272C35.694 73.0355 33.9317 70.988 33.1286 69.3188C32.147 67.249 31.2101 65.0903 30.4516 62.8647C29.3362 59.8602 28.1092 56.9447 27.0161 53.918C26.2576 51.826 25.5438 49.6894 24.6068 47.7087C23.8707 46.1731 22.5991 43.9475 21.2606 43.3466C20.8144 43.1463 20.3237 43.1686 19.8775 43.1908C18.4721 43.2576 17.0667 43.3466 15.6389 43.4134C15.1258 43.4356 14.5904 43.4802 14.1443 43.814C13.475 44.3036 13.185 45.3496 12.9173 46.3289C11.7573 50.6909 11.1773 55.3423 11.0657 60.105C10.9988 62.5976 10.9542 65.068 10.9765 67.5606C10.9988 70.3426 11.088 73.1245 11.3111 75.9064C11.3557 76.2625 11.4004 77.1305 11.4896 78.1542Z" fill="#FFA72A"/>
<path d="M15.1914 43.5016C15.1914 43.5016 15.7268 47.2851 18.2253 47.9082C20.7461 48.5314 22.0177 46.0388 19.8761 43.2568L15.1914 43.5016Z" fill="#FFFFE2"/>
<path d="M27.06 27.1663L28.2869 25.8754L27.6177 22.5371L25.7438 22.8487V25.141L25.1191 25.8754L25.4315 27.5446C25.4315 27.5669 27.0153 27.2108 27.06 27.1663Z" fill="#F4CDAF"/>
<path d="M1.49465 70.8984L0 73.2353L1.58388 75.3496L2.69929 74.7264L3.21238 71.8332L1.49465 70.8984Z" fill="#F4CDAF"/>
<path d="M16.7084 36.5799C14.4999 33.6867 10.7744 36.2238 10.9305 39.3841C11.0198 41.1868 12.7375 42.9227 14.5445 43.301C14.7229 43.5681 15.1468 44.3248 15.4591 44.4138C15.7937 44.5028 16.4407 43.9465 16.6861 43.7239C16.753 43.6571 16.8199 43.5904 16.8645 43.5236C16.9091 43.4123 16.8199 43.212 16.7084 42.9895C16.9091 42.8782 17.1099 42.7224 17.2884 42.5444C18.0692 41.7877 18.3146 40.5859 18.1361 39.5176C17.9353 38.4271 17.3776 37.4478 16.7084 36.5799Z" fill="#F4CDAF"/>
<path d="M8.29777 42.7894C7.78468 39.5623 8.63239 37.4035 8.63239 37.4035C9.16779 35.9124 10.3947 34.6438 11.8225 33.9984C12.5809 33.6423 13.3171 33.6423 14.1202 33.9762C14.6333 34.1987 15.1018 34.6216 15.2356 35.1557C15.3695 35.6453 15.2356 36.1795 15.0349 36.6468C14.4548 37.9822 13.674 38.7834 13.5625 39.9852C13.451 41.2092 14.3433 42.7003 14.9233 43.7464C15.1241 44.1247 18.0465 49.5328 18.4926 49.1767C17.8234 49.6886 17.0872 50.1559 16.351 50.5565C15.1018 51.202 13.5179 51.558 12.1348 51.0239C10.774 50.512 9.85934 49.3102 8.67701 48.5313C7.47237 47.6856 8.83317 46.0164 8.29777 42.7894Z" fill="#C45A45"/>
<path d="M57.1309 14.5034C55.3909 13.4796 52.58 13.4574 51.2416 14.904C51.4869 12.9455 49.1892 10.5864 47.2707 9.8965C42.2513 8.04929 37.8566 13.1236 38.0574 17.9975C38.1689 20.6237 38.8605 23.2053 39.8197 25.6757C40.1544 26.5436 40.7567 27.9012 41.359 29.1698C42.2737 31.106 44.4152 32.1075 46.4899 31.5956C47.8507 31.2395 49.2784 30.8612 50.1708 30.5719C52.6693 29.7262 55.1232 28.6134 57.2202 27.0332C61.1241 24.051 61.7487 17.1963 57.1309 14.5034Z" fill="#FFC1D6"/>
<path opacity="0.5" d="M56.2825 24.4298C56.1263 24.2295 56.1709 23.9625 56.3717 23.8067C58.201 22.4268 58.5802 19.8007 57.1748 17.9757C56.4609 17.0187 55.3678 16.4178 54.1632 16.3288C53.9178 16.3066 53.7393 16.1063 53.7616 15.8615C53.784 15.6167 53.9847 15.4386 54.2301 15.4609C55.6802 15.5721 56.9963 16.3066 57.8664 17.4416C59.5395 19.6672 59.1156 22.8274 56.8848 24.5189C56.7063 24.6524 56.4163 24.6079 56.2825 24.4298Z" fill="white"/>
<path opacity="0.5" d="M55.4799 26.1435C55.1899 26.1212 54.9668 25.8764 54.9668 25.5871C54.9891 25.2978 55.2345 25.0752 55.5245 25.0752C55.8145 25.0975 56.0376 25.3423 56.0376 25.6316C56.0153 25.9432 55.7699 26.1657 55.4799 26.1435Z" fill="white"/>
<path d="M39.4618 12.9678C38.5249 14.4366 37.9895 16.2393 38.0564 17.9975C38.1679 20.6237 38.8595 23.2053 39.8187 25.6757C40.1534 26.5436 40.7557 27.9012 41.358 29.1698C42.2726 31.106 44.4142 32.1075 46.4889 31.5956C47.8274 31.2618 49.2328 30.8612 50.1251 30.5719C47.8274 29.9265 45.6635 28.7247 43.8119 26.9665C39.9303 23.2276 38.4579 17.9085 39.4618 12.9678Z" fill="#F7B7D1"/>
<path d="M76.272 21.8251C75.3351 21.5803 74.0189 21.9141 73.5727 22.7598C73.4389 21.8251 72.0781 21.0239 71.0965 20.9349C68.5311 20.7123 67.1256 23.6278 67.8395 25.8756C68.2187 27.0774 68.8657 28.1902 69.6242 29.2362C69.8919 29.5923 70.338 30.1486 70.7842 30.6605C71.4534 31.4395 72.5912 31.6398 73.4835 31.1279C74.0635 30.7941 74.6881 30.438 75.0674 30.1932C76.1159 29.481 77.1197 28.6575 77.9005 27.656C79.3282 25.7643 78.7705 22.4928 76.272 21.8251Z" fill="#FFC1D6"/>
<path opacity="0.5" d="M77.1206 26.5438C77.0314 26.477 77.0091 26.3435 77.076 26.2545C77.7453 25.3865 77.5891 24.1179 76.7191 23.4503C76.2729 23.0942 75.6706 22.9606 75.1129 23.0719C75.0014 23.0942 74.8898 23.0274 74.8675 22.8939C74.8452 22.7826 74.9121 22.6713 75.046 22.6491C75.7375 22.5155 76.4514 22.6936 76.9868 23.1164C78.0576 23.9399 78.2361 25.4755 77.433 26.5215C77.366 26.5883 77.2099 26.6106 77.1206 26.5438Z" fill="white"/>
<path opacity="0.5" d="M76.9649 27.456C76.8311 27.4782 76.6972 27.4114 76.6526 27.2557C76.6303 27.1221 76.6972 26.9886 76.8534 26.9441C77.0095 26.8996 77.1211 26.9886 77.1657 27.1444C77.2103 27.3002 77.1211 27.4114 76.9649 27.456Z" fill="white"/>
<path d="M67.8616 23.3389C67.6162 24.1401 67.5939 25.0525 67.8393 25.8537C68.2185 27.0555 68.8655 28.1683 69.6239 29.2143C69.8916 29.5704 70.3378 30.1268 70.784 30.6387C71.4532 31.4176 72.5909 31.6179 73.4833 31.106C74.0633 30.7722 74.6656 30.4161 75.0448 30.1713C73.8848 30.1491 72.7248 29.8597 71.654 29.2811C69.3562 28.057 68.0178 25.7647 67.8616 23.3389Z" fill="#F7B7D1"/>
<path d="M95.5908 7.33701C94.4531 6.82513 92.713 6.98092 91.9769 7.96016C91.9992 6.73611 90.4376 5.42303 89.2106 5.13371C85.9983 4.31026 83.6113 7.71535 84.0352 10.7198C84.2582 12.3445 84.8605 13.8801 85.619 15.349C85.8867 15.8609 86.3552 16.6621 86.8014 17.3965C87.4929 18.5315 88.876 19.0212 90.1253 18.5538C90.9507 18.2645 91.7984 17.9306 92.3338 17.6858C93.8284 16.9959 95.2785 16.1724 96.4608 15.0597C98.6693 12.9677 98.6247 8.69459 95.5908 7.33701Z" fill="#FFC1D6"/>
<path opacity="0.5" d="M95.7024 13.5018C95.5909 13.3906 95.6132 13.2125 95.7247 13.1235C96.7732 12.1443 96.8178 10.5196 95.8586 9.4736C95.3455 8.93947 94.6316 8.62789 93.8955 8.65014C93.7393 8.65014 93.6278 8.53887 93.6055 8.38308C93.6055 8.22729 93.717 8.11601 93.8732 8.09376C94.7655 8.0715 95.6355 8.42759 96.2378 9.09526C97.4202 10.3638 97.3532 12.3446 96.0817 13.5241C95.9701 13.6131 95.814 13.6131 95.7024 13.5018Z" fill="white"/>
<path opacity="0.5" d="M95.3237 14.6141C95.1453 14.6141 94.9891 14.4806 94.9668 14.3026C94.9668 14.1245 95.1006 13.9687 95.2791 13.9465C95.4576 13.9242 95.6137 14.08 95.636 14.258C95.636 14.4583 95.5022 14.6141 95.3237 14.6141Z" fill="white"/>
<path d="M84.5932 7.51465C84.1024 8.49389 83.9017 9.62892 84.0578 10.7194C84.2809 12.3441 84.8832 13.8797 85.6417 15.3486C85.9094 15.8605 86.3779 16.6617 86.824 17.3961C87.5156 18.5311 88.8987 19.0207 90.148 18.5534C90.9511 18.2641 91.7988 17.9302 92.3342 17.6854C90.8841 17.4184 89.4564 16.8175 88.2071 15.8605C85.5302 13.813 84.2809 10.6304 84.5932 7.51465Z" fill="#F7B7D1"/>
</g>
<path d="M102.987 53.004V63H104.625V53.004H102.987ZM106.863 53.004V63H108.501V58.576H113.387V57.176H108.501V54.404H113.681V53.004H106.863ZM115.291 53.004V59.206C115.291 60.508 115.655 61.502 116.397 62.202C117.097 62.86 118.119 63.196 119.449 63.196C120.765 63.196 121.787 62.86 122.515 62.188C123.243 61.502 123.607 60.508 123.607 59.206V53.004H121.969V59.234C121.969 60.102 121.759 60.732 121.367 61.152C120.961 61.558 120.317 61.768 119.449 61.768C118.567 61.768 117.923 61.558 117.531 61.152C117.125 60.732 116.929 60.102 116.929 59.234V53.004H115.291ZM128.079 56.63H130.165V58.59H128.079V56.63ZM130.165 55.272H128.079V53.34H130.165V55.272ZM128.009 59.962H130.165V62.356C130.165 62.748 129.969 62.958 129.591 62.958C129.213 62.958 128.807 62.93 128.373 62.902L128.751 64.302H130.039C131.089 64.302 131.621 63.826 131.621 62.874V51.94H126.637V58.646C126.609 60.62 126.189 62.244 125.377 63.518L126.497 64.54C127.323 63.322 127.827 61.796 128.009 59.962ZM134.071 56.63H136.325V58.59H134.071V56.63ZM136.325 55.272H134.071V53.34H136.325V55.272ZM134.001 59.962H136.325V62.356C136.325 62.748 136.101 62.958 135.681 62.958C135.289 62.958 134.869 62.93 134.407 62.902L134.799 64.302H136.143C137.235 64.302 137.795 63.826 137.795 62.874V51.94H132.629V58.702C132.601 60.662 132.265 62.258 131.593 63.518L132.727 64.54C133.427 63.322 133.861 61.796 134.001 59.962ZM144.081 51.534V52.136H140.539V53.298H144.081V53.914H141.001V55.02H144.081V55.664H140.133V56.868H144.081V57.274H145.467V51.534H144.081ZM146.811 51.506V57.414H148.197V56.868H152.201V55.664H148.197V55.02H151.319V53.914H148.197V53.284H151.781V52.122H148.197V51.506H146.811ZM145.705 59.346V60.004H142.905C143.157 59.724 143.395 59.402 143.633 59.052H151.781V57.82H144.361L144.543 57.456L143.171 57.12C143.059 57.344 142.933 57.582 142.821 57.82H140.441V59.052H142.023C141.715 59.416 141.407 59.738 141.085 60.018L141.393 61.18H145.705V61.908H140.147V63.196H145.705V64.386H147.091V63.196H152.299V61.908H147.091V61.18H151.277V60.004H147.091V59.346H145.705ZM155.645 54.138V60.312C155.113 60.452 154.553 60.606 153.965 60.746L154.399 62.188C155.995 61.754 157.395 61.278 158.627 60.774V59.318C158.151 59.5 157.661 59.682 157.129 59.864V54.138H158.599V52.71H154.147V54.138H155.645ZM158.991 51.94V53.368H162.211C162.155 53.732 162.085 54.082 162.001 54.432H159.481V61.278H160.895V55.776H164.941V61.278H166.369V54.432H163.443C163.527 54.096 163.597 53.732 163.653 53.368H166.887V51.94H158.991ZM164.283 61.152L163.303 62.09C164.465 62.958 165.361 63.784 165.991 64.54L167.041 63.49C166.285 62.72 165.375 61.936 164.283 61.152ZM162.155 56.406V58.87C162.085 60.004 161.777 60.928 161.231 61.628C160.657 62.272 159.551 62.818 157.927 63.266L158.725 64.512C160.405 64.05 161.609 63.392 162.351 62.552C163.107 61.628 163.527 60.396 163.611 58.87V56.406H162.155ZM179.669 52.038H169.771V64.484H171.255V63.644H178.199V64.456H179.669V52.038ZM171.255 62.23V60.046H178.199V62.23H171.255ZM171.255 58.716V56.686H178.199V58.716H171.255ZM171.255 55.342V53.438H178.199V55.342H171.255ZM184.709 60.886C184.359 60.886 184.079 60.984 183.869 61.194C183.645 61.39 183.533 61.656 183.533 61.992C183.533 62.3 183.631 62.566 183.841 62.776C184.051 62.986 184.303 63.098 184.611 63.098C184.765 63.098 184.877 63.07 184.961 63.042C184.961 63.378 184.849 63.7 184.597 64.036C184.331 64.344 184.009 64.568 183.631 64.708V65.632C184.359 65.422 184.947 65.044 185.381 64.498C185.801 63.938 186.025 63.294 186.025 62.552C186.025 62.062 185.899 61.656 185.661 61.348C185.409 61.04 185.087 60.886 184.709 60.886ZM55.508 83.346L54.122 83.794C54.556 84.648 54.92 85.53 55.214 86.44L56.586 86.09C56.278 85.054 55.914 84.144 55.508 83.346ZM60.604 83.066C60.282 84.27 59.904 85.264 59.456 86.048L60.8 86.524C61.29 85.628 61.696 84.606 62.004 83.43L60.604 83.066ZM53.884 86.93V88.316H57.272V90.15H53.478V91.578H57.272V95.47H58.756V91.578H62.634V90.15H58.756V88.316H62.256V86.93H58.756V82.52H57.272V86.93H53.884ZM52.568 82.38C51.924 84.536 50.93 86.398 49.586 87.98L50.076 89.548C50.468 89.128 50.832 88.694 51.182 88.246V95.484H52.624V86.076C53.156 85.124 53.604 84.102 53.94 83.038L52.568 82.38ZM65.546 88.232V95.456H67.002V86.16C67.59 85.18 68.066 84.144 68.43 83.052L67.072 82.408C66.372 84.55 65.308 86.412 63.866 87.994L64.356 89.562C64.776 89.128 65.168 88.68 65.546 88.232ZM75.136 88.078L73.848 88.512C74.478 90.066 75.052 91.858 75.556 93.874L76.844 93.3C76.368 91.452 75.794 89.702 75.136 88.078ZM70.138 85.46H74.982C74.786 86.076 74.562 86.622 74.282 87.098L75.682 87.504C76.004 86.678 76.27 85.852 76.48 85.012V84.06H70.642C70.768 83.654 70.894 83.234 71.006 82.814L69.634 82.52C69.214 84.27 68.486 85.922 67.45 87.476L68.71 88.26C69.242 87.42 69.718 86.482 70.138 85.46ZM71.692 95.358C72.644 95.358 73.12 94.868 73.12 93.902V86.426H71.706V93.552C71.706 93.902 71.538 94.084 71.202 94.084C70.698 94.084 70.152 94.042 69.592 93.986L69.914 95.358H71.692ZM69.41 88.232C68.85 90.22 68.206 91.858 67.478 93.146L68.85 93.636C69.606 92.194 70.236 90.514 70.726 88.596L69.41 88.232ZM81.324 90.178V91.424H82.29C82.85 92.124 83.536 92.754 84.348 93.314C83.158 93.748 81.814 94.07 80.316 94.266L80.946 95.568C82.78 95.26 84.404 94.784 85.804 94.14C87.12 94.784 88.716 95.26 90.564 95.568L91.194 94.28C89.696 94.084 88.366 93.79 87.218 93.37C88.17 92.768 88.982 92.068 89.668 91.256V90.178H81.324ZM83.886 91.424H87.68C87.092 91.9 86.434 92.334 85.706 92.712C85.006 92.348 84.404 91.914 83.886 91.424ZM80.806 87.336H82.794V89.492H88.744V87.336H90.816V85.992H88.744V85.11H87.33V85.992H84.222V85.124H82.794V85.992H80.806V84.816H90.816V83.444H86.14C86 83.052 85.846 82.702 85.706 82.394L84.152 82.646C84.32 82.898 84.474 83.164 84.614 83.444H79.35V87.994C79.322 90.738 78.93 92.894 78.202 94.434L79.308 95.428C80.26 93.552 80.75 91.074 80.806 87.994V87.336ZM84.222 87.336H87.33V88.288H84.222V87.336ZM93.896 82.618L92.902 83.57C93.91 84.382 94.68 85.152 95.226 85.852L96.29 84.788C95.632 84.06 94.834 83.346 93.896 82.618ZM102.254 95.232H105.222L105.572 93.762C105.222 93.79 104.704 93.818 104.032 93.846C103.36 93.86 102.702 93.874 102.058 93.874C100.924 93.874 99.93 93.86 99.09 93.846C98.222 93.818 97.578 93.692 97.144 93.496C96.808 93.314 96.458 93.034 96.122 92.67C96.066 92.614 96.01 92.572 95.954 92.516V87.196H92.692V88.568H94.568V92.404C94.008 92.712 93.364 93.44 92.664 94.588L93.742 95.582C94.456 94.294 94.946 93.65 95.226 93.65C95.394 93.65 95.59 93.762 95.786 94C96.206 94.476 96.71 94.798 97.312 94.966C97.914 95.106 98.698 95.19 99.65 95.204C100.588 95.218 101.456 95.232 102.254 95.232ZM101.848 93.328C102.856 93.328 103.36 92.824 103.36 91.83V86.062H105.306V84.634H103.36V82.534H101.904V84.634H96.668V86.062H101.904V91.466C101.904 91.83 101.708 92.026 101.344 92.026C100.784 92.026 100.182 91.984 99.566 91.928L99.888 93.328H101.848ZM98.516 87L97.382 87.7C98.194 88.736 98.824 89.66 99.3 90.472L100.476 89.66C100.014 88.904 99.356 88.008 98.516 87ZM118.438 88.988H108.218V95.484H109.66V94.98H116.996V95.47H118.438V88.988ZM109.66 93.622V92.628H112.642V93.622H109.66ZM114.098 93.622V92.628H116.996V93.622H114.098ZM109.66 91.34V90.346H112.642V91.34H109.66ZM114.098 90.346H116.996V91.34H114.098V90.346ZM111.928 84.606L110.556 84.998C110.752 85.46 110.934 85.936 111.102 86.426C110.542 86.65 109.828 86.888 108.96 87.14V84.69C110.528 84.48 111.83 84.116 112.866 83.584L112.138 82.366C110.92 82.954 109.394 83.346 107.546 83.514V86.58C107.546 87 107.378 87.322 107.07 87.574L107.588 88.904C109.142 88.54 110.458 88.148 111.536 87.728C111.648 88.078 111.746 88.442 111.858 88.806L113.244 88.288C112.936 87.168 112.502 85.95 111.928 84.606ZM114.56 84.396C114.462 85.068 114.336 85.614 114.182 86.048C113.958 86.636 113.636 87.168 113.202 87.644L114.07 88.75C114.672 88.134 115.12 87.448 115.428 86.692C115.652 86.104 115.82 85.334 115.96 84.396H117.654C117.626 85.656 117.584 86.426 117.5 86.706C117.402 87.14 117.178 87.364 116.842 87.378C116.478 87.378 116.044 87.35 115.54 87.322L115.974 88.596C116.352 88.638 116.688 88.666 116.996 88.666C117.864 88.666 118.424 88.288 118.69 87.546C118.914 86.958 119.054 85.432 119.11 82.968H113.258V84.396H114.56ZM133.698 85.208H131.164C131.626 84.606 132.074 83.864 132.522 82.996L131.01 82.436C130.604 83.416 130.128 84.34 129.568 85.208H127.426L128.588 84.62C128.168 83.794 127.72 83.038 127.272 82.352L125.942 82.996C126.404 83.64 126.838 84.382 127.244 85.208H124.472L125.312 84.788C124.864 84.004 124.416 83.29 123.94 82.646L122.61 83.29C123.072 83.85 123.506 84.494 123.926 85.208H121.462V88.694H122.904V86.608H132.242V88.694H133.698V85.208ZM123.786 87.364V88.652H129.246C128.686 88.932 127.944 89.254 127.02 89.646V90.682H121.546V92.054H127.02V93.608C127.02 93.944 126.88 94.126 126.614 94.126C126.012 94.126 125.452 94.112 124.948 94.084L125.312 95.414H127.104C128.028 95.414 128.49 94.966 128.49 94.098V92.054H133.656V90.682H128.49V90.29C129.554 89.758 130.52 89.212 131.388 88.652V87.364H123.786ZM135.98 82.912V87.728H137.926V93.356L137.24 93.538V89.016H135.952V93.846C135.756 93.888 135.546 93.93 135.336 93.986L135.742 95.4C137.66 94.938 139.354 94.434 140.824 93.902V92.432C140.334 92.614 139.816 92.796 139.284 92.964V90.934H140.53V89.562H139.284V87.728H140.6V86.034L141.342 87C141.706 86.72 142.042 86.412 142.378 86.076C142.658 86.58 142.994 87.042 143.372 87.476C142.504 88.106 141.454 88.652 140.236 89.128L141.118 90.318C141.258 90.262 141.398 90.192 141.566 90.122V95.414H142.952V94.91H145.822V95.414H147.222V90.094C147.362 90.15 147.502 90.192 147.656 90.248L148.482 89.044C147.32 88.68 146.298 88.162 145.43 87.504C146.228 86.664 146.844 85.698 147.264 84.62V83.57H144.044C144.156 83.318 144.254 83.038 144.338 82.758L142.938 82.478C142.518 83.752 141.748 84.844 140.6 85.74V82.912H135.98ZM143.232 85.04L143.358 84.858H145.71C145.374 85.474 144.926 86.048 144.394 86.594C143.946 86.118 143.568 85.6 143.232 85.04ZM147.082 90.038H141.762C142.742 89.576 143.624 89.044 144.38 88.456C145.136 89.1 146.046 89.618 147.082 90.038ZM139.214 86.384H137.38V84.256H139.214V86.384ZM142.952 93.594V91.354H145.822V93.594H142.952ZM154.726 82.506V93.552H149.868V94.98H162.454V93.552H156.238V88.078H161.418V86.664H156.238V82.506H154.726ZM169.258 84.774H167.13C167.382 84.13 167.592 83.416 167.746 82.66L166.276 82.464C166.164 83.262 165.982 84.032 165.73 84.774H164.386V94.994H165.786V93.888H167.858V94.588H169.258V84.774ZM165.786 92.544V89.898H167.858V92.544H165.786ZM165.786 88.596V86.146H167.858V88.596H165.786ZM171.806 88.176L170.616 88.918C171.484 90.038 172.184 91.06 172.702 91.984L173.878 91.172C173.388 90.304 172.702 89.31 171.806 88.176ZM176.468 84.774H172.212C172.422 84.102 172.604 83.388 172.744 82.632L171.302 82.45C170.966 84.368 170.35 85.992 169.426 87.308L170.308 88.47C170.826 87.798 171.274 87.042 171.652 86.202H175.04C175.012 90.164 174.97 92.474 174.886 93.146C174.802 93.692 174.508 93.972 174.004 93.972C173.542 93.972 172.996 93.944 172.38 93.902L172.73 95.232C173.458 95.288 173.962 95.316 174.242 95.316C175.446 95.316 176.118 94.826 176.258 93.846C176.398 92.698 176.468 89.674 176.468 84.774ZM185.666 92.236L184.602 92.908C185.19 93.79 185.666 94.588 186.002 95.316L187.15 94.518C186.814 93.874 186.31 93.104 185.666 92.236ZM183.244 90.346H186.184C186.324 91.032 186.492 91.606 186.66 92.054C187.08 93.118 187.542 93.944 188.074 94.504C188.578 95.05 189.082 95.33 189.558 95.33C190.146 95.33 190.65 94.462 191.098 92.726L189.908 91.928C189.74 93.132 189.586 93.748 189.418 93.776C189.18 93.776 188.9 93.538 188.578 93.09C188.242 92.614 187.962 91.914 187.71 91.004C187.654 90.808 187.598 90.584 187.556 90.346H190.58V88.974H187.318C187.234 88.414 187.15 87.77 187.094 87.042C188.172 86.902 189.208 86.748 190.216 86.566L189.474 85.362C187.066 85.81 184.518 86.104 181.816 86.244V93.356C181.816 93.622 181.62 93.804 181.256 93.888L181.592 95.204C182.768 94.952 183.804 94.686 184.672 94.434L184.406 93.09C184.028 93.216 183.636 93.328 183.244 93.44V90.346ZM185.652 87.21C185.736 87.826 185.82 88.414 185.918 88.974H183.244V87.406C184.056 87.35 184.868 87.28 185.652 87.21ZM185.302 82.422L183.776 82.674C184 82.954 184.196 83.276 184.378 83.612H179.31V87.98C179.282 90.724 178.932 92.866 178.26 94.406L179.38 95.4C180.248 93.538 180.71 91.06 180.766 87.98V85.012H190.958V83.612H185.904C185.708 83.178 185.498 82.786 185.302 82.422ZM202.648 89.52H195.326C196.74 88.792 197.972 87.882 199.008 86.79C199.876 87.812 201.094 88.722 202.648 89.52ZM194.766 89.8V95.414H196.194V94.952H201.78V95.414H203.208V89.8C203.642 89.996 204.118 90.206 204.622 90.402L205.448 89.17C202.592 88.064 200.562 86.79 199.386 85.334H198.616C197.174 86.902 195.13 88.19 192.498 89.17L193.324 90.402C193.814 90.22 194.29 90.024 194.766 89.8ZM196.194 93.608V90.864H201.78V93.608H196.194ZM200.786 82.758L199.792 83.71C201.486 84.816 202.788 85.852 203.712 86.818L204.762 85.768C203.67 84.774 202.354 83.766 200.786 82.758ZM196.824 82.758C195.802 83.794 194.542 84.704 193.044 85.488L193.954 86.65C195.508 85.81 196.824 84.816 197.888 83.682L196.824 82.758ZM211.566 83.43H207.212V94.322H208.64V93.146H210.166V93.986H211.566V83.43ZM208.64 91.788V88.89H210.166V91.788H208.64ZM208.64 87.532V84.76H210.166V87.532H208.64ZM213.708 87.672L212.504 88.428C213.316 89.716 213.96 90.892 214.436 91.928L215.654 91.088C215.206 90.122 214.548 88.988 213.708 87.672ZM216.718 95.316C217.67 95.316 218.16 94.826 218.16 93.846V86.328H219.672V84.914H218.16V82.618H216.676V84.914H212.084V86.328H216.676V93.482C216.676 93.818 216.508 93.986 216.2 93.986C215.472 93.986 214.702 93.958 213.89 93.902L214.212 95.316H216.718ZM226.798 82.548V87.518H221.38V88.946H224.964V88.96C224.908 90.304 224.628 91.382 224.096 92.208C223.564 92.978 222.542 93.622 221.03 94.154L221.856 95.456C223.424 94.924 224.558 94.168 225.258 93.188C225.986 92.124 226.378 90.71 226.448 88.96V88.946H228.422V93.454C228.422 94.546 228.926 95.106 229.934 95.106H232.16C232.72 95.106 233.126 94.966 233.406 94.686C233.686 94.392 233.882 93.468 234.008 91.928L232.58 91.48C232.524 92.572 232.454 93.216 232.342 93.44C232.244 93.636 232.09 93.748 231.894 93.748H230.368C230.046 93.748 229.892 93.538 229.892 93.146V88.946H233.714V87.518H228.282V82.548H226.798ZM231.418 83.164C230.97 84.242 230.382 85.334 229.64 86.426L230.984 87.126C231.726 86.062 232.328 84.97 232.79 83.822L231.418 83.164ZM223.718 83.304L222.332 83.962C222.99 84.886 223.606 85.95 224.18 87.126L225.566 86.426C224.978 85.292 224.362 84.256 223.718 83.304ZM238.32 91.872C237.774 91.872 237.312 92.04 236.934 92.404C236.542 92.768 236.36 93.216 236.36 93.762C236.36 94.294 236.542 94.756 236.934 95.12C237.312 95.47 237.774 95.652 238.32 95.652C238.852 95.652 239.314 95.47 239.706 95.106C240.084 94.742 240.28 94.294 240.28 93.762C240.28 93.23 240.084 92.782 239.706 92.418C239.314 92.054 238.852 91.872 238.32 91.872ZM238.32 92.852C238.572 92.852 238.782 92.936 238.978 93.118C239.16 93.286 239.258 93.51 239.258 93.762C239.258 94.014 239.16 94.224 238.978 94.406C238.782 94.574 238.572 94.672 238.32 94.672C238.068 94.672 237.844 94.574 237.662 94.406C237.466 94.224 237.382 94.014 237.382 93.762C237.382 93.51 237.466 93.286 237.662 93.118C237.844 92.936 238.068 92.852 238.32 92.852Z" fill="#202020"/>
<defs>
<clipPath id="clip0">
<rect width="147" height="107" fill="white" transform="translate(150)"/>
</clipPath>
<clipPath id="clip1">
<rect width="98" height="104" fill="white" transform="translate(0 5)"/>
</clipPath>
</defs>
</svg>
