<svg width="380" height="259" viewBox="0 0 380 259" fill="none" xmlns="http://www.w3.org/2000/svg">
<path d="M21.2 258.9H267.7C279.4 258.9 288.9 249.4 288.9 237.7V105.3C288.9 93.6001 279.4 84.1001 267.7 84.1001H21.2C9.5 84.1001 0 93.6001 0 105.3V237.8C0 249.5 9.5 258.9 21.2 258.9Z" fill="white"/>
<path d="M353.7 2H246C232.2 2 221.1 13.2 221.1 26.9V70.9V86.3V134.5L246.4 111.2H353.7C367.5 111.2 378.6 100 378.6 86.3V26.9C378.6 13.1 367.5 2 353.7 2Z" fill="white" stroke="#269CD1" stroke-width="2.5288" stroke-miterlimit="10" stroke-linecap="round" stroke-linejoin="round"/>
<path d="M275.2 58.5002C275.2 64.5002 270.4 69.3002 264.4 69.3002C258.4 69.3002 253.6 64.5002 253.6 58.5002C253.6 52.5002 258.4 47.7002 264.4 47.7002C270.4 47.7002 275.2 52.5002 275.2 58.5002Z" fill="white" stroke="#269CD1" stroke-width="2.5288" stroke-miterlimit="10" stroke-linecap="round" stroke-linejoin="round"/>
<path d="M312.9 58.5002C312.9 64.5002 308.1 69.3002 302.1 69.3002C296.1 69.3002 291.3 64.5002 291.3 58.5002C291.3 52.5002 296.1 47.7002 302.1 47.7002C308.1 47.7002 312.9 52.5002 312.9 58.5002Z" fill="white" stroke="#269CD1" stroke-width="2.5288" stroke-miterlimit="10" stroke-linecap="round" stroke-linejoin="round"/>
<path d="M350.6 58.5002C350.6 64.5002 345.8 69.3002 339.8 69.3002C333.8 69.3002 329 64.5002 329 58.5002C329 52.5002 333.8 47.7002 339.8 47.7002C345.8 47.7002 350.6 52.5002 350.6 58.5002Z" fill="white" stroke="#269CD1" stroke-width="2.5288" stroke-miterlimit="10" stroke-linecap="round" stroke-linejoin="round"/>
<mask id="mask0" mask-type="alpha" maskUnits="userSpaceOnUse" x="13" y="84" width="264" height="175">
<rect x="13" y="84" width="264" height="175" fill="#C4C4C4"/>
</mask>
<g mask="url(#mask0)">
<path d="M115.9 187.5C115.9 187.5 64.8 211.4 37.5 298.5L74.8 298.7L97.8 246.2L115.9 187.5Z" fill="#672ED6"/>
<path d="M269.5 204.8C269.5 204.8 278.3 199.2 277.2 196.5C276.1 193.8 273.6 195.3 273.6 195.3C273.6 195.3 276.2 193.7 275 191.9C273.8 190.1 272.1 190.8 272.1 190.8C272.1 190.8 274 188.1 272.2 187.1C270.4 186.1 267.7 186.7 267.7 186.7C267.7 186.7 268.7 184.4 268.7 183.6C268.6 182.8 267.5 181 263.8 181.9C260.1 182.8 252 187.2 249.4 188.6C246.7 190 243.7 193.2 243.6 192.1C243.5 191.1 242.4 184.5 239.8 182.6C237.2 180.7 236.2 180.4 235.8 184C235.3 187.7 235.5 197.8 230.5 205.3C225.6 212.8 223.9 217.8 218.6 223.9C213.4 230 211 233 211 233L234.6 252.2C234.6 252.2 257.4 217.8 257.6 217.6C257.6 217.4 265 208.3 269.5 204.8Z" fill="#F4CDAF"/>
<path d="M193.7 245.1C197 242.9 200.4 240 203.6 236.8C214.1 226.6 223.1 213.8 223.1 213.8L249 236C249 236 220.8 279.8 203.8 285.3C186.8 290.8 148.1 246.7 148.1 246.7L145.1 188.7C145.1 188.7 152.4 192.6 158.2 197.9C167.8 206.6 184.6 222.1 203.6 236.8" fill="#672ED6"/>
<path d="M193.7 245.1C197 242.9 200.4 240 203.6 236.8C214.1 226.6 223.1 213.8 223.1 213.8L249 236C249 236 220.8 279.8 203.8 285.3C186.8 290.8 148.1 246.7 148.1 246.7L145.1 188.7C145.1 188.7 152.4 192.6 158.2 197.9C167.8 206.6 184.6 222.1 203.6 236.8" stroke="#672ED6" stroke-width="1.0349" stroke-miterlimit="10"/>
<path d="M215.5 225.8C220.2 220.2 223.3 215.8 223.3 215.8L247.1 236.2C247.1 236.2 244.1 240.9 239.5 247.3L215.5 225.8Z" fill="white"/>
<path d="M74.8 298.7C74.8 298.2 74.8 288.3 74.8 287.9C74.8 230.8 99.1001 184.5 129.1 184.5C159.1 184.5 183.4 230.8 183.4 287.9C183.4 288.4 183.4 298.3 183.4 298.7H74.8Z" fill="#672ED6"/>
<path d="M129.3 210.4V298.7" stroke="#4A25A5" stroke-width="1.5524" stroke-miterlimit="10"/>
<path d="M129.1 211.3L111.8 190.4C118.2 185.3 121.7 184.4 129.1 184.4C136.3 184.4 139.7 184.8 146 189.6L129.1 211.3Z" fill="white"/>
<path d="M108.2 192.9C114.6 187.8 121.7 184.4 129.1 184.4C136.5 184.4 144 187.6 150.4 192.7" stroke="#672ED6" stroke-width="1.0349" stroke-miterlimit="10"/>
<path d="M107.6 198L119.1 180.7C121.4 177.3 125.6 176 129.3 177.4C133 176 137.2 177.3 139.5 180.7L151 198C153.6 202 152.6 207.3 148.6 209.9L146.9 211C142.9 213.6 137.6 212.6 134.9 208.6L129.2 200L123.5 208.6C120.9 212.6 115.5 213.6 111.6 211L109.9 209.9C106 207.3 104.9 202 107.6 198Z" fill="#FEFEFF" stroke="#672ED6" stroke-width="1.0349" stroke-miterlimit="10"/>
<path d="M145.5 127.3H134.2C126.7 127.3 120.5 134.3 120.5 142.9V160.4C120.5 160.9 120.5 161.4 120.6 161.9C120.5 162.4 120.4 163 120.4 163.5V174.2V174.8V185.5C120.4 189.4 123.6 192.5 127.4 192.5H131.9C135.8 192.5 138.9 189.3 138.9 185.5V176.1H145.4C152.9 176.1 159.1 169.1 159.1 160.5V143C159.2 134.3 153.1 127.3 145.5 127.3Z" fill="#F4CDAF"/>
<path d="M123.5 154.7L125.6 141C125.6 141 163.6 145.8 175.9 127.3C188.2 108.8 175.3 101.5 169 102.6C162.7 103.6 155.4 112.6 155.4 112.6C155.4 112.6 161.2 104.7 155.4 103.4C149.6 102.1 143.1 108.2 139.8 114.5C139.8 114.5 114.8 112.2 106.3 127.3C97.8001 142.5 104.7 153.2 120.2 168.9L121.2 160.1L123.5 154.7Z" fill="#2F231C"/>
<path d="M80 110.6C80 119.5 87.2 126.7 96.1 126.7C105 126.7 112.2 119.5 112.2 110.6C112.2 101.7 105 94.5 96.1 94.5C87.2 94.5 80 101.8 80 110.6Z" fill="#2F231C"/>
<path d="M129.3 147C129.3 152 132.9 156 137.4 156C141.9 156 145.5 152 145.5 147C145.5 142 141.9 138 137.4 138C132.9 138 129.3 142 129.3 147Z" stroke="#672ED6" stroke-width="1.3932" stroke-miterlimit="10"/>
<path d="M157.4 153.9C161.045 153.9 164 150.274 164 145.8C164 141.327 161.045 137.7 157.4 137.7C153.755 137.7 150.8 141.327 150.8 145.8C150.8 150.274 153.755 153.9 157.4 153.9Z" stroke="#672ED6" stroke-width="1.3932" stroke-miterlimit="10"/>
<path d="M151 148.3C151 148.3 147.8 146.9 145.4 148.9" stroke="#672ED6" stroke-width="1.3932" stroke-miterlimit="10"/>
<path d="M108.2 155C108.2 159.9 112.2 163.9 117.2 163.9C122.2 163.9 126.2 159.9 126.2 155C126.2 150.1 122.2 146.1 117.2 146.1C112.2 146 108.2 150 108.2 155Z" fill="#F4CDAF"/>
</g>
</svg>
