<svg width="402" height="353" viewBox="0 0 402 353" fill="none" xmlns="http://www.w3.org/2000/svg">
<path d="M21.2 353H311.8C323.5 353 333 341.322 333 326.939V97.061C333 82.6783 323.5 71 311.8 71H21.2C9.5 71.1229 0 82.8012 0 97.061V326.939C0 341.445 9.5 353 21.2 353Z" fill="#269CD1"/>
<path d="M43.2 258.9H289.7C301.4 258.9 310.9 249.4 310.9 237.7V105.3C310.9 93.5996 301.4 84.0996 289.7 84.0996H43.2C31.5 84.0996 22 93.5996 22 105.3V237.8C22 249.5 31.5 258.9 43.2 258.9Z" fill="white"/>
<path d="M375.7 2H268C254.2 2 243.1 13.2 243.1 26.9V70.9V86.3V134.5L268.4 111.2H375.7C389.5 111.2 400.6 100 400.6 86.3V26.9C400.6 13.1 389.5 2 375.7 2Z" fill="white" stroke="#269CD1" stroke-width="2.5288" stroke-miterlimit="10" stroke-linecap="round" stroke-linejoin="round"/>
<path d="M297.2 58.5002C297.2 64.5002 292.4 69.3002 286.4 69.3002C280.4 69.3002 275.6 64.5002 275.6 58.5002C275.6 52.5002 280.4 47.7002 286.4 47.7002C292.4 47.7002 297.2 52.5002 297.2 58.5002Z" fill="white" stroke="#269CD1" stroke-width="2.5288" stroke-miterlimit="10" stroke-linecap="round" stroke-linejoin="round"/>
<path d="M334.9 58.5002C334.9 64.5002 330.1 69.3002 324.1 69.3002C318.1 69.3002 313.3 64.5002 313.3 58.5002C313.3 52.5002 318.1 47.7002 324.1 47.7002C330.1 47.7002 334.9 52.5002 334.9 58.5002Z" fill="white" stroke="#269CD1" stroke-width="2.5288" stroke-miterlimit="10" stroke-linecap="round" stroke-linejoin="round"/>
<path d="M372.6 58.5002C372.6 64.5002 367.8 69.3002 361.8 69.3002C355.8 69.3002 351 64.5002 351 58.5002C351 52.5002 355.8 47.7002 361.8 47.7002C367.8 47.7002 372.6 52.5002 372.6 58.5002Z" fill="white" stroke="#269CD1" stroke-width="2.5288" stroke-miterlimit="10" stroke-linecap="round" stroke-linejoin="round"/>
<mask id="mask0" mask-type="alpha" maskUnits="userSpaceOnUse" x="35" y="84" width="264" height="175">
<rect x="35" y="84" width="264" height="175" fill="#C4C4C4"/>
</mask>
<g mask="url(#mask0)">
<path d="M137.9 187.5C137.9 187.5 86.8 211.4 59.5 298.5L96.8 298.7L119.8 246.2L137.9 187.5Z" fill="#672ED6"/>
<path d="M291.499 204.8C291.499 204.8 300.299 199.2 299.199 196.5C298.099 193.8 295.599 195.3 295.599 195.3C295.599 195.3 298.199 193.7 296.999 191.9C295.799 190.1 294.099 190.8 294.099 190.8C294.099 190.8 295.999 188.1 294.199 187.1C292.399 186.1 289.699 186.7 289.699 186.7C289.699 186.7 290.699 184.4 290.699 183.6C290.599 182.8 289.499 181 285.799 181.9C282.099 182.8 273.999 187.2 271.399 188.6C268.699 190 265.699 193.2 265.599 192.1C265.499 191.1 264.399 184.5 261.799 182.6C259.199 180.7 258.199 180.4 257.799 184C257.299 187.7 257.499 197.8 252.499 205.3C247.599 212.8 245.899 217.8 240.599 223.9C235.399 230 232.999 233 232.999 233L256.599 252.2C256.599 252.2 279.399 217.8 279.599 217.6C279.599 217.4 286.999 208.3 291.499 204.8Z" fill="#F4CDAF"/>
<path d="M215.7 245.1C219 242.9 222.4 240 225.6 236.8C236.1 226.6 245.1 213.8 245.1 213.8L271 236C271 236 242.8 279.8 225.8 285.3C208.8 290.8 170.1 246.7 170.1 246.7L167.1 188.7C167.1 188.7 174.4 192.6 180.2 197.9C189.8 206.6 206.6 222.1 225.6 236.8" fill="#672ED6"/>
<path d="M215.7 245.1C219 242.9 222.4 240 225.6 236.8C236.1 226.6 245.1 213.8 245.1 213.8L271 236C271 236 242.8 279.8 225.8 285.3C208.8 290.8 170.1 246.7 170.1 246.7L167.1 188.7C167.1 188.7 174.4 192.6 180.2 197.9C189.8 206.6 206.6 222.1 225.6 236.8" stroke="#672ED6" stroke-width="1.0349" stroke-miterlimit="10"/>
<path d="M237.5 225.8C242.2 220.2 245.3 215.8 245.3 215.8L269.1 236.2C269.1 236.2 266.1 240.9 261.5 247.3L237.5 225.8Z" fill="white"/>
<path d="M96.7998 298.7C96.7998 298.2 96.7998 288.3 96.7998 287.9C96.7998 230.8 121.1 184.5 151.1 184.5C181.1 184.5 205.4 230.8 205.4 287.9C205.4 288.4 205.4 298.3 205.4 298.7H96.7998Z" fill="#672ED6"/>
<path d="M151.3 210.4V298.7" stroke="#4A25A5" stroke-width="1.5524" stroke-miterlimit="10"/>
<path d="M151.1 211.3L133.8 190.4C140.2 185.3 143.7 184.4 151.1 184.4C158.3 184.4 161.7 184.8 168 189.6L151.1 211.3Z" fill="white"/>
<path d="M130.2 192.9C136.6 187.8 143.7 184.4 151.1 184.4C158.5 184.4 166 187.6 172.4 192.7" stroke="#672ED6" stroke-width="1.0349" stroke-miterlimit="10"/>
<path d="M129.6 198L141.1 180.7C143.4 177.3 147.6 176 151.3 177.4C155 176 159.2 177.3 161.5 180.7L173 198C175.6 202 174.6 207.3 170.6 209.9L168.9 211C164.9 213.6 159.6 212.6 156.9 208.6L151.2 200L145.5 208.6C142.9 212.6 137.5 213.6 133.6 211L131.9 209.9C128 207.3 126.9 202 129.6 198Z" fill="#FEFEFF" stroke="#672ED6" stroke-width="1.0349" stroke-miterlimit="10"/>
<path d="M167.5 127.3H156.2C148.7 127.3 142.5 134.3 142.5 142.9V160.4C142.5 160.9 142.5 161.4 142.6 161.9C142.5 162.4 142.4 163 142.4 163.5V174.2V174.8V185.5C142.4 189.4 145.6 192.5 149.4 192.5H153.9C157.8 192.5 160.9 189.3 160.9 185.5V176.1H167.4C174.9 176.1 181.1 169.1 181.1 160.5V143C181.2 134.3 175.1 127.3 167.5 127.3Z" fill="#F4CDAF"/>
<path d="M145.5 154.699L147.6 140.999C147.6 140.999 185.6 145.799 197.9 127.299C210.2 108.799 197.3 101.499 191 102.599C184.7 103.599 177.4 112.599 177.4 112.599C177.4 112.599 183.2 104.699 177.4 103.399C171.6 102.099 165.1 108.199 161.8 114.499C161.8 114.499 136.8 112.199 128.3 127.299C119.8 142.499 126.7 153.199 142.2 168.899L143.2 160.099L145.5 154.699Z" fill="#2F231C"/>
<path d="M102 110.6C102 119.5 109.2 126.7 118.1 126.7C127 126.7 134.2 119.5 134.2 110.6C134.2 101.7 127 94.5 118.1 94.5C109.2 94.5 102 101.8 102 110.6Z" fill="#2F231C"/>
<path d="M151.3 147C151.3 152 154.9 156 159.4 156C163.9 156 167.5 152 167.5 147C167.5 142 163.9 138 159.4 138C154.9 138 151.3 142 151.3 147Z" stroke="#672ED6" stroke-width="1.3932" stroke-miterlimit="10"/>
<path d="M179.4 153.9C183.045 153.9 186 150.274 186 145.8C186 141.327 183.045 137.7 179.4 137.7C175.755 137.7 172.8 141.327 172.8 145.8C172.8 150.274 175.755 153.9 179.4 153.9Z" stroke="#672ED6" stroke-width="1.3932" stroke-miterlimit="10"/>
<path d="M172.999 148.301C172.999 148.301 169.799 146.901 167.399 148.901" stroke="#672ED6" stroke-width="1.3932" stroke-miterlimit="10"/>
<path d="M130.2 155C130.2 159.899 134.2 163.899 139.2 163.899C144.2 163.899 148.2 159.899 148.2 155C148.2 150.1 144.2 146.099 139.2 146.099C134.2 145.999 130.2 150 130.2 155Z" fill="#F4CDAF"/>
</g>
<path d="M133.116 294.08L131.532 295.592C132.468 296.312 133.236 297.032 133.836 297.704H130.452C130.404 296.6 130.38 295.448 130.38 294.224H127.836C127.836 295.424 127.836 296.6 127.884 297.704H117.996V305.696C117.924 309.584 117.156 312.632 115.668 314.816L117.564 316.52C119.412 313.808 120.396 310.232 120.516 305.768H123.9C123.852 308.216 123.78 309.728 123.636 310.28C123.516 310.76 123.252 311 122.868 311.024C122.196 311.024 121.404 310.976 120.444 310.904L121.212 313.184C121.932 313.256 122.58 313.304 123.156 313.304C124.452 313.28 125.292 312.776 125.676 311.768C126.084 310.664 126.324 307.88 126.396 303.416H120.516V300.08H128.004C128.196 302.96 128.532 305.384 129.06 307.304C129.324 308.288 129.612 309.2 129.948 310.04C128.364 311.96 126.444 313.424 124.188 314.432L125.628 316.544C127.692 315.632 129.516 314.312 131.1 312.584C131.388 313.112 131.724 313.592 132.06 314.024C133.236 315.44 134.34 316.16 135.396 316.16C136.596 316.16 137.484 314.456 138.108 311.072L135.852 309.848C135.54 312.152 135.252 313.304 135.012 313.304C134.652 313.304 134.124 312.776 133.452 311.744C133.212 311.384 132.972 310.952 132.756 310.472C134.22 308.336 135.42 305.744 136.356 302.696L134.076 301.712C133.452 303.872 132.66 305.816 131.7 307.496C131.604 307.16 131.508 306.848 131.436 306.512C131.052 305.024 130.764 302.864 130.572 300.08H137.628V297.704H134.772L135.876 296.576C135.108 295.736 134.196 294.896 133.116 294.08ZM146.052 294.824L144.156 296.192C145.452 297.536 146.508 298.784 147.3 299.888L149.268 298.544C148.5 297.464 147.444 296.216 146.052 294.824ZM154.74 304.904L152.724 306.176C154.212 308 155.412 309.656 156.3 311.144L158.508 309.608C157.62 308.264 156.372 306.704 154.74 304.904ZM150.78 294.272V297.896C150.756 298.592 150.708 299.288 150.66 299.984H143.22V302.432H150.396C150.084 304.592 149.58 306.464 148.908 308.072C147.78 310.52 145.62 312.56 142.404 314.192L143.82 316.424C147.06 314.912 149.388 312.752 150.804 309.968C151.812 307.952 152.508 305.432 152.916 302.432H160.356C160.356 305.264 160.284 307.904 160.14 310.304C159.996 312.704 159.42 313.952 158.436 314.048C157.308 314.048 156.06 313.952 154.716 313.808L155.388 316.232C156.252 316.328 157.308 316.376 158.556 316.376C160.188 316.376 161.34 315.392 161.988 313.472C162.612 311.552 162.924 307.04 162.924 299.984H153.156C153.204 299.312 153.228 298.616 153.252 297.896V294.272H150.78ZM168.66 307.304V309.752H183.06V313.568C183.06 314.048 182.748 314.288 182.124 314.288C181.26 314.288 180.372 314.216 179.412 314.12L179.988 316.568H182.988C184.716 316.568 185.58 315.776 185.58 314.192V309.752H190.716V307.304H185.58V306.224H183.06V307.304H168.66ZM187.26 295.04H171.036V303.296C171.036 304.808 171.876 305.576 173.604 305.576H187.836C188.94 305.528 189.66 305.144 189.948 304.376C190.116 303.896 190.284 303.128 190.452 302.024L188.076 301.232C187.956 302.168 187.86 302.72 187.764 302.888C187.62 303.128 187.38 303.248 187.02 303.272H174.612C173.892 303.272 173.556 302.936 173.556 302.288V301.256H187.26V295.04ZM173.556 299V297.296H184.74V299H173.556ZM174.828 309.872L173.028 311.6C174.684 312.944 175.956 314.192 176.868 315.344L178.74 313.472C177.684 312.272 176.364 311.072 174.828 309.872ZM195.708 297.56V310.376H198.108V297.56H195.708ZM199.716 294.32V305.936C199.668 310.04 198.372 313.016 195.78 314.888L197.628 316.544C200.556 314.312 202.044 310.784 202.116 305.936V294.32H199.716ZM203.268 295.04V297.392H208.884V299.888H203.82V314.048H206.22V302.24H208.884V316.496H211.284V302.24H213.924V311.024C213.924 311.456 213.756 311.696 213.42 311.696L211.884 311.576L212.532 313.976H214.212C215.604 313.976 216.324 313.16 216.324 311.576V299.888H211.284V297.392H216.852V295.04H203.268Z" fill="white"/>
</svg>
