<svg width="904" height="394" viewBox="0 0 904 394" fill="none" xmlns="http://www.w3.org/2000/svg">
<path d="M709.299 88.8V93.5" stroke="#A9DBD9" stroke-opacity="0.8" stroke-miterlimit="10" stroke-linejoin="round"/>
<path d="M711.599 91.2H706.999" stroke="#A9DBD9" stroke-opacity="0.8" stroke-miterlimit="10" stroke-linejoin="round"/>
<path d="M760.898 293.8V298.4" stroke="#A9DBD9" stroke-opacity="0.8" stroke-miterlimit="10" stroke-linejoin="round"/>
<path d="M763.199 296.1H758.599" stroke="#A9DBD9" stroke-opacity="0.8" stroke-miterlimit="10" stroke-linejoin="round"/>
<path d="M222.599 70.1V74.7" stroke="#A9DBD9" stroke-opacity="0.8" stroke-miterlimit="10" stroke-linejoin="round"/>
<path d="M224.899 72.4H220.299" stroke="#A9DBD9" stroke-opacity="0.8" stroke-miterlimit="10" stroke-linejoin="round"/>
<path d="M379.299 55.2V59.9" stroke="#A9DBD9" stroke-opacity="0.8" stroke-miterlimit="10" stroke-linejoin="round"/>
<path d="M381.599 57.6H376.999" stroke="#A9DBD9" stroke-opacity="0.8" stroke-miterlimit="10" stroke-linejoin="round"/>
<path d="M180.599 144.1V148.8" stroke="#A9DBD9" stroke-opacity="0.8" stroke-miterlimit="10" stroke-linejoin="round"/>
<path d="M182.899 146.4H178.299" stroke="#A9DBD9" stroke-opacity="0.8" stroke-miterlimit="10" stroke-linejoin="round"/>
<path d="M348.999 284.6V289.2" stroke="#A9DBD9" stroke-opacity="0.8" stroke-miterlimit="10" stroke-linejoin="round"/>
<path d="M351.299 286.9H346.699" stroke="#A9DBD9" stroke-opacity="0.8" stroke-miterlimit="10" stroke-linejoin="round"/>
<path d="M483.698 106.9V111.5" stroke="#A9DBD9" stroke-opacity="0.8" stroke-miterlimit="10" stroke-linejoin="round"/>
<path d="M485.998 109.2H481.398" stroke="#A9DBD9" stroke-opacity="0.8" stroke-miterlimit="10" stroke-linejoin="round"/>
<path d="M437.999 5.39995C437.999 6.59995 436.999 7.59995 435.799 7.59995C434.599 7.59995 433.599 6.59995 433.599 5.39995C433.599 4.19995 434.599 3.19995 435.799 3.19995C436.999 3.19995 437.999 4.19995 437.999 5.39995Z" stroke="#A9DBD9" stroke-opacity="0.8" stroke-miterlimit="10" stroke-linejoin="round"/>
<path d="M763.099 209.8C763.099 211 762.099 212 760.899 212C759.699 212 758.699 211 758.699 209.8C758.699 208.6 759.699 207.6 760.899 207.6C762.099 207.6 763.099 208.6 763.099 209.8Z" stroke="#A9DBD9" stroke-opacity="0.8" stroke-miterlimit="10" stroke-linejoin="round"/>
<path d="M560.399 53C560.399 54.2 559.399 55.2001 558.199 55.2001C556.999 55.2001 555.999 54.2 555.999 53C555.999 51.8 556.999 50.8 558.199 50.8C559.499 50.8 560.399 51.8 560.399 53Z" stroke="#A9DBD9" stroke-opacity="0.8" stroke-miterlimit="10" stroke-linejoin="round"/>
<path d="M368.399 127.6C368.399 128.8 367.399 129.8 366.199 129.8C364.999 129.8 363.999 128.8 363.999 127.6C363.999 126.4 364.999 125.4 366.199 125.4C367.399 125.4 368.399 126.4 368.399 127.6Z" stroke="#A9DBD9" stroke-opacity="0.8" stroke-miterlimit="10" stroke-linejoin="round"/>
<path d="M653.799 91.1C655.014 91.1 655.999 90.115 655.999 88.9C655.999 87.6849 655.014 86.7 653.799 86.7C652.584 86.7 651.599 87.6849 651.599 88.9C651.599 90.115 652.584 91.1 653.799 91.1Z" stroke="#A9DBD9" stroke-opacity="0.8" stroke-miterlimit="10" stroke-linejoin="round"/>
<path d="M118.499 282.5C119.714 282.5 120.699 281.515 120.699 280.3C120.699 279.085 119.714 278.1 118.499 278.1C117.284 278.1 116.299 279.085 116.299 280.3C116.299 281.515 117.284 282.5 118.499 282.5Z" stroke="#A9DBD9" stroke-opacity="0.8" stroke-miterlimit="10" stroke-linejoin="round"/>
<path d="M192.799 117.8C194.014 117.8 194.999 116.815 194.999 115.6C194.999 114.385 194.014 113.4 192.799 113.4C191.584 113.4 190.599 114.385 190.599 115.6C190.599 116.815 191.584 117.8 192.799 117.8Z" stroke="#A9DBD9" stroke-opacity="0.8" stroke-miterlimit="10" stroke-linejoin="round"/>
<path d="M258.499 36.0999C259.714 36.0999 260.699 35.115 260.699 33.9C260.699 32.6849 259.714 31.7 258.499 31.7C257.284 31.7 256.299 32.6849 256.299 33.9C256.299 35.115 257.284 36.0999 258.499 36.0999Z" stroke="#A9DBD9" stroke-opacity="0.8" stroke-miterlimit="10" stroke-linejoin="round"/>
<path d="M158.099 82.8H182.999" stroke="#A9DBD9" stroke-opacity="0.8" stroke-miterlimit="10" stroke-linejoin="round"/>
<path d="M190.599 82.8H201.699" stroke="#A9DBD9" stroke-opacity="0.8" stroke-miterlimit="10" stroke-linejoin="round"/>
<path d="M596.898 55.9H621.798" stroke="#A9DBD9" stroke-opacity="0.8" stroke-miterlimit="10" stroke-linejoin="round"/>
<path d="M629.398 55.9H640.598" stroke="#A9DBD9" stroke-opacity="0.8" stroke-miterlimit="10" stroke-linejoin="round"/>
<path d="M355.099 1H338.199" stroke="#A9DBD9" stroke-opacity="0.8" stroke-miterlimit="10" stroke-linejoin="round"/>
<path d="M332.599 1H323.499" stroke="#A9DBD9" stroke-opacity="0.8" stroke-miterlimit="10" stroke-linejoin="round"/>
<path d="M495.898 33.9H514.198" stroke="#A9DBD9" stroke-opacity="0.8" stroke-miterlimit="10" stroke-linejoin="round"/>
<path d="M684.099 151.4H702.299" stroke="#A9DBD9" stroke-opacity="0.8" stroke-miterlimit="10" stroke-linejoin="round"/>
<path d="M700.999 143.3H712.899" stroke="#A9DBD9" stroke-opacity="0.8" stroke-miterlimit="10" stroke-linejoin="round"/>
<path d="M737.499 111H571.899C560.699 111 551.599 101.9 551.599 90.7C551.599 79.5 560.699 70.4001 571.899 70.4001H633.599C648.399 70.4001 660.399 58.4 660.399 43.6C660.399 28.8 648.399 16.8 633.599 16.8H252.399C243.699 16.8 236.199 23.5001 235.799 32.2001C235.399 41.5001 242.799 49.2001 251.999 49.2001H319.899C333.099 49.2001 343.799 59.9 343.799 73.1C343.799 86.3 333.099 97 319.899 97H189.899C171.799 97 157.099 111.7 157.099 129.8C157.099 147.9 171.799 162.6 189.899 162.6H317.699C328.399 162.6 337.099 171.3 337.099 182C337.099 192.7 328.399 201.4 317.699 201.4H221.599C207.399 201.4 195.899 212.9 195.899 227.1C195.899 241.3 207.399 252.8 221.599 252.8H664.299C678.499 252.8 689.999 241.3 689.999 227.1C689.999 212.9 678.499 201.4 664.299 201.4H551.999C541.299 201.4 532.599 192.7 532.599 182C532.599 171.3 541.299 162.6 551.999 162.6H737.499C751.699 162.6 763.299 151.1 763.299 136.8C763.199 122.5 751.699 111 737.499 111Z" stroke="#A9DBD9" stroke-opacity="0.8" stroke-miterlimit="10" stroke-linejoin="round" stroke-dasharray="3.5 3.5"/>
<path d="M137.599 381.3H730.299" stroke="#A9DBD9" stroke-opacity="0.8" stroke-miterlimit="10"/>
<path d="M842.799 284C836.699 277.9 830.699 268.6 829.899 258.6C829.499 254.3 829.799 249.7 830.899 245.5C831.999 241.2 834.299 237.5 834.999 233.1C836.299 225 831.499 216.4 835.299 208.8C836.599 206.2 840.899 205 842.499 202.8C845.499 198.9 845.299 193.1 847.099 188.4C849.899 181.2 855.899 176.7 862.099 176.9C867.399 177.1 873.099 182 873.199 188.9C873.199 194.4 869.799 198.7 868.199 203.8C866.799 208.2 866.699 213.4 868.099 217.9C869.699 223.3 873.399 228.7 871.899 234.1C870.499 239.3 863.399 242.9 860.999 246.9C856.399 254.6 864.499 262.1 857.199 267.8C853.499 270.4 844.899 273.1 842.799 284Z" fill="white" stroke="#A9DBD9" stroke-opacity="0.8" stroke-miterlimit="10" stroke-linejoin="round"/>
<path d="M855.298 204.5C855.298 204.5 853.398 192.4 849.398 183.9" stroke="#A9DBD9" stroke-opacity="0.8" stroke-miterlimit="10" stroke-linejoin="round"/>
<path d="M867.199 213.8C867.199 213.8 854.899 219.9 850.599 224.1" stroke="#A9DBD9" stroke-opacity="0.8" stroke-miterlimit="10" stroke-linejoin="round"/>
<path d="M846.299 191C846.299 191 851.399 202.9 852.699 215" stroke="#A9DBD9" stroke-opacity="0.8" stroke-miterlimit="10" stroke-linejoin="round"/>
<path d="M870.499 198.1C870.499 198.1 860.099 200.5 855.299 204.5" stroke="#A9DBD9" stroke-opacity="0.8" stroke-miterlimit="10" stroke-linejoin="round"/>
<path d="M866.898 178.2C866.898 178.2 861.198 184.1 857.498 196.5C845.398 237.5 842.898 275.1 841.198 319.8" stroke="#A9DBD9" stroke-opacity="0.8" stroke-miterlimit="10" stroke-linejoin="round"/>
<path d="M834.198 221.2C841.098 234.9 845.998 252.5 845.998 252.5C845.998 252.5 856.398 244.3 866.798 240.7" stroke="#A9DBD9" stroke-opacity="0.8" stroke-miterlimit="10" stroke-linejoin="round"/>
<path d="M843.899 272.5C843.899 272.5 837.399 255 830.799 245.4" stroke="#A9DBD9" stroke-opacity="0.8" stroke-miterlimit="10" stroke-linejoin="round"/>
<path d="M813.199 308.6C813.199 301.4 817.899 297.5 819.299 291.5C820.099 287.8 820.099 283.8 818.499 280.5C816.899 277.2 813.999 274.9 813.099 271.3C812.199 267.7 813.699 263.9 813.999 260.2C814.599 253.6 810.999 246.8 805.599 244C803.099 242.7 800.299 242.2 797.999 240.4C795.799 238.7 794.099 236.4 792.099 234.5C786.799 229.4 773.399 221.9 767.299 229.8C766.399 231 765.899 232.5 765.699 234.1C764.999 238.5 765.999 243.5 768.699 247.1C771.299 250.5 775.299 252.3 778.599 254.8C780.899 256.5 782.399 258.1 782.499 261C782.699 264.3 781.299 267.4 782.499 270.6C784.199 275.1 784.999 275.8 788.299 278.4C791.799 281.2 792.299 284.7 792.799 289.1C793.299 293.2 795.199 296.1 798.599 297.9C801.599 299.3 808.499 300.2 813.199 308.6Z" fill="white" stroke="#A9DBD9" stroke-opacity="0.8" stroke-miterlimit="10" stroke-linejoin="round"/>
<path d="M779.398 237.2C785.198 242.7 797.898 259.2 802.598 271.1C810.598 291.3 814.298 307.5 814.898 329.6" stroke="#A9DBD9" stroke-opacity="0.8" stroke-miterlimit="10" stroke-linejoin="round"/>
<path d="M814.499 274.4C814.499 274.4 813.399 288.7 810.599 295.5" stroke="#A9DBD9" stroke-opacity="0.8" stroke-miterlimit="10" stroke-linejoin="round"/>
<path d="M807.698 245.3C807.698 245.3 806.798 265.2 803.998 274.6" stroke="#A9DBD9" stroke-opacity="0.8" stroke-miterlimit="10" stroke-linejoin="round"/>
<path d="M796.798 239.7C796.798 239.7 796.498 248.4 794.598 256.3C794.598 256.3 786.598 252 774.498 249.3" stroke="#A9DBD9" stroke-opacity="0.8" stroke-miterlimit="10" stroke-linejoin="round"/>
<path d="M808.098 286.4C808.098 286.4 800.398 280.2 788.398 278.4" stroke="#A9DBD9" stroke-opacity="0.8" stroke-miterlimit="10" stroke-linejoin="round"/>
<path d="M853.999 301.6C856.399 296.7 860.299 293.9 864.099 291.9C868.099 289.8 872.399 286.7 874.199 281.9C874.799 280.3 875.099 278.6 875.799 277.1C877.099 274.6 879.499 273.2 881.899 272.2C884.299 271.2 886.799 270.4 888.799 268.5C890.499 266.8 891.699 264.4 891.999 261.9C892.199 259.4 891.699 256.8 892.499 254.5C893.399 251.9 895.699 250.4 897.599 248.6C901.299 245 903.799 238.9 903.299 233.4C902.699 225.7 896.199 224.7 890.599 227C887.099 228.4 883.999 230.8 880.399 231.9C877.299 232.9 874.099 233 871.099 234.3C867.699 235.9 864.899 239.1 863.699 243.1C862.699 246.1 862.699 249.5 861.899 252.6C861.299 255 860.199 257.2 858.799 259.1C854.799 264.5 849.599 266.4 848.999 273.8C848.399 281.9 850.799 294.2 853.999 301.6Z" fill="white" stroke="#A9DBD9" stroke-opacity="0.8" stroke-miterlimit="10" stroke-linejoin="round"/>
<path d="M894.099 234.3C867.599 252.7 853.599 290 850.099 326.2" stroke="#A9DBD9" stroke-opacity="0.8" stroke-miterlimit="10" stroke-linejoin="round"/>
<path d="M890.498 266.4C890.498 266.4 877.298 265.7 865.998 268.3" stroke="#A9DBD9" stroke-opacity="0.8" stroke-miterlimit="10" stroke-linejoin="round"/>
<path d="M872.499 235.5C869.299 246.6 870.099 260.8 870.099 260.8C870.099 260.8 880.199 258.8 891.899 259" stroke="#A9DBD9" stroke-opacity="0.8" stroke-miterlimit="10" stroke-linejoin="round"/>
<path d="M900.798 244.3C900.798 244.3 889.698 243.4 882.498 244.3" stroke="#A9DBD9" stroke-opacity="0.8" stroke-miterlimit="10" stroke-linejoin="round"/>
<path d="M874.699 280.3C874.699 280.3 866.199 280.5 859.599 283.2C859.599 283.2 855.699 273.4 858.899 259" stroke="#A9DBD9" stroke-opacity="0.8" stroke-miterlimit="10" stroke-linejoin="round"/>
<path d="M826.499 295.5C827.699 287.7 837.999 278.7 837.499 270.8C836.899 261.4 829.899 259.9 836.099 243.6C838.499 237.3 839.799 230.4 837.599 224C834.999 216.2 828.599 212.9 823.499 207.3C818.799 202 818.199 194.9 815.499 188.5C812.799 181.9 806.499 175.1 800.099 172.8C795.999 171.3 791.899 172.5 789.499 176.4C787.499 179.5 786.699 183.4 786.599 187.2C786.399 192.6 787.599 198 789.899 202.8C792.199 207.5 795.599 211.5 797.599 216.4C800.199 222.7 797.299 229.1 797.399 235.6C797.599 246.7 808.199 248.2 811.299 257.4C812.299 260.3 811.699 263.1 810.999 265.7C809.799 269.9 808.899 273.1 812.499 277.3C819.999 285.9 824.599 287.2 826.499 295.5Z" fill="white" stroke="#A9DBD9" stroke-opacity="0.8" stroke-miterlimit="10" stroke-linejoin="round"/>
<path d="M797.099 180.2C802.399 188 809.799 202.8 813.499 216.2C825.999 261.3 828.599 298.9 826.399 345.8" stroke="#A9DBD9" stroke-opacity="0.8" stroke-miterlimit="10" stroke-linejoin="round"/>
<path d="M786.799 193.4C786.799 193.4 798.999 195.7 809.299 204.1C809.299 204.1 812.799 192.2 810.999 181" stroke="#A9DBD9" stroke-opacity="0.8" stroke-miterlimit="10" stroke-linejoin="round"/>
<path d="M789.398 201.2C789.398 201.2 803.998 206.1 812.098 211.5" stroke="#A9DBD9" stroke-opacity="0.8" stroke-miterlimit="10" stroke-linejoin="round"/>
<path d="M798.699 224.8C798.699 224.8 812.099 229.7 817.999 234.1C823.199 222.8 823.599 207.3 823.599 207.3" stroke="#A9DBD9" stroke-opacity="0.8" stroke-miterlimit="10" stroke-linejoin="round"/>
<path d="M801.299 245C801.299 245 810.699 246.6 821.799 253.1C821.799 253.1 834.399 237.9 834.699 218.4" stroke="#A9DBD9" stroke-opacity="0.8" stroke-miterlimit="10" stroke-linejoin="round"/>
<path d="M822.699 258.4C822.699 258.4 836.199 243.8 838.499 226.9" stroke="#A9DBD9" stroke-opacity="0.8" stroke-miterlimit="10" stroke-linejoin="round"/>
<path d="M811.099 265.8C811.099 265.8 820.099 269.3 824.699 273.3" stroke="#A9DBD9" stroke-opacity="0.8" stroke-miterlimit="10" stroke-linejoin="round"/>
<path d="M865.799 313.5L865.899 328C866.199 360.2 853.799 381 853.799 381L814.799 381.3C814.799 381.3 801.999 360.7 801.699 328.6L801.599 314.1L865.799 313.5Z" fill="#C5E8E5"/>
<path d="M71.1988 267.3C70.4988 261.6 63.2988 257.7 63.8988 252C64.1988 249.2 66.3988 246.9 67.2988 244.2C68.7988 239.6 66.3988 234.7 64.0988 230.5C61.6988 226.3 59.1988 221.5 60.4988 216.9C61.8988 211.8 71.1988 208.4 74.9988 204.8C78.8988 201.2 79.5988 196 81.7988 191.5C84.1988 186.8 89.2988 182.2 94.3988 180.7C97.6988 179.8 100.899 180.8 102.699 183.7C104.199 186.1 104.699 188.9 104.699 191.7C104.699 195.6 103.599 199.5 101.599 202.9C99.1988 206.9 95.5988 210.2 94.0988 214.7C92.3988 219.7 91.2988 224.2 92.8988 230.2C95.6988 241.2 91.7988 251.4 88.4988 252.8C79.2988 256.5 75.5988 257.5 71.1988 267.3Z" fill="white" stroke="#A9DBD9" stroke-opacity="0.8" stroke-miterlimit="10" stroke-linejoin="round"/>
<path d="M94.5988 187.1C91.8988 190.9 87.5988 200.5 85.9988 204.8C74.3988 236.8 68.5988 271 68.8988 305" stroke="#A9DBD9" stroke-opacity="0.8" stroke-miterlimit="10" stroke-linejoin="round"/>
<path d="M46.9984 293.3C44.7984 288.9 41.0984 286.3 37.3984 284.4C33.4984 282.3 29.3984 279.5 27.8984 275.2C27.3984 273.8 27.1984 272.3 26.4984 270.9C25.2984 268.7 22.9984 267.4 20.6984 266.4C18.3984 265.4 15.8984 264.6 14.0984 262.9C12.3984 261.4 11.3984 259.2 11.1984 257C11.0984 254.8 11.6984 252.5 10.9984 250.5C10.1984 248.2 7.99836 246.8 6.19836 245.1C2.69836 241.8 0.498358 236.3 1.09836 231.5C1.99836 224.8 8.39836 224.2 13.7984 226.4C17.1984 227.8 20.1984 230 23.6984 231.2C26.6984 232.2 29.8984 232.4 32.6984 233.8C35.9984 235.3 38.5984 238.3 39.6984 241.8C40.4984 244.5 40.3984 247.4 41.0984 250.2C41.5984 252.3 42.5984 254.3 43.8984 256C47.5984 260.9 51.3984 266.2 51.6984 272.7C52.0984 279.6 50.3984 287 46.9984 293.3Z" fill="white" stroke="#A9DBD9" stroke-opacity="0.8" stroke-miterlimit="10" stroke-linejoin="round"/>
<path d="M10.0986 232.5C35.4986 249.8 47.7986 283.1 49.8986 314.9" stroke="#A9DBD9" stroke-opacity="0.8" stroke-miterlimit="10" stroke-linejoin="round"/>
<path d="M12.3984 260.8C12.3984 260.8 25.3984 260.8 36.3984 263.6" stroke="#A9DBD9" stroke-opacity="0.8" stroke-miterlimit="10" stroke-linejoin="round"/>
<path d="M31.2988 234.6C33.9988 244.4 32.6988 256.8 32.6988 256.8C32.6988 256.8 22.8988 254.6 11.2988 254.2" stroke="#A9DBD9" stroke-opacity="0.8" stroke-miterlimit="10" stroke-linejoin="round"/>
<path d="M3.19824 241C3.19824 241 14.1982 240.7 21.1982 241.9" stroke="#A9DBD9" stroke-opacity="0.8" stroke-miterlimit="10" stroke-linejoin="round"/>
<path d="M27.498 273.8C27.498 273.8 35.898 274.4 42.298 277C42.298 277 46.798 264.6 44.198 251.9" stroke="#A9DBD9" stroke-opacity="0.8" stroke-miterlimit="10" stroke-linejoin="round"/>
<path d="M60.5986 279.2C68.1986 273.4 75.4986 264.5 76.4986 254.9C76.8986 250.8 76.4986 246.4 75.0986 242.4C73.6986 238.3 70.6986 234.7 69.7986 230.6C68.0986 222.9 73.9986 214.6 69.0986 207.4C67.3986 204.9 64.6986 203.4 62.5986 201.3C57.6986 196.5 57.7986 189.2 53.5986 184.5C49.2986 179.8 41.5986 176.9 35.2986 177.1C28.6986 177.3 21.5986 182 21.5986 188.7C21.5986 193.9 25.8986 198.1 27.9986 202.9C29.7986 207.1 29.8986 212.1 28.2986 216.3C26.2986 221.5 21.7986 226.6 23.7986 231.8C25.6986 236.7 34.4986 240.1 37.5986 243.9C43.4986 251.2 33.3986 258.5 42.5986 263.8C47.0986 266.4 57.8986 268.9 60.5986 279.2Z" fill="white" stroke="#A9DBD9" stroke-opacity="0.8" stroke-miterlimit="10" stroke-linejoin="round"/>
<path d="M25.7988 221.3C25.7988 221.3 44.7988 228.2 53.1988 234.6" stroke="#A9DBD9" stroke-opacity="0.8" stroke-miterlimit="10" stroke-linejoin="round"/>
<path d="M29.2988 212.4C29.2988 212.4 44.7988 218.2 50.0988 222.1" stroke="#A9DBD9" stroke-opacity="0.8" stroke-miterlimit="10" stroke-linejoin="round"/>
<path d="M56.799 189.9C56.799 189.9 49.099 201.8 47.499 213.4" stroke="#A9DBD9" stroke-opacity="0.8" stroke-miterlimit="10" stroke-linejoin="round"/>
<path d="M24.999 197.5C24.999 197.5 38.099 199.7 44.099 203.5" stroke="#A9DBD9" stroke-opacity="0.8" stroke-miterlimit="10" stroke-linejoin="round"/>
<path d="M29.2988 178.4C29.2988 178.4 36.4988 184 41.1988 195.8C56.7988 234.9 60.2988 270.7 62.8988 313.5" stroke="#A9DBD9" stroke-opacity="0.8" stroke-miterlimit="10" stroke-linejoin="round"/>
<path d="M54.999 243C54.999 243 58.499 229.2 70.999 212.4" stroke="#A9DBD9" stroke-opacity="0.8" stroke-miterlimit="10" stroke-linejoin="round"/>
<path d="M70.599 219.2C62.099 232.4 56.199 249.2 56.199 249.2C56.199 249.2 43.099 241.5 29.999 238.1" stroke="#A9DBD9" stroke-opacity="0.8" stroke-miterlimit="10" stroke-linejoin="round"/>
<path d="M59.0986 268.3C59.0986 268.3 67.0986 251.5 75.1986 242.3" stroke="#A9DBD9" stroke-opacity="0.8" stroke-miterlimit="10" stroke-linejoin="round"/>
<path d="M80.8984 293.3C80.7984 287 76.1984 283.6 74.7984 278.3C73.9984 275.1 73.9984 271.5 75.4984 268.6C76.9984 265.7 79.8984 263.6 80.6984 260.5C81.5984 257.3 80.0984 254 79.6984 250.8C79.0984 245 82.4984 239 87.7984 236.6C89.9984 235.6 92.2984 235.2 94.3984 234.1C97.7984 232.3 99.5984 228.7 102.698 226.6C106.298 224.2 110.398 222.5 114.698 221.7C116.998 221.3 119.498 221.1 121.698 221.8C123.998 222.5 125.998 224.2 126.698 226.5C127.698 230.3 124.698 233.9 121.898 236.7C119.198 239.5 116.298 243.3 117.698 247C118.098 248.1 118.998 249.1 119.498 250.2C122.098 255.9 117.198 260.6 112.498 262.9C109.998 264.1 107.298 265.1 105.098 266.7C101.598 269.2 101.198 272.2 100.698 276.1C100.198 279.7 98.3984 282.3 95.0984 283.8C92.1984 285 85.4984 285.9 80.8984 293.3Z" fill="white" stroke="#A9DBD9" stroke-opacity="0.8" stroke-miterlimit="10" stroke-linejoin="round"/>
<path d="M113.498 230.4C107.798 235.2 95.4982 249.8 90.8982 260.2C83.1982 277.9 79.6982 292.2 79.1982 311.5" stroke="#A9DBD9" stroke-opacity="0.8" stroke-miterlimit="10" stroke-linejoin="round"/>
<path d="M79.2988 263.3C79.2988 263.3 80.5988 275.8 83.2988 281.8" stroke="#A9DBD9" stroke-opacity="0.8" stroke-miterlimit="10" stroke-linejoin="round"/>
<path d="M85.7988 237.7C85.7988 237.7 86.8988 255.2 89.6988 263.3C89.6988 263.3 103.199 254.3 119.899 251" stroke="#A9DBD9" stroke-opacity="0.8" stroke-miterlimit="10" stroke-linejoin="round"/>
<path d="M96.3984 232.8C96.3984 232.8 96.7984 240.5 98.6984 247.3C98.6984 247.3 106.598 243.4 118.398 241" stroke="#A9DBD9" stroke-opacity="0.8" stroke-miterlimit="10" stroke-linejoin="round"/>
<path d="M94.998 252.8C94.998 252.8 106.298 246.8 117.398 245" stroke="#A9DBD9" stroke-opacity="0.8" stroke-miterlimit="10" stroke-linejoin="round"/>
<path d="M85.6982 273.8C85.6982 273.8 93.1982 268.3 104.998 266.6" stroke="#A9DBD9" stroke-opacity="0.8" stroke-miterlimit="10" stroke-linejoin="round"/>
<path d="M37.998 301.6V318.8C37.998 356.8 49.198 381.2 49.198 381.2H83.798C83.798 381.2 94.998 356.8 94.998 318.8V301.6H37.998Z" fill="#C5E8E5"/>
<path d="M674.4 89.3C675.2 90.2 676.4 93.8 676.4 93.8C676.9 96.8 677.1 98.4 678.1 99.8C679.1 101.2 677.1 112 677.1 112C677.1 112 682 112 685.5 109.5C685.5 109.5 685.7 100.9 686.1 100.3C686.8 99 689.1 98.3 690 95.6C690.9 92.9 693.2 89.9 693.2 89.9C693.2 89.9 692.6 88.5 691.4 89.3C690.2 90.1 689.3 92.3 688.7 92.5C688.6 92.5 688.4 92.6 688.3 92.6C687.8 92.7 687.3 92.5 687 92.2C687 92.2 686.9 92.2 686.9 92.1C685.8 90.8 685.7 87 685.8 85.4C685.9 83.1 685.9 79.9 684.5 80.4C683.1 80.9 684.3 82.2 683.1 87.3L682.6 87.4C682.5 87.8 681.6 84.2 681.5 81C681.4 78.7 679.9 79.5 679.6 80.2C679.2 80.9 679.7 83.2 679.7 84.8C679.7 85.9 679.8 87 679.8 87.7L679.2 88C677.1 84 677.9 82.4 676.6 82.3C675.3 82.2 675.7 85.5 676.3 86.8C676.6 87.4 676.8 88.5 677 89.6C674.8 86.9 675.1 85.5 674 85.6C672.8 85.7 673.7 88.3 674.4 89.3Z" fill="#F9A695"/>
<path d="M684.2 95.7C685 93.6 687.8 92.7 688.2 92.6C687.7 92.7 687.2 92.5 686.9 92.2C684.1 93.3 684.2 95.7 684.2 95.7Z" fill="#EF9789"/>
<path d="M711.6 138.6L699 142.2L697.2 143.6L685 144.3L685.8 117.8L687 116.7L686.2 105.6L672 110.3L672.2 120.1L671 124.5C671 124.5 668.2 154.5 668 156.3C667.8 158.1 672.7 162 672.7 162L708 159.4L709.1 163.7L713.4 148.2L711.6 138.6Z" fill="#754338"/>
<path d="M727.9 135.5C727.9 135.5 737.4 143.4 763.3 139.8V148.2C763.3 148.2 748.1 157.9 740.1 155.9C732.1 153.9 726.4 144.3 726.4 144.3L727.9 135.5Z" fill="#754338"/>
<path d="M783.3 393.3H757.401C755.601 383 758.5 372.7 758.5 372.7L770.3 370.7C771.4 377.2 772.7 379.8 774.5 381.1C775.8 382.1 777.4 382.4 779.3 383C781.5 383.8 782.7 385.2 783.3 386.7C784.5 389.7 783.3 393.3 783.3 393.3Z" fill="#512F2A"/>
<path d="M783.301 386.7C776.901 387.5 762.901 388.9 763.701 385.2C764.401 382.1 770.301 381.3 774.401 381.1C775.701 382.1 777.301 382.4 779.201 383C781.601 383.7 782.801 385.2 783.301 386.7Z" fill="#754338"/>
<path d="M729.6 393.3H703.7C703.7 393.3 702.9 390.9 703.3 388.3C703.6 386.2 704.7 384 707.7 383C709.9 382.2 711.7 381.9 713.1 380.6C714.6 379.2 715.8 376.5 716.7 370.7L728.5 372.7C728.5 372.7 731.4 383 729.6 393.3Z" fill="#512F2A"/>
<path d="M703.301 388.3C703.601 386.2 704.701 384 707.701 383C709.901 382.2 711.701 381.9 713.101 380.6C716.401 381.6 721.001 383.5 722.401 386.3C724.301 390.1 709.201 389.5 703.301 388.3Z" fill="#754338"/>
<path d="M772 352.8C774 350.4 772 304.5 772 304.5C772 304.5 773.6 296.1 773.2 283.4C772.8 270.8 772 249 771.9 246.8C771.8 244.6 770.1 218.3 770.1 218.3L743.4 219.5L716.7 218.3C716.7 218.3 715 244.6 714.9 246.8C714.8 249 714.1 270.8 713.6 283.4C713.2 296 714.8 304.5 714.8 304.5C714.8 304.5 712.8 350.5 714.8 352.8C716.8 355.2 712.2 377.2 713.6 377.2C715.1 377.3 724.9 378.9 730.2 384.3L732.5 361.5C732.5 361.5 731.5 343.7 732.5 341.7C733.5 339.7 739.5 261.4 740.5 260.4C741.1 259.8 742.3 259.3 743.4 259C744.4 259.3 745.7 259.8 746.3 260.4C747.3 261.4 753.3 339.7 754.3 341.7C755.3 343.7 754.3 361.5 754.3 361.5L756.6 384.3C761.9 378.9 771.7 377.2 773.2 377.2C774.6 377.1 769.9 355.1 772 352.8Z" fill="#A7DEFC"/>
<path d="M715.501 138.6C715.501 138.6 759.201 142 776.201 148.2C776.201 148.2 771.201 211.7 772.401 246.5C772.401 246.5 748.001 250 715.001 238.7C714.901 238.7 707.101 154 715.501 138.6Z" fill="#0C476B"/>
<path d="M737.4 134.4C737.4 134.4 739.5 140.9 737.4 143.4C737.4 143.4 739.5 147.9 743.4 148.1C747.9 148.3 749.4 143.4 749.4 143.4C749.4 143.4 747 137.1 749.4 134.9L737.4 134.4Z" fill="#F9A695"/>
<path d="M731.6 122.7C731.6 122.7 728.4 119.5 728 123.2C727.5 127.6 731.5 129.4 732.3 128C733.1 126.6 731.6 122.7 731.6 122.7Z" fill="#FFB39F"/>
<path d="M754.4 123C754.4 123 757.6 119.8 758 123.5C758.5 127.9 754.5 129.7 753.7 128.3C752.9 126.9 754.4 123 754.4 123Z" fill="#FFB39F"/>
<path d="M742.6 138.6C735.4 138.6 731.3 133.9 731.3 119.8C731.3 112.5 735 108.1 743.1 108.1C751.2 108.1 754.6 112.6 754.6 119.8C754.6 135 750.1 138.6 742.6 138.6Z" fill="#FFB39F"/>
<path d="M752.201 124.8C752.301 125.5 751.7 126.2 750.8 126.4C749.9 126.6 749.101 126.1 748.901 125.4C748.801 124.7 749.4 124 750.3 123.8C751.3 123.7 752.101 124.1 752.201 124.8Z" fill="#EF9789"/>
<path d="M737.4 125.2C737.4 125.9 736.6 126.5 735.7 126.4C734.8 126.3 734.1 125.7 734.1 125C734.1 124.3 734.9 123.7 735.8 123.8C736.8 123.9 737.5 124.5 737.4 125.2Z" fill="#EF9789"/>
<path d="M748.9 117.5C748.8 117.5 748.7 117.5 748.6 117.4C747.6 116.4 745.9 116.4 745.8 116.4C745.6 116.4 745.4 116.3 745.4 116.1C745.4 115.9 745.5 115.7 745.7 115.7C745.8 115.7 747.8 115.6 749 116.9C749.1 117 749.1 117.3 749 117.4C749.1 117.5 749 117.5 748.9 117.5Z" fill="#140504"/>
<path d="M735.4 117.5C735.3 117.5 735.2 117.5 735.2 117.4C735.1 117.3 735.1 117 735.2 116.9C736.4 115.6 738.4 115.7 738.5 115.7C738.7 115.7 738.9 115.9 738.8 116.1C738.8 116.3 738.6 116.5 738.4 116.4C738.4 116.4 736.6 116.4 735.6 117.4C735.6 117.5 735.5 117.5 735.4 117.5Z" fill="#140504"/>
<path d="M748.3 121.3C748.3 122.2 747.9 122.9 747.4 122.9C746.9 122.9 746.5 122.2 746.5 121.3C746.5 120.4 746.9 119.7 747.4 119.7C747.9 119.7 748.3 120.4 748.3 121.3Z" fill="#303030"/>
<path d="M738.7 121.3C738.7 122.2 738.3 122.9 737.8 122.9C737.3 122.9 736.9 122.2 736.9 121.3C736.9 120.4 737.3 119.7 737.8 119.7C738.3 119.7 738.7 120.4 738.7 121.3Z" fill="#303030"/>
<path d="M738.7 130.9C738.7 130.9 745.1 131.7 748.3 130.1C748.3 130.1 746.5 134.4 743 134C739.5 133.7 738.7 130.9 738.7 130.9Z" fill="#303030"/>
<path d="M743.9 128.6C743.2 128.6 742.5 128.4 742.3 128.4L742.5 127.7C743.3 127.9 744.4 128 744.7 127.7C744.8 127.6 744.8 127.3 744.6 127C743.6 124.8 743.3 119.2 743.3 118.9H744.1C744.1 119 744.3 124.6 745.3 126.7C745.6 127.3 745.6 127.8 745.3 128.2C745 128.5 744.4 128.6 743.9 128.6Z" fill="#EF9789"/>
<path d="M731.6 125.2C731.6 125.2 731.9 121.3 732.5 118.9C732.5 118.9 731.4 113.9 734.3 111.1C734.3 111.1 738.5 111.7 743 111.7C747.5 111.7 750.6 111.1 750.6 111.1C750.6 111.1 752.8 113 752.5 118.1C752.5 118.1 753.5 121.6 754.4 125C754.4 125 760.3 104 741.8 104C723 104.1 731.6 125.2 731.6 125.2Z" fill="#140504"/>
<path d="M758 142.3C758 142.3 754.3 187.4 754.6 192.9C754.8 198.4 761.8 286.1 761.8 286.1C761.8 286.1 771.8 287.1 780.8 286.1C780.8 286.1 777.1 235.7 776.1 225.4C775.1 215.1 774.8 213 774.8 213L776.1 196.4V148.2C776.2 148.2 763.4 141.6 758 142.3Z" fill="#915349"/>
<path d="M755.1 181.8C755.1 181.8 761.8 150.4 764.5 148C767.2 145.6 770.7 146 771.2 144.2C771.9 141.6 765.5 137.4 763.2 137C760.9 136.6 755.3 138.6 755.3 138.6C755.3 138.6 752 159.7 755.1 181.8Z" fill="#754338"/>
<path d="M727.9 138.6C727.9 138.6 720.1 154.9 720.1 164.3C720.1 173.7 717.1 280 717.1 280H709.8C709.8 280 704.6 180.5 711.5 138.6H727.9Z" fill="#915349"/>
<path d="M720 175.5C720 175.5 717.9 154.8 718 153.4C718.1 152 720.9 140.6 720.9 140.6L716.6 138.6C716.6 138.6 719.4 134.1 722.1 134.2C724.8 134.3 731.4 135.6 732.6 137.1C733.7 138.5 724.3 144.4 720 175.5Z" fill="#754338"/>
<path d="M776.2 148.2C776.2 148.2 788.5 164.9 788.5 166.7C788.5 168.5 788.5 168.5 788.5 168.5C788.5 168.5 801.5 201.8 801.5 203.6C801.5 205.5 787.2 237.1 784.8 236.6C782.5 236.2 778.1 249.9 778.1 249.9C778.1 249.9 775.8 236.4 773.4 231.5L778.5 222.2L778.8 218.2L787.4 204L774.1 177.5C772.2 158.3 776.2 148.2 776.2 148.2Z" fill="#754338"/>
<path d="M741.5 102.8C744.6 102.6 750.6 102.1 755.7 105.6C760.8 109.1 752.7 115.1 746.5 114.7C746.5 114.7 747.5 114.7 748.3 113.4C748.3 113.4 743.3 115.5 737.8 114.7C737.8 114.7 741.5 114.5 743 113.8C743 113.8 735.7 113.5 731.4 113C729.1 112.8 724.7 103.9 741.5 102.8Z" fill="#140504"/>
<path d="M738.3 138.6C738.3 138.6 741.1 141.3 748.4 138.6C748.4 138.6 749.8 137.7 750.6 138.6C751.4 139.5 752.9 144.2 752.9 144.2C752.9 144.2 748 152.3 742.3 151.4C736.5 150.5 734.3 142.7 734.3 142.7C734.3 142.7 735.9 137.6 738.3 138.6Z" fill="#083044"/>
<path d="M276.301 284.5C284.801 280.7 345.801 296.5 345.801 296.5C345.801 296.5 329.901 226.6 332.001 200C334.101 173.3 288.301 185.3 288.301 185.3L276.301 284.5Z" fill="#512F2A"/>
<path d="M324.501 311.7C324.501 311.7 333.001 332.3 321.301 378.2H314.401C314.401 378.2 312.301 318.1 310.901 311.7C309.801 306.7 307.701 289.6 307.001 275V274.9C306.901 273.5 306.901 272.2 306.901 270.9C306.501 271 306.101 271 305.701 271.1C305.401 271.1 305.001 271.1 304.701 271.1C304.601 271.1 304.601 271.1 304.501 271.1C304.901 277.5 305.101 284.6 305.101 291.2C305.101 300.5 304.801 308.6 304.401 311.8C303.601 318.1 308.001 378.3 308.001 378.3L301.101 378.1C285.001 331.8 290.801 311.3 290.801 311.3C290.801 311.3 276.101 269.6 279.401 254.9C282.701 240.2 290.401 229.3 290.401 229.3L303.301 231.4L303.401 231.2L304.401 231.4H304.601L317.901 234C317.901 234 320.901 239.1 324.401 247.1C324.601 247.5 324.701 247.9 324.901 248.3C326.301 251.6 327.701 255.3 329.001 259.4C333.301 274.2 324.501 311.7 324.501 311.7Z" fill="#CAEAF9"/>
<path d="M303.7 263.9C304.2 266.3 304.8 268.7 305.6 271.1C305.3 271.1 304.9 271.1 304.6 271.1C299.3 254.1 301.9 236.8 301.9 236.6L302.9 236.8C302.9 237 301 249 303.6 262.9C303.9 262.8 304.3 262.6 304.6 262.2C305.1 261.5 305.6 260.1 304.8 257.1C303.1 250.5 304.7 237.6 304.8 237.1L305.8 237.2C305.8 237.3 304.2 250.5 305.8 256.9C306.5 259.7 306.4 261.7 305.4 262.9C304.8 263.5 304.2 263.7 303.7 263.9Z" fill="#B5C4C9"/>
<path d="M324.501 248.3C316.701 246.5 312.701 237.3 312.601 236.9L313.501 236.5C313.501 236.6 317.201 245 324.001 247.1C324.201 247.5 324.401 247.9 324.501 248.3Z" fill="#B5C4C9"/>
<path d="M315.2 139.2C327.6 140.9 331.1 150.3 330.9 158.9C330.7 167.5 329.7 213 329.7 213C329.7 213 306.2 220.4 298.3 201.6C290.4 182.8 289.6 172.3 294.8 165.8C295.9 164.5 296.5 160.4 297.1 155.1C298.2 144.4 304.1 137.6 315.2 139.2Z" fill="#010405"/>
<path d="M350.501 253.3C350.701 258.3 346.901 271.2 345.801 269C342.301 261.6 350.501 253.3 350.501 253.3Z" fill="#512F2A"/>
<path d="M258.501 212.9C257.801 210.5 265.901 198.1 268.101 199.8C268.101 199.8 267.301 217.8 264.801 218.3C262.301 218.8 258.501 212.9 258.501 212.9Z" fill="#512F2A"/>
<path d="M286.3 173.9L262.9 217.9C262.9 217.9 263.5 226.5 267.8 227.5C272 228.5 288.7 211 288.7 211L286.3 173.9Z" fill="#754338"/>
<path d="M337 245.5C339 252.5 349.2 268.6 355.6 274.6L358.9 271.8C358.9 271.8 349.3 253.2 348.1 246.3C346.8 239.4 343.5 235.5 338.7 235.7C333.8 236 336.6 244 337 245.5Z" fill="#FFD3C2"/>
<path d="M261.9 215C259.5 208.1 258.7 189.1 260.5 180.5L264.8 180.9C264.8 180.9 267.6 201.7 270.5 208C273.4 214.4 272.9 219.5 268.8 222.1C264.7 224.7 262.4 216.5 261.9 215Z" fill="#FFD3C2"/>
<path d="M335.8 180.8C335.8 180.8 341.1 196.5 341.9 223.4C341.9 223.4 343.2 224.7 343 225.7C342.8 226.7 344.3 228.8 344 229.3C343.7 229.7 350.5 253.4 350.5 253.4C350.5 253.4 344.8 258.7 345.8 269.1L334.5 245.6C334.5 245.5 331.1 186.7 335.8 180.8Z" fill="#754338"/>
<path d="M288.7 234.4C288.7 234.4 292.3 238.5 302.3 239.6C312.3 240.7 318.5 236.6 317.9 233.8C317.3 231 290.5 230.6 290.5 230.6L288.7 234.4Z" fill="#754338"/>
<path d="M317.1 234.5C317.1 234.5 302.4 239.7 288.6 229.2C288.6 229.2 286 176.4 290.9 172.8C293 171.2 297.3 172.5 301.3 174.4C306.5 176.8 311.6 180.3 311.6 180.3C311.6 180.3 320.7 179 327.9 179.8C332.5 180.3 336.3 181.6 336.4 184.7C336.9 192.6 317.1 234.5 317.1 234.5Z" fill="#FFD3C2"/>
<path d="M328.3 180C325.2 179.7 324.7 182 321.6 183.1C318.5 184.2 314.8 185.1 313.4 185.2C312 185.3 311.3 187.1 311.3 187.1C311.3 187.1 310.8 184.8 310 184.5C309.3 184.3 302.7 177.7 301.4 174.4C306.6 176.8 311.7 180.3 311.7 180.3C311.7 180.3 320.8 179 328 179.8C328.1 180 328.3 180 328.3 180Z" fill="#F7BDAD"/>
<path d="M310.401 162.9C310.401 162.9 311.601 177 307.601 179C307.601 179 310.501 184.3 318.301 181.1C318.301 181.1 317.001 173.8 322.101 165.2C325.601 159.5 310.401 162.9 310.401 162.9Z" fill="#F7BDAD"/>
<path d="M324.601 158.1C324.601 158.1 327.501 154.7 328.201 158.4C329.001 162.6 325.201 164.7 324.401 163.4C323.501 162 324.601 158.1 324.601 158.1Z" fill="#FFD8CC"/>
<path d="M302.501 160C302.501 160 299.101 157.1 299.001 160.8C298.901 165.1 302.901 166.5 303.501 165.1C304.101 163.7 302.501 160 302.501 160Z" fill="#FFD8CC"/>
<path d="M315.001 174.4C322.001 173.9 325.601 169 324.601 155.3C324.101 148.2 320.101 144.1 312.301 144.7C304.401 145.3 301.501 149.9 302.001 157C303.101 171.7 307.801 174.9 315.001 174.4Z" fill="#FFD8CC"/>
<path d="M304.701 161.7C304.601 162.4 305.301 163.1 306.201 163.1C307.101 163.2 307.901 162.7 307.901 162C308.001 161.3 307.301 160.6 306.401 160.6C305.501 160.4 304.801 160.9 304.701 161.7Z" fill="#DB614D"/>
<path d="M319.101 160.9C319.201 161.6 320.001 162.1 320.901 162C321.801 161.9 322.401 161.2 322.301 160.5C322.201 159.8 321.401 159.3 320.501 159.4C319.701 159.5 319.001 160.2 319.101 160.9Z" fill="#DB614D"/>
<path d="M307.201 154.2C307.301 154.3 307.501 154.2 307.601 154.1C308.501 153 310.201 152.9 310.201 152.9C310.401 152.9 310.501 152.7 310.501 152.5C310.501 152.3 310.301 152.2 310.101 152.2C310.001 152.2 308.101 152.3 307.001 153.6C306.901 153.9 307.001 154.1 307.201 154.2C307.101 154.2 307.201 154.2 307.201 154.2Z" fill="#010405"/>
<path d="M317.301 152.4C317.401 152.4 317.401 152.4 317.501 152.4C317.501 152.4 319.201 152.2 320.301 153.2C320.401 153.3 320.701 153.3 320.801 153.2C320.901 153.1 320.901 152.8 320.801 152.7C319.501 151.5 317.601 151.7 317.501 151.8C317.301 151.8 317.201 152 317.201 152.2C317.201 152.2 317.201 152.3 317.301 152.4Z" fill="#010405"/>
<path d="M308.201 158C308.301 158.9 308.701 159.5 309.201 159.5C309.701 159.5 310.001 158.7 310.001 157.9C309.901 157 309.501 156.4 309.001 156.4C308.501 156.3 308.201 157.1 308.201 158Z" fill="#303030"/>
<path d="M318.101 157.2C318.201 158.1 318.601 158.7 319.101 158.7C319.601 158.7 319.901 157.9 319.901 157.1C319.801 156.2 319.401 155.6 318.901 155.6C318.401 155.6 318.101 156.4 318.101 157.2Z" fill="#303030"/>
<path d="M317.401 165.8C317.401 165.8 313.101 166.7 310.701 165.7C310.701 165.7 312.201 168.8 314.601 168.4C317.001 167.9 317.401 165.8 317.401 165.8Z" fill="#303030"/>
<path d="M310.6 157.3C310.6 157.3 309.8 155.2 309 155.4C308.2 155.6 307.7 157.5 307.7 157.5L306.4 156.9L307.7 157C307.7 157 308.2 155 309 155C310.1 154.9 310.6 157.3 310.6 157.3Z" fill="#303030"/>
<path d="M317.4 157.1C317.4 157.1 317.9 154.9 318.7 155C319.6 155.1 320.3 156.9 320.3 156.9L321.5 156.1L320.3 156.4C320.3 156.4 319.5 154.5 318.7 154.6C317.5 154.6 317.4 157.1 317.4 157.1Z" fill="#303030"/>
<path d="M313.601 162.4C313.801 162.5 313.901 162.5 314.101 162.6L314.201 161.9C313.601 161.8 313.401 161.4 313.401 161.1C313.401 160.7 313.601 160.3 313.801 160.2C313.901 160.1 314.101 160.2 314.201 160.4L314.801 159.9C314.301 159.2 313.701 159.3 313.501 159.4C312.901 159.6 312.501 160.4 312.601 161.1C312.701 161.7 313.001 162.2 313.601 162.4Z" fill="#DB614D"/>
<path d="M313.401 145.7C313.401 145.7 304.901 161 300.401 158.9C300.401 158.9 299.201 142.5 312.201 142.5C325.201 142.5 327.801 149.8 327.801 157.1C327.801 157.1 326.001 159.8 324.401 159.4C324.301 159.4 326.301 146 313.401 145.7Z" fill="#010405"/>
<path d="M366.5 274.5C361.1 273.8 360.6 269.3 356.2 270.5C355.3 270.8 354.7 271.3 354.4 271.9C353.8 273 354 274.4 354.7 275.5C356.4 277.9 358.1 281.5 358.8 283.4C359.6 285.5 360.1 284.5 360.1 284.5C360.2 284.7 360.2 284.9 360.2 285.1C360.5 286.6 360.6 287.7 361.4 286.8C362.3 285.8 361.5 281.5 361.5 281.5C364.1 287.3 363 288.6 363.9 287.8C365.1 286.7 363.7 281.3 363.6 281.2C365.7 284.4 366 286.5 366.5 285.5C367.1 284.5 364.1 278.3 363 276.1C362.7 275.6 362.6 275.3 362.6 275.3C366.9 276 366.5 274.5 366.5 274.5Z" fill="#FFD3C2"/>
<path d="M363 276C362.7 275.5 362.6 275.2 362.6 275.2C362.6 275.2 360.9 275.9 359 274.3C359 274.2 360.1 276.7 363 276Z" fill="#F7BDAD"/>
<path d="M359.101 280C359.301 280.5 360.301 283.4 360.001 284.4C360.101 284.6 360.101 284.8 360.101 285C361.201 284.5 359.401 280.6 359.101 280Z" fill="#FFD3C2"/>
<path d="M336.401 190.5C334.601 201.5 328.701 242.2 303.601 237C303.501 237 303.401 236.9 303.301 236.9C303.001 236.8 302.601 236.8 302.301 236.7C278.801 231.6 285.801 229.2 285.801 229.2C285.801 229.2 276.301 170.5 295.001 172.3C295.001 172.3 308.801 189.6 309.101 196.5C309.101 196.9 309.101 197.2 309.001 197.6C309.101 197.4 309.401 196.6 310.501 195.1C312.601 192.4 317.801 187.4 329.901 180.3C330.001 180.2 338.301 179.6 336.401 190.5Z" fill="#FFD39F"/>
<path d="M328.301 179C328.301 179 320.701 202.4 320.801 218.4C320.901 234.4 341.901 299.5 341.901 299.5C341.901 299.5 344.401 298.5 345.901 296.5C345.901 296.5 336.601 225.5 336.501 218C336.401 210.5 338.101 185.2 335.901 180.8C335.801 180.8 334.701 179.4 328.301 179Z" fill="#915349"/>
<path d="M297.5 172.9C297.5 172.9 298.3 201.5 297.5 207.3C296.7 213.1 290.9 245.3 287.7 256.4C284.5 267.4 280.4 290.1 280.4 290.1L276.4 284.6C276.4 284.6 273.9 262.4 276.4 251.1C278.9 239.8 281.9 231.8 282.1 229.3C282.4 226.8 280.4 190.7 286.4 174C286.3 173.9 291.6 170.4 297.5 172.9Z" fill="#915349"/>
<path d="M310.701 195C310.301 196.9 309.301 199.1 308.301 201.4C307.101 204.1 305.901 207 305.601 209.2C305.401 210.5 305.501 212.5 305.501 215C305.501 220.8 305.601 229.2 303.301 236.9C303.001 236.8 302.601 236.8 302.301 236.7C304.501 229.2 304.501 220.8 304.401 215C304.401 212.4 304.401 210.4 304.501 209C304.801 206.6 306.001 203.7 307.301 200.9C308.001 199.3 308.701 197.8 309.101 196.4C309.101 196.8 309.101 197.1 309.001 197.5C309.201 197.3 309.501 196.5 310.701 195Z" fill="#FCC288"/>
<path d="M268.101 199.8C268.101 199.8 262.001 216.5 258.501 212.9C258.501 212.9 262.801 226.8 267.801 227.5C272.801 228.2 275.101 208.2 275.101 208.2C275.101 208.2 270.801 200.9 270.301 201.6C269.801 202.3 269.601 203.8 269.601 203.8L268.101 199.8Z" fill="#754338"/>
<path d="M304.101 239.7C308.401 241.3 314.601 261.3 314.001 276.1C314.001 276.1 314.101 277.7 315.601 276.1C315.601 276.1 313.201 240.2 304.201 237.1L304.101 239.7Z" fill="#754338"/>
<path d="M305.101 237.1C305.101 237.1 305.701 240.6 302.301 240.4C298.901 240.2 298.701 237.5 300.201 236.3C301.701 235 305.101 237.1 305.101 237.1Z" fill="#512F2A"/>
<path d="M296.101 165.2C291.401 169.3 291.101 173.9 295.901 182.2C300.701 190.5 299.701 200.8 299.701 200.8C299.701 200.8 309.201 191.4 302.401 174L296.101 165.2Z" fill="#010405"/>
<path d="M298.501 376.5C298.501 376.5 300.801 381.6 300.101 385.1C299.701 387.2 297.401 389.9 299.201 393.2H313.201C313.201 393.2 314.801 389.4 311.501 386C309.701 384.1 308.301 375.1 308.301 375.1C306.701 375.3 307.101 376.6 307.101 376.6C307.101 376.6 307.101 372.4 303.601 372.9C299.301 373.6 300.401 377.3 300.401 377.3C300.401 377.3 300.001 375.9 298.501 376.5Z" fill="#512F2A"/>
<path d="M299.801 388C299.801 388 303.601 383 311.501 387C311.501 387 311.801 390.5 308.201 389.8C304.401 389.2 302.301 391.9 299.801 388Z" fill="#754338"/>
<path d="M322.7 376.5C322.7 376.5 321.7 382.2 323.1 384.1C324.7 386.3 333 386.5 329 393.2H315C315 393.2 312.8 391.8 313.7 386C314.4 381 312.9 375.1 312.9 375.1C314.5 375.3 315.1 376.6 315.1 376.6C315.1 376.6 315.1 372.4 318.6 372.9C322.9 373.6 321.8 377.3 321.8 377.3C321.8 377.3 322.1 376.4 322.7 376.5Z" fill="#512F2A"/>
<path d="M316.7 388C316.7 388 321.4 383.4 328.7 387.8C328.7 387.8 328.7 390.5 325 389.8C321.4 389.2 319.2 391.9 316.7 388Z" fill="#754338"/>
<path d="M270.101 172.1C270.101 172.1 270.101 172.1 267.801 177.2C265.601 182.3 264.901 181.6 261.901 182.3C259.201 182.9 257.501 178.1 257.301 175.9C257.201 174.1 254.201 170.4 254.501 168.8C254.601 168.2 255.001 168.5 255.801 169.8C256.701 171.3 258.101 172.3 258.101 172.3C259.101 170.6 255.201 165.5 256.501 163.9C257.101 163.1 258.901 170.5 260.101 170.7C260.101 170.7 260.501 170.1 259.901 166.4C259.601 164.3 259.201 162.1 259.801 161.7C260.801 161 260.801 165.5 262.601 170.4C262.601 170.4 262.601 168.1 262.601 165.9C262.501 163.9 262.201 162.1 263.101 162.1C263.801 162.1 263.901 165.2 264.001 167.2C264.201 170.9 265.201 173.5 265.801 174.9C266.101 175.5 266.301 175.9 266.301 175.9C269.001 170.9 270.101 172.1 270.101 172.1Z" fill="#FFD3C2"/>
<path d="M266.301 175.9C266.301 175.9 264.001 176.7 263.301 178.4C263.301 178.4 262.801 175.6 265.801 174.9C266.101 175.5 266.301 175.9 266.301 175.9Z" fill="#F7BDAD"/>
<path d="M602.5 188.6C595.7 198.2 602.5 210.6 603.1 236.6C603.1 236.6 600.1 250.1 598.3 262.3C596.5 274.5 593.8 285.7 593.8 285.7L598.5 288.2C598.5 288.2 611.9 253.8 613.5 237.8L610.9 195L602.5 188.6Z" fill="#FFCBBB"/>
<path d="M601.8 147.5C609.7 135.9 627.4 138.7 633 146.9C639.7 156.9 634.3 178.8 634.3 178.8C634.3 178.8 615.2 167.5 603.6 186.2C603.6 186.2 593 160.4 601.8 147.5Z" fill="#CE364C"/>
<path d="M623.3 166C623.3 166 623.4 174.6 627.5 181.8C627.5 181.8 625.1 187.4 617.1 184.8C617.1 184.8 617.8 177.5 611.9 169.3C607.8 164 623.3 166 623.3 166Z" fill="#FFCBBB"/>
<path d="M606.601 161.8C606.601 161.8 603.101 159 603.101 162.7C603.101 167 607.201 168.3 607.801 166.8C608.401 165.5 606.601 161.8 606.601 161.8Z" fill="#FF8B66"/>
<path d="M628.6 159.5C628.6 159.5 631.4 156 632.2 159.6C633.1 163.8 629.5 166 628.6 164.7C627.7 163.5 628.6 159.5 628.6 159.5Z" fill="#FCD2C3"/>
<path d="M619 176C612 176.8 607.5 172.7 606 159C605.2 151.9 608.3 147.2 616.1 146.3C623.9 145.4 627.7 149.3 628.5 156.4C630.2 171.1 626.3 175.2 619 176Z" fill="#FCD2C3"/>
<path d="M626.801 161.6C627.001 162.3 626.501 163.1 625.601 163.3C624.701 163.6 623.901 163.2 623.701 162.5C623.501 161.8 624.001 161 624.901 160.8C625.701 160.5 626.601 160.9 626.801 161.6Z" fill="#DB614D"/>
<path d="M612.5 163.6C612.5 164.3 611.8 164.9 610.9 165C610 165 609.2 164.5 609.2 163.8C609.2 163.1 609.9 162.5 610.8 162.4C611.7 162.3 612.4 162.9 612.5 163.6Z" fill="#DB614D"/>
<path d="M622.901 154.8C622.801 154.9 622.601 154.9 622.501 154.8C621.401 153.9 619.701 154.1 619.701 154.1C619.501 154.1 619.301 154 619.301 153.8C619.301 153.6 619.401 153.4 619.601 153.4C619.701 153.4 621.601 153.1 623.001 154.2C623.101 154.3 623.101 154.6 622.901 154.8C623.001 154.7 623.001 154.8 622.901 154.8Z" fill="#CE364C"/>
<path d="M612.6 154.9C612.6 154.9 612.5 155 612.4 155C612.4 155 610.7 155.2 609.8 156.3C609.7 156.5 609.5 156.5 609.3 156.4C609.1 156.3 609.1 156.1 609.2 155.9C610.2 154.5 612.2 154.3 612.3 154.3C612.5 154.3 612.7 154.4 612.7 154.6C612.8 154.7 612.7 154.8 612.6 154.9Z" fill="#CE364C"/>
<path d="M622.6 158.6C622.7 159.5 622.4 160.2 621.9 160.3C621.4 160.4 620.9 159.7 620.8 158.8C620.7 157.9 621 157.2 621.5 157.1C622 157.1 622.5 157.7 622.6 158.6Z" fill="#303030"/>
<path d="M612.9 159.7C613 160.6 612.7 161.3 612.2 161.4C611.7 161.5 611.2 160.8 611.1 159.9C611 159 611.3 158.3 611.8 158.2C612.3 158.2 612.8 158.9 612.9 159.7Z" fill="#303030"/>
<path d="M615.101 168C615.101 168 619.501 168.1 621.601 166.7C621.601 166.7 620.701 170.1 618.301 170.1C615.901 170 615.101 168 615.101 168Z" fill="#303030"/>
<path d="M620.2 158.5C620.2 158.5 620.6 156.3 621.4 156.3C622.3 156.4 623.1 158.1 623.1 158.1L624.3 157.3L623.1 157.6C623.1 157.6 622.2 155.8 621.4 155.9C620.2 156 620.2 158.5 620.2 158.5Z" fill="#303030"/>
<path d="M613.501 159.5C613.501 159.5 612.601 157.4 611.801 157.7C611.001 157.9 610.601 159.9 610.601 159.9L609.301 159.4H610.601C610.601 159.4 611.001 157.4 611.901 157.3C612.901 157.1 613.501 159.5 613.501 159.5Z" fill="#303030"/>
<path d="M618.2 164C618.1 164.1 617.9 164.2 617.7 164.3L617.4 163.6C618 163.4 618.1 163 618.1 162.7C618.1 162.3 617.8 161.9 617.5 161.9C617.4 161.9 617.2 162 617.1 162.2L616.4 161.9C616.8 161.1 617.4 161.1 617.6 161.2C618.2 161.3 618.7 162 618.8 162.7C618.9 163.2 618.7 163.7 618.2 164Z" fill="#DB614D"/>
<path d="M618.401 147.4C618.401 147.4 608.801 150.1 607.901 162.3C607.101 174.5 600.501 176 600.501 176C600.501 176 590.901 135.7 618.901 139.7C618.901 139.7 624.901 139 629.801 144.7C634.701 150.4 628.901 162.2 628.901 162.2C628.901 162.2 628.501 156.7 627.501 155.7C627.401 155.9 621.801 153.9 618.401 147.4Z" fill="#CE364C"/>
<path d="M658.2 254.2C653.9 239.4 645.5 228.5 645.5 228.5L632.8 230.6L632.7 230.4L631.7 230.6H631.6L618.5 233.2C618.5 233.2 612.8 243.7 609.1 258.6C605.3 273.5 616.6 311.1 616.6 311.1C616.6 311.1 610.3 328.7 624.9 374.7H631.8C631.8 374.7 629.2 317.4 630.2 311.1C631.1 305.6 632.2 285.5 631.6 270.2C632.4 270.4 633.2 270.4 634.1 270.4C634.1 285.8 635.8 305.8 636.9 311.2C638.1 317.5 637.5 374.9 637.5 374.9L644.4 374.7C657.5 328.2 650.6 310.8 650.6 310.8C650.6 310.8 662.4 269 658.2 254.2Z" fill="#FFCBBB"/>
<path d="M646.8 228.9C633 239.3 618.3 234.2 618.3 234.2C618.3 234.2 614.5 227.8 609.2 215.2C605.8 212.5 605.1 208.5 605.2 205.3C602.6 198.6 599.2 193.9 601 190.5C602.5 187.6 607.3 185.8 612.1 184.2C612.5 184.1 612.9 184 613.3 183.8C616.2 182.8 619.1 182 620.8 181.1C623.8 179.5 626.1 178 627.9 176.4C628.6 175.8 629.3 175.1 629.9 174.5C632.5 171.5 633.9 168.1 635.9 163.3C636.7 161.3 648.1 155.6 648.8 191.1C649 204 647.1 205.3 646.6 215C646.1 222.9 646.8 228.9 646.8 228.9Z" fill="#98D1ED"/>
<path d="M647.301 380.6C646.901 377.7 647.901 375.7 647.201 374.3C646.001 372.2 644.801 374.9 644.801 374.9C644.701 371.6 639.201 371.6 638.701 373.1C638.601 373.5 638.401 373.9 638.201 374.2C637.901 373.4 637.301 372.6 636.501 373.1C633.601 374.9 637.201 379.4 634.601 382.7C631.201 386.9 633.301 393.2 633.301 393.2H649.501C651.401 384.3 647.701 383.5 647.301 380.6Z" fill="#8BBDDB"/>
<path d="M637.301 379.5C637.301 379.5 641.101 377.5 646.201 380.2L645.201 378.4C645.201 378.4 641.801 376.3 637.701 377.9L637.301 379.5Z" fill="#CFD8DC"/>
<path d="M636.601 382.6C636.601 382.6 642.101 380.7 647.101 383.4L646.101 381.5C646.101 381.5 641.301 379.4 637.201 381L636.601 382.6Z" fill="#CFD8DC"/>
<path d="M621.4 380.6C621.8 377.7 620.8 375.7 621.5 374.3C622.7 372.2 623.9 374.9 623.9 374.9C624 371.6 629.5 371.6 630 373.1C630.1 373.5 630.3 373.9 630.5 374.2C630.8 373.4 631.4 372.6 632.2 373.1C635.1 374.9 631.5 379.4 634.1 382.7C637.5 386.9 635.4 393.2 635.4 393.2H619.2C617.3 384.3 621 383.5 621.4 380.6Z" fill="#8BBDDB"/>
<path d="M631.4 379.5C631.4 379.5 627.6 377.5 622.5 380.2L623.5 378.4C623.5 378.4 626.9 376.3 631 377.9L631.4 379.5Z" fill="#CFD8DC"/>
<path d="M632.101 382.6C632.101 382.6 626.601 380.7 621.601 383.4L622.601 381.5C622.601 381.5 627.401 379.4 631.501 381L632.101 382.6Z" fill="#CFD8DC"/>
<path d="M587.1 289.2C592.4 288 592.4 283.4 597 284.2C597.9 284.4 598.5 284.8 598.9 285.4C599.6 286.5 599.6 287.9 599 289C597.5 291.6 596.2 295.3 595.8 297.2C595.2 299.4 594.6 298.4 594.6 298.4C594.6 298.6 594.5 298.8 594.5 299C594.3 300.5 594.4 301.7 593.5 300.8C592.5 299.9 592.8 295.6 592.8 295.6C590.8 301.6 592.1 302.8 591.1 302.1C589.8 301.1 590.7 295.6 590.7 295.5C588.9 298.9 588.9 301 588.2 300.1C587.5 299.1 589.9 292.7 590.8 290.4C591 289.9 591.1 289.5 591.1 289.5C586.9 290.7 587.1 289.2 587.1 289.2Z" fill="#FFCBBB"/>
<path d="M590.8 290.3C591 289.8 591.1 289.4 591.1 289.4C591.1 289.4 592.9 289.9 594.5 288.1C594.6 288.2 593.8 290.8 590.8 290.3Z" fill="#EDBEB2"/>
<path d="M595.1 293.9C595 294.4 594.3 297.4 594.6 298.4C594.6 298.6 594.5 298.8 594.5 299C593.4 298.6 594.8 294.5 595.1 293.9Z" fill="#FFCBBB"/>
<path d="M634.6 382.7C634.6 382.7 631.4 386.8 632.7 393.2H635.4C635.4 393.2 636 387.4 634.6 382.7Z" fill="#6197AD"/>
<path d="M636.5 93.6C636.5 93.6 636.5 93.6 638.1 98.9C639.7 104.2 640.5 103.6 643.3 104.7C645.9 105.7 648.2 101 648.6 98.9C649 97.1 652.4 93.8 652.2 92.2C652.2 91.6 651.7 91.9 650.8 93C649.7 94.4 648.2 95.2 648.2 95.2C647.4 93.4 651.9 88.9 650.8 87.1C650.3 86.2 647.6 93.4 646.4 93.5C646.4 93.5 646.1 92.9 647.1 89.3C647.7 87.2 648.3 85.1 647.8 84.6C646.9 83.7 646.4 88.3 643.9 92.9C643.9 92.9 644.1 90.6 644.5 88.4C644.8 86.4 645.4 84.6 644.5 84.6C643.8 84.5 643.3 87.6 643 89.6C642.3 93.2 641 95.7 640.3 97C639.9 97.6 639.7 97.9 639.7 97.9C637.7 92.5 636.5 93.6 636.5 93.6Z" fill="#FFCBBB"/>
<path d="M639.8 97.7C639.8 97.7 642 98.7 642.4 100.6C642.4 100.6 643.2 97.9 640.4 96.8C640.1 97.4 639.8 97.7 639.8 97.7Z" fill="#EDBEB2"/>
<path d="M640.9 101.2C640.9 101.2 637 127.5 635.6 137.6C634.8 143.7 636.3 174.3 636.3 174.3C636.3 174.3 639.9 187.9 643.9 187.2C646.9 186.7 647.5 182.4 647.7 175.3C647.9 168.2 643.6 152.3 644.2 144.6C645.4 129.2 644.2 122 645.6 102.6L640.9 101.2Z" fill="#FFCBBB"/>
<path d="M660.5 295.2C660.3 297.7 660.2 299.2 660.2 299.2C660.2 299.2 640.9 310.7 635.5 301.4C635.5 301.4 634.6 301.1 633.7 295.8V295.7C633.3 293.2 632.8 289.5 632.5 284.2C632.6 285.6 632.9 291.9 632.8 297C632.8 298.7 632.7 300.2 632.5 301.4C632.5 301.4 625.3 309.9 608 300.4C608 300.4 607.8 299.2 607.5 297C606.6 290.2 605.3 274.1 609.1 257.3C610.9 249.4 613.8 241.4 618.4 234.1C618.4 234.1 619.6 234.1 621.5 234C623.4 233.9 626.1 233.7 629 233.4C629.8 233.3 630.6 233.2 631.5 233.1C634.6 232.7 637.9 232 641 231.2C643.2 230.6 645.2 229.8 647 229C647 229 654.3 238.2 658.3 250C659.1 252.4 659.8 254.9 660.3 257.4C662.2 268.9 661.1 287.2 660.5 295.2Z" fill="#177CBA"/>
<path d="M658.101 249.9C648.301 247.9 643.101 237.5 640.801 231.1C643.001 230.5 645.001 229.7 646.801 228.9C646.801 228.9 654.101 238.1 658.101 249.9Z" fill="#15709E"/>
<path d="M621.4 234C619.9 238.8 617.3 246.7 616.1 250.2C615.3 252.5 612.2 255.1 609 257.3C610.8 249.4 613.7 241.4 618.3 234.1C618.3 234.2 619.5 234.2 621.4 234Z" fill="#15709E"/>
<path d="M632.4 284.1C629.2 269.9 628.9 244.4 628.9 233.4C629.7 233.3 630.5 233.2 631.4 233.1C634.7 256.8 630.7 255.4 630.7 255.4C630.2 263.9 632.3 283 632.4 284.1Z" fill="#15709E"/>
<path d="M632.7 297C632.7 298.7 632.6 300.2 632.4 301.4C632.4 301.4 625.2 309.9 607.9 300.4C607.9 300.4 607.7 299.2 607.4 297C611.2 299.2 616.8 302 621.4 302.6C627.1 303.4 631.1 299.2 632.7 297Z" fill="#15709E"/>
<path d="M660.5 295.2C660.3 297.7 660.2 299.2 660.2 299.2C660.2 299.2 640.9 310.7 635.5 301.4C635.5 301.4 634.6 301.1 633.7 295.7C633.7 296 634.5 299.5 641.7 301.7C646.7 303.3 655.5 298.4 660.5 295.2Z" fill="#15709E"/>
<path d="M647.001 230.2C646.201 234 621.701 236.7 617.501 235.4C617.501 235.4 616.801 233.6 616.601 232.3C616.501 231.6 616.401 231.1 616.601 231C616.601 231 631.501 232.2 646.601 225.1C646.601 225.1 646.901 225.4 647.101 226.3C647.301 227.1 647.401 228.4 647.001 230.2Z" fill="#105E99"/>
<path d="M647.001 230.2C646.201 234 621.701 236.7 617.501 235.4C617.501 235.4 616.801 233.6 616.601 232.3C616.601 232.3 630.801 233.8 647.101 226.2C647.301 227.1 647.401 228.4 647.001 230.2Z" fill="#0C476B"/>
<path d="M626.9 232C626.9 232 627 235.1 627.7 235.4C628.3 235.7 632.7 234.8 632.7 234.8C632.7 234.8 633.3 232.5 632.7 231.1L626.9 232Z" fill="#8BBDDB"/>
<path d="M637.4 228.9C637.4 228.9 638.4 230.9 638.6 234.4H640C640 234.4 640.2 230.4 639.1 228.5L637.4 228.9Z" fill="#105E99"/>
<path d="M621.301 232H622.801C622.801 232 623.001 234.1 623.901 237H622.601C622.501 236.9 620.701 235 621.301 232Z" fill="#105E99"/>
<path d="M629.8 174.4C626.8 181.1 621.1 194.5 619.8 205.4L619.6 206.6L618.9 205.7C618.5 205.2 609.3 193.5 612.1 184.2C612.5 184.1 612.9 184 613.3 183.8C610.6 191.3 616.8 201 619 204.1C620.4 194.5 624.8 183.3 627.9 176.4C628.6 175.7 629.2 175.1 629.8 174.4Z" fill="#CFD8DC"/>
<path d="M619.3 210.9C620.57 210.9 621.6 209.333 621.6 207.4C621.6 205.467 620.57 203.9 619.3 203.9C618.03 203.9 617 205.467 617 207.4C617 209.333 618.03 210.9 619.3 210.9Z" fill="#CFD8DC"/>
<path d="M620.4 207.4C620.4 208.7 619.7 209.8 618.9 209.8C618 209.8 617.4 208.7 617.4 207.4C617.4 206.1 618.1 205 618.9 205C619.8 205 620.4 206.1 620.4 207.4Z" fill="#0C476B"/>
<path d="M565.8 228C564.5 230 555.8 221.3 555.8 217.4C555.8 217.4 563.6 211.5 567.1 213.6C570.6 215.8 565.8 228 565.8 228Z" fill="#A3654A"/>
<path d="M560.1 210.7L552.9 222.7L545.7 226.9C545.7 226.9 547.2 234.1 550.5 235.8C553.8 237.5 556.5 226.2 556.5 226.2C556.5 226.2 567.2 218.4 571.5 209.6C575.9 200.7 560.1 210.7 560.1 210.7Z" fill="#F2AD8B"/>
<path d="M544.9 171.1C544.9 171.1 573.9 189.8 580.7 195.5C580.7 195.5 582.7 198.9 580.7 204.9C578.7 210.9 575.4 216 575.4 216C575.4 216 575.6 218.5 575.1 218.8C574.6 219 572.9 219.7 572.9 220.2C572.9 220.7 568.6 224.4 565.7 228C565.7 228 561.5 218.8 555.7 217.4L563.2 204.2C563.2 204.2 562.9 204 562.8 203.6C562.6 203 563.2 201.6 563.2 201.6L547.8 197.1L544.9 171.1Z" fill="#C47F58"/>
<path d="M477.9 196.5C475.2 195.9 468.5 204.1 468.3 209.6L477.3 214.4L477.9 196.5Z" fill="#A3654A"/>
<path d="M496.6 181.8C494.6 182.9 474.9 225.9 474.9 225.9C474.9 225.9 475.5 234.5 479.8 235.5C484 236.5 500.7 219 500.7 219C500.7 219 504.9 177.5 496.6 181.8Z" fill="#C47F58"/>
<path d="M473.9 223C471.5 216.1 470.7 197.1 472.5 188.5L476.8 188.9C476.8 188.9 479.6 209.7 482.5 216C485.4 222.4 484.9 227.5 480.8 230.1C476.7 232.6 474.4 224.5 473.9 223Z" fill="#F2AD8B"/>
<path d="M479.5 179.5C479.5 179.5 479.5 179.5 478.9 185C478.3 190.5 477.4 190.1 474.8 191.6C472.4 193 469.3 188.9 468.5 186.8C467.8 185.1 463.9 182.5 463.7 180.9C463.6 180.3 464.1 180.5 465.3 181.5C466.6 182.6 468.2 183.2 468.2 183.2C468.6 181.3 463.4 177.6 464.2 175.7C464.6 174.7 468.5 181.3 469.7 181.2C469.7 181.2 469.9 180.5 468.3 177.2C467.3 175.3 466.3 173.3 466.8 172.7C467.6 171.7 468.9 176.1 472.1 180.2C472.1 180.2 471.4 177.9 470.7 175.9C470 174 469.2 172.4 470 172.1C470.7 171.9 471.7 174.9 472.4 176.7C473.7 180.2 475.4 182.4 476.4 183.5C476.9 184 477.2 184.3 477.2 184.3C478.1 178.6 479.5 179.5 479.5 179.5Z" fill="#F2AD8B"/>
<path d="M477 184.2C477 184.2 475 185.6 474.9 187.5C474.9 187.5 473.6 185 476.2 183.4C476.7 183.9 477 184.2 477 184.2Z" fill="#E29A7A"/>
<path d="M520.4 134.9C504.2 134.1 500.9 148 502.7 164.4C504.5 180.8 500.7 201.6 498.4 209.7C496.2 217.8 499.4 224.9 499.4 224.9C499.4 224.9 497.4 218.8 500.9 209.7C500.9 209.7 495.3 228.3 510.4 231.8C525.5 235.3 528.8 229.9 533.2 203.9C537.6 177.9 543.9 136.1 520.4 134.9Z" fill="#1E0705"/>
<path d="M496.5 230.2C497.3 234.6 509.4 234.2 517.9 228.9C526.4 223.5 553.2 224.3 552.9 217.4C552.6 210.5 516.6 189.4 516.6 189.4C516.6 189.4 493.8 215.8 496.5 230.2Z" fill="#A86A54"/>
<path d="M493 373.9L499.7 375.5C499.7 375.5 510.2 319.1 512.6 313.2C514.7 308.1 523.6 288.4 526.5 273.3C526.6 273.4 527.6 273.2 528.8 273C529.1 272.9 529.4 272.9 529.8 272.8C530.1 272.7 530.4 272.7 530.8 272.6C531 287.7 534.3 306.2 535.3 311.4C536.5 317.7 535.9 375.1 535.9 375.1L542.8 374.9C555.9 328.4 549 311 549 311C549 311 561 269.2 556.8 254.4C555.4 249.5 553.6 245 552 241.3C551.9 241 551.7 240.7 551.6 240.4C548.4 233.4 545.5 229.1 545.5 229.1L531.4 230.9L531.3 230.7L530.9 230.8V235.2L529.1 235.1H528.7L522.9 234.8H522.1L517 234.5C517 234.5 513.9 239.4 509.6 247.2C509.4 247.5 509.3 247.8 509.1 248.1C507.6 250.9 505.9 254.1 504.1 257.5C497.1 271.1 499.5 310.3 499.5 310.3C499.5 310.3 489.2 325.8 493 373.9Z" fill="#F2AD8B"/>
<path d="M540.8 230.5C540.8 230.6 544.5 239.2 552 241.1C551.9 240.8 551.7 240.5 551.6 240.2C544.9 238.1 541.6 230.3 541.6 230.2L540.8 230.5Z" fill="#6097B2"/>
<path d="M509.1 247.8C517.5 246 521.8 237.2 522.9 234.5C523.1 234 523.2 233.7 523.2 233.7L522.5 233.5C522.5 233.5 522.4 233.9 522.1 234.5C520.9 237.3 517 245 509.6 246.9C509.4 247.2 509.2 247.5 509.1 247.8Z" fill="#6097B2"/>
<path d="M528.899 272.9C529.199 272.8 529.499 272.8 529.899 272.7C531.099 270.5 533.299 265.6 535.199 257.5C537.799 245.9 531.899 233.5 531.799 233.4L531.099 233.7C531.199 233.8 536.999 246 534.499 257.3C534.399 257.8 534.299 258.3 534.199 258.7C534.099 258.9 534.099 259.2 533.999 259.4C532.099 266.9 529.899 271.2 528.899 272.9Z" fill="#6097B2"/>
<path d="M534.299 259.5H534.399V258.8C533.999 258.8 533.499 258.6 533.199 258.2C532.699 257.6 531.599 255.8 532.499 251.4C533.699 245.5 529.299 235.1 529.099 234.7L528.399 235C528.399 235.1 532.899 245.6 531.799 251.3C530.899 255.9 531.999 257.9 532.699 258.7C533.099 259.2 533.699 259.5 534.299 259.5Z" fill="#6097B2"/>
<path d="M517 234.2C517 234.2 531.7 239.4 545.5 228.9C545.5 228.9 548.1 176.1 543.2 172.5C541.1 170.9 536.8 172.2 532.8 174.1C527.6 176.5 522.5 180 522.5 180C522.5 180 513.4 178.7 506.2 179.5C501.6 180 497.9 181.3 497.7 184.4C497.2 192.2 517 234.2 517 234.2Z" fill="#F2AD8B"/>
<path d="M505.8 179.7C508.9 179.4 509.4 181.7 512.5 182.8C515.6 183.9 519.3 184.8 520.7 184.9C522.1 185 522.8 186.8 522.8 186.8C522.8 186.8 523.3 184.5 524.1 184.2C524.8 184 531.4 177.4 532.7 174.1C527.5 176.5 522.4 180 522.4 180C522.4 180 513.3 178.7 506.1 179.5C505.9 179.6 505.8 179.7 505.8 179.7Z" fill="#E29A7A"/>
<path d="M546 380.6C545.6 377.7 546.6 375.7 545.9 374.3C544.7 372.2 543.5 374.9 543.5 374.9C543.4 371.6 537.9 371.6 537.4 373.1C537.3 373.5 537.1 373.9 536.9 374.2C536.6 373.4 536 372.6 535.2 373.1C532.3 374.9 535.9 379.4 533.3 382.7C529.9 386.9 532 393.2 532 393.2H548.2C550.1 384.3 546.4 383.5 546 380.6Z" fill="#C47F58"/>
<path d="M536 379.5C536 379.5 539.8 377.5 544.9 380.2L543.9 378.4C543.9 378.4 540.5 376.3 536.4 377.9L536 379.5Z" fill="#C47F58"/>
<path d="M535.3 382.6C535.3 382.6 540.8 380.7 545.8 383.4L544.8 381.5C544.8 381.5 540 379.4 535.9 381L535.3 382.6Z" fill="#C47F58"/>
<path d="M490.1 380.6C490.5 377.7 489.5 375.7 490.2 374.3C491.4 372.2 492.6 374.9 492.6 374.9C492.7 371.6 498.2 371.6 498.7 373.1C498.8 373.5 499 373.9 499.2 374.2C499.5 373.4 500.1 372.6 500.9 373.1C503.8 374.9 500.2 379.4 502.8 382.7C506.2 386.9 504.1 393.2 504.1 393.2H487.9C486 384.3 489.6 383.5 490.1 380.6Z" fill="#C47F58"/>
<path d="M500.1 379.5C500.1 379.5 496.3 377.5 491.2 380.2L492.2 378.4C492.2 378.4 495.6 376.3 499.7 377.9L500.1 379.5Z" fill="#C47F58"/>
<path d="M500.7 382.6C500.7 382.6 495.2 380.7 490.2 383.4L491.2 381.5C491.2 381.5 496 379.4 500.1 381L500.7 382.6Z" fill="#C47F58"/>
<path d="M523.6 162.6C523.6 162.6 522.4 176.7 526.4 178.7C526.4 178.7 523.5 184 515.7 180.8C515.7 180.8 517 173.5 511.9 164.9C508.4 159.2 523.6 162.6 523.6 162.6Z" fill="#E29A7A"/>
<path d="M508.5 155.7C508.5 155.7 505.6 152.3 504.9 156C504.1 160.2 507.9 162.3 508.7 161C509.6 159.7 508.5 155.7 508.5 155.7Z" fill="#F2AD8B"/>
<path d="M530.6 157.6C530.6 157.6 534 154.7 534.1 158.4C534.2 162.7 530.2 164.1 529.6 162.7C528.9 161.3 530.6 157.6 530.6 157.6Z" fill="#F2AD8B"/>
<path d="M518 172C511 171.5 507.4 166.6 508.4 152.9C508.9 145.8 512.9 141.7 520.7 142.3C528.6 142.9 531.5 147.5 531 154.6C529.9 169.4 525.3 172.6 518 172Z" fill="#F2AD8B"/>
<path d="M528.4 159.3C528.5 160 527.8 160.7 526.9 160.7C526 160.8 525.2 160.3 525.2 159.6C525.1 158.9 525.8 158.2 526.7 158.2C527.5 158.1 528.3 158.6 528.4 159.3Z" fill="#D88B6C"/>
<path d="M513.9 158.6C513.8 159.3 513 159.8 512.1 159.7C511.2 159.6 510.6 158.9 510.7 158.2C510.8 157.5 511.6 157 512.5 157.1C513.4 157.2 514 157.9 513.9 158.6Z" fill="#D88B6C"/>
<path d="M525.9 151.9C525.8 152 525.6 151.9 525.5 151.8C524.6 150.7 522.9 150.6 522.9 150.6C522.7 150.6 522.6 150.4 522.6 150.2C522.6 150 522.8 149.9 523 149.9C523.1 149.9 525 150 526.1 151.3C526.1 151.5 526.1 151.7 525.9 151.9Z" fill="#1E0705"/>
<path d="M515.7 150.1C515.6 150.1 515.6 150.1 515.5 150.1C515.5 150.1 513.8 149.9 512.7 150.9C512.6 151 512.3 151 512.2 150.9C512.1 150.8 512.1 150.5 512.2 150.4C513.5 149.2 515.4 149.4 515.5 149.5C515.7 149.5 515.8 149.7 515.8 149.9C515.9 149.9 515.8 150 515.7 150.1Z" fill="#1E0705"/>
<path d="M524.8 155.6C524.7 156.5 524.3 157.1 523.8 157.1C523.3 157.1 523 156.3 523 155.5C523.1 154.6 523.5 154 524 154C524.5 154 524.9 154.8 524.8 155.6Z" fill="#303030"/>
<path d="M514.9 154.8C514.8 155.7 514.4 156.3 513.9 156.3C513.4 156.3 513.1 155.5 513.1 154.7C513.2 153.8 513.6 153.2 514.1 153.2C514.7 153.2 515 153.9 514.9 154.8Z" fill="#303030"/>
<path d="M515.7 163.4C515.7 163.4 520 164.3 522.4 163.3C522.4 163.3 520.9 166.4 518.5 166C516.1 165.6 515.7 163.4 515.7 163.4Z" fill="#303030"/>
<path d="M522.5 155C522.5 155 523.3 152.9 524.1 153.1C524.9 153.3 525.4 155.2 525.4 155.2L526.7 154.6L525.4 154.7C525.4 154.7 524.9 152.7 524.1 152.7C523 152.6 522.5 155 522.5 155Z" fill="#303030"/>
<path d="M515.7 154.8C515.7 154.8 515.2 152.6 514.4 152.7C513.5 152.8 512.8 154.6 512.8 154.6L511.6 153.8L512.8 154.1C512.8 154.1 513.6 152.2 514.4 152.3C515.6 152.3 515.7 154.8 515.7 154.8Z" fill="#303030"/>
<path d="M519.5 160.1C519.3 160.2 519.2 160.2 519 160.3L518.9 159.6C519.5 159.5 519.7 159.1 519.7 158.8C519.7 158.4 519.5 158 519.3 157.9C519.2 157.8 519 157.9 518.9 158.1L518.3 157.6C518.8 156.9 519.4 157 519.6 157.1C520.2 157.3 520.6 158.1 520.5 158.8C520.4 159.4 520 159.9 519.5 160.1Z" fill="#D88B6C"/>
<path d="M519.7 142.9C519.7 142.9 520.1 147.9 516.4 151C516.4 151 517.9 147.9 518 145.9C518 145.9 515 151 512.2 151.5C509.4 152 505.4 153.5 505.4 153.5C505.4 153.5 507.2 141.4 519.2 140.6C531.2 139.8 533.8 147.3 531.6 155.5C531.6 155.5 526.8 153.5 525.9 148.7C525.9 148.7 527.1 152.3 520.7 150.9C520.9 150.9 522.2 147.1 519.7 142.9Z" fill="#1E0705"/>
<path d="M560 288.1C521.5 296.1 494.2 286 494.2 286L509.5 228.9L509.8 227.9L510.1 226.6L510.4 225.5L510.6 224.8L510.9 223.7L511.1 222.8L511.3 221.9L511.2 221.8C497.7 210 498.6 182.4 498.6 182.4C500.2 179.5 503.6 179.2 503.6 179.2C511.6 192 523.3 199.7 523.3 199.7C530.6 192.3 535.8 171.9 535.8 171.9C540.4 169.9 544.1 172.6 544.1 172.6C552.1 185.3 546.9 211.4 546 215.5C545.9 215.9 545.9 216 545.9 216C546.1 216.3 546.2 216.7 546.4 217.1C546.5 217.3 546.6 217.6 546.7 217.8C547 218.5 547.4 219.2 547.7 219.9C547.9 220.4 548.1 220.8 548.3 221.3C548.7 222.2 549.1 223.1 549.4 224C562 256 560 288.1 560 288.1Z" fill="#FCD9B4"/>
<path d="M546.4 217.1L545.6 216.4C545 215.9 544.9 216 544.6 216.2C543.9 216.5 543.2 216.8 541.8 215.4C541.3 214.9 541 214.8 540.8 214.8C540.6 214.8 540.3 215.1 540 215.4C539.5 216 538.7 216.9 537.3 216.6C536.3 216.4 536 216.8 535.6 217.2C535.1 217.7 534.5 218.4 533.1 217.6C532.4 217.2 531.8 217.4 530.9 217.9C529.9 218.4 528.8 218.9 527.3 217.9C526.9 217.6 526.8 217.7 526.8 217.7C526.7 217.7 526.5 218.1 526.4 218.3C526.1 218.8 525.8 219.5 525 219.7C524.4 219.9 523.7 219.7 522.8 219.2C521.4 218.4 521 219 520.3 219.9C519.6 220.8 518.7 222.1 516.6 221.2C515.2 220.6 514.9 221 514.3 221.7C513.8 222.3 513.1 222.9 511.8 222.9C511.6 222.9 511.3 222.9 511 222.8L511.2 221.9L511.1 221.8C512.4 222 512.9 221.5 513.5 220.9C514.1 220.2 515 219.3 517 220.2C518.4 220.8 518.8 220.2 519.5 219.2C520.2 218.3 521.1 217 523.3 218.2C523.9 218.6 524.4 218.7 524.8 218.6C525.1 218.5 525.3 218.1 525.6 217.7C525.8 217.2 526.1 216.7 526.7 216.5C527.1 216.4 527.5 216.5 528 216.9C529 217.6 529.7 217.2 530.6 216.8C531.5 216.4 532.5 215.9 533.7 216.6C534.4 217 534.5 216.8 534.9 216.4C535.3 215.9 536 215.1 537.6 215.5C538.5 215.7 538.9 215.2 539.4 214.6C539.8 214.2 540.2 213.7 540.9 213.7C541.4 213.7 542 214 542.6 214.6C543.6 215.6 543.9 215.5 544.2 215.3C544.7 215 545.2 214.8 546.1 215.5C546 215.9 546 216 546 216C546.1 216.3 546.3 216.7 546.4 217.1Z" fill="#D89060"/>
<path d="M548.3 221.3C548.1 221.1 547.9 220.9 547.6 220.6C547.1 220 546.6 219.5 546 219C544.9 218.1 543.8 218.5 543.1 218.7C542.4 218.9 542.1 219 541.7 218.7C540.8 217.9 540.1 218.4 539.7 218.7C539.3 219 539.1 219.2 538.4 218.8C537 218 536.1 219.2 535.5 220C534.7 221 534.6 221 534.3 220.8C533.4 220.1 532.7 220.4 532 220.6C531.2 220.9 530.5 221.2 529.2 220.3C528.4 219.8 527.7 219.8 527 220C527.7 219.4 528.1 219.3 528.6 219.7C529.9 220.7 530.9 220.1 531.8 219.7C532.6 219.3 533.1 219.1 533.8 219.4C534.6 219.8 535.1 219.6 535.4 219.3C535.7 219 536 218.6 536.2 218.2C536.4 217.8 536.6 217.4 536.9 217.3C537 217.3 537.2 217.4 537.5 217.5C538 217.9 538.5 218.1 538.9 218C539.4 217.9 539.7 217.5 539.9 217.2C540 217.1 540.1 216.8 540.2 216.8C540.2 216.8 540.4 216.8 540.9 217.2C542.3 218.4 543.2 218 543.8 217.7C544.2 217.5 544.5 217.4 545 217.6C545.8 218 546.9 218.9 547.6 219.7C547.3 219 547 218.3 546.6 217.6C546.2 217.3 545.8 217 545.4 216.8C544.4 216.3 543.8 216.6 543.3 216.9C542.7 217.2 542.4 217.3 541.4 216.6C540.9 216.1 540.4 216 540 216C539.5 216.1 539.2 216.5 539 216.8C538.9 217 538.7 217.2 538.6 217.2C538.6 217.2 538.4 217.2 537.9 216.9C537.4 216.5 536.9 216.4 536.5 216.5C535.8 216.7 535.5 217.3 535.2 217.9C535 218.2 534.9 218.6 534.7 218.7C534.6 218.8 534.5 218.9 534.2 218.7C533 218.1 532.1 218.6 531.3 219C530.4 219.4 530 219.7 529.2 219.1C527.9 218.2 526.9 219 526.1 219.6C525.2 220.3 524.5 220.9 523.4 220.3C521.7 219.4 520.8 220.3 520.1 221.1C519.4 221.8 518.9 222.3 517.8 222C515.2 221.2 514.3 222.6 513.5 223.6C513.3 223.9 513.1 224.3 512.8 224.5C512.7 224.6 512.6 224.7 512.4 224.6C512 224.6 511.4 224.2 511 223.7L510.7 224.8C511.2 225.2 511.8 225.5 512.4 225.6H512.5C512.9 225.6 513.3 225.5 513.5 225.2C513.8 224.9 514.1 224.5 514.4 224.1C515.1 223.1 515.7 222.3 517.6 222.9C519.4 223.4 520.3 222.5 521 221.7C521.7 221 522.1 220.6 523.1 221.1C524.1 221.7 524.9 221.5 525.6 221.2C525.5 221.3 525.4 221.4 525.3 221.5C524.2 222.6 523.8 222.8 523.2 222.4C521.9 221.4 520.8 222.3 519.9 222.9C518.9 223.7 518.2 224.1 517.2 223.6C516.6 223.2 516 223.2 515.5 223.3C514.7 223.6 514.3 224.6 513.9 225.4C513.7 226 513.4 226.7 513.1 226.7C512.3 226.7 511.3 225.9 510.6 225.3L510.3 226.4C511.1 227.1 512.1 227.7 513.1 227.7C513.7 227.7 514 227.3 514.3 226.9C514.3 227 514.2 227.1 514.2 227.2C513.9 227.8 513.6 228.4 513.1 228.6C512.3 229 511 228.3 510 227.7L509.7 228.7C510.5 229.2 511.6 229.7 512.5 229.7C512.8 229.7 513.2 229.6 513.5 229.5C514.3 229.1 514.7 228.3 515.1 227.6C515.4 227 515.8 226.4 516.2 226.3C516.5 226.2 517 226.3 517.6 226.7C518.3 227.2 519 227.3 519.5 227.1C520.3 226.9 520.6 226 520.9 225.4C521 225.1 521.3 224.6 521.4 224.5C521.4 224.5 521.5 224.5 521.8 224.6C523.3 225.6 524.5 224.7 525.2 224.1C525.4 223.9 525.7 223.7 525.8 223.7C525.9 223.8 526.1 224.1 526.6 224.1C527 224.1 527.2 223.7 527.4 223.4C527.5 223.2 527.6 223 527.8 223C527.9 223 528 223 528.3 223.2C529.4 224 530.3 223.5 531 223.2C531.6 222.8 532.1 222.6 532.9 223C535.2 224.2 536.4 223.5 537.6 221.8C538 221.3 538.5 221.3 539.3 221.5C540 221.6 541.1 221.8 541.6 220.7C541.7 220.5 541.7 220.5 541.7 220.5C541.8 220.4 542.3 220.7 542.5 220.8C543.2 221.1 544 221.5 544.9 221.2C545.2 221.1 546.2 221.8 546.9 222.3C547.7 222.9 548.7 223.6 549.6 223.9C549.1 223.2 548.7 222.2 548.3 221.3ZM541.1 219.8C540.8 219.9 540.6 220.2 540.4 220.6C540.3 220.9 540.2 221 539.2 220.8C538.4 220.6 537.3 220.4 536.5 221.5C535.4 223 534.8 223.3 533.1 222.4C531.9 221.8 530.9 222.3 530.3 222.7C529.6 223.1 529.3 223.2 528.7 222.8C528.2 222.4 527.8 222.3 527.4 222.4C526.9 222.5 526.6 223 526.4 223.3C526.4 223.3 526.4 223.3 526.4 223.4C525.8 222.7 525 223.4 524.5 223.8C523.7 224.5 523.1 224.8 522.3 224.3C521.9 224 521.5 223.9 521.1 224C520.5 224.2 520.2 224.8 519.9 225.4C519.7 225.9 519.4 226.5 519.1 226.6C518.8 226.7 518.3 226.5 518 226.3C517.1 225.8 516.4 225.6 515.8 225.8C515.1 226 514.7 226.5 514.4 227.1C514.5 226.8 514.7 226.5 514.8 226.2C515.1 225.5 515.4 224.8 515.8 224.6C516 224.5 516.3 224.6 516.7 224.8C518.4 225.7 519.6 224.8 520.6 224C521.6 223.2 522 223 522.7 223.5C524 224.5 525.2 223.4 526.1 222.5C527.2 221.4 527.9 220.8 529 221.5C530.7 222.6 531.9 222.2 532.7 221.9C533.3 221.7 533.6 221.6 534 221.9C535.1 222.8 536 221.7 536.6 220.9C537.4 219.9 537.7 219.6 538.3 219.9C539.6 220.6 540.3 220.1 540.8 219.7C541.2 219.4 541.2 219.4 541.5 219.6C541.6 219.7 541.7 219.7 541.7 219.8C541.3 219.7 541.2 219.7 541.1 219.8ZM544.3 220.5C543.8 220.7 543.3 220.4 542.7 220.1C542.6 220 542.5 220 542.4 220C542.8 220 543.1 219.9 543.4 219.8C544.1 219.6 544.7 219.4 545.4 219.9C545.9 220.3 546.4 220.8 546.9 221.4C547 221.5 547.1 221.6 547.2 221.7C546.1 220.8 545.2 220.1 544.3 220.5Z" fill="#D89060"/>
<path d="M531.4 172.2C531.4 172.2 530.8 179.1 534.4 185.9C541.5 199.2 542.1 215 542.1 215C548.4 213.4 552.9 217.5 552.9 217.5C552.9 217.5 552.7 191.3 544.9 171.2C544.9 171.1 538.1 170 531.4 172.2Z" fill="#D89060"/>
<path d="M509.1 178.4C509.1 178.4 512.1 185.5 507.4 198.9C503.8 209.4 501.9 225.7 501.9 225.7C497.7 227 496.5 230.3 496.5 230.3C493.4 209.9 500.8 212.3 496.6 181.9C496.6 181.8 502.3 177.3 509.1 178.4Z" fill="#D89060"/>
<path d="M509.1 178.4C509.1 178.4 504.4 176.3 501.2 181.9C501.2 181.9 506.6 187.3 508 193.2L501.9 197.8C501.9 197.8 503.4 203.9 503.6 213.1C503.5 213 514.6 186.6 509.1 178.4Z" fill="#C47F58"/>
<path d="M531.4 172.2C531.4 172.2 534.8 169.6 540.9 175.7C540.9 175.7 535.4 180.6 536.2 185.9C536.2 185.9 540.8 186.2 543.7 188.7C543.7 188.7 541.3 196.9 540.4 201C540.4 201 536.2 189.9 533.5 185.9C530.8 181.8 531.4 172.2 531.4 172.2Z" fill="#C47F58"/>
<path d="M477.9 196.5C477.9 196.5 474.3 209.4 468.3 209.6C468.3 209.6 470.9 234.6 480.3 235.6C480.3 235.6 486.2 225.3 484.2 216.1C482.3 206.9 480.9 207.9 480.9 207.9L477.9 196.5Z" fill="#C47F58"/>
<path d="M150.7 146.1C139 153.4 126.5 176.5 122.3 186.9C118.1 197.3 121.3 215.5 147.7 199.4C174.1 183.3 150.7 146.1 150.7 146.1Z" fill="#DCE6EA"/>
<path d="M219.1 148.1C219.1 148.1 245.1 170 248.1 188.5C251.1 207 234.2 212.3 220.8 189.4C207.4 166.5 219.1 148.1 219.1 148.1Z" fill="#DCE6EA"/>
<path d="M117.9 390.5C117.9 391.6 118 392.4 118 392.4H149.5C149.5 391.8 149.5 391.2 149.5 390.5C149.1 382.3 146.5 375.1 146.5 375.1L138.6 371.7C137.9 375.8 136.2 378.3 134 380C133.4 380.5 132.8 380.8 132.2 381.2C131.9 381.4 131.6 381.5 131.3 381.6C130.6 381.9 130 382.1 129.3 382.3C126.5 383.1 123.7 383.3 121.8 383.6C118.4 384.3 117.9 388.2 117.9 390.5Z" fill="#DCE6EA"/>
<path d="M117.9 390.5C117.9 391.6 118 392.4 118 392.4H149.5C149.5 391.8 149.5 391.2 149.5 390.5H117.9Z" fill="#C5D4D8"/>
<path d="M132.2 381.3L136.6 382.7L137.5 381.1L134 380.1C133.4 380.6 132.8 380.9 132.2 381.3Z" fill="#C5D4D8"/>
<path d="M129.301 382.4L132.201 384.4L134.001 383.7L131.301 381.7C130.601 382 129.901 382.2 129.301 382.4Z" fill="#C5D4D8"/>
<path d="M173.7 390.5C173.8 391.6 174.1 392.4 174.1 392.4H195.1C195.4 391.8 195.6 391.2 195.7 390.5C197.8 380.5 183.8 368.2 183.8 368.2L179.4 374.1C179.4 374.1 179.9 383.5 176.2 385.5C173.8 386.7 173.5 388.9 173.7 390.5Z" fill="#DCE6EA"/>
<path d="M195.6 390.5H173.7C173.8 391.6 174.1 392.4 174.1 392.4H195.1C195.3 391.8 195.5 391.2 195.6 390.5Z" fill="#C5D4D8"/>
<path d="M177 384.8C177 384.8 185.8 382.8 189.9 385.4V383.9C189.9 383.9 182.5 380.3 177 384.8Z" fill="#C5D4D8"/>
<path d="M178.801 382.5C178.801 382.5 184.401 379.9 189.901 382.5L189.301 381C189.301 381.1 182.701 378.6 178.801 382.5Z" fill="#C5D4D8"/>
<path d="M208.7 228.5C208.7 248.4 206.7 268.7 206.2 273.9C205.7 279 200.4 336.6 199.6 358.8C199.2 370.2 195.6 384 195.6 384C195.6 384 184.7 375.2 178.6 381.7L177.1 372.8L180 365.8C180 365.8 176.9 360 179.4 355.5C181.9 351 182.7 254.8 182.7 254.8L177.8 254.5L152.5 365.8V372.1C152.5 372.1 149.4 380.2 149.4 385.3L132.9 380L135.4 372.7L134.7 362.3L139.3 348.7C139.3 348.7 156.4 242.3 155.1 230.4L208.7 228.5Z" fill="#48B1E0"/>
<path d="M154.4 144.6C154.4 144.6 165.9 138.5 182.8 138.9C199.7 139.3 211 143.3 214 146.2C217 149 210 243.7 210 243.7C210 243.7 179.3 245.8 153 239.7C153 239.7 157 207.5 156.3 185.4C155.7 163.3 154.4 144.6 154.4 144.6Z" fill="#FFB878"/>
<path d="M176.6 130.6C176.6 130.6 178.2 137.2 175.8 139.8C175.8 139.8 179.8 146.2 188.8 139.7C188.8 139.7 187.1 135.4 188.8 132.5L176.6 130.6Z" fill="#773D37"/>
<path d="M194.201 118.8C194.201 118.8 197.601 115.4 198.001 119.4C198.501 124 194.301 125.8 193.501 124.4C192.701 122.9 194.201 118.8 194.201 118.8Z" fill="#8E4B42"/>
<path d="M170.5 119C170.5 119 167.1 115.6 166.7 119.6C166.2 124.2 170.4 126 171.2 124.6C172 123.1 170.5 119 170.5 119Z" fill="#8E4B42"/>
<path d="M182.7 135.4C190.2 135.4 194.5 130.5 194.5 115.7C194.5 108.1 190.6 103.4 182.2 103.4C173.8 103.4 170.2 108.1 170.2 115.7C170.2 131.6 174.9 135.4 182.7 135.4Z" fill="#8E4B42"/>
<path d="M172.7 121C172.6 121.8 173.2 122.5 174.2 122.7C175.1 122.9 176 122.4 176.2 121.6C176.3 120.8 175.7 120.1 174.7 119.9C173.7 119.7 172.8 120.2 172.7 121Z" fill="#6D3A35"/>
<path d="M188.201 121.4C188.301 122.2 189.101 122.7 190.001 122.7C191.001 122.6 191.701 122 191.601 121.2C191.501 120.4 190.701 119.9 189.801 119.9C188.901 120 188.101 120.6 188.201 121.4Z" fill="#6D3A35"/>
<path d="M175.1 113.2C175.2 113.2 175.3 113.2 175.4 113.1C176.6 112.2 178.4 112.5 178.4 112.5C178.6 112.5 178.8 112.4 178.8 112.2C178.8 112 178.7 111.8 178.5 111.8C178.4 111.8 176.3 111.4 174.9 112.5C174.7 112.6 174.7 112.9 174.8 113C174.9 113.1 175 113.2 175.1 113.2Z" fill="#303030"/>
<path d="M189.601 113.3C189.701 113.3 189.801 113.2 189.801 113.2C189.901 113 189.901 112.8 189.701 112.7C188.301 111.5 186.201 111.8 186.101 111.9C185.901 111.9 185.801 112.1 185.801 112.3C185.801 112.5 186.001 112.6 186.201 112.6C186.201 112.6 188.001 112.3 189.201 113.3C189.401 113.2 189.501 113.3 189.601 113.3Z" fill="#303030"/>
<path d="M175.9 117.5C175.9 118.4 176.3 119.2 176.8 119.2C177.3 119.2 177.7 118.4 177.7 117.5C177.7 116.6 177.3 115.8 176.8 115.8C176.3 115.8 175.9 116.5 175.9 117.5Z" fill="#303030"/>
<path d="M186 117.5C186 118.4 186.4 119.2 186.9 119.2C187.4 119.2 187.8 118.4 187.8 117.5C187.8 116.6 187.4 115.8 186.9 115.8C186.4 115.8 186 116.5 186 117.5Z" fill="#303030"/>
<path d="M191.2 107C191.2 107 186 106.6 174.4 105.8C174.4 105.8 170.2 110.2 170.5 121C170.5 121 163.8 101.5 183.4 101.5C203.1 101.5 194.2 120.5 194.2 120.5C194.2 120.5 194.8 110.7 191.2 107Z" fill="black"/>
<path d="M182.201 122.4L182.801 121.8L181.301 120.3C182.701 118.3 182.701 113.5 182.701 113.3H181.901C181.901 113.4 181.901 118.4 180.401 120L180.101 120.3L182.201 122.4Z" fill="#6D3A35"/>
<path d="M187.2 124.8C187.2 124.8 179.8 125.1 176 124.1C176 124.1 175.3 129.5 181.1 129.8C187.2 130.1 187.2 124.8 187.2 124.8Z" fill="#303030"/>
<path d="M173 108C173 108 169.7 105.1 170.2 101.6C170.7 98 178.4 95.3 185.1 96.7C185.1 96.7 188.7 94.8 193.4 97.9C198.1 100.9 201.3 109.9 197.1 115.5C197.1 115.5 198.1 106 192.6 109.2C192.6 109.1 184.1 104.5 173 108Z" fill="black"/>
<path d="M192.1 139.6C192.1 139.6 184.3 191.2 192.1 216.1C192.1 216.1 218.1 215.2 220.6 214.4C223.1 213.5 225.6 159.7 219.1 148.1C219.1 148.1 208.5 139.2 192.1 139.6Z" fill="#EA474F"/>
<path d="M245.8 201.5C243.4 205.5 235.6 210 228.8 211.5C225.8 212.2 222.9 212.2 220.8 211.3C220.8 211.3 219.7 200.2 213.3 194.1C213.3 194.1 213.6 193.3 214.4 192.2C216.2 189.8 220.8 186.1 231.5 187.2C246.9 188.8 249.2 195.8 245.8 201.5Z" fill="#DCE6EA"/>
<path d="M200.601 140.2C200.601 140.2 196.301 146.5 190.801 149.4C190.801 149.4 190.601 148.5 190.601 147.2C190.601 146.8 190.601 146.5 190.601 146C190.601 145.3 190.601 144.6 190.701 143.8C190.801 143.4 190.801 142.9 190.901 142.5C191.501 139.5 192.901 136.4 196.201 135C196.201 135 197.101 135.2 198.101 136C198.301 136.2 198.601 136.4 198.801 136.7C199.101 137.1 199.401 137.5 199.701 138C199.901 138.3 200.001 138.6 200.101 139C200.401 139.4 200.501 139.8 200.601 140.2Z" fill="#B72E48"/>
<path d="M200.201 139C198.201 141.3 195.001 144.4 190.601 147.2C190.601 146.8 190.601 146.5 190.601 146C194.901 143.2 198.001 140.1 199.801 138C199.901 138.3 200.101 138.6 200.201 139Z" fill="#DCE6EA"/>
<path d="M198.901 136.6C197.101 138.6 194.401 141.3 190.801 143.7C190.901 143.3 190.901 142.8 191.001 142.4C194.201 140.1 196.601 137.8 198.201 135.9C198.401 136.1 198.601 136.4 198.901 136.6Z" fill="#DCE6EA"/>
<path d="M220.801 217.9C220.801 218.2 220.801 218.6 220.801 218.9C220.801 219.8 220.601 220.5 220.401 220.6C219.601 220.9 193.301 222.6 193.301 222.6L193.001 220.9L192.801 219.9L192.501 218.3L192.301 217.3L192.101 216.1C201.601 214.4 220.601 214.4 220.601 214.4C220.601 214.4 220.601 214.8 220.701 215.3C220.701 215.6 220.701 215.9 220.801 216.3C220.801 216.8 220.801 217.3 220.801 217.9Z" fill="#B72E48"/>
<path d="M220.701 216.3C210.101 216.2 198.401 217.5 192.501 218.3L192.301 217.3C198.201 216.5 210.001 215.2 220.701 215.3C220.701 215.6 220.701 215.9 220.701 216.3Z" fill="#DCE6EA"/>
<path d="M220.801 217.9C220.801 218.2 220.801 218.6 220.801 218.9C210.501 218.8 199.001 220 193.001 220.8L192.801 219.8C198.901 219 210.401 217.8 220.801 217.9Z" fill="#DCE6EA"/>
<path d="M206.4 158.9L202.3 159.4L198 174.9H201.3L203 169.5L206.8 169.3L209.2 173.9L213.3 173.1L206.4 158.9ZM203.5 166.9L204.3 162.6L206.4 166.9H203.5Z" fill="#F3F7F9"/>
<path d="M173.4 139.6C173.4 139.6 177.3 191.4 169.7 216.3C169.7 216.3 148.3 215.4 146.3 214.6C144.3 213.8 144.8 157.7 150.7 146.1C150.7 146.1 159.9 139.2 173.4 139.6Z" fill="#EA474F"/>
<path d="M164.3 140.2C164.3 140.2 168.6 146.5 174 149.4C174 149.4 174.2 148.5 174.2 147.2C174.2 146.8 174.2 146.5 174.2 146C174.2 145.3 174.2 144.6 174.1 143.8C174 143.4 174 142.9 173.9 142.5C173.3 139.5 171.9 136.4 168.6 135C168.6 135 167.7 135.2 166.7 136C166.5 136.2 166.2 136.4 166 136.7C165.7 137.1 165.4 137.5 165.1 138C164.9 138.3 164.8 138.6 164.7 139C164.5 139.4 164.4 139.8 164.3 140.2Z" fill="#B72E48"/>
<path d="M164.6 139C166.6 141.3 169.8 144.4 174.2 147.2C174.2 146.8 174.2 146.5 174.2 146C169.9 143.2 166.8 140.1 165 138C164.9 138.3 164.8 138.6 164.6 139Z" fill="#DCE6EA"/>
<path d="M166 136.6C167.8 138.6 170.5 141.3 174.1 143.7C174 143.3 174 142.8 173.9 142.4C170.7 140.1 168.3 137.8 166.7 135.9C166.5 136.1 166.2 136.4 166 136.6Z" fill="#DCE6EA"/>
<path d="M146 218.1C146 218.4 146 218.8 146 219.1C146 220 146 220.7 146.2 220.8C146.8 221.1 168.4 222.8 168.4 222.8L168.8 221.1L169 220.1L169.3 218.5L169.5 217.5L169.7 216.3C162 214.6 146.3 214.6 146.3 214.6C146.3 214.6 146.3 215 146.2 215.5C146.2 215.8 146.1 216.1 146.1 216.5C146 217 146 217.5 146 218.1Z" fill="#B72E48"/>
<path d="M146.1 216.5C154.8 216.4 164.4 217.7 169.3 218.5L169.5 217.5C164.7 216.7 155 215.4 146.2 215.5C146.1 215.8 146.1 216.1 146.1 216.5Z" fill="#DCE6EA"/>
<path d="M146 218.1C146 218.4 146 218.8 146 219.1C154.5 219 163.9 220.2 168.8 221.1L169 220.1C164 219.3 154.5 218 146 218.1Z" fill="#DCE6EA"/>
<path d="M132.2 152.7C138.5 154.3 142.4 186.6 138.7 194.1C135 201.7 129.8 206.6 120.7 199.4C111.6 192.2 115.8 155.4 121.7 152.9C124.4 151.8 132.2 152.7 132.2 152.7Z" fill="#DCE6EA"/>
<path d="M132.3 151C132.3 151.7 132.3 152.3 132.2 152.8C132.1 153.3 132 153.7 131.9 154.1C131.1 156.3 129 156.4 126.1 156.5C123.6 156.6 122.3 155.9 121.9 154.3C121.8 153.8 121.7 153.3 121.7 152.6C121.7 152.2 121.7 151.8 121.8 151.3C121.8 150.9 121.9 150.5 122 150.1C122.2 149.4 122.4 148.6 122.6 147.7C123.1 146 128.2 145.6 128.2 145.6C129.7 145.5 131.9 145.8 132.1 147.5C132.2 148.3 132.3 149.1 132.3 149.8C132.3 150.3 132.3 150.7 132.3 151Z" fill="#B72E48"/>
<path d="M119.301 134.5C120.101 135.4 121.401 139 121.401 139C122.001 142 122.301 143.6 123.301 145C124.301 146.4 123.801 148.8 123.801 148.8C123.801 148.8 127.801 150.9 131.201 148.3C131.201 148.3 130.801 145.9 131.201 145.2C131.901 143.8 134.101 143.1 134.901 140.4C135.701 137.7 138.001 134.6 138.001 134.6C138.001 134.6 137.301 133.2 136.101 134C134.901 134.9 134.101 137.1 133.501 137.3C133.401 137.3 133.201 137.4 133.101 137.4C132.601 137.5 132.101 137.4 131.801 137.1C131.801 137.1 131.701 137.1 131.701 137C130.601 135.7 130.301 132 130.401 130.3C130.501 128 130.401 124.7 129.001 125.3C127.601 125.8 128.901 127.1 127.801 132.3L127.301 132.4C127.201 132.8 126.201 129.3 126.001 126C125.801 123.7 124.401 124.6 124.001 125.3C123.701 126 124.201 128.3 124.301 129.9C124.401 131 124.501 132.1 124.501 132.8L123.901 133.1C121.701 129.2 122.401 127.6 121.101 127.5C119.801 127.4 120.301 130.7 121.001 132C121.301 132.5 121.601 133.7 121.801 134.8C119.501 132.1 119.801 130.8 118.701 130.9C117.601 131 118.501 133.6 119.301 134.5Z" fill="#773D37"/>
<path d="M129.301 140.7C130.101 138.6 132.901 137.6 133.201 137.5C132.701 137.6 132.201 137.5 131.901 137.2C129.101 138.3 129.301 140.7 129.301 140.7Z" fill="#6D3A35"/>
<path d="M132.3 151C130.3 152 126.8 152.1 124.7 152.1C124.5 152.1 124.3 152.1 124.1 152.1C123.1 152.1 122.4 151.7 121.8 151.3C121.8 150.9 121.9 150.5 122 150.1C122.4 150.6 123.1 151.1 124.1 151.1C127.2 151.1 131 150.8 132.3 149.8C132.3 150.3 132.3 150.7 132.3 151Z" fill="#CFD8DC"/>
<path d="M132.201 152.8C132.101 153.3 132.001 153.7 131.901 154.1C129.901 154.9 126.601 155.1 124.601 155.1C124.401 155.1 124.201 155.1 124.001 155.1C123.101 155.1 122.401 154.8 121.801 154.3C121.701 153.8 121.601 153.3 121.601 152.6C122.001 153.3 122.701 154 124.001 154C127.001 154.1 130.801 153.8 132.201 152.8Z" fill="#CFD8DC"/>
<path d="M157.8 191.5C157.8 191.5 160.1 193.8 159.8 195.1C159.4 196.3 151.2 206.1 150.2 209.1L147.4 207.6C147.5 207.5 151.7 194.5 157.8 191.5Z" fill="#DCE6EA"/>
<path d="M228.8 211.5C225.8 212.2 222.9 212.2 220.8 211.3C220.8 211.3 219.7 200.2 213.3 194.1C213.3 194.1 213.6 193.3 214.4 192.2C218 194.9 230.8 204.9 228.8 211.5Z" fill="#C5D4D8"/>
<path d="M211.4 191.5C211.4 191.5 221.6 201 220.8 212C220.8 212 216.4 213.6 216.1 212C215.8 210.4 213.5 200.8 208.7 195.1C207.9 194.2 211.4 191.5 211.4 191.5Z" fill="#DCE6EA"/>
<path d="M466.6 119.1C465.9 124.9 462.9 132 459.1 139C458.1 140.8 457.1 142.6 456.1 144.3C454.8 146.5 453.4 148.6 452.1 150.7C450.9 152.6 449.6 154.4 448.5 156.1C444 162.6 440.4 167.1 440.4 167.1L429.7 135L437.6 124L439.9 120.8L442.2 117.6L444.5 114.3L447 110.9C447.6 94.1 445.2 68.1 451.5 66.5C451.5 66.5 459.3 65.6 462 66.8C467.8 69.2 469.2 96.6 466.6 119.1Z" fill="#3E92C6"/>
<path d="M451.4 64.7C451.4 65.4 451.4 66 451.5 66.5C451.6 67 451.7 67.4 451.8 67.8C452.6 70 454.7 70.1 457.6 70.2C460.1 70.3 461.4 69.6 461.8 68C461.9 67.5 462 67 462 66.3C462 65.9 462 65.5 461.9 65C461.9 64.6 461.8 64.2 461.7 63.8C461.5 63.1 461.3 62.3 461.1 61.4C460.6 59.7 455.5 59.3 455.5 59.3C454 59.2 451.8 59.5 451.6 61.2C451.5 62 451.4 62.8 451.4 63.5C451.4 64 451.4 64.3 451.4 64.7Z" fill="#4AAAD1"/>
<path d="M464.301 48.2C463.501 49.1 462.201 52.7 462.201 52.7C461.601 55.7 461.301 57.3 460.301 58.7C459.301 60.1 459.801 62.5 459.801 62.5C459.801 62.5 455.801 64.6 452.401 62C452.401 62 452.801 59.6 452.401 58.9C451.701 57.5 449.501 56.8 448.701 54.1C447.901 51.4 445.601 48.3 445.601 48.3C445.601 48.3 446.301 46.9 447.501 47.7C448.701 48.6 449.501 50.8 450.101 51C450.201 51 450.401 51.1 450.501 51.1C451.001 51.2 451.501 51.1 451.801 50.8C451.801 50.8 451.901 50.8 451.901 50.7C453.001 49.4 453.301 45.7 453.201 44C453.101 41.7 453.201 38.4 454.601 39C456.001 39.5 454.701 40.8 455.801 46L456.301 46.1C456.401 46.5 457.401 43 457.601 39.7C457.801 37.4 459.201 38.3 459.601 39C459.901 39.7 459.401 42 459.301 43.6C459.201 44.7 459.101 45.8 459.101 46.5L459.701 46.8C461.901 42.9 461.201 41.3 462.501 41.2C463.801 41.1 463.301 44.4 462.601 45.7C462.301 46.2 462.001 47.4 461.801 48.5C464.101 45.8 463.801 44.5 464.901 44.6C466.101 44.7 465.101 47.3 464.301 48.2Z" fill="#FFCBBB"/>
<path d="M454.401 54.3C453.601 52.2 450.801 51.2 450.501 51.1C451.001 51.2 451.501 51.1 451.801 50.8C454.501 52 454.401 54.3 454.401 54.3Z" fill="#EDBEB2"/>
<path d="M452.101 150.7C450.901 152.6 449.601 154.4 448.501 156.1C447.601 134.3 440.401 126.3 437.601 124L439.901 120.8C443.101 123.3 450.201 131.2 452.101 150.7Z" fill="#EFF7F9"/>
<path d="M459.1 139C458.1 140.8 457.1 142.6 456.1 144.3C453 125.5 444.1 118.7 442.2 117.5L444.5 114.2C447.1 115.9 455.2 122.5 459.1 139Z" fill="#EFF7F9"/>
<path d="M378.4 249.9C375 248.8 359.8 226.5 358.2 213.5C357.4 206.9 361 193.3 366 179.6C366.6 178 367.2 176.5 367.8 175C368.7 172.8 369.6 170.6 370.5 168.4C371.2 166.8 371.9 165.3 372.5 163.8C375.7 156.7 379 150.4 381.9 146.2L386 184.2L386.7 190.7L387.3 196.5L387.2 196.6L385.1 200L378.4 210.9C378.4 210.9 385.4 236.1 387.3 238.5C389.2 240.8 381.8 251 378.4 249.9Z" fill="#3E92C6"/>
<path d="M386.7 190.7C379.9 184.3 373.7 174.3 370.5 168.4C371.2 166.8 371.9 165.3 372.5 163.8C374.5 167.6 379.8 177.1 386 184.2L386.7 190.7Z" fill="#EFF7F9"/>
<path d="M387.2 196.6L385.1 200C376.8 194.5 370 185.7 366 179.6C366.6 178 367.2 176.5 367.8 175C371.2 180.4 378.4 190.7 387.2 196.6Z" fill="#EFF7F9"/>
<path d="M384.101 240.6C384.101 240.6 379.401 242.7 379.901 247.1L387.401 253.9L389.201 247.1L384.101 240.6Z" fill="#FFCBBB"/>
<path d="M478.1 390.5C478.1 391.6 478 392.4 478 392.4H446.5C446.5 391.8 446.5 391.2 446.5 390.5C446.9 382.3 449.5 375.1 449.5 375.1L457.4 371.7C458.1 375.8 459.8 378.3 462 380C462.6 380.5 463.2 380.8 463.8 381.2C464.1 381.4 464.4 381.5 464.7 381.6C465.4 381.9 466 382.1 466.7 382.3C469.5 383.1 472.3 383.3 474.2 383.6C477.6 384.3 478.1 388.2 478.1 390.5Z" fill="#EA474F"/>
<path d="M478.1 390.5C478.1 391.6 478 392.4 478 392.4H446.5C446.5 391.8 446.5 391.2 446.5 390.5H478.1Z" fill="#DCE6EA"/>
<path d="M463.8 381.3L459.4 382.7L458.5 381.1L462 380.1C462.6 380.6 463.2 380.9 463.8 381.3Z" fill="#DCE6EA"/>
<path d="M466.7 382.4L463.8 384.4L462 383.7L464.7 381.7C465.4 382 466 382.2 466.7 382.4Z" fill="#DCE6EA"/>
<path d="M422.301 390.5C422.201 391.6 421.901 392.4 421.901 392.4H400.901C400.601 391.8 400.401 391.2 400.301 390.5C398.201 380.5 412.201 368.2 412.201 368.2L416.601 374.1C416.601 374.1 416.101 383.5 419.801 385.5C422.201 386.7 422.401 388.9 422.301 390.5Z" fill="#EA474F"/>
<path d="M400.4 390.5H422.3C422.2 391.6 421.9 392.4 421.9 392.4H400.9C400.7 391.8 400.5 391.2 400.4 390.5Z" fill="#DCE6EA"/>
<path d="M419.001 384.8C419.001 384.8 410.201 382.8 406.101 385.4V383.9C406.101 383.9 413.501 380.3 419.001 384.8Z" fill="#DCE6EA"/>
<path d="M417.201 382.5C417.201 382.5 411.601 379.9 406.101 382.5L406.701 381C406.701 381.1 413.301 378.6 417.201 382.5Z" fill="#DCE6EA"/>
<path d="M387.301 228.5C387.301 248.4 389.301 268.7 389.801 273.9C390.301 279 395.601 336.6 396.401 358.8C396.801 370.2 400.401 384 400.401 384C400.401 384 411.301 375.2 417.401 381.7L418.901 372.8L416.001 365.8C416.001 365.8 419.101 360 416.601 355.5C414.101 351 413.301 254.8 413.301 254.8L418.201 254.5L443.501 365.8V372.1C443.501 372.1 446.601 380.2 446.601 385.3L463.101 380L460.601 372.7L461.301 362.3L456.701 348.7C456.701 348.7 439.601 242.3 440.901 230.4L387.301 228.5Z" fill="#303030"/>
<path d="M389.101 240.6C389.101 240.6 384.301 248.5 384.101 253.9L391.101 264.8L389.101 240.6Z" fill="#303030"/>
<path d="M436.301 130.6C436.301 130.6 433.701 137.4 415.301 138.3C398.401 139.1 384.901 143.3 381.901 146.1C378.901 148.9 386.701 242.3 386.701 242.3C400.901 241.3 416.601 257.2 442.901 251.1C442.901 251.1 438.901 207.4 439.601 185.3C440.301 163.3 436.301 130.6 436.301 130.6Z" fill="#EA474F"/>
<path d="M418.4 130.6C418.4 130.6 416.9 135.7 419.3 138.3C419.3 138.3 415.2 146.2 406.2 139.7C406.2 139.7 407.9 135.4 406.2 132.5L418.4 130.6Z" fill="#FFCBBB"/>
<path d="M400.701 117.8C400.701 117.8 397.301 114.4 396.901 118.4C396.401 123 400.601 124.8 401.401 123.4C402.201 121.9 400.701 117.8 400.701 117.8Z" fill="#FCD2C3"/>
<path d="M424.5 118C424.5 118 427.9 114.6 428.3 118.6C428.8 123.2 424.6 125 423.8 123.6C423 122.1 424.5 118 424.5 118Z" fill="#FCD2C3"/>
<path d="M412.301 134.4C404.801 134.4 400.501 129.5 400.501 114.7C400.501 107.1 404.401 102.4 412.801 102.4C421.201 102.4 424.801 107.1 424.801 114.7C424.801 130.6 420.101 134.4 412.301 134.4Z" fill="#FCD2C3"/>
<path d="M422.301 120C422.401 120.8 421.801 121.5 420.801 121.7C419.901 121.9 419.001 121.4 418.801 120.6C418.701 119.8 419.301 119.1 420.301 118.9C421.301 118.7 422.201 119.2 422.301 120Z" fill="#E8B277"/>
<path d="M406.8 120.4C406.7 121.2 405.9 121.7 405 121.7C404 121.6 403.3 121 403.4 120.2C403.5 119.4 404.3 118.9 405.2 118.9C406.1 119 406.9 119.6 406.8 120.4Z" fill="#E8B277"/>
<path d="M419.9 112.2C419.8 112.2 419.7 112.2 419.6 112.1C418.4 111.2 416.6 111.5 416.6 111.5C416.4 111.5 416.2 111.4 416.2 111.2C416.2 111 416.3 110.8 416.5 110.8C416.6 110.8 418.7 110.4 420.1 111.5C420.3 111.6 420.3 111.9 420.2 112C420 112.1 420 112.2 419.9 112.2Z" fill="#FCC683"/>
<path d="M405.4 112.3C405.3 112.3 405.2 112.2 405.2 112.2C405.1 112 405.1 111.8 405.3 111.7C406.7 110.5 408.8 110.8 408.9 110.9C409.1 110.9 409.2 111.1 409.2 111.3C409.2 111.5 409 111.6 408.8 111.6C408.8 111.6 407 111.3 405.8 112.3C405.6 112.2 405.5 112.3 405.4 112.3Z" fill="#FCC683"/>
<path d="M419.101 116.5C419.101 117.4 418.701 118.2 418.201 118.2C417.701 118.2 417.301 117.4 417.301 116.5C417.301 115.6 417.701 114.8 418.201 114.8C418.701 114.8 419.101 115.5 419.101 116.5Z" fill="#303030"/>
<path d="M409 116.5C409 117.4 408.6 118.2 408.1 118.2C407.6 118.2 407.2 117.4 407.2 116.5C407.2 115.6 407.6 114.8 408.1 114.8C408.6 114.8 409 115.5 409 116.5Z" fill="#303030"/>
<path d="M404.8 105C404.8 105 409 105.6 420.6 104.8C420.6 104.8 421.5 108.7 423.4 110.4C423.4 110.4 424.6 115.9 424.5 119.9C424.5 119.9 431.8 97.9 411.6 98.4C391 99 400.8 119.4 400.8 119.4C400.8 119.4 400.9 116.3 401.6 112.8C401.5 113 404.3 109.5 404.8 105Z" fill="#FCC683"/>
<path d="M412.8 121.4L412.2 120.8L413.7 119.3C412.3 117.3 412.3 112.5 412.3 112.3H413.1C413.1 112.4 413.1 117.4 414.6 119L414.9 119.3L412.8 121.4Z" fill="#E8B277"/>
<path d="M407.801 123.8C407.801 123.8 415.201 124.1 419.001 123.1C419.001 123.1 419.701 128.5 413.901 128.8C407.801 129.1 407.801 123.8 407.801 123.8Z" fill="#303030"/>
<path d="M436.101 126C430.601 133.8 423.001 136.1 423.001 136.1C423.001 136.1 424.701 143.8 414.401 144.5C404.901 145.2 402.701 138.9 402.701 138.9C402.701 138.9 387.901 141.4 383.101 144.6C378.301 147.8 377.101 214.3 379.901 220.9C382.701 227.5 393.401 234.4 418.301 232.7C443.201 231 444.701 222.9 444.201 219.4C443.701 215.9 445.901 172.7 444.301 157.2C441.601 132.6 436.101 126 436.101 126Z" fill="#4AAAD1"/>
<path d="M384.101 226.3V233.3C384.101 233.3 421.701 237.6 442.801 228.9L441.801 225.8C441.801 225.8 403.601 229.9 384.101 226.3Z" fill="#3E92C6"/>
<path d="M402.7 138.9C402.7 138.9 404.4 137.7 405 137.9C405 137.9 408.3 144.6 414.5 143.5C420.7 142.4 421.2 136.7 421.2 136.7C421.2 136.7 422.1 135.2 422.9 136.1C423.8 137 424.1 145.5 414.5 146C404.8 146.5 402.5 140.7 402.7 138.9Z" fill="#15709E"/>
<path d="M433.4 150.7L424.4 152.9L425.9 159.9C425.9 159.9 430.3 157.1 432.2 160C433.3 161.7 431.8 168 425.9 165.5V167.8C425.9 167.8 432.4 169.3 434.4 163.7C436.4 158.1 433 155.3 427.3 157.1L426.9 154.6L433.7 152.7L433.4 150.7Z" fill="#EFF7F9"/>
</svg>
